<svg width="100" height="100" viewBox="0 0 100 100" fill="none" xmlns="http://www.w3.org/2000/svg">
<path d="M50 0L52.9826 2.59373L56.2667 0.394264L58.9006 3.34135L62.4345 1.57084L64.6783 4.82482L68.4062 3.51118L70.2245 7.02071L74.0877 6.18467L75.4518 9.89442L79.3893 9.54915L80.2776 13.4006L84.2274 13.5516L84.626 17.484L88.5257 18.1288L88.4283 22.0802L92.2164 23.2087L91.6246 27.1167L95.2413 28.711L94.1644 32.5141L97.5528 34.5491L96.0077 38.1872L99.1144 40.6309L97.1254 44.0467L99.9013 46.8605L97.5 50L99.9013 53.1395L97.1254 55.9533L99.1144 59.3691L96.0077 61.8128L97.5528 65.4509L94.1644 67.4859L95.2413 71.289L91.6246 72.8833L92.2164 76.7913L88.4283 77.9198L88.5257 81.8712L84.626 82.516L84.2274 86.4484L80.2776 86.5994L79.3893 90.4509L75.4518 90.1056L74.0877 93.8153L70.2245 92.9793L68.4062 96.4888L64.6783 95.1752L62.4345 98.4292L58.9006 96.6586L56.2667 99.6057L52.9826 97.4063L50 100L47.0174 97.4063L43.7333 99.6057L41.0994 96.6586L37.5655 98.4292L35.3217 95.1752L31.5938 96.4888L29.7755 92.9793L25.9123 93.8153L24.5482 90.1056L20.6107 90.4509L19.7224 86.5994L15.7726 86.4484L15.374 82.516L11.4743 81.8712L11.5717 77.9198L7.7836 76.7913L8.37543 72.8833L4.75865 71.289L5.83562 67.4859L2.44717 65.4509L3.9923 61.8128L0.885639 59.3691L2.87455 55.9533L0.0986633 53.1395L2.5 50L0.0986633 46.8605L2.87455 44.0467L0.885639 40.6309L3.9923 38.1872L2.44717 34.5491L5.83562 32.5141L4.75865 28.711L8.37543 27.1167L7.7836 23.2087L11.5717 22.0802L11.4743 18.1288L15.374 17.484L15.7726 13.5516L19.7224 13.4006L20.6107 9.54915L24.5482 9.89442L25.9123 6.18467L29.7755 7.02071L31.5938 3.51118L35.3217 4.82482L37.5655 1.57084L41.0994 3.34135L43.7333 0.394264L47.0174 2.59373L50 0Z" fill="url(#paint0_linear)"/>
<circle cx="49.9996" cy="50.0001" r="45.358" stroke="url(#paint1_linear)"/>
<circle cx="50" cy="50" r="42.3994" stroke="url(#paint2_linear)"/>
<path d="M23.0371 28.9576C23.019 28.9848 22.7422 29.0484 22.2069 29.1482C21.6807 29.248 21.3178 29.316 21.1182 29.3523V28.2499C22.2251 27.9868 22.9827 27.5876 23.3909 27.0523H24.4933V38.076H23.0371V28.9576Z" fill="#4D0A05"/>
<path d="M29.2224 38.1985C28.3151 38.1985 27.6301 37.9036 27.1674 37.3138C26.7137 36.7241 26.4869 35.9347 26.4869 34.9458V30.1961C26.4869 29.189 26.7092 28.3996 27.1537 27.828C27.6074 27.2474 28.2969 26.957 29.2224 26.957C30.1388 26.957 30.8192 27.2474 31.2638 27.828C31.7175 28.3996 31.9443 29.189 31.9443 30.1961V34.9458C31.9443 35.9438 31.7175 36.7377 31.2638 37.3274C30.8102 37.9081 30.1297 38.1985 29.2224 38.1985ZM29.2224 37.0008C30.0571 37.0008 30.4745 36.3203 30.4745 34.9594V30.1825C30.4745 29.5564 30.3837 29.062 30.2023 28.699C30.0299 28.3271 29.7033 28.1411 29.2224 28.1411C28.7415 28.1411 28.4104 28.3271 28.2289 28.699C28.0474 29.062 27.9567 29.5564 27.9567 30.1825V34.9594C27.9567 36.3203 28.3786 37.0008 29.2224 37.0008Z" fill="#4D0A05"/>
<path d="M35.8448 38.1985C34.9375 38.1985 34.2525 37.9036 33.7897 37.3138C33.3361 36.7241 33.1093 35.9347 33.1093 34.9458V30.1961C33.1093 29.189 33.3316 28.3996 33.7761 27.828C34.2298 27.2474 34.9193 26.957 35.8448 26.957C36.7611 26.957 37.4416 27.2474 37.8862 27.828C38.3398 28.3996 38.5667 29.189 38.5667 30.1961V34.9458C38.5667 35.9438 38.3398 36.7377 37.8862 37.3274C37.4325 37.9081 36.7521 38.1985 35.8448 38.1985ZM35.8448 37.0008C36.6795 37.0008 37.0968 36.3203 37.0968 34.9594V30.1825C37.0968 29.5564 37.0061 29.062 36.8247 28.699C36.6523 28.3271 36.3256 28.1411 35.8448 28.1411C35.3639 28.1411 35.0327 28.3271 34.8513 28.699C34.6698 29.062 34.5791 29.5564 34.5791 30.1825V34.9594C34.5791 36.3203 35.001 37.0008 35.8448 37.0008Z" fill="#4D0A05"/>
<path d="M41.5689 32.9044C40.834 32.9044 40.2942 32.6821 39.9494 32.2375C39.6046 31.7929 39.4323 31.1624 39.4323 30.3458V29.4884C39.4323 28.6537 39.6001 28.0276 39.9358 27.6103C40.2715 27.1839 40.8159 26.9706 41.5689 26.9706C42.322 26.9706 42.8664 27.1748 43.2021 27.5831C43.5378 27.9914 43.7056 28.6038 43.7056 29.4203V30.3866C43.7056 31.2032 43.5332 31.8292 43.1885 32.2647C42.8528 32.6912 42.3129 32.9044 41.5689 32.9044ZM45.9104 27.0387H47.1624L44.1411 38.076H42.8755L45.9104 27.0387ZM41.5689 31.802C41.8865 31.802 42.0997 31.675 42.2086 31.4209C42.3265 31.1669 42.3855 30.8221 42.3855 30.3866V29.4203C42.3855 28.9848 42.3311 28.6537 42.2222 28.4269C42.1133 28.191 41.8956 28.073 41.5689 28.073C41.2423 28.073 41.0246 28.191 40.9157 28.4269C40.8159 28.6628 40.766 28.9985 40.766 29.434V30.4002C40.766 30.8357 40.8204 31.1805 40.9293 31.4345C41.0472 31.6795 41.2605 31.802 41.5689 31.802ZM48.4417 38.144C47.0263 38.144 46.3186 37.2912 46.3186 35.5854V34.728C46.3186 33.9024 46.482 33.2764 46.8086 32.8499C47.1443 32.4235 47.6887 32.2103 48.4417 32.2103C49.1948 32.2103 49.7392 32.4144 50.0749 32.8227C50.4106 33.231 50.5784 33.848 50.5784 34.6736V35.6263C50.5784 36.4519 50.406 37.0779 50.0612 37.5044C49.7255 37.9308 49.1857 38.144 48.4417 38.144ZM48.4417 37.0416C48.7593 37.0416 48.9725 36.9192 49.0814 36.6742C49.1993 36.4201 49.2583 36.0754 49.2583 35.6399V34.66C49.2583 34.2245 49.2039 33.8933 49.095 33.6665C48.9861 33.4306 48.7683 33.3127 48.4417 33.3127C48.1151 33.3127 47.8973 33.4306 47.7885 33.6665C47.6887 33.9024 47.6388 34.2381 47.6388 34.6736V35.6399C47.6388 36.0754 47.6932 36.4201 47.8021 36.6742C47.92 36.9192 48.1332 37.0416 48.4417 37.0416Z" fill="#4D0A05"/>
<path d="M54.2141 27.0523H56.9496C57.9022 27.0523 58.5918 27.3109 59.0182 27.828C59.4537 28.3452 59.6714 29.1028 59.6714 30.1008C59.6714 30.999 59.4401 31.6977 58.9774 32.1967C58.5146 32.6957 57.8432 32.9452 56.9632 32.9452H55.7519V38.076H54.2141V27.0523ZM56.4596 31.8428C56.9133 31.8428 57.2626 31.7929 57.5075 31.6931C57.7616 31.5933 57.943 31.4209 58.0519 31.176C58.1608 30.931 58.2152 30.5771 58.2152 30.1144C58.2152 29.5519 58.1744 29.1391 58.0928 28.876C58.0111 28.6128 57.8478 28.4269 57.6028 28.318C57.3669 28.2091 56.9904 28.1547 56.4732 28.1547H55.7519V31.8428H56.4596Z" fill="#4D0A05"/>
<path d="M63.1891 38.1985C62.4179 38.1985 61.8145 38.0442 61.379 37.7357C60.9526 37.4272 60.6577 36.9963 60.4944 36.4428C60.3311 35.8894 60.2494 35.1953 60.2494 34.3606V27.0523H61.7192V34.4286C61.7192 35.2633 61.8145 35.8985 62.005 36.334C62.2046 36.7695 62.5993 36.9872 63.1891 36.9872C63.7788 36.9872 64.1689 36.7695 64.3595 36.334C64.5591 35.8985 64.6589 35.2633 64.6589 34.4286V27.0523H66.1151V34.3606C66.1151 35.1953 66.0334 35.8894 65.8701 36.4428C65.7068 36.9963 65.4119 37.4272 64.9855 37.7357C64.5591 38.0442 63.9603 38.1985 63.1891 38.1985Z" fill="#4D0A05"/>
<path d="M67.3259 27.0523H69.5443C70.6602 27.0523 71.4768 27.2837 71.994 27.7464C72.5202 28.2 72.7833 28.944 72.7833 29.9783C72.7833 31.3937 72.3297 32.2511 71.4224 32.5505L72.9875 38.076H71.504L70.0614 32.9044H68.8638V38.076H67.3259V27.0523ZM69.449 31.802C70.1113 31.802 70.5831 31.6704 70.8644 31.4073C71.1547 31.1442 71.2999 30.6679 71.2999 29.9783C71.2999 29.5247 71.25 29.1708 71.1502 28.9168C71.0504 28.6537 70.8735 28.4631 70.6194 28.3452C70.3654 28.2182 70.007 28.1547 69.5443 28.1547H68.8638V31.802H69.449Z" fill="#4D0A05"/>
<path d="M73.9749 27.0523H78.2483V28.1955H75.5128V31.8428H77.7311V32.9316H75.5128V36.9736H78.2755V38.076H73.9749V27.0523Z" fill="#4D0A05"/>
<path d="M33.7045 68.4563C30.8643 68.4563 28.8643 67.6161 27.7045 65.9356C26.5447 64.2315 25.9648 61.8883 25.9648 58.906V48.7522C25.9648 45.6042 26.5329 43.2137 27.669 41.5806C28.8051 39.9474 30.8169 39.1309 33.7045 39.1309C36.2844 39.1309 38.1305 39.8291 39.243 41.2255C40.379 42.622 40.9471 44.6812 40.9471 47.403V49.6752H37.1483V47.6516C37.1483 46.3261 37.0891 45.3084 36.9708 44.5983C36.8524 43.8883 36.5447 43.3202 36.0477 42.8942C35.5743 42.4681 34.8051 42.2551 33.74 42.2551C32.6512 42.2551 31.8347 42.4918 31.2903 42.9652C30.7696 43.4149 30.4264 44.0539 30.2607 44.8823C30.095 45.6871 30.0122 46.7758 30.0122 48.1486V59.5451C30.0122 61.0125 30.1305 62.1604 30.3672 62.9888C30.6039 63.8172 30.9826 64.409 31.5033 64.764C32.0477 65.119 32.7932 65.2965 33.74 65.2965C34.7577 65.2965 35.5151 65.0717 36.0122 64.622C36.5092 64.1723 36.8169 63.5569 36.9353 62.7758C37.0773 61.9948 37.1483 60.9297 37.1483 59.5806V57.4504H40.9471V59.5806C40.9471 62.4445 40.4027 64.6457 39.314 66.1841C38.2489 67.6989 36.379 68.4563 33.7045 68.4563Z" fill="#4D0A05"/>
<path d="M42.4612 39.3794H49.0648C51.6683 39.3794 53.5973 39.9711 54.8518 41.1545C56.1062 42.3143 56.7334 44.1249 56.7334 46.5865C56.7334 50.2551 55.3606 52.2788 52.6151 52.6575C54.3192 53.0599 55.5618 53.8646 56.3429 55.0717C57.124 56.2551 57.5145 57.8764 57.5145 59.9356C57.5145 62.5155 56.8991 64.5273 55.6683 65.9711C54.4612 67.4149 52.6151 68.1368 50.1299 68.1368H42.4612V39.3794ZM48.8518 51.3794C50.5086 51.3794 51.6565 51.0244 52.2956 50.3143C52.9346 49.5806 53.2541 48.338 53.2541 46.5865C53.2541 45.3084 53.053 44.3735 52.6506 43.7817C52.2719 43.1664 51.692 42.7758 50.9109 42.6101C50.1299 42.4445 48.9701 42.3616 47.4317 42.3616H46.4731V51.3794H48.8518ZM49.1713 65.261C50.3547 65.261 51.266 65.0835 51.905 64.7285C52.5678 64.3498 53.0293 63.7817 53.2896 63.0244C53.55 62.267 53.6802 61.2374 53.6802 59.9356C53.6802 58.0894 53.3015 56.7167 52.5441 55.8173C51.7867 54.8942 50.5559 54.4326 48.8518 54.4326H46.4731V65.261H49.1713Z" fill="#4D0A05"/>
<path d="M58.7718 39.3794H65.0203C68.1209 39.3794 70.3103 40.0894 71.5884 41.5096C72.8901 42.9297 73.541 45.1427 73.541 48.1486V58.7285C73.541 61.9001 72.902 64.267 71.6239 65.8291C70.3694 67.3675 68.2748 68.1368 65.3398 68.1368H58.7718V39.3794ZM65.0558 65.261C66.4523 65.261 67.4582 64.9888 68.0736 64.4445C68.7126 63.9001 69.1032 63.1664 69.2452 62.2433C69.4109 61.2965 69.4937 59.8764 69.4937 57.9829V48.6457C69.4937 47.0125 69.3872 45.7699 69.1742 44.9178C68.9848 44.0421 68.5706 43.403 67.9316 43.0007C67.2925 42.5746 66.2984 42.3616 64.9493 42.3616H62.7836V65.261H65.0558Z" fill="#4D0A05"/>
<path d="M45.1371 83.9323C43.7288 83.9323 42.717 83.5358 42.1016 82.7429C41.4981 81.9382 41.1963 80.7784 41.1963 79.2636V73.8139C41.1963 72.3228 41.504 71.1926 42.1194 70.4234C42.7348 69.6541 43.7407 69.2695 45.1371 69.2695C46.5336 69.2695 47.5336 69.6601 48.1371 70.4411C48.7525 71.2104 49.0602 72.3346 49.0602 73.8139V79.2814C49.0602 80.7725 48.7525 81.9204 48.1371 82.7252C47.5217 83.5299 46.5217 83.9323 45.1371 83.9323ZM45.1371 82.3524C45.8827 82.3524 46.3856 82.1334 46.646 81.6956C46.9063 81.2577 47.0365 80.595 47.0365 79.7074V73.4056C47.0365 72.5299 46.9063 71.8849 46.646 71.4707C46.3856 71.0447 45.8827 70.8317 45.1371 70.8317C44.3797 70.8317 43.8708 71.0447 43.6105 71.4707C43.3501 71.8849 43.22 72.5299 43.22 73.4056V79.7074C43.22 80.595 43.3501 81.2577 43.6105 81.6956C43.8708 82.1334 44.3797 82.3524 45.1371 82.3524Z" fill="#4D0A05"/>
<path d="M49.9844 69.3938H51.9548V83.7725H49.9844V69.3938Z" fill="#4D0A05"/>
<path d="M53.1272 69.3938H55.1331V82.3346H58.8077V83.7725H53.1272V69.3938Z" fill="#4D0A05"/>
<defs>
<linearGradient id="paint0_linear" x1="19.5266" y1="2.36686" x2="68.0473" y2="102.071" gradientUnits="userSpaceOnUse">
<stop stop-color="#ECA244"/>
<stop offset="0.181337" stop-color="#FFD87D"/>
<stop offset="0.295296" stop-color="#FCE570"/>
<stop offset="0.741325" stop-color="#F4B144"/>
<stop offset="0.852761" stop-color="#F9C847"/>
<stop offset="0.919444" stop-color="#FCE570"/>
</linearGradient>
<linearGradient id="paint1_linear" x1="49.9996" y1="4.14209" x2="49.9996" y2="95.8581" gradientUnits="userSpaceOnUse">
<stop stop-color="#DE6E33"/>
<stop offset="1" stop-color="#DFB74D"/>
</linearGradient>
<linearGradient id="paint2_linear" x1="50" y1="7.10059" x2="50" y2="92.8994" gradientUnits="userSpaceOnUse">
<stop stop-color="#DE6E33"/>
<stop offset="1" stop-color="#DFB74D"/>
</linearGradient>
</defs>
</svg>
