<svg width="725" height="112" viewBox="0 0 725 112" fill="none" xmlns="http://www.w3.org/2000/svg">
<mask id="mask0" mask-type="alpha" maskUnits="userSpaceOnUse" x="0" y="0" width="725" height="112">
<rect width="725" height="112" fill="#C4C4C4"/>
</mask>
<g mask="url(#mask0)">
<circle cx="141.629" cy="56.5" r="24.629" stroke="#999999" stroke-width="8"/>
<path d="M124.795 54.6964C123.993 53.324 124.661 52.3258 126.132 52.3258C129.662 52.1262 136.072 58.7306 138.835 62.0578C139.584 59.5624 144.139 52.1179 146.323 48.7075H147.928V46.8359H149.532V44.7149H151.672V42.469H153.811V40.7222H155.951V38.2268H159.695V36.3553H157.288V34.2342H159.695V36.3553H160.898V32.1131H163.305V29.8673H168.119V27.871H170.258V29.8673H168.119V32.1131H163.305V36.3553H160.898V38.2268H159.695V40.7222H161.7V38.2268H164.107V36.3553H166.113V34.2342H168.654V36.3553H166.113V38.2268H164.107V42.469H162.101V44.2158H160.898V46.0873H158.491V48.7075H156.084V51.2029H154.079V53.324H152.073V55.5698H150.201V58.0652C148.953 59.9367 146.27 64.0042 145.521 65.3018C144.585 66.9238 143.381 70.2926 142.846 71.4155C142.419 72.3139 141.866 72.9544 141.643 73.1623C141.42 73.3703 140.547 73.7612 138.835 73.6614C137.123 73.5616 136.25 72.1226 136.027 71.4155L134.155 67.2981C133.219 65.4682 130.785 61.6835 129.609 60.1863C128.138 58.3147 125.597 56.0689 124.795 54.6964Z" fill="black"/>
<path d="M181.915 74.6006C181.915 75.9951 181.602 77.1047 180.977 77.9292C180.357 78.7537 179.502 79.166 178.412 79.166C177.361 79.166 176.542 78.7869 175.955 78.0288L175.855 79H174.029V66.25H176.046V70.8818C176.627 70.1956 177.41 69.8525 178.396 69.8525C179.491 69.8525 180.352 70.2593 180.977 71.0728C181.602 71.8862 181.915 73.0234 181.915 74.4844V74.6006ZM179.898 74.4263C179.898 73.4523 179.726 72.7218 179.383 72.2349C179.04 71.7479 178.542 71.5044 177.889 71.5044C177.015 71.5044 176.401 71.8862 176.046 72.6499V76.3521C176.406 77.1323 177.026 77.5225 177.906 77.5225C178.537 77.5225 179.024 77.2873 179.367 76.8169C179.71 76.3465 179.887 75.6354 179.898 74.6836V74.4263ZM186.655 76.1113L188.481 70.0186H190.631L187.062 80.3613C186.514 81.8721 185.584 82.6274 184.272 82.6274C183.979 82.6274 183.655 82.5776 183.301 82.478V80.9175L183.683 80.9424C184.192 80.9424 184.574 80.8483 184.829 80.6602C185.089 80.4775 185.293 80.1676 185.443 79.7305L185.733 78.9585L182.579 70.0186H184.754L186.655 76.1113ZM202.542 75.8872C202.542 75.356 202.354 74.9465 201.978 74.6587C201.607 74.3709 200.935 74.0804 199.961 73.7871C198.987 73.4938 198.212 73.1673 197.637 72.8076C196.535 72.1159 195.985 71.2139 195.985 70.1016C195.985 69.1276 196.381 68.3252 197.172 67.6943C197.969 67.0635 199.001 66.748 200.268 66.748C201.109 66.748 201.859 66.903 202.518 67.2129C203.176 67.5228 203.694 67.9655 204.07 68.541C204.446 69.111 204.634 69.7446 204.634 70.4419H202.542C202.542 69.811 202.343 69.3185 201.945 68.9644C201.552 68.6047 200.987 68.4248 200.251 68.4248C199.565 68.4248 199.031 68.5715 198.649 68.8647C198.273 69.158 198.085 69.5675 198.085 70.0933C198.085 70.536 198.29 70.9067 198.699 71.2056C199.109 71.4989 199.784 71.7866 200.725 72.0688C201.665 72.3455 202.421 72.6637 202.991 73.0234C203.561 73.3776 203.979 73.7871 204.244 74.252C204.51 74.7113 204.643 75.2508 204.643 75.8706C204.643 76.8778 204.255 77.6802 203.48 78.2778C202.711 78.87 201.665 79.166 200.343 79.166C199.468 79.166 198.663 79.0055 197.927 78.6846C197.197 78.3581 196.627 77.9098 196.217 77.3398C195.813 76.7699 195.611 76.1058 195.611 75.3477H197.711C197.711 76.0339 197.938 76.5651 198.392 76.9414C198.846 77.3177 199.496 77.5059 200.343 77.5059C201.073 77.5059 201.621 77.3592 201.986 77.0659C202.357 76.7671 202.542 76.3742 202.542 75.8872ZM209.432 76.1113L211.258 70.0186H213.408L209.839 80.3613C209.291 81.8721 208.361 82.6274 207.05 82.6274C206.757 82.6274 206.433 82.5776 206.079 82.478V80.9175L206.46 80.9424C206.97 80.9424 207.351 80.8483 207.606 80.6602C207.866 80.4775 208.071 80.1676 208.22 79.7305L208.511 78.9585L205.356 70.0186H207.531L209.432 76.1113ZM216.471 70.0186L216.529 70.9565C217.16 70.2205 218.023 69.8525 219.119 69.8525C220.32 69.8525 221.142 70.3118 221.584 71.2305C222.237 70.3118 223.156 69.8525 224.34 69.8525C225.331 69.8525 226.067 70.1265 226.548 70.6743C227.035 71.2222 227.284 72.0301 227.295 73.0981V79H225.278V73.1562C225.278 72.5863 225.154 72.1685 224.905 71.9028C224.656 71.6372 224.243 71.5044 223.668 71.5044C223.209 71.5044 222.832 71.6289 222.539 71.8779C222.251 72.1214 222.049 72.4424 221.933 72.8408L221.941 79H219.924V73.0898C219.897 72.0329 219.357 71.5044 218.306 71.5044C217.498 71.5044 216.925 71.8337 216.587 72.4922V79H214.57V70.0186H216.471ZM234.733 79C234.644 78.8285 234.567 78.549 234.5 78.1616C233.859 78.8312 233.073 79.166 232.143 79.166C231.241 79.166 230.505 78.9087 229.935 78.394C229.365 77.8794 229.08 77.243 229.08 76.4849C229.08 75.5275 229.434 74.7943 230.143 74.2852C230.856 73.7705 231.875 73.5132 233.197 73.5132H234.434V72.9238C234.434 72.459 234.304 72.0882 234.044 71.8115C233.784 71.5293 233.388 71.3882 232.857 71.3882C232.398 71.3882 232.021 71.5044 231.728 71.7368C231.435 71.9637 231.288 72.2542 231.288 72.6084H229.271C229.271 72.1159 229.434 71.6566 229.761 71.2305C230.087 70.7988 230.53 70.4613 231.089 70.2178C231.653 69.9743 232.281 69.8525 232.973 69.8525C234.025 69.8525 234.863 70.1182 235.488 70.6494C236.114 71.1751 236.435 71.9167 236.451 72.874V76.9248C236.451 77.7327 236.565 78.3774 236.792 78.8589V79H234.733ZM232.517 77.5474C232.915 77.5474 233.289 77.4505 233.637 77.2568C233.991 77.0632 234.257 76.8031 234.434 76.4766V74.7832H233.347C232.6 74.7832 232.038 74.9132 231.662 75.1733C231.285 75.4334 231.097 75.8014 231.097 76.2773C231.097 76.6647 231.224 76.9746 231.479 77.207C231.739 77.4339 232.085 77.5474 232.517 77.5474ZM240.436 70.0186L240.494 71.0562C241.158 70.2537 242.029 69.8525 243.108 69.8525C244.979 69.8525 245.931 70.9233 245.964 73.0649V79H243.947V73.1812C243.947 72.6112 243.822 72.1906 243.573 71.9194C243.33 71.6427 242.929 71.5044 242.37 71.5044C241.556 71.5044 240.95 71.8724 240.552 72.6084V79H238.535V70.0186H240.436ZM250.554 67.8354V70.0186H252.14V71.5127H250.554V76.5264C250.554 76.8695 250.621 77.1185 250.753 77.2734C250.892 77.4229 251.135 77.4976 251.484 77.4976C251.716 77.4976 251.951 77.4699 252.189 77.4146V78.9751C251.73 79.1024 251.287 79.166 250.861 79.166C249.312 79.166 248.537 78.311 248.537 76.6011V71.5127H247.06V70.0186H248.537V67.8354H250.554ZM257.643 79.166C256.365 79.166 255.327 78.7648 254.53 77.9624C253.739 77.1545 253.343 76.0809 253.343 74.7417V74.4927C253.343 73.5962 253.515 72.7965 253.858 72.0938C254.207 71.3854 254.694 70.8348 255.319 70.4419C255.944 70.049 256.641 69.8525 257.411 69.8525C258.634 69.8525 259.577 70.2427 260.241 71.0229C260.911 71.8032 261.246 72.9072 261.246 74.335V75.1484H255.377C255.438 75.89 255.684 76.4766 256.116 76.9082C256.553 77.3398 257.101 77.5557 257.759 77.5557C258.683 77.5557 259.436 77.1821 260.017 76.4351L261.104 77.4727C260.745 78.0094 260.263 78.4272 259.66 78.7261C259.062 79.0194 258.39 79.166 257.643 79.166ZM257.402 71.4712C256.849 71.4712 256.401 71.6649 256.058 72.0522C255.72 72.4396 255.504 72.9792 255.41 73.6709H259.253V73.5215C259.209 72.8464 259.029 72.3372 258.714 71.9941C258.398 71.6455 257.961 71.4712 257.402 71.4712ZM266.508 77.5557C267.012 77.5557 267.43 77.409 267.762 77.1157C268.094 76.8224 268.271 76.46 268.293 76.0283H270.194C270.172 76.5872 269.997 77.1102 269.671 77.5972C269.344 78.0786 268.902 78.4604 268.343 78.7427C267.784 79.0249 267.181 79.166 266.533 79.166C265.277 79.166 264.281 78.7593 263.545 77.9458C262.809 77.1323 262.441 76.009 262.441 74.5757V74.3682C262.441 73.0013 262.806 71.9084 263.537 71.0894C264.267 70.2648 265.263 69.8525 266.525 69.8525C267.593 69.8525 268.462 70.1652 269.131 70.7905C269.806 71.4103 270.161 72.2266 270.194 73.2393H268.293C268.271 72.7246 268.094 72.3013 267.762 71.9692C267.435 71.6372 267.017 71.4712 266.508 71.4712C265.855 71.4712 265.352 71.7091 264.998 72.1851C264.643 72.6554 264.464 73.3721 264.458 74.335V74.6587C264.458 75.6326 264.632 76.3604 264.981 76.8418C265.335 77.3177 265.844 77.5557 266.508 77.5557Z" fill="#999999"/>
<path d="M193.719 61H188.266L180.203 46.8438V61H174.719V38.25H180.203L188.25 52.4062V38.25H193.719V61ZM196.281 52.3906C196.281 50.7031 196.609 49.2031 197.266 47.8906C197.922 46.5677 198.865 45.5521 200.094 44.8438C201.323 44.1354 202.766 43.7812 204.422 43.7812C206.953 43.7812 208.948 44.5677 210.406 46.1406C211.865 47.7031 212.594 49.8333 212.594 52.5312V52.7188C212.594 55.3542 211.859 57.4479 210.391 59C208.932 60.5417 206.953 61.3125 204.453 61.3125C202.047 61.3125 200.115 60.5938 198.656 59.1562C197.198 57.7083 196.411 55.75 196.297 53.2812L196.281 52.3906ZM201.547 52.7188C201.547 54.2812 201.792 55.4271 202.281 56.1562C202.771 56.8854 203.495 57.25 204.453 57.25C206.328 57.25 207.286 55.8073 207.328 52.9219V52.3906C207.328 49.3594 206.359 47.8438 204.422 47.8438C202.661 47.8438 201.708 49.151 201.562 51.7656L201.547 52.7188ZM225.141 48.8594L223.406 48.7344C221.75 48.7344 220.688 49.2552 220.219 50.2969V61H214.953V44.0938H219.891L220.062 46.2656C220.948 44.6094 222.182 43.7812 223.766 43.7812C224.328 43.7812 224.818 43.8438 225.234 43.9688L225.141 48.8594ZM233.953 39.8906V44.0938H236.734V47.75H233.953V55.4844C233.953 56.1198 234.068 56.5625 234.297 56.8125C234.526 57.0625 234.979 57.1875 235.656 57.1875C236.177 57.1875 236.615 57.1562 236.969 57.0938V60.8594C236.021 61.1615 235.031 61.3125 234 61.3125C232.188 61.3125 230.849 60.8854 229.984 60.0312C229.12 59.1771 228.688 57.8802 228.688 56.1406V47.75H226.531V44.0938H228.688V39.8906H233.953ZM237.688 52.3906C237.688 50.7031 238.016 49.2031 238.672 47.8906C239.328 46.5677 240.271 45.5521 241.5 44.8438C242.729 44.1354 244.172 43.7812 245.828 43.7812C248.359 43.7812 250.354 44.5677 251.812 46.1406C253.271 47.7031 254 49.8333 254 52.5312V52.7188C254 55.3542 253.266 57.4479 251.797 59C250.339 60.5417 248.359 61.3125 245.859 61.3125C243.453 61.3125 241.521 60.5938 240.062 59.1562C238.604 57.7083 237.818 55.75 237.703 53.2812L237.688 52.3906ZM242.953 52.7188C242.953 54.2812 243.198 55.4271 243.688 56.1562C244.177 56.8854 244.901 57.25 245.859 57.25C247.734 57.25 248.693 55.8073 248.734 52.9219V52.3906C248.734 49.3594 247.766 47.8438 245.828 47.8438C244.068 47.8438 243.115 49.151 242.969 51.7656L242.953 52.7188ZM261.156 44.0938L261.328 46.0781C262.495 44.5469 264.104 43.7812 266.156 43.7812C267.917 43.7812 269.229 44.3073 270.094 45.3594C270.969 46.4115 271.422 47.9948 271.453 50.1094V61H266.172V50.3281C266.172 49.474 266 48.849 265.656 48.4531C265.312 48.0469 264.688 47.8438 263.781 47.8438C262.75 47.8438 261.984 48.25 261.484 49.0625V61H256.219V44.0938H261.156Z" fill="black"/>
<path d="M270.474 65.355H273.557V65.77H272.263V69H271.768V65.77H270.474V65.355ZM273.686 65.355H274.421L275.351 67.8354L276.286 65.355H277.021V69H276.54V65.7993L275.6 68.2993H275.104L274.164 65.7993V69H273.686V65.355Z" fill="#56575B"/>
<rect x="465" y="35" width="42" height="42" rx="4" fill="#999999"/>
<path d="M513.571 44.6204H509.083V41.9759H521.305V44.6204H516.817V56H513.571V44.6204Z" fill="#222222"/>
<path d="M531.185 56L528.48 52.0933H525.495V56H522.249V41.9759H528.32C529.562 41.9759 530.637 42.1829 531.545 42.5969C532.467 43.011 533.175 43.5986 533.669 44.36C534.163 45.1213 534.41 46.0228 534.41 47.0646C534.41 48.1064 534.157 49.008 533.649 49.7693C533.155 50.5172 532.447 51.0915 531.525 51.4922L534.671 56H531.185ZM531.125 47.0646C531.125 46.2766 530.871 45.6756 530.363 45.2615C529.856 44.8341 529.115 44.6204 528.14 44.6204H525.495V49.5088H528.14C529.115 49.5088 529.856 49.2951 530.363 48.8677C530.871 48.4403 531.125 47.8393 531.125 47.0646Z" fill="#222222"/>
<path d="M542.411 56.2404C540.408 56.2404 538.845 55.6861 537.723 54.5775C536.615 53.469 536.06 51.8862 536.06 49.8294V41.9759H539.306V49.7092C539.306 52.2202 540.348 53.4756 542.431 53.4756C543.446 53.4756 544.221 53.1751 544.755 52.5741C545.289 51.9597 545.557 51.0047 545.557 49.7092V41.9759H548.762V49.8294C548.762 51.8862 548.201 53.469 547.079 54.5775C545.971 55.6861 544.415 56.2404 542.411 56.2404Z" fill="#222222"/>
<path d="M555.776 56.2404C554.667 56.2404 553.592 56.0935 552.55 55.7997C551.522 55.4925 550.694 55.0984 550.066 54.6176L551.168 52.1734C551.769 52.6142 552.484 52.9681 553.312 53.2352C554.14 53.5024 554.968 53.6359 555.796 53.6359C556.718 53.6359 557.399 53.5024 557.839 53.2352C558.28 52.9548 558.501 52.5875 558.501 52.1333C558.501 51.7994 558.367 51.5256 558.1 51.3119C557.846 51.0849 557.512 50.9046 557.098 50.771C556.697 50.6374 556.15 50.4905 555.455 50.3302C554.387 50.0765 553.512 49.8227 552.831 49.5689C552.15 49.3152 551.562 48.9078 551.068 48.3468C550.587 47.7859 550.347 47.0379 550.347 46.103C550.347 45.2882 550.567 44.5536 551.008 43.8992C551.448 43.2314 552.11 42.7038 552.991 42.3164C553.886 41.9291 554.975 41.7354 556.257 41.7354C557.152 41.7354 558.026 41.8423 558.881 42.056C559.736 42.2697 560.484 42.5769 561.125 42.9776L560.123 45.4418C558.828 44.7072 557.532 44.3399 556.237 44.3399C555.328 44.3399 554.654 44.4868 554.213 44.7807C553.786 45.0745 553.572 45.4619 553.572 45.9427C553.572 46.4235 553.819 46.7841 554.313 47.0245C554.821 47.2516 555.589 47.4787 556.617 47.7057C557.686 47.9595 558.561 48.2133 559.242 48.467C559.923 48.7208 560.504 49.1215 560.985 49.6691C561.479 50.2167 561.726 50.958 561.726 51.8929C561.726 52.6943 561.499 53.4289 561.045 54.0967C560.604 54.7512 559.936 55.2721 559.042 55.6594C558.147 56.0467 557.058 56.2404 555.776 56.2404Z" fill="#222222"/>
<path d="M565.852 44.6204H561.364V41.9759H573.585V44.6204H569.097V56H565.852V44.6204Z" fill="#222222"/>
<path d="M583.772 50.6508C583.772 50.6909 583.752 50.9713 583.712 51.4922H575.558C575.705 52.1601 576.052 52.6876 576.6 53.075C577.147 53.4623 577.829 53.656 578.643 53.656C579.204 53.656 579.699 53.5758 580.126 53.4155C580.567 53.2419 580.974 52.9748 581.348 52.6142L583.011 54.4173C581.996 55.5793 580.513 56.1603 578.563 56.1603C577.348 56.1603 576.273 55.9265 575.338 55.4591C574.403 54.9782 573.682 54.3171 573.174 53.4756C572.666 52.6342 572.413 51.6792 572.413 50.6107C572.413 49.5556 572.66 48.6073 573.154 47.7658C573.661 46.911 574.349 46.2499 575.217 45.7824C576.099 45.3016 577.081 45.0612 578.163 45.0612C579.218 45.0612 580.173 45.2882 581.027 45.7423C581.882 46.1965 582.55 46.8509 583.031 47.7057C583.525 48.5472 583.772 49.5289 583.772 50.6508ZM578.183 47.4252C577.475 47.4252 576.88 47.6256 576.4 48.0263C575.919 48.427 575.625 48.9746 575.518 49.6691H580.827C580.72 48.9879 580.426 48.447 579.946 48.0463C579.465 47.6323 578.877 47.4252 578.183 47.4252Z" fill="#222222"/>
<path d="M515.885 67.6514C515.132 67.6514 514.451 67.4848 513.843 67.1517C513.242 66.8186 512.768 66.3588 512.42 65.7722C512.08 65.1784 511.91 64.5158 511.91 63.7845C511.91 63.0531 512.08 62.3941 512.42 61.8076C512.768 61.2138 513.246 60.7503 513.854 60.4172C514.462 60.0841 515.143 59.9176 515.896 59.9176C516.461 59.9176 516.982 60.0117 517.46 60.2C517.938 60.3883 518.344 60.6634 518.677 61.0255L518.166 61.536C517.572 60.935 516.823 60.6345 515.918 60.6345C515.317 60.6345 514.77 60.7721 514.278 61.0472C513.785 61.3224 513.398 61.699 513.115 62.1769C512.84 62.6548 512.703 63.1907 512.703 63.7845C512.703 64.3783 512.84 64.9141 513.115 65.3921C513.398 65.87 513.785 66.2465 514.278 66.5217C514.77 66.7969 515.317 66.9345 515.918 66.9345C516.83 66.9345 517.58 66.6303 518.166 66.0221L518.677 66.5326C518.344 66.8946 517.934 67.1734 517.449 67.369C516.971 67.5572 516.45 67.6514 515.885 67.6514Z" fill="#999999"/>
<path d="M525.332 66.891V67.5862H519.956V59.9827H525.17V60.6779H520.76V63.3826H524.692V64.0669H520.76V66.891H525.332Z" fill="#999999"/>
<path d="M531.979 67.5862L530.242 65.1422C530.046 65.164 529.843 65.1748 529.633 65.1748H527.591V67.5862H526.787V59.9827H529.633C530.604 59.9827 531.364 60.2145 531.914 60.6779C532.465 61.1414 532.74 61.7786 532.74 62.5896C532.74 63.1834 532.588 63.6867 532.284 64.0995C531.987 64.505 531.559 64.7983 531.002 64.9793L532.859 67.5862H531.979ZM529.612 64.4905C530.365 64.4905 530.94 64.324 531.339 63.9908C531.737 63.6577 531.936 63.1907 531.936 62.5896C531.936 61.9741 531.737 61.5034 531.339 61.1776C530.94 60.8445 530.365 60.6779 529.612 60.6779H527.591V64.4905H529.612Z" fill="#999999"/>
<path d="M535.574 60.6779H532.902V59.9827H539.049V60.6779H536.377V67.5862H535.574V60.6779Z" fill="#999999"/>
<path d="M539.899 59.9827H540.703V67.5862H539.899V59.9827Z" fill="#999999"/>
<path d="M543.546 60.6779V63.665H547.478V64.3602H543.546V67.5862H542.742V59.9827H547.956V60.6779H543.546Z" fill="#999999"/>
<path d="M549.181 59.9827H549.985V67.5862H549.181V59.9827Z" fill="#999999"/>
<path d="M557.401 66.891V67.5862H552.025V59.9827H557.239V60.6779H552.829V63.3826H556.761V64.0669H552.829V66.891H557.401Z" fill="#999999"/>
<path d="M558.856 59.9827H561.952C562.756 59.9827 563.466 60.1457 564.081 60.4715C564.697 60.7902 565.174 61.2391 565.515 61.8184C565.855 62.3905 566.025 63.0458 566.025 63.7845C566.025 64.5231 565.855 65.1821 565.515 65.7614C565.174 66.3334 564.697 66.7824 564.081 67.1083C563.466 67.4269 562.756 67.5862 561.952 67.5862H558.856V59.9827ZM561.909 66.891C562.575 66.891 563.158 66.7607 563.657 66.5C564.157 66.2321 564.544 65.8664 564.82 65.4029C565.095 64.9322 565.232 64.3927 565.232 63.7845C565.232 63.1762 565.095 62.6403 564.82 62.1769C564.544 61.7062 564.157 61.3405 563.657 61.0798C563.158 60.8119 562.575 60.6779 561.909 60.6779H559.66V66.891H561.909Z" fill="#999999"/>
<path d="M572.65 59.9827C573.62 59.9827 574.381 60.2145 574.931 60.6779C575.481 61.1414 575.757 61.7786 575.757 62.5896C575.757 63.4007 575.481 64.0379 574.931 64.5014C574.381 64.9576 573.62 65.1857 572.65 65.1857H570.608V67.5862H569.804V59.9827H572.65ZM572.628 64.4796C573.381 64.4796 573.957 64.3167 574.355 63.9908C574.754 63.6577 574.953 63.1907 574.953 62.5896C574.953 61.9741 574.754 61.5034 574.355 61.1776C573.957 60.8445 573.381 60.6779 572.628 60.6779H570.608V64.4796H572.628Z" fill="#999999"/>
<path d="M582.252 67.5862L580.514 65.1422C580.319 65.164 580.116 65.1748 579.906 65.1748H577.864V67.5862H577.06V59.9827H579.906C580.876 59.9827 581.637 60.2145 582.187 60.6779C582.737 61.1414 583.013 61.7786 583.013 62.5896C583.013 63.1834 582.86 63.6867 582.556 64.0995C582.259 64.505 581.832 64.7983 581.275 64.9793L583.132 67.5862H582.252ZM579.884 64.4905C580.637 64.4905 581.213 64.324 581.611 63.9908C582.01 63.6577 582.209 63.1907 582.209 62.5896C582.209 61.9741 582.01 61.5034 581.611 61.1776C581.213 60.8445 580.637 60.6779 579.884 60.6779H577.864V64.4905H579.884Z" fill="#999999"/>
<path d="M584.475 59.9827H585.279V67.5862H584.475V59.9827Z" fill="#999999"/>
<path d="M593.555 59.9827L590.188 67.5862H589.395L586.028 59.9827H586.897L589.808 66.5869L592.741 59.9827H593.555Z" fill="#999999"/>
<path d="M598.759 65.555H594.523L593.611 67.5862H592.774L596.25 59.9827H597.043L600.519 67.5862H599.672L598.759 65.555ZM598.466 64.9033L596.641 60.8191L594.816 64.9033H598.466Z" fill="#999999"/>
<path d="M604.538 67.6514C603.785 67.6514 603.105 67.4848 602.496 67.1517C601.895 66.8186 601.421 66.3588 601.073 65.7722C600.733 65.1784 600.563 64.5158 600.563 63.7845C600.563 63.0531 600.733 62.3941 601.073 61.8076C601.421 61.2138 601.899 60.7503 602.507 60.4172C603.115 60.0841 603.796 59.9176 604.549 59.9176C605.114 59.9176 605.635 60.0117 606.113 60.2C606.591 60.3883 606.997 60.6634 607.33 61.0255L606.819 61.536C606.226 60.935 605.476 60.6345 604.571 60.6345C603.97 60.6345 603.423 60.7721 602.931 61.0472C602.438 61.3224 602.051 61.699 601.769 62.1769C601.493 62.6548 601.356 63.1907 601.356 63.7845C601.356 64.3783 601.493 64.9141 601.769 65.3921C602.051 65.87 602.438 66.2465 602.931 66.5217C603.423 66.7969 603.97 66.9345 604.571 66.9345C605.483 66.9345 606.233 66.6303 606.819 66.0221L607.33 66.5326C606.997 66.8946 606.588 67.1734 606.102 67.369C605.625 67.5572 605.103 67.6514 604.538 67.6514Z" fill="#999999"/>
<path d="M611.057 64.9576V67.5862H610.264V64.9576L607.222 59.9827H608.08L610.687 64.2515L613.294 59.9827H614.098L611.057 64.9576Z" fill="#999999"/>
<path d="M469.345 56.2414C469.345 56.2414 469.439 39.5862 485.879 39.5862C502.319 39.5862 502.414 56.2414 502.414 56.2414H499.155C499.155 56.2414 499.265 42.7241 485.879 42.7241C472.494 42.7241 472.483 56.2414 472.483 56.2414H469.345Z" fill="#222222"/>
<path d="M493.241 63.4828C493.241 63.4828 488.369 68.1073 483.104 66.5C480.125 65.5907 475.379 62.0606 475.379 56.1207C475.379 47.9008 483.586 43.9407 490.345 46.5862C495.897 48.7593 496.379 56.1207 496.379 56.1207L493.241 56.1207C493.241 56.1207 492.979 51.6075 489.741 49.8448C485.706 47.6476 478.517 48.6936 478.517 56.1207C478.517 60.6527 481.906 62.3625 483.828 63.1207C487.582 64.6018 491.19 61.431 491.19 61.431L493.241 63.4828Z" fill="white"/>
<path d="M490.345 56.2414C490.345 55.6391 490.226 55.0427 489.996 54.4863C489.765 53.9299 489.427 53.4243 489.002 52.9985C488.576 52.5726 488.07 52.2348 487.514 52.0043C486.957 51.7738 486.361 51.6552 485.759 51.6552C485.156 51.6552 484.56 51.7738 484.004 52.0043C483.447 52.2348 482.942 52.5726 482.516 52.9985C482.09 53.4243 481.752 53.9299 481.521 54.4863C481.291 55.0427 481.172 55.6391 481.172 56.2414L485.759 56.2414H490.345Z" fill="white"/>
<path d="M345.435 34.4652H350.575L354.142 42.8469L357.73 34.4652H362.859V50.1272H359.041V38.6718L355.432 47.1165H352.873L349.264 38.6718V50.1272H345.435V34.4652Z" fill="#999999"/>
<path d="M375.281 38.7452V41.8084C374.77 41.4587 374.256 41.2 373.739 41.0321C373.228 40.8643 372.697 40.7804 372.144 40.7804C371.095 40.7804 370.277 41.0881 369.689 41.7035C369.109 42.3119 368.819 43.1651 368.819 44.2631C368.819 45.3611 369.109 46.2178 369.689 46.8333C370.277 47.4417 371.095 47.7459 372.144 47.7459C372.732 47.7459 373.288 47.6585 373.812 47.4836C374.344 47.3088 374.833 47.0501 375.281 46.7074V49.781C374.693 49.9978 374.095 50.1587 373.487 50.2636C372.885 50.3755 372.281 50.4314 371.672 50.4314C369.553 50.4314 367.896 49.8894 366.7 48.8054C365.504 47.7144 364.906 46.2003 364.906 44.2631C364.906 42.3259 365.504 40.8153 366.7 39.7313C367.896 38.6403 369.553 38.0948 371.672 38.0948C372.288 38.0948 372.892 38.1508 373.487 38.2627C374.088 38.3676 374.686 38.5284 375.281 38.7452Z" fill="#999999"/>
<path d="M387.335 47.2738H381.02L380.023 50.1272H375.963L381.765 34.4652H386.58L392.381 50.1272H388.321L387.335 47.2738ZM382.027 44.368H386.317L384.177 38.1368L382.027 44.368Z" fill="#999999"/>
<path d="M401.172 33.8043V36.2695H399.095C398.564 36.2695 398.193 36.3674 397.983 36.5633C397.774 36.7521 397.669 37.0843 397.669 37.5598V38.3781H400.879V41.0636H397.669V50.1272H393.913V41.0636H392.046V38.3781H393.913V37.5598C393.913 36.28 394.27 35.3359 394.983 34.7275C395.697 34.112 396.801 33.8043 398.298 33.8043H401.172Z" fill="#999999"/>
<path d="M413.667 44.2212V45.2912H404.887C404.978 46.1724 405.296 46.8333 405.841 47.2738C406.387 47.7144 407.149 47.9347 408.128 47.9347C408.919 47.9347 409.726 47.8193 410.552 47.5886C411.384 47.3508 412.237 46.9941 413.111 46.5185V49.4139C412.223 49.7496 411.335 50.0013 410.447 50.1692C409.559 50.344 408.67 50.4314 407.782 50.4314C405.656 50.4314 404.002 49.8929 402.82 48.8159C401.645 47.7319 401.058 46.2143 401.058 44.2631C401.058 42.3469 401.635 40.8398 402.789 39.7418C403.95 38.6438 405.544 38.0948 407.572 38.0948C409.419 38.0948 410.894 38.6508 411.999 39.7628C413.111 40.8748 413.667 42.3609 413.667 44.2212ZM409.807 42.9728C409.807 42.2595 409.597 41.686 409.177 41.2524C408.765 40.8118 408.223 40.5915 407.551 40.5915C406.824 40.5915 406.233 40.7978 405.779 41.2105C405.324 41.6161 405.041 42.2035 404.929 42.9728H409.807Z" fill="#999999"/>
<path d="M427.389 44.2212V45.2912H418.609C418.7 46.1724 419.018 46.8333 419.564 47.2738C420.109 47.7144 420.871 47.9347 421.85 47.9347C422.641 47.9347 423.448 47.8193 424.274 47.5886C425.106 47.3508 425.959 46.9941 426.833 46.5185V49.4139C425.945 49.7496 425.057 50.0013 424.169 50.1692C423.281 50.344 422.392 50.4314 421.504 50.4314C419.378 50.4314 417.724 49.8929 416.542 48.8159C415.367 47.7319 414.78 46.2143 414.78 44.2631C414.78 42.3469 415.357 40.8398 416.511 39.7418C417.672 38.6438 419.266 38.0948 421.294 38.0948C423.141 38.0948 424.616 38.6508 425.721 39.7628C426.833 40.8748 427.389 42.3609 427.389 44.2212ZM423.529 42.9728C423.529 42.2595 423.319 41.686 422.9 41.2524C422.487 40.8118 421.945 40.5915 421.274 40.5915C420.546 40.5915 419.955 40.7978 419.501 41.2105C419.046 41.6161 418.763 42.2035 418.651 42.9728H423.529Z" fill="#999999"/>
<path d="M357.543 56.1067V59.4216C356.683 59.037 355.843 58.7467 355.025 58.5509C354.207 58.3551 353.434 58.2572 352.707 58.2572C351.742 58.2572 351.028 58.39 350.567 58.6558C350.105 58.9216 349.874 59.3342 349.874 59.8937C349.874 60.3133 350.028 60.642 350.336 60.8797C350.651 61.1105 351.217 61.3098 352.035 61.4777L353.756 61.8239C355.497 62.1735 356.735 62.7051 357.469 63.4184C358.204 64.1317 358.571 65.1458 358.571 66.4606C358.571 68.188 358.057 69.4748 357.029 70.321C356.008 71.1602 354.445 71.5798 352.34 71.5798C351.347 71.5798 350.35 71.4854 349.35 71.2966C348.35 71.1078 347.35 70.828 346.35 70.4574V67.048C347.35 67.5795 348.315 67.9817 349.245 68.2544C350.182 68.5202 351.084 68.653 351.952 68.653C352.833 68.653 353.508 68.5062 353.976 68.2125C354.445 67.9187 354.679 67.4991 354.679 66.9536C354.679 66.4641 354.518 66.0864 354.196 65.8207C353.882 65.5549 353.249 65.3171 352.298 65.1073L350.735 64.7611C349.168 64.4255 348.021 63.8905 347.294 63.1561C346.574 62.4218 346.213 61.4322 346.213 60.1874C346.213 58.6278 346.717 57.4284 347.724 56.5892C348.731 55.75 350.179 55.3304 352.067 55.3304C352.927 55.3304 353.812 55.3968 354.721 55.5297C355.63 55.6556 356.571 55.8479 357.543 56.1067Z" fill="#56575B"/>
<path d="M359.979 55.6136H370.878V58.6663H364.017V61.5826H370.469V64.6353H364.017V68.2229H371.109V71.2756H359.979V55.6136Z" fill="#56575B"/>
<path d="M384.937 70.4154C384.196 70.8001 383.423 71.0903 382.619 71.2861C381.815 71.4819 380.975 71.5798 380.101 71.5798C377.493 71.5798 375.426 70.8525 373.901 69.3979C372.377 67.9362 371.615 65.957 371.615 63.4604C371.615 60.9567 372.377 58.9775 373.901 57.5229C375.426 56.0612 377.493 55.3304 380.101 55.3304C380.975 55.3304 381.815 55.4283 382.619 55.6241C383.423 55.8199 384.196 56.1102 384.937 56.4948V59.7363C384.189 59.2258 383.451 58.8516 382.724 58.6138C381.996 58.3761 381.231 58.2572 380.426 58.2572C378.986 58.2572 377.853 58.7187 377.028 59.6419C376.202 60.565 375.79 61.8379 375.79 63.4604C375.79 65.0759 376.202 66.3452 377.028 67.2683C377.853 68.1915 378.986 68.653 380.426 68.653C381.231 68.653 381.996 68.5342 382.724 68.2964C383.451 68.0586 384.189 67.6844 384.937 67.1739V70.4154Z" fill="#56575B"/>
<path d="M386.146 55.6136H390.184V65.0024C390.184 66.2962 390.394 67.2229 390.814 67.7823C391.24 68.3348 391.933 68.6111 392.891 68.6111C393.856 68.6111 394.548 68.3348 394.968 67.7823C395.395 67.2229 395.608 66.2962 395.608 65.0024V55.6136H399.647V65.0024C399.647 67.2194 399.091 68.8698 397.979 69.9538C396.867 71.0378 395.171 71.5798 392.891 71.5798C390.618 71.5798 388.926 71.0378 387.814 69.9538C386.702 68.8698 386.146 67.2194 386.146 65.0024V55.6136Z" fill="#56575B"/>
<path d="M407.191 62.5582C408.038 62.5582 408.642 62.4008 409.006 62.0861C409.377 61.7714 409.562 61.2539 409.562 60.5336C409.562 59.8202 409.377 59.3097 409.006 59.002C408.642 58.6943 408.038 58.5404 407.191 58.5404H405.492V62.5582H407.191ZM405.492 65.3486V71.2756H401.453V55.6136H407.621C409.684 55.6136 411.195 55.9598 412.153 56.6522C413.118 57.3445 413.601 58.439 413.601 59.9356C413.601 60.9707 413.349 61.8204 412.846 62.4848C412.349 63.1491 411.597 63.6387 410.59 63.9534C411.143 64.0793 411.636 64.366 412.069 64.8136C412.51 65.2542 412.954 65.9256 413.402 66.8277L415.594 71.2756H411.293L409.384 67.3837C408.999 66.6004 408.607 66.0654 408.209 65.7787C407.817 65.492 407.293 65.3486 406.635 65.3486H405.492Z" fill="#56575B"/>
<path d="M415.858 55.6136H426.758V58.6663H419.897V61.5826H426.349V64.6353H419.897V68.2229H426.989V71.2756H415.858V55.6136Z" fill="#56575B"/>
<path d="M428.474 55.355H431.557V55.77H430.263V59H429.768V55.77H428.474V55.355ZM431.686 55.355H432.421L433.351 57.8354L434.286 55.355H435.021V59H434.54V55.7993L433.6 58.2993H433.104L432.164 55.7993V59H431.686V55.355Z" fill="#56575B"/>
<path fill-rule="evenodd" clip-rule="evenodd" d="M298 32V69.9329L318.813 79.5L339.29 69.9329V32L318.813 41.735L298 32ZM306.56 45.2597V64.5618L318.645 70.2686L330.898 64.5618V45.2597L318.645 50.7986L306.56 45.2597Z" fill="url(#paint0_linear)"/>
</g>
<defs>
<linearGradient id="paint0_linear" x1="298" y1="55.8339" x2="339.29" y2="55.8339" gradientUnits="userSpaceOnUse">
<stop offset="0.499807" stop-color="#56575B"/>
<stop offset="0.508474" stop-color="#999999"/>
</linearGradient>
</defs>
</svg>
