<svg width="968" height="74" viewBox="0 0 968 74" fill="none" xmlns="http://www.w3.org/2000/svg">
<path d="M607.563 48.9379C602.827 48.9379 598.694 48.0669 595.164 46.3249C591.679 44.5829 588.976 42.1486 587.055 39.0219C585.178 35.8952 584.24 32.3219 584.24 28.3019C584.24 22.9419 585.469 18.1179 587.926 13.8299C590.428 9.54187 593.891 6.19187 598.314 3.77987C602.782 1.36787 607.853 0.161865 613.527 0.161865C618.263 0.161865 622.374 1.03287 625.859 2.77487C629.388 4.51687 632.091 6.9512 633.968 10.0779C635.889 13.2046 636.85 16.7779 636.85 20.7979C636.85 26.1579 635.598 30.9819 633.096 35.2699C630.639 39.5579 627.177 42.9079 622.709 45.3199C618.285 47.7319 613.237 48.9379 607.563 48.9379ZM608.702 37.9499C611.651 37.9499 614.242 37.2129 616.476 35.7389C618.71 34.2649 620.43 32.2996 621.636 29.8429C622.843 27.3416 623.446 24.5946 623.446 21.6019C623.446 18.4306 622.463 15.9069 620.497 14.0309C618.576 12.1102 615.873 11.1499 612.388 11.1499C609.439 11.1499 606.848 11.8869 604.614 13.3609C602.38 14.8349 600.66 16.8226 599.453 19.3239C598.247 21.7806 597.644 24.5052 597.644 27.4979C597.644 30.6692 598.604 33.2152 600.526 35.1359C602.492 37.0119 605.217 37.9499 608.702 37.9499Z" fill="#F40C0C"/>
<path d="M670.205 22.6741L685.954 48.0001H671.143L660.353 31.1161L654.254 36.6101L651.976 48.0001H638.907L648.29 1.1001H661.358L657.538 20.2621L678.716 1.1001H694.331L670.205 22.6741Z" fill="#F40C0C"/>
<path d="M691.714 1.1001H704.18L702.102 31.7191H693.792L691.714 1.1001ZM697.947 48.5361C696.115 48.5361 694.574 47.9554 693.323 46.7941C692.116 45.5881 691.513 44.1364 691.513 42.4391C691.513 40.7418 692.116 39.3348 693.323 38.2181C694.529 37.0568 696.071 36.4761 697.947 36.4761C699.824 36.4761 701.365 37.0568 702.571 38.2181C703.778 39.3348 704.381 40.7418 704.381 42.4391C704.381 44.1364 703.755 45.5881 702.504 46.7941C701.298 47.9554 699.779 48.5361 697.947 48.5361Z" fill="#F40C0C"/>
<path d="M601.427 54.896C603.043 54.896 604.324 55.376 605.268 56.336C606.228 57.28 606.708 58.704 606.708 60.608V68H602.963V61.184C602.963 60.16 602.747 59.4 602.315 58.904C601.899 58.392 601.299 58.136 600.515 58.136C599.634 58.136 598.938 58.424 598.426 59C597.914 59.56 597.658 60.4 597.658 61.52V68H593.913V61.184C593.913 59.152 593.097 58.136 591.464 58.136C590.6 58.136 589.912 58.424 589.4 59C588.887 59.56 588.631 60.4 588.631 61.52V68H584.886V55.088H588.463V56.576C588.944 56.032 589.528 55.616 590.216 55.328C590.92 55.04 591.688 54.896 592.52 54.896C593.433 54.896 594.257 55.08 594.993 55.448C595.729 55.8 596.322 56.32 596.77 57.008C597.298 56.336 597.962 55.816 598.762 55.448C599.578 55.08 600.467 54.896 601.427 54.896Z" fill="#F40C0C"/>
<path d="M615.275 54.896C617.275 54.896 618.811 55.376 619.884 56.336C620.956 57.28 621.492 58.712 621.492 60.632V68H617.987V66.392C617.283 67.592 615.971 68.192 614.05 68.192C613.058 68.192 612.194 68.024 611.457 67.688C610.737 67.352 610.185 66.888 609.801 66.296C609.417 65.704 609.225 65.032 609.225 64.28C609.225 63.08 609.673 62.136 610.569 61.448C611.481 60.76 612.882 60.416 614.77 60.416H617.747C617.747 59.6 617.499 58.976 617.003 58.544C616.507 58.096 615.763 57.872 614.77 57.872C614.082 57.872 613.402 57.984 612.73 58.208C612.074 58.416 611.514 58.704 611.049 59.072L609.705 56.456C610.409 55.96 611.249 55.576 612.226 55.304C613.218 55.032 614.234 54.896 615.275 54.896ZM614.986 65.672C615.627 65.672 616.195 65.528 616.691 65.24C617.187 64.936 617.539 64.496 617.747 63.92V62.6H615.179C613.642 62.6 612.874 63.104 612.874 64.112C612.874 64.592 613.058 64.976 613.426 65.264C613.81 65.536 614.33 65.672 614.986 65.672Z" fill="#F40C0C"/>
<path d="M638.346 55.088V65.84C638.346 68.208 637.73 69.968 636.497 71.12C635.265 72.272 633.465 72.848 631.096 72.848C629.848 72.848 628.663 72.696 627.543 72.392C626.423 72.088 625.494 71.648 624.758 71.072L626.247 68.384C626.791 68.832 627.479 69.184 628.311 69.44C629.143 69.712 629.976 69.848 630.808 69.848C632.104 69.848 633.056 69.552 633.665 68.96C634.289 68.384 634.601 67.504 634.601 66.32V65.768C633.625 66.84 632.264 67.376 630.52 67.376C629.335 67.376 628.247 67.12 627.255 66.608C626.279 66.08 625.502 65.344 624.926 64.4C624.35 63.456 624.062 62.368 624.062 61.136C624.062 59.904 624.35 58.816 624.926 57.872C625.502 56.928 626.279 56.2 627.255 55.688C628.247 55.16 629.335 54.896 630.52 54.896C632.392 54.896 633.817 55.512 634.793 56.744V55.088H638.346ZM631.264 64.304C632.256 64.304 633.064 64.016 633.689 63.44C634.329 62.848 634.649 62.08 634.649 61.136C634.649 60.192 634.329 59.432 633.689 58.856C633.064 58.264 632.256 57.968 631.264 57.968C630.272 57.968 629.455 58.264 628.815 58.856C628.175 59.432 627.855 60.192 627.855 61.136C627.855 62.08 628.175 62.848 628.815 63.44C629.455 64.016 630.272 64.304 631.264 64.304Z" fill="#F40C0C"/>
<path d="M647.041 54.896C649.041 54.896 650.578 55.376 651.65 56.336C652.722 57.28 653.259 58.712 653.259 60.632V68H649.754V66.392C649.049 67.592 647.737 68.192 645.817 68.192C644.824 68.192 643.96 68.024 643.224 67.688C642.504 67.352 641.952 66.888 641.567 66.296C641.183 65.704 640.991 65.032 640.991 64.28C640.991 63.08 641.439 62.136 642.336 61.448C643.248 60.76 644.648 60.416 646.537 60.416H649.514C649.514 59.6 649.266 58.976 648.769 58.544C648.273 58.096 647.529 57.872 646.537 57.872C645.849 57.872 645.168 57.984 644.496 58.208C643.84 58.416 643.28 58.704 642.816 59.072L641.471 56.456C642.176 55.96 643.016 55.576 643.992 55.304C644.984 55.032 646.001 54.896 647.041 54.896ZM646.753 65.672C647.393 65.672 647.961 65.528 648.457 65.24C648.953 64.936 649.306 64.496 649.514 63.92V62.6H646.945C645.409 62.6 644.64 63.104 644.64 64.112C644.64 64.592 644.824 64.976 645.192 65.264C645.577 65.536 646.097 65.672 646.753 65.672Z" fill="#F40C0C"/>
<path d="M667.283 65.1199V67.9999H655.76V65.7439L662.338 57.9679H655.928V55.0879H667.067V57.3439L660.489 65.1199H667.283Z" fill="#F40C0C"/>
<path d="M669.683 55.0881H673.428V68.0001H669.683V55.0881ZM671.555 53.2881C670.867 53.2881 670.307 53.0881 669.875 52.6881C669.443 52.2881 669.227 51.7921 669.227 51.2001C669.227 50.6081 669.443 50.1121 669.875 49.7121C670.307 49.3121 670.867 49.1121 671.555 49.1121C672.244 49.1121 672.804 49.3041 673.236 49.6881C673.668 50.0721 673.884 50.5521 673.884 51.1281C673.884 51.7521 673.668 52.2721 673.236 52.6881C672.804 53.0881 672.244 53.2881 671.555 53.2881Z" fill="#F40C0C"/>
<path d="M684.754 54.896C686.354 54.896 687.642 55.376 688.619 56.336C689.611 57.296 690.107 58.72 690.107 60.608V68H686.362V61.184C686.362 60.16 686.138 59.4 685.69 58.904C685.242 58.392 684.594 58.136 683.745 58.136C682.801 58.136 682.049 58.432 681.489 59.024C680.929 59.6 680.649 60.464 680.649 61.616V68H676.904V55.088H680.481V56.6C680.977 56.056 681.593 55.64 682.329 55.352C683.065 55.048 683.873 54.896 684.754 54.896Z" fill="#F40C0C"/>
<path d="M706.294 61.592C706.294 61.64 706.27 61.976 706.222 62.6H696.451C696.627 63.4 697.043 64.032 697.7 64.496C698.356 64.96 699.172 65.192 700.148 65.192C700.82 65.192 701.413 65.096 701.925 64.904C702.453 64.696 702.941 64.376 703.389 63.944L705.382 66.104C704.165 67.496 702.389 68.192 700.052 68.192C698.596 68.192 697.307 67.912 696.187 67.352C695.067 66.776 694.203 65.984 693.594 64.976C692.986 63.968 692.682 62.824 692.682 61.544C692.682 60.28 692.978 59.144 693.57 58.136C694.179 57.112 695.003 56.32 696.043 55.76C697.099 55.184 698.276 54.896 699.572 54.896C700.836 54.896 701.981 55.168 703.005 55.712C704.029 56.256 704.83 57.04 705.406 58.064C705.998 59.072 706.294 60.248 706.294 61.592ZM699.596 57.728C698.748 57.728 698.036 57.968 697.46 58.448C696.883 58.928 696.531 59.584 696.403 60.416H702.765C702.637 59.6 702.285 58.952 701.709 58.472C701.132 57.976 700.428 57.728 699.596 57.728Z" fill="#F40C0C"/>
<path d="M181.271 46.1552C185.193 46.1552 188.372 42.976 188.372 39.0544C188.372 35.1327 185.193 31.9536 181.271 31.9536C177.35 31.9536 174.17 35.1327 174.17 39.0544C174.17 42.976 177.35 46.1552 181.271 46.1552Z" fill="#39007D"/>
<path d="M188.372 0L176.833 28.4031H189.259L200.798 0H188.372Z" fill="#39007D"/>
<path d="M22.5331 14.2014H32.1902L21.8692 43.4743C20.1792 48.2224 17.946 51.6225 15.1696 53.6746C12.4334 55.7267 8.93276 56.6522 4.66756 56.451V48.0011C6.75992 48.0011 8.36943 47.6188 9.49609 46.8543C10.6227 46.13 11.5281 44.8424 12.2121 42.9915L0.201172 14.2014H10.16L16.8596 32.6705L22.5331 14.2014Z" fill="#39007D"/>
<path d="M56.2568 14.2014H65.3103V44.3797H56.2568V41.5429C54.1242 43.9974 51.1265 45.2247 47.2637 45.2247C43.2801 45.2247 39.88 43.6956 37.0634 40.6376C34.2468 37.5393 32.8384 33.7569 32.8384 29.2905C32.8384 24.8241 34.2468 21.0619 37.0634 18.0038C39.88 14.9055 43.2801 13.3564 47.2637 13.3564C51.1265 13.3564 54.1242 14.5836 56.2568 17.0381V14.2014ZM43.8837 34.6623C45.2115 35.9901 46.9418 36.654 49.0744 36.654C51.207 36.654 52.9372 35.9901 54.265 34.6623C55.5929 33.3344 56.2568 31.5438 56.2568 29.2905C56.2568 27.0372 55.5929 25.2466 54.265 23.9188C52.9372 22.591 51.207 21.927 49.0744 21.927C46.9418 21.927 45.2115 22.591 43.8837 23.9188C42.5559 25.2466 41.8919 27.0372 41.8919 29.2905C41.8919 31.5438 42.5559 33.3344 43.8837 34.6623Z" fill="#39007D"/>
<path d="M89.6371 13.3565C92.8562 13.3565 95.532 14.463 97.6646 16.6761C99.8374 18.8892 100.924 21.9472 100.924 25.8503V44.3798H91.8703V27.1782C91.8703 25.4077 91.3674 24.0597 90.3614 23.1343C89.3957 22.1686 88.1483 21.6857 86.6193 21.6857C84.8891 21.6857 83.521 22.2088 82.5151 23.255C81.5091 24.3012 81.0061 25.8503 81.0061 27.9024V44.3798H71.9526V2.13013H81.0061V17.0382C82.8168 14.5837 85.6938 13.3565 89.6371 13.3565Z" fill="#39007D"/>
<path d="M132.973 40.6376C129.875 43.6956 126.093 45.2247 121.626 45.2247C117.16 45.2247 113.378 43.6956 110.279 40.6376C107.181 37.5393 105.632 33.7569 105.632 29.2905C105.632 24.8241 107.181 21.0619 110.279 18.0038C113.378 14.9055 117.16 13.3564 121.626 13.3564C126.093 13.3564 129.875 14.9055 132.973 18.0038C136.072 21.0619 137.621 24.8241 137.621 29.2905C137.621 33.7569 136.072 37.5393 132.973 40.6376ZM116.677 34.4208C118.005 35.7487 119.655 36.4126 121.626 36.4126C123.598 36.4126 125.248 35.7487 126.576 34.4208C127.904 33.093 128.567 31.3829 128.567 29.2905C128.567 27.1982 127.904 25.4881 126.576 24.1602C125.248 22.8324 123.598 22.1685 121.626 22.1685C119.655 22.1685 118.005 22.8324 116.677 24.1602C115.349 25.4881 114.685 27.1982 114.685 29.2905C114.685 31.3829 115.349 33.093 116.677 34.4208Z" fill="#39007D"/>
<path d="M168.574 40.6376C165.476 43.6956 161.694 45.2247 157.227 45.2247C152.761 45.2247 148.979 43.6956 145.88 40.6376C142.782 37.5393 141.233 33.7569 141.233 29.2905C141.233 24.8241 142.782 21.0619 145.88 18.0038C148.979 14.9055 152.761 13.3564 157.227 13.3564C161.694 13.3564 165.476 14.9055 168.574 18.0038C171.673 21.0619 173.222 24.8241 173.222 29.2905C173.222 33.7569 171.673 37.5393 168.574 40.6376ZM152.278 34.4208C153.606 35.7487 155.256 36.4126 157.227 36.4126C159.199 36.4126 160.849 35.7487 162.177 34.4208C163.504 33.093 164.168 31.3829 164.168 29.2905C164.168 27.1982 163.504 25.4881 162.177 24.1602C160.849 22.8324 159.199 22.1685 157.227 22.1685C155.256 22.1685 153.606 22.8324 152.278 24.1602C150.95 25.4881 150.286 27.1982 150.286 29.2905C150.286 31.3829 150.95 33.093 152.278 34.4208Z" fill="#39007D"/>
<path d="M89.4943 55.031V72.7829H84.1688V60.1435H79.6243V72.7829H74.2987V60.1435H71.9199V55.031H74.2987C74.2987 49.9657 77.1745 47.4331 82.9261 47.4331C84.2989 47.4331 85.7783 47.5988 87.3641 47.9302V52.8297C85.6599 52.6404 84.1806 52.5457 82.9261 52.5457C81.8373 52.5457 81.0089 52.7232 80.4409 53.0783C79.8965 53.4096 79.6243 54.0605 79.6243 55.031H89.4943Z" fill="#7E1FFF"/>
<path d="M103.103 54.5339C104.997 54.5339 106.571 55.1848 107.825 56.4866C109.104 57.7884 109.743 59.5873 109.743 61.8832V72.7829H104.417V62.6643C104.417 61.6229 104.121 60.8299 103.529 60.2855C102.961 59.7175 102.228 59.4335 101.328 59.4335C100.31 59.4335 99.5056 59.7412 98.9139 60.3566C98.3221 60.972 98.0263 61.8832 98.0263 63.0904V72.7829H92.7007V55.031H98.0263V56.6997C99.0914 55.2558 100.784 54.5339 103.103 54.5339Z" fill="#7E1FFF"/>
<path d="M125.578 55.031H130.903V72.7829H125.578V71.1142C124.323 72.5581 122.56 73.28 120.288 73.28C117.944 73.28 115.944 72.3805 114.287 70.5817C112.631 68.7591 111.802 66.5342 111.802 63.9069C111.802 61.2797 112.631 59.0666 114.287 57.2677C115.944 55.4452 117.944 54.5339 120.288 54.5339C122.56 54.5339 124.323 55.2558 125.578 56.6997V55.031ZM118.299 67.0668C119.08 67.8479 120.098 68.2384 121.353 68.2384C122.607 68.2384 123.625 67.8479 124.406 67.0668C125.187 66.2857 125.578 65.2324 125.578 63.9069C125.578 62.5815 125.187 61.5282 124.406 60.7471C123.625 59.966 122.607 59.5755 121.353 59.5755C120.098 59.5755 119.08 59.966 118.299 60.7471C117.518 61.5282 117.128 62.5815 117.128 63.9069C117.128 65.2324 117.518 66.2857 118.299 67.0668Z" fill="#7E1FFF"/>
<path d="M144.503 54.5339C146.396 54.5339 147.97 55.1848 149.225 56.4866C150.503 57.7884 151.142 59.5873 151.142 61.8832V72.7829H145.817V62.6643C145.817 61.6229 145.521 60.8299 144.929 60.2855C144.361 59.7175 143.627 59.4335 142.728 59.4335C141.71 59.4335 140.905 59.7412 140.313 60.3566C139.722 60.972 139.426 61.8832 139.426 63.0904V72.7829H134.1V55.031H139.426V56.6997C140.491 55.2558 142.183 54.5339 144.503 54.5339Z" fill="#7E1FFF"/>
<path d="M162.61 73.28C159.912 73.28 157.663 72.3805 155.864 70.5817C154.089 68.7828 153.202 66.5579 153.202 63.9069C153.202 61.256 154.089 59.0311 155.864 57.2322C157.663 55.4333 159.912 54.5339 162.61 54.5339C164.314 54.5339 165.877 54.9481 167.297 55.7766C168.74 56.605 169.853 57.7056 170.634 59.0784L165.983 61.7767C165.344 60.4512 164.196 59.7885 162.539 59.7885C161.379 59.7885 160.421 60.179 159.663 60.9601C158.906 61.7175 158.527 62.6998 158.527 63.9069C158.527 65.1141 158.906 66.1082 159.663 66.8893C160.421 67.6467 161.379 68.0254 162.539 68.0254C164.22 68.0254 165.368 67.3627 165.983 66.0372L170.634 68.7C169.853 70.0965 168.752 71.2089 167.332 72.0373C165.912 72.8658 164.338 73.28 162.61 73.28Z" fill="#7E1FFF"/>
<path d="M176.478 66.0372C177.093 67.694 178.514 68.5224 180.738 68.5224C182.182 68.5224 183.318 68.0727 184.147 67.1733L188.407 69.6231C186.656 72.061 184.076 73.28 180.667 73.28C177.685 73.28 175.295 72.3924 173.496 70.6172C171.721 68.842 170.833 66.6052 170.833 63.9069C170.833 61.2323 171.709 59.0074 173.46 57.2322C175.235 55.4333 177.508 54.5339 180.277 54.5339C182.857 54.5339 184.999 55.4333 186.703 57.2322C188.431 59.0074 189.295 61.2323 189.295 63.9069C189.295 64.6644 189.224 65.3744 189.082 66.0372H176.478ZM176.372 62.0607H184.005C183.484 60.1909 182.23 59.2559 180.241 59.2559C178.182 59.2559 176.892 60.1909 176.372 62.0607Z" fill="#7E1FFF"/>
<path d="M307.569 29.2471L307.036 31.9814H306.876C306.182 30.4802 304.262 28.3357 299.995 28.3357C293.113 28.3357 286.072 33.697 284.525 42.1142C283.192 49.5128 286.712 56 294.874 56C297.861 56 301.275 54.8205 303.088 52.3007H303.248L302.768 55.0886H310.396L315.144 29.2471H307.569ZM305.062 42.1142C304.582 44.6341 302.182 48.7623 297.381 48.7623C292.687 48.7623 291.727 44.6341 292.153 42.2215C292.687 39.2728 295.3 35.5735 299.781 35.5735C304.155 35.6271 305.649 39.1119 305.062 42.1142Z" fill="black"/>
<path d="M319.463 29.2471H326.611L326.131 31.9814H326.291C327.198 30.7483 329.012 28.3357 333.386 28.3357L331.945 36.1632C328.318 36.2168 325.704 36.9674 325.011 40.9348L322.397 55.0886H314.716L319.463 29.2471Z" fill="black"/>
<path d="M338.508 19.1677H346.243L342.615 38.6293H342.722L351.63 29.247H360.698L348.963 40.613L355.684 55.0885H346.989L342.029 42.6503H341.869L339.628 55.0885H331.894L338.508 19.1677Z" fill="black"/>
<path d="M373.019 28.3357C365.231 28.3357 358.297 35.0909 357.017 42.2751C355.576 49.9418 360.751 55.9464 368.112 55.9464C370.726 55.9464 373.446 55.1422 375.793 53.5874C378.247 52.0863 380.487 49.8881 382.194 46.993H374.353C373.073 48.3334 371.579 49.4056 369.232 49.4056C366.245 49.4056 364.004 47.5828 364.165 44.5268H383.421C383.634 43.9371 383.794 43.4546 383.955 42.4895C385.448 34.6084 380.861 28.3357 373.019 28.3357ZM365.231 39.3264C365.818 37.8252 367.952 34.8765 371.952 34.8765C375.953 34.8765 376.913 37.7716 376.913 39.3264H365.231Z" fill="black"/>
<path d="M274.337 19.1677L260.788 39.6479H260.681V19.1677H254.12L230.062 55.0885H239.397L252.893 34.6083H253V55.0885H259.614L273.11 34.6083H273.216V55.0885H280.951V19.1677H274.337Z" fill="black"/>
<path d="M403.477 29.247H398.623L400.064 21.5803H393.342L392.809 24.5291C392.222 27.9067 390.089 28.9253 387.315 29.247H387.261L386.088 35.0908H389.875L386.195 55.0349H393.876L397.556 35.0908H402.464L403.477 29.247Z" fill="black"/>
<path d="M522.378 45.331C519.871 51.1748 513.843 56 506.909 56C499.121 56 494.267 49.8345 495.653 42.1142C497.094 34.5548 504.028 28.3893 511.763 28.3893C518.537 28.3893 523.231 32.9464 523.391 39.2727H515.603C515.123 37.4499 513.95 35.627 510.696 35.627C507.069 35.4662 504.082 38.4149 503.388 42.1678C502.695 45.9744 504.615 48.7622 508.296 48.7622C511.443 48.7622 513.363 46.9394 514.483 45.2774L522.378 45.331ZM458.741 10L443.805 19.1678H448.019L434.47 39.648H434.31V19.1678H427.695L414.2 39.648H414.04V19.1678H406.358V55.0886H413.08L426.628 34.6084H426.789V55.0886H433.403L457.354 19.1678H461.141L458.741 10ZM473.303 55.0886H465.675L466.155 52.3007H465.995C464.181 54.8205 460.768 56 457.78 56C449.619 56 446.098 49.5664 447.432 42.1142C448.926 33.697 456.02 28.3357 462.901 28.3357C467.115 28.3357 469.089 30.4266 469.782 31.9814H469.942L470.476 29.2471H478.104L473.303 55.0886ZM460.394 48.8158C465.142 48.8158 467.542 44.6876 468.075 42.1678C468.609 39.0583 467.169 35.627 462.795 35.627C458.367 35.627 455.753 39.3263 455.167 42.2751C454.74 44.6877 455.7 48.8158 460.394 48.8158ZM497.307 29.2471H492.506L493.946 21.5804H487.225L486.692 24.5291C486.105 27.9068 483.971 28.9254 481.198 29.2471H481.091L479.971 35.0909H483.758L480.077 55.035H487.759L491.439 35.0909H496.347L497.307 29.2471ZM529.632 19.1678H537.314L534.967 31.9814H535.127C536.78 29.5688 538.967 28.3357 542.381 28.3357C544.835 28.3357 547.609 29.2471 548.889 31.2308C550.543 33.7506 550.383 36.0023 549.476 40.6131L546.862 55.035H539.181L541.741 40.9883C541.955 39.7552 542.701 35.5734 538.647 35.5734C534.327 35.5734 533.58 39.4336 533.366 40.7203L530.753 55.035H523.071L529.632 19.1678Z" fill="#31c130"/>
<path d="M852.881 33.42C849.38 33.42 846.65 32.4517 844.689 30.515C842.752 28.5783 841.783 25.8133 841.783 22.22V8.5H847.455V22.01C847.455 26.3967 849.275 28.59 852.916 28.59C854.69 28.59 856.044 28.065 856.977 27.015C857.911 25.9417 858.378 24.2733 858.378 22.01V8.5H863.979V22.22C863.979 25.8133 862.999 28.5783 861.038 30.515C859.101 32.4517 856.382 33.42 852.881 33.42Z" fill="black"/>
<path d="M877.636 33.4201C875.699 33.4201 873.82 33.1634 871.999 32.6501C870.202 32.1134 868.755 31.4251 867.658 30.5851L869.584 26.3151C870.634 27.0851 871.883 27.7034 873.33 28.1701C874.777 28.6368 876.224 28.8701 877.671 28.8701C879.281 28.8701 880.472 28.6368 881.242 28.1701C882.012 27.6801 882.397 27.0384 882.397 26.2451C882.397 25.6618 882.164 25.1834 881.697 24.8101C881.254 24.4134 880.67 24.0984 879.947 23.8651C879.246 23.6318 878.289 23.3751 877.076 23.0951C875.209 22.6518 873.68 22.2084 872.49 21.7651C871.299 21.3218 870.272 20.6101 869.409 19.6301C868.569 18.6501 868.148 17.3434 868.148 15.7101C868.148 14.2868 868.534 13.0034 869.304 11.8601C870.074 10.6934 871.229 9.77174 872.77 9.09508C874.333 8.41841 876.236 8.08008 878.476 8.08008C880.04 8.08008 881.569 8.26674 883.062 8.64008C884.556 9.01341 885.863 9.55008 886.984 10.2501L885.233 14.5551C882.969 13.2718 880.705 12.6301 878.441 12.6301C876.854 12.6301 875.675 12.8868 874.905 13.4001C874.158 13.9134 873.785 14.5901 873.785 15.4301C873.785 16.2701 874.217 16.9001 875.08 17.3201C875.967 17.7168 877.309 18.1134 879.106 18.5101C880.974 18.9534 882.502 19.3968 883.693 19.8401C884.883 20.2834 885.898 20.9834 886.738 21.9401C887.602 22.8968 888.034 24.1918 888.034 25.8251C888.034 27.2251 887.637 28.5084 886.843 29.6751C886.073 30.8184 884.906 31.7284 883.343 32.4051C881.779 33.0818 879.877 33.4201 877.636 33.4201Z" fill="black"/>
<path d="M908.049 27.75H896.67L894.5 33H888.688L899.611 8.5H905.213L916.171 33H910.219L908.049 27.75ZM906.263 23.445L902.377 14.065L898.491 23.445H906.263Z" fill="black"/>
<path d="M847.07 46.12H839.228V41.5H860.583V46.12H852.741V66H847.07V46.12Z" fill="black"/>
<path d="M875.161 66.4201C872.617 66.4201 870.318 65.8718 868.264 64.7751C866.234 63.6784 864.635 62.1734 863.468 60.2601C862.324 58.3234 861.753 56.1534 861.753 53.7501C861.753 51.3468 862.324 49.1884 863.468 47.2751C864.635 45.3384 866.234 43.8218 868.264 42.7251C870.318 41.6284 872.617 41.0801 875.161 41.0801C877.705 41.0801 879.993 41.6284 882.023 42.7251C884.054 43.8218 885.652 45.3384 886.819 47.2751C887.986 49.1884 888.57 51.3468 888.57 53.7501C888.57 56.1534 887.986 58.3234 886.819 60.2601C885.652 62.1734 884.054 63.6784 882.023 64.7751C879.993 65.8718 877.705 66.4201 875.161 66.4201ZM875.161 61.5901C876.608 61.5901 877.915 61.2634 879.082 60.6101C880.249 59.9334 881.16 59.0001 881.813 57.8101C882.49 56.6201 882.828 55.2668 882.828 53.7501C882.828 52.2334 882.49 50.8801 881.813 49.6901C881.16 48.5001 880.249 47.5784 879.082 46.9251C877.915 46.2484 876.608 45.9101 875.161 45.9101C873.714 45.9101 872.407 46.2484 871.24 46.9251C870.073 47.5784 869.151 48.5001 868.474 49.6901C867.821 50.8801 867.494 52.2334 867.494 53.7501C867.494 55.2668 867.821 56.6201 868.474 57.8101C869.151 59.0001 870.073 59.9334 871.24 60.6101C872.407 61.2634 873.714 61.5901 875.161 61.5901Z" fill="black"/>
<path d="M892.832 41.5H903.965C906.626 41.5 908.972 42.0133 911.002 43.04C913.056 44.0433 914.643 45.4667 915.764 47.31C916.907 49.1533 917.479 51.3 917.479 53.75C917.479 56.2 916.907 58.3467 915.764 60.19C914.643 62.0333 913.056 63.4683 911.002 64.495C908.972 65.4983 906.626 66 903.965 66H892.832V41.5ZM903.685 61.345C906.136 61.345 908.085 60.6683 909.532 59.315C911.002 57.9383 911.737 56.0833 911.737 53.75C911.737 51.4167 911.002 49.5733 909.532 48.22C908.085 46.8433 906.136 46.155 903.685 46.155H898.504V61.345H903.685Z" fill="black"/>
<path d="M937.554 60.75H926.176L924.005 66H918.193L929.116 41.5H934.718L945.676 66H939.724L937.554 60.75ZM935.768 56.445L931.882 47.065L927.996 56.445H935.768Z" fill="black"/>
<path d="M958.477 57.32V66H952.806V57.25L943.318 41.5H949.34L955.887 52.385L962.433 41.5H968L958.477 57.32Z" fill="black"/>
<path d="M799.217 74C819.657 74 836.227 57.4345 836.227 37C836.227 16.5655 819.657 0 799.217 0C778.777 0 762.207 16.5655 762.207 37C762.207 57.4345 778.777 74 799.217 74Z" fill="#009BFF"/>
</svg>
