<svg width="24" height="24" viewBox="0 0 24 24" fill="none" xmlns="http://www.w3.org/2000/svg">
<path d="M7 15.2058V6H10.3637C11.2547 6 11.9104 6.08258 12.3309 6.24775C12.8515 6.44769 13.2619 6.75629 13.5623 7.17355C13.8626 7.59081 14.0128 8.08631 14.0128 8.66004C14.0128 9.25116 13.8376 9.78143 13.4872 10.2509C13.1468 10.7116 12.6913 11.0245 12.1207 11.1897V11.2158C12.2008 11.3027 12.3009 11.4418 12.421 11.633L14.6735 15.2058H12.9916L10.7542 11.5418H8.48665V15.2058H7ZM8.48665 10.4204H10.619C11.1996 10.4204 11.6602 10.2682 12.0005 9.96399C12.3409 9.65104 12.5111 9.23812 12.5111 8.72524C12.5111 8.00373 12.1807 7.52127 11.52 7.27786C11.2497 7.17355 10.8242 7.12139 10.2436 7.12139H8.48665V10.4204Z" fill="#133340"/>
<path d="M14.0351 14.0953L15.3219 12.0406H16.9481L14.9496 14.9957L17 18H15.3549L14.0351 15.9126L12.7153 18H11.0702L13.1207 14.9957L11.1221 12.0406H12.7483L14.0351 14.0953Z" fill="#133340"/>
<circle cx="12" cy="12" r="10" stroke="#133340" stroke-width="2"/>
<rect x="18.8877" y="4.24561" width="1.93295" height="20.546" transform="rotate(45 18.8877 4.24561)" fill="#133340"/>
</svg>
