<svg xmlns="http://www.w3.org/2000/svg" width="110" height="110" fill="none" viewBox="0 0 110 110"><circle cx="54.84" cy="47.83" r="41.59" fill="#FDFDFD"/><path fill="#193F68" d="M101.66 50.28a3.53 3.53 0 000-4.92l-1.8-1.82a5.17 5.17 0 01-.88-5.55l1.14-2.3c.85-1.7.17-3.8-1.52-4.67l-2.28-1.18a5.18 5.18 0 01-2.55-5l.39-2.55a3.53 3.53 0 00-2.9-3.97l-2.53-.43a5.17 5.17 0 01-3.97-3.97l-.42-2.53a3.53 3.53 0 00-3.98-2.9l-2.53.39a5.18 5.18 0 01-5-2.55l-1.2-2.28a3.53 3.53 0 00-4.67-1.52l-2.3 1.15c-1.7.84-4.19.45-5.54-.88L57.3 1a3.53 3.53 0 00-4.92 0l-1.83 1.8a5.17 5.17 0 01-5.54.88l-2.3-1.15a3.53 3.53 0 00-4.68 1.52l-1.18 2.28a5.18 5.18 0 01-5 2.55l-2.55-.38a3.53 3.53 0 00-3.97 2.9l-.43 2.53a5.17 5.17 0 01-3.97 3.97l-2.53.42a3.53 3.53 0 00-2.9 3.98l.39 2.54a5.17 5.17 0 01-2.55 5l-2.28 1.18a3.53 3.53 0 00-1.52 4.68l1.15 2.3c.84 1.7.45 4.19-.88 5.54L8 45.37a3.53 3.53 0 000 4.92l1.8 1.83a5.17 5.17 0 01.88 5.54l-1.15 2.3a3.53 3.53 0 001.52 4.67l2.28 1.19a5.18 5.18 0 012.55 5l-.38 2.54a3.53 3.53 0 002.9 3.98l2.53.42a5.17 5.17 0 013.97 3.97l.42 2.53a3.53 3.53 0 003.98 2.9l2.54-.39a5.18 5.18 0 015 2.55l1.18 2.28a3.53 3.53 0 004.68 1.52l2.3-1.14c1.7-.85 4.19-.46 5.54.88l1.83 1.8a3.53 3.53 0 004.92 0l1.83-1.8a5.17 5.17 0 015.55-.88l2.29 1.14c1.7.85 3.8.17 4.68-1.52l1.18-2.28a5.18 5.18 0 015-2.55l2.54.39a3.53 3.53 0 003.98-2.9l.42-2.53a5.17 5.17 0 013.97-3.97l2.53-.42a3.53 3.53 0 002.9-3.98l-.39-2.54a5.18 5.18 0 012.55-5l2.28-1.18a3.53 3.53 0 001.53-4.68l-1.15-2.3c-.85-1.7-.46-4.19.88-5.54l1.8-1.84zM54.83 88.16a40.33 40.33 0 110-80.67 40.33 40.33 0 010 80.67z"/><path fill="#1E70BA" d="M30.1 35.57c.05.09.08.17.1.24v5.36c0 .42-.1.67-.34.74-.11.04-.26.05-.43.05-.18 0-.32-.01-.42-.05a.72.72 0 01-.23-.1.41.41 0 01-.13-.19 1.8 1.8 0 01-.05-.47v-3.04c-.15.19-.37.48-.66.89-.3.4-.48.67-.55.77l-.17.21c-.03.04-.1.1-.22.16a.76.76 0 01-.75.01.85.85 0 01-.25-.18l-.07-.1-.72-.97-.58-.8v3.07l-.01.31a.6.6 0 01-.1.23c-.08.17-.32.25-.7.25-.37 0-.6-.08-.69-.25a.67.67 0 01-.09-.23l-.01-.33v-5.04l.01-.31c.01-.07.04-.15.1-.24.08-.16.32-.24.7-.24.16 0 .3.02.42.06.12.04.2.08.23.12l.06.06 2.06 2.7a190.2 190.2 0 012.06-2.7c.1-.16.35-.24.73-.24s.62.08.7.25zM35.1 35.78l2.45 5.07c.1.2.15.36.15.46 0 .22-.17.42-.52.6-.2.1-.37.15-.49.15a.5.5 0 01-.45-.25l-.14-.28-.47-.98H33.1l-.47.98-.14.27a.66.66 0 01-.17.17.48.48 0 01-.29.08 1.2 1.2 0 01-.48-.15c-.35-.17-.53-.37-.53-.59 0-.1.05-.25.16-.46l2.45-5.08a.81.81 0 01.3-.33.82.82 0 01.43-.13c.33 0 .57.16.73.47zm-.74 2.18l-.6 1.25h1.21l-.6-1.25zM39.34 35.3l1.68.01c.88 0 1.65.32 2.32.95.66.63 1 1.41 1 2.34 0 .92-.33 1.71-.98 2.37a3.2 3.2 0 01-2.37 1h-1.66c-.37 0-.6-.08-.69-.23a1.22 1.22 0 01-.1-.58V36.1v-.32l.1-.23c.08-.17.31-.25.7-.25zm2.86 4.57c.35-.33.53-.73.53-1.22 0-.5-.17-.9-.52-1.23-.34-.33-.74-.5-1.2-.5h-.87v3.43h.88c.44 0 .83-.16 1.18-.48zM47 40.36h2.79c.14 0 .24 0 .31.02a.7.7 0 01.25.08c.16.09.24.32.24.71 0 .42-.11.67-.33.75-.1.03-.27.05-.48.05h-3.6c-.42 0-.67-.11-.74-.35a1.4 1.4 0 01-.05-.46v-5.05c0-.3.05-.52.17-.63.12-.11.34-.17.66-.17h3.58c.14 0 .24 0 .31.02a.7.7 0 01.24.08c.17.09.25.33.25.71 0 .43-.11.68-.34.75-.1.03-.26.05-.47.05H47v.92h1.8l.31.01c.07 0 .15.04.24.09.16.08.25.32.25.7 0 .43-.12.68-.35.75-.1.04-.26.05-.47.05H47v.92zM55 36.11l.01-.31c0-.08.04-.16.09-.25.08-.16.32-.24.7-.24.43 0 .68.11.76.33.03.1.04.27.04.48v5.05l-.01.31c0 .07-.04.15-.09.24-.08.16-.32.25-.7.25-.43 0-.68-.12-.75-.35-.04-.1-.05-.25-.05-.46V36.1zM62.22 35.59c.06-.1.15-.18.26-.21.12-.04.26-.06.43-.06.18 0 .31.02.42.05.1.03.19.07.23.1.06.05.1.11.12.2.04.1.05.25.05.46v5.04l-.01.32c-.01.07-.04.14-.1.23-.07.17-.31.25-.7.25-.23 0-.4-.02-.5-.05a.54.54 0 01-.22-.18l-2.69-3.56v3l-.01.3c0 .08-.04.15-.09.24-.08.17-.32.25-.7.25-.38 0-.61-.08-.7-.25a.69.69 0 01-.08-.24l-.02-.32v-5.07c0-.23.03-.4.09-.5.06-.1.14-.18.26-.21.11-.04.26-.06.44-.06s.33.02.43.05c.1.04.18.07.23.12l.2.23a257.6 257.6 0 002.57 3.44V36.1c0-.23.04-.4.1-.5zM68.33 35.3h5.05c.2 0 .34.03.43.07.1.05.15.12.18.21.03.1.05.23.05.39s-.02.28-.05.37a.32.32 0 01-.15.2c-.11.05-.27.08-.46.08h-1.74v4.57l-.01.31c-.01.07-.04.15-.09.23a.39.39 0 01-.24.19 1.5 1.5 0 01-.45.05 1.6 1.6 0 01-.45-.05.38.38 0 01-.24-.19.8.8 0 01-.08-.23l-.02-.31v-4.57h-1.74c-.2 0-.34-.02-.43-.07a.35.35 0 01-.18-.2c-.03-.1-.05-.23-.05-.4 0-.15.02-.28.05-.37.03-.1.08-.16.15-.2.12-.05.27-.08.47-.08zM78.97 35.56c.05-.1.13-.16.25-.2.11-.03.26-.05.43-.05.18 0 .32.02.42.05.1.03.18.07.24.11.05.04.1.1.12.18.03.1.05.26.05.47v5.05c0 .14 0 .24-.02.31 0 .07-.03.15-.08.24-.09.16-.32.25-.71.25-.42 0-.67-.12-.75-.34-.03-.1-.05-.26-.05-.47V39.3h-2.4v1.86l-.02.31c0 .07-.04.15-.09.24-.08.16-.32.25-.7.25-.43 0-.68-.12-.75-.34-.04-.1-.05-.26-.05-.47V36.1l.01-.31c0-.08.04-.16.09-.25.08-.16.32-.24.7-.24.43 0 .68.11.76.33.03.1.04.27.04.48v1.85h2.41v-1.86c0-.14 0-.24.02-.31a.88.88 0 01.08-.24zM83.04 40.36h2.8c.14 0 .24 0 .31.02a.7.7 0 01.24.08c.17.09.25.32.25.71 0 .42-.12.67-.34.75-.1.03-.26.05-.47.05h-3.6c-.42 0-.67-.11-.74-.35-.04-.1-.06-.24-.06-.46v-5.05c0-.3.06-.52.18-.63.11-.11.33-.17.65-.17h3.58c.14 0 .25 0 .32.02a.7.7 0 01.24.08c.16.09.25.33.25.71 0 .43-.12.68-.34.75-.1.03-.26.05-.47.05h-2.8v.92h1.8l.32.01a.7.7 0 01.24.09c.16.08.25.32.25.7 0 .43-.12.68-.35.75-.1.04-.26.05-.47.05h-1.78v.92h-.01zM44.08 47.19c.12-.2.3-.33.53-.4.23-.08.52-.12.86-.12.35 0 .62.04.83.1.2.06.36.13.47.22.1.08.19.2.23.38.08.2.11.52.11.94v5.5c0 1.59-.5 3.04-1.49 4.35a5.44 5.44 0 01-4.4 2.07 5.43 5.43 0 01-4.37-2.1 7 7 0 01-1.47-4.37V48.3c0-.3 0-.51.02-.65s.08-.3.18-.48a.8.8 0 01.49-.39c.23-.07.53-.1.92-.1.4 0 .7.03.93.1.23.08.39.2.47.39.15.28.22.66.22 1.14v5.45c0 .74.18 1.44.55 2.1.18.35.45.62.82.83.36.2.79.3 1.29.3.88 0 1.54-.32 1.98-.97a4 4 0 00.65-2.27v-5.56a2 2 0 01.18-1zM50.23 58.14c-.32-.39-.48-.74-.48-1.05 0-.3.26-.71.78-1.22.3-.3.63-.44.96-.44.34 0 .81.3 1.42.91.17.2.41.4.73.6.31.18.6.27.87.27 1.12 0 1.68-.46 1.68-1.38 0-.28-.15-.51-.46-.7-.3-.19-.69-.33-1.15-.4a10.1 10.1 0 01-2.98-1.07 3.02 3.02 0 01-1.16-1.22 4 4 0 01-.46-1.99c0-1.06.4-2 1.2-2.79.79-.8 1.87-1.19 3.24-1.19.72 0 1.38.1 1.99.28.6.19 1.01.38 1.24.58l.46.34c.37.35.56.65.56.89s-.14.57-.44 1c-.4.6-.83.9-1.27.9a1.88 1.88 0 01-1.15-.54c-.1-.1-.2-.17-.28-.23a1.8 1.8 0 00-.97-.24c-.4 0-.72.1-.98.28a.9.9 0 00-.4.78c0 .34.16.6.47.81.3.2.69.35 1.15.42a13.35 13.35 0 013.01.89c.46.22.85.6 1.16 1.13.3.54.46 1.2.46 2 0 .78-.16 1.47-.47 2.08a3.6 3.6 0 01-1.24 1.39c-.98.64-2.03.96-3.14.96-.57 0-1.1-.07-1.61-.21-.51-.14-.92-.31-1.24-.52a4.36 4.36 0 01-1.34-1.13l-.16-.2zM69.06 47.64l4.91 10.14c.2.4.31.71.31.92 0 .44-.35.83-1.06 1.18-.4.2-.73.31-.97.31a.97.97 0 01-.58-.16 1.06 1.06 0 01-.33-.34l-.28-.55-.94-1.96h-5.04l-.94 1.96-.28.53c-.07.1-.18.22-.33.34a.94.94 0 01-.58.17c-.24 0-.56-.1-.98-.3-.7-.35-1.05-.73-1.05-1.17 0-.2.1-.51.3-.93l4.91-10.15c.14-.28.34-.5.61-.68.28-.17.56-.25.87-.25.66 0 1.14.3 1.45.94zM67.6 52l-1.2 2.49h2.41l-1.21-2.5zM26.43 30.92h57.02v-.01a2.33 2.33 0 001.7-3.6 36.56 36.56 0 00-30.32-16.1 36.57 36.57 0 00-30.2 15.93 2.32 2.32 0 001.8 3.78z"/><path fill="#fff" d="M58.79 19.3L56.65 19l-.95-1.93c-.48-.97-1.25-.97-1.73 0l-.95 1.93-2.15.31c-1 .15-1.27.83-.63 1.54l1.65 1.6-.37 2.14c-.17 1 .39 1.47 1.25 1.08l2.06-1.08 2.06 1.08c.87.38 1.42-.08 1.25-1.08l-.36-2.13 1.64-1.6c.64-.72.38-1.4-.63-1.55zM45.05 20.8l-1.71-.26-.76-1.55c-.38-.76-1-.76-1.39 0l-.76 1.55-1.71.25c-.81.12-1.02.66-.5 1.23l1.31 1.29-.29 1.7c-.14.8.3 1.17 1 .87l1.65-.87 1.64.87c.7.3 1.14-.07 1-.87l-.29-1.7 1.32-1.29c.51-.57.3-1.11-.5-1.23z"/><path fill="#fff" d="M50.87 19.3l2.14-.31.96-1.93c.47-.97 1.24-.97 1.72 0l.96 1.93 2.13.31c1.01.15 1.28.83.64 1.54l-1.65 1.6.36 2.14c.17 1-.38 1.47-1.25 1.08l-2.06-1.08-2.05 1.08c-.87.38-1.42-.08-1.25-1.08l.36-2.13-1.64-1.6c-.64-.72-.38-1.4.63-1.55zM64.6 20.8l1.72-.26.76-1.55c.39-.76 1-.76 1.39 0l.76 1.55 1.71.25c.81.12 1.02.66.5 1.23l-1.3 1.29.28 1.7c.14.8-.3 1.17-1 .87L67.78 25l-1.65.87c-.7.3-1.14-.07-1-.87l.3-1.7-1.32-1.29c-.52-.57-.31-1.11.5-1.23z"/><path fill="#C94141" d="M58.72 64.73c-.64 0-1.17.43-1.17.95v17.69c0 .52.53.89 1.17.82l3.99-.57c.63-.1 1.15-.62 1.15-1.14v-16.8c0-.52-.53-.94-1.17-.94h-3.97zM70.49 64.73c-.65 0-1.17.43-1.17.95v14.84c0 .52.46.74 1.03.5l4.2-2.12c.53-.29.97-.95.97-1.47V65.68c0-.52-.53-.94-1.17-.94h-3.86zM82.15 71.72c.54 0 1.13-.7 1.13-.7.5-.74 2.5-2.7 3.1-5.05a.71.71 0 00.05-.2v-.05-.05c0-.52-.52-.94-1.17-.94H82.14c-.6 0-1.08.36-1.15.82h-.01v5.23c0 .52.53.94 1.17.94zM50.98 64.73c.64 0 1.17.43 1.17.95v17.69c0 .52-.52.89-1.16.82l-4-.57c-.63-.1-1.14-.62-1.14-1.14v-16.8c0-.52.52-.94 1.17-.94h3.96zM39.21 64.73c.65 0 1.17.43 1.17.95v14.84c0 .52-.46.74-1.03.5l-4.2-2.12c-.53-.29-.97-.95-.97-1.47V65.68c0-.52.53-.94 1.17-.94h3.86zM27.55 71.72c-.53 0-1.13-.7-1.13-.7-.5-.74-2.5-2.7-3.1-5.05a.71.71 0 01-.04-.2l-.02-.05h.02v-.05c0-.52.51-.94 1.16-.94h3.12c.6 0 1.08.36 1.15.82h.01v5.23c0 .52-.52.94-1.17.94z"/><mask id="a" width="120" height="97" x="0" y="103" mask-type="alpha" maskUnits="userSpaceOnUse"><path fill="#C4C4C4" d="M0 103h119.58v96.86H0z"/></mask></svg>