<svg xmlns="http://www.w3.org/2000/svg" width="257" height="62" fill="none" viewBox="0 0 257 62"><path stroke="#5E5E5F" stroke-width="3" d="M28.03 59.68c-.59.29-1.07.51-1.42.67-.34-.16-.82-.38-1.4-.67a81.06 81.06 0 01-4.88-2.6c-3.83-2.21-8.14-5.17-10.65-8.3a34.22 34.22 0 01-5.62-9.54c-1.2-3.2-1.86-6.66-2.34-11.07a79.3 79.3 0 01-.18-8.83 194.77 194.77 0 01.14-4.41 284.6 284.6 0 004.45-1.84A136.3 136.3 0 0015.4 8.8c2.65-1.4 5.67-3.3 8.01-4.83a174.67 174.67 0 003.2-2.15 167.2 167.2 0 003.19 2.15c2.34 1.54 5.36 3.44 8 4.83 2.64 1.39 6.31 3.01 9.3 4.28a283.76 283.76 0 004.39 1.82v13.42c0 4.33-.66 7.74-1.95 10.89-1.3 3.16-3.27 6.13-6 9.55-2.5 3.14-6.82 6.1-10.65 8.31a81.03 81.03 0 01-4.87 2.6z"/><path fill="#5E5E5F" d="M69.19 11.7H72l2.6 17.46 3.28-17.37h2.4l3.3 17.46 2.55-17.55h2.76L85 36h-2.46l-3.4-18-3.41 18h-2.58l-3.96-24.3zm22.66 0h9.42v2.52h-6.03v8.04h4.9v2.4h-4.9v8.91h6.1V36h-9.49V11.7zm12.22 0h5.58c2.2 0 3.83.5 4.89 1.5 1.06.98 1.59 2.51 1.59 4.59 0 3.1-1.16 4.81-3.48 5.13a4.9 4.9 0 013.15 2.04c.66 1 .99 2.37.99 4.11 0 2.18-.52 3.88-1.56 5.1-1.02 1.22-2.58 1.83-4.68 1.83h-6.48V11.7zm5.4 10.14c1.4 0 2.37-.3 2.9-.9.55-.62.82-1.67.82-3.15a4.3 4.3 0 00-.51-2.37 2.17 2.17 0 00-1.47-.99c-.66-.14-1.64-.21-2.94-.21h-.81v7.62h2zm.27 11.73c1 0 1.77-.15 2.3-.45.57-.32.96-.8 1.18-1.44.22-.64.33-1.51.33-2.61 0-1.56-.32-2.72-.96-3.48-.64-.78-1.68-1.17-3.12-1.17h-2.01v9.15h2.28zm15.79 2.7c-2.04 0-3.6-.63-4.68-1.89-1.06-1.26-1.65-2.99-1.77-5.19l3-.81c.1 1.56.4 2.82.9 3.78.52.96 1.37 1.44 2.55 1.44.88 0 1.54-.24 1.98-.72.46-.5.69-1.21.69-2.13 0-1-.21-1.83-.63-2.49a10.68 10.68 0 00-2.01-2.19l-4.08-3.6a7.06 7.06 0 01-1.8-2.31 7.76 7.76 0 01-.54-3.06c0-1.78.51-3.16 1.53-4.14a5.77 5.77 0 014.17-1.47c1.92 0 3.37.51 4.35 1.53.98 1.02 1.57 2.6 1.77 4.74l-2.88.78a7.4 7.4 0 00-.84-3.27c-.44-.78-1.24-1.17-2.4-1.17-.86 0-1.52.23-1.98.69-.46.44-.69 1.1-.69 1.98 0 .72.12 1.33.36 1.83.24.48.65.97 1.23 1.47l4.11 3.6c1.06.94 1.9 1.96 2.52 3.06.64 1.1.96 2.35.96 3.75a5.6 5.6 0 01-1.62 4.23 5.8 5.8 0 01-4.2 1.56zm8.63-24.57h3.33V36h-3.33V11.7zm9.93 2.52H140V11.7h11.48v2.52h-3.99V36h-3.39V14.22zm9.72-2.52h9.42v2.52h-6.03v8.04h4.9v2.4h-4.9v8.91h6.1V36h-9.49V11.7zm24.8 24.57c-2.03 0-3.6-.63-4.67-1.89-1.06-1.26-1.65-2.99-1.77-5.19l3-.81c.1 1.56.4 2.82.9 3.78.52.96 1.37 1.44 2.55 1.44.88 0 1.54-.24 1.98-.72.46-.5.69-1.21.69-2.13 0-1-.21-1.83-.63-2.49a10.68 10.68 0 00-2.01-2.19l-4.08-3.6a7.06 7.06 0 01-1.8-2.31 7.76 7.76 0 01-.54-3.06c0-1.78.5-3.16 1.53-4.14a5.77 5.77 0 014.17-1.47c1.92 0 3.37.51 4.35 1.53.98 1.02 1.57 2.6 1.77 4.74l-2.88.78a7.4 7.4 0 00-.84-3.27c-.44-.78-1.24-1.17-2.4-1.17-.86 0-1.52.23-1.98.69-.46.44-.7 1.1-.7 1.98 0 .72.13 1.33.37 1.83.24.48.65.97 1.23 1.47l4.1 3.6c1.07.94 1.9 1.96 2.53 3.06.64 1.1.96 2.35.96 3.75a5.6 5.6 0 01-1.62 4.23 5.8 5.8 0 01-4.2 1.56zm8.46-24.57h9.42v2.52h-6.03v8.04h4.89v2.4h-4.9v8.91h6.1V36h-9.48V11.7zm18.3 24.57c-2.4 0-4.09-.71-5.07-2.13-.98-1.44-1.47-3.42-1.47-5.94v-8.58c0-2.66.48-4.68 1.44-6.06s2.66-2.07 5.1-2.07c2.18 0 3.74.59 4.68 1.77.96 1.18 1.44 2.92 1.44 5.22v1.92h-3.2v-1.71c0-1.12-.06-1.98-.16-2.58-.1-.6-.36-1.08-.78-1.44-.4-.36-1.05-.54-1.95-.54-.92 0-1.6.2-2.07.6-.44.38-.73.92-.87 1.62-.14.68-.2 1.6-.2 2.76v9.63c0 1.24.1 2.21.3 2.91.2.7.51 1.2.95 1.5.46.3 1.1.45 1.9.45.85 0 1.5-.19 1.91-.57.42-.38.68-.9.78-1.56.12-.66.18-1.56.18-2.7v-1.8h3.21v1.8c0 2.42-.46 4.28-1.38 5.58-.9 1.28-2.48 1.92-4.74 1.92zm15.62 0c-1.7 0-3.03-.34-3.99-1.02a5.22 5.22 0 01-1.95-2.85 16.5 16.5 0 01-.54-4.59V11.7h3.24v16.26c0 1.84.21 3.24.63 4.2.44.96 1.31 1.44 2.61 1.44 1.3 0 2.16-.48 2.58-1.44.44-.96.66-2.36.66-4.2V11.7h3.21v16.11c0 1.84-.18 3.37-.54 4.59a5.22 5.22 0 01-1.95 2.85c-.94.68-2.26 1.02-3.96 1.02zm10.02-24.57h4.9c2.45 0 4.25.51 5.4 1.53 1.15 1 1.73 2.64 1.73 4.92 0 3.12-1 5.01-3 5.67L243.5 36h-3.27l-3.18-11.4h-2.64V36h-3.39V11.7zm4.68 10.47c1.46 0 2.5-.29 3.12-.87.64-.58.96-1.63.96-3.15 0-1-.1-1.78-.33-2.34a2.2 2.2 0 00-1.17-1.26 5.4 5.4 0 00-2.37-.42h-1.5v8.04h1.3zm10.88-10.47h9.42v2.52h-6.03v8.04h4.89v2.4h-4.9v8.91h6.1V36h-9.48V11.7zM72.37 57.18c-1.14 0-2-.35-2.6-1.04a4.9 4.9 0 01-1.03-2.92l1.2-.36a5.6 5.6 0 00.69 2.38c.36.55.95.82 1.76.82 1.37 0 2.05-.7 2.05-2.1 0-.6-.14-1.13-.43-1.59a7.95 7.95 0 00-1.35-1.56l-2.57-2.47A4.34 4.34 0 0169.06 47a4 4 0 01-.3-1.58c0-1 .29-1.77.88-2.3.6-.56 1.4-.83 2.41-.83 1.08 0 1.9.28 2.48.86.58.58.92 1.52 1.01 2.83l-1.17.3a4.3 4.3 0 00-.63-2.2c-.33-.47-.9-.71-1.69-.71a2.2 2.2 0 00-1.5.48c-.37.33-.55.8-.55 1.44 0 .41.08.78.23 1.1.16.32.42.67.8 1.03l2.57 2.43a8.27 8.27 0 011.55 1.92c.38.65.57 1.35.57 2.1 0 1.06-.3 1.88-.92 2.46a3.4 3.4 0 01-2.43.86zm7.53-.02c-.67 0-1.21-.13-1.62-.4a2.3 2.3 0 01-.9-1.27 7.97 7.97 0 01-.3-2.4v-2.62c0-1.02.1-1.82.3-2.4.2-.59.5-1 .92-1.26.42-.25.96-.38 1.62-.38.72 0 1.27.16 1.65.47.4.3.67.76.81 1.37.16.61.24 1.43.24 2.47v.93H78.4v1.82c0 1 .12 1.7.35 2.09.22.4.6.6 1.15.6.45 0 .8-.15 1.04-.44.25-.29.38-.81.38-1.57v-.72h1.28v.58c0 1-.21 1.78-.63 2.32-.42.54-1.11.81-2.07.81zm1.42-6.24v-.87a7.9 7.9 0 00-.1-1.47c-.07-.36-.2-.65-.4-.85-.2-.2-.51-.3-.92-.3-.37 0-.67.08-.88.25-.22.15-.38.43-.47.84-.1.4-.15.96-.15 1.7v.7h2.92zm5.66 6.24c-.77 0-1.36-.17-1.76-.5a2.6 2.6 0 01-.83-1.39c-.13-.59-.2-1.32-.2-2.21v-2.43c0-1.01.08-1.81.23-2.41.17-.6.45-1.05.85-1.34.4-.3.98-.45 1.71-.45 1.02 0 1.72.29 2.09.85.37.55.56 1.38.56 2.48v.5H88.4v-.5c0-.6-.05-1.08-.14-1.42-.09-.33-.23-.57-.43-.7-.2-.14-.49-.22-.85-.22-.4 0-.72.1-.94.3-.2.18-.34.49-.43.91-.07.4-.1 1-.1 1.78v2.92c0 .72.04 1.28.12 1.69.08.4.23.7.45.88.22.18.52.27.92.27s.7-.08.9-.25c.2-.18.33-.44.4-.8.07-.34.1-.83.1-1.45v-.58h1.23v.5c0 .79-.08 1.44-.22 1.95-.13.5-.39.9-.77 1.19-.39.29-.94.43-1.66.43zm5.94 0c-.53 0-.94-.19-1.21-.57a2.78 2.78 0 01-.41-1.64V46.6h1.33v8.06c0 .53.08.9.23 1.13.17.22.42.33.76.33.3 0 .6-.1.91-.27.33-.2.64-.45.92-.76v-8.5h1.32V57h-1.32v-1.15c-.34.4-.73.73-1.17.97-.43.23-.89.34-1.36.34zm5.97-10.56h1.33v1.42c.32-.52.68-.9 1.1-1.15a2.55 2.55 0 011.53-.36v1.4c-.21-.07-.43-.1-.64-.1-.83 0-1.5.4-1.98 1.2V57h-1.34V46.6zm7.81 10.56c-.67 0-1.2-.13-1.62-.4a2.3 2.3 0 01-.9-1.27 7.97 7.97 0 01-.28-2.4v-2.62c0-1.02.1-1.82.28-2.4.2-.59.51-1 .92-1.26.42-.25.96-.38 1.62-.38.72 0 1.27.16 1.66.47.4.3.66.76.8 1.37.16.61.24 1.43.24 2.47v.93h-4.21v1.82c0 1 .11 1.7.34 2.09.23.4.61.6 1.15.6.46 0 .8-.15 1.05-.44.25-.29.38-.81.38-1.57v-.72h1.27v.58c0 1-.2 1.78-.63 2.32-.42.54-1.1.81-2.07.81zm1.43-6.24v-.87a7.9 7.9 0 00-.11-1.47c-.06-.36-.2-.65-.4-.85-.2-.2-.5-.3-.92-.3-.37 0-.66.08-.88.25-.21.15-.37.43-.47.84-.1.4-.14.96-.14 1.7v.7h2.92zm6.61 5.1l3.93-6a4.97 4.97 0 00.23-.35c.5-.76.85-1.41 1.08-1.94.24-.53.36-1.15.36-1.85 0-.8-.16-1.4-.48-1.84-.33-.44-.81-.67-1.46-.67-.84 0-1.43.27-1.75.81a4.28 4.28 0 00-.48 2.24v.32h-1.32v-.36c0-1.37.28-2.4.83-3.08.56-.68 1.45-1.02 2.66-1.02 1.08 0 1.9.32 2.47.97.56.63.84 1.55.84 2.73 0 .56-.07 1.08-.23 1.57-.16.5-.35.94-.58 1.33-.21.39-.52.88-.91 1.5l-3.64 5.5h5.06V57h-6.6v-.97zm12.2 1.14c-1.14 0-1.97-.32-2.49-.97-.5-.66-.75-1.64-.75-2.95H125c0 .95.14 1.66.43 2.14.3.48.82.72 1.55.72.8 0 1.33-.29 1.6-.86.28-.6.42-1.54.42-2.85 0-.9-.07-1.6-.2-2.12-.12-.53-.33-.9-.63-1.14a1.77 1.77 0 00-1.17-.36c-.78 0-1.41.4-1.9 1.21h-1.09v-7.56h5.67l-.02 1.24h-4.48l-.07 5.06a2.69 2.69 0 012.23-.97c1.04 0 1.8.38 2.27 1.15.47.76.7 1.87.7 3.33 0 1.63-.26 2.86-.8 3.69-.52.83-1.38 1.24-2.58 1.24zm8.79.02c-2.24 0-3.37-1.52-3.37-4.57v-5.82c0-3 1.12-4.51 3.35-4.51 2.16 0 3.25 1.12 3.28 3.36l.02.3h-1.32c0-.93-.15-1.6-.45-1.99-.29-.4-.78-.6-1.47-.6-1.4 0-2.1 1.05-2.1 3.14v2.75a3.6 3.6 0 012.34-.85c.8 0 1.42.16 1.88.46.46.3.78.76.97 1.4.2.62.3 1.45.3 2.48 0 2.97-1.14 4.45-3.43 4.45zm0-1.1c.72 0 1.25-.24 1.58-.74.35-.49.53-1.27.53-2.35 0-.9-.05-1.58-.15-2.07-.1-.5-.3-.87-.6-1.12-.3-.25-.75-.38-1.36-.38-.38 0-.77.1-1.15.27-.39.17-.69.36-.9.56v2.52c0 1.16.16 2.01.48 2.54.34.51.86.77 1.57.77zm5.2-5.47h3.82v1.04h-3.82v-1.04zm8.77 6.55c-.68 0-1.3-.33-1.86-.99V57h-1.31V42.42h1.31v5.04c.23-.3.51-.55.85-.74.33-.19.71-.29 1.13-.29.91 0 1.54.38 1.87 1.14.34.75.5 1.76.5 3v2.2c0 1.43-.18 2.52-.55 3.28-.37.74-1.02 1.11-1.94 1.11zm-.24-1.04c.57 0 .94-.26 1.12-.78.19-.51.29-1.36.29-2.53v-2.24c0-1.11-.1-1.91-.3-2.39-.17-.48-.55-.72-1.13-.72-.52 0-1.06.27-1.6.81v7.1c.46.5 1 .75 1.62.75zm4.68-12.75h1.32v1.79h-1.32v-1.79zm0 3.23h1.32V57h-1.32V46.6zm6 10.53c-.71 0-1.2-.2-1.48-.58-.26-.4-.4-.97-.4-1.71v-7.38H157v-.86h1.28v-3.23h1.31v3.23h1.73v.86h-1.73v7.25c0 .53.06.9.18 1.1.12.2.37.29.74.29.23 0 .48-.03.75-.09v1c-.37.08-.74.12-1.11.12zm9.62.05c-1.14 0-2.01-.35-2.61-1.04a4.9 4.9 0 01-1.03-2.92l1.2-.36a5.6 5.6 0 00.7 2.38c.35.55.94.82 1.75.82 1.37 0 2.06-.7 2.06-2.1 0-.6-.15-1.13-.44-1.59a7.95 7.95 0 00-1.34-1.56l-2.58-2.47a4.34 4.34 0 01-1.03-1.35 4 4 0 01-.3-1.58c0-1 .3-1.77.88-2.3.6-.56 1.4-.83 2.41-.83 1.08 0 1.91.28 2.49.86.57.58.9 1.52 1 2.83l-1.16.3a4.3 4.3 0 00-.63-2.2c-.34-.47-.9-.71-1.7-.71a2.2 2.2 0 00-1.5.48c-.36.33-.55.8-.55 1.44 0 .41.08.78.24 1.1.15.32.41.67.79 1.03l2.57 2.43a8.27 8.27 0 011.55 1.92c.38.65.57 1.35.57 2.1 0 1.06-.3 1.88-.91 2.46a3.4 3.4 0 01-2.43.86zm8.28 0c-1.14 0-2.01-.35-2.61-1.04a4.9 4.9 0 01-1.03-2.92l1.2-.36a5.6 5.6 0 00.69 2.38c.36.55.95.82 1.76.82 1.37 0 2.06-.7 2.06-2.1 0-.6-.15-1.13-.44-1.59a7.95 7.95 0 00-1.35-1.56l-2.57-2.47a4.34 4.34 0 01-1.03-1.35 4 4 0 01-.3-1.58c0-1 .3-1.77.88-2.3.6-.56 1.4-.83 2.41-.83 1.08 0 1.91.28 2.49.86.57.58.9 1.52 1 2.83l-1.17.3a4.3 4.3 0 00-.63-2.2c-.33-.47-.9-.71-1.69-.71a2.2 2.2 0 00-1.5.48c-.36.33-.55.8-.55 1.44 0 .41.08.78.23 1.1.16.32.42.67.8 1.03l2.57 2.43a8.27 8.27 0 011.55 1.92c.38.65.57 1.35.57 2.1 0 1.06-.3 1.88-.91 2.46a3.4 3.4 0 01-2.43.86zm5.18-14.76h1.37v13.55h4.14V57h-5.51V42.42zm10.53 0h5.27v1.06h-3.89v5.47h3.17v1.01h-3.17v6.01h3.93V57h-5.31V42.42zm6.92 4.18h1.31v1.08c.35-.39.73-.69 1.15-.9.44-.23.89-.35 1.35-.35.52 0 .92.2 1.2.58.27.38.4.93.4 1.64V57h-1.3v-8.06c0-.53-.1-.91-.26-1.14-.16-.23-.4-.34-.74-.34-.29 0-.59.09-.9.27-.31.17-.61.4-.9.7V57h-1.31V46.6zm9.96 10.56c-.77 0-1.36-.17-1.77-.5a2.6 2.6 0 01-.83-1.39c-.13-.59-.2-1.32-.2-2.21v-2.43c0-1.01.08-1.81.24-2.41.17-.6.45-1.05.84-1.34.41-.3.98-.45 1.72-.45 1.02 0 1.71.29 2.08.85.38.55.56 1.38.56 2.48v.5h-1.22v-.5c0-.6-.05-1.08-.15-1.42-.08-.33-.22-.57-.43-.7-.2-.14-.48-.22-.84-.22-.41 0-.72.1-.94.3-.2.18-.35.49-.43.91-.07.4-.11 1-.11 1.78v2.92c0 .72.04 1.28.13 1.69.08.4.23.7.44.88.22.18.53.27.92.27.41 0 .71-.08.9-.25.2-.18.34-.44.4-.8.07-.34.1-.83.1-1.45v-.58h1.23v.5c0 .79-.07 1.44-.22 1.95-.13.5-.39.9-.77 1.19-.38.29-.94.43-1.66.43zm4.49-10.56h1.33v1.42c.31-.52.68-.9 1.1-1.15a2.55 2.55 0 011.53-.36v1.4c-.22-.07-.43-.1-.65-.1-.83 0-1.49.4-1.98 1.2V57h-1.33V46.6zm4.97 11.97c.84 0 1.4-.1 1.69-.27a.9.9 0 00.43-.81 13.2 13.2 0 00-.34-1.73l-2.15-9.16h1.32l1.8 8.85 1.75-8.85h1.33l-2.52 11.14a2.16 2.16 0 01-.94 1.42c-.47.29-1.15.43-2.03.43h-.34v-1.02zm7.14-11.97h1.31v.86a2.46 2.46 0 012-1.03c.91 0 1.53.38 1.86 1.14.33.74.5 1.74.5 3v2.2c0 1.43-.19 2.52-.56 3.28-.37.74-1.02 1.11-1.94 1.11-.65 0-1.27-.33-1.86-.99v4.25h-1.31V46.6zm2.97 9.52c.55 0 .92-.26 1.1-.78.19-.51.28-1.36.28-2.53v-2.24c0-1.11-.1-1.91-.28-2.39-.18-.48-.56-.72-1.14-.72-.54 0-1.08.27-1.62.81v7.1c.48.5 1.03.75 1.66.75zm7 1c-.7 0-1.2-.19-1.47-.57-.27-.4-.4-.97-.4-1.71v-7.38h-1.28v-.86h1.28v-3.23h1.31v3.23h1.73v.86h-1.73v7.25c0 .53.06.9.18 1.1.12.2.37.29.74.29.23 0 .48-.03.76-.09v1c-.38.08-.75.12-1.12.12zm2.72-13.75h1.32v1.79h-1.32v-1.79zm0 3.23h1.32V57h-1.32V46.6zm6.1 10.56c-1.03 0-1.75-.32-2.15-.95a5.69 5.69 0 01-.62-2.97v-2.88c0-1.33.2-2.32.62-2.95.4-.65 1.13-.98 2.16-.98 1.04 0 1.77.33 2.18.98.4.63.6 1.62.6 2.95v2.88c0 1.33-.2 2.32-.6 2.97-.41.63-1.14.95-2.18.95zm0-.99c.44 0 .76-.11.96-.34.22-.23.36-.53.42-.92.06-.4.09-.93.09-1.6v-3.02c0-.68-.03-1.2-.1-1.59-.05-.4-.2-.7-.4-.93-.21-.23-.53-.35-.96-.35-.44 0-.75.12-.96.35-.2.22-.33.54-.4.93-.05.39-.08.91-.08 1.59v3.02c0 .67.03 1.2.09 1.6.06.39.19.7.4.92.2.23.51.34.95.34zm4.62-9.57h1.32v1.08c.34-.39.73-.69 1.15-.9.43-.23.88-.35 1.35-.35.51 0 .91.2 1.19.58.27.38.41.93.41 1.64V57h-1.31v-8.06c0-.53-.09-.91-.25-1.14-.16-.23-.4-.34-.74-.34-.3 0-.6.09-.9.27-.32.17-.62.4-.9.7V57h-1.32V46.6z"/><path fill="#5E5E5F" fill-rule="evenodd" d="M22 19h9a1 1 0 011 1v7H21v-7a1 1 0 011-1zm-4 8.13V20a4 4 0 014-4h9a4 4 0 014 4v7.13A4 4 0 0138 31v2h-4v1h4v2h-4v1h4v2h-4v1h4v1a4 4 0 01-4 4H19a4 4 0 01-4-4V31a4 4 0 013-3.87zm9 10.82a2.5 2.5 0 10-1 0V40h1v-2.05z" clip-rule="evenodd"/></svg>