<svg width="65" height="65" viewBox="0 0 65 65" fill="none" xmlns="http://www.w3.org/2000/svg">
<g clip-path="url(#clip0_0_3130)">
<circle cx="32.5" cy="32.5" r="30.5" fill="#3DC051" stroke="white" stroke-width="4"/>
<path d="M31.9999 18.6541C37.7918 27.2627 41.4999 33.2572 41.4999 38.4505C41.4999 43.6248 37.2392 47.8333 31.9999 47.8333C26.7607 47.8333 22.4999 43.6248 22.4999 38.4521C22.4999 33.2572 26.2081 27.2627 31.9999 18.6541ZM31.9999 13C24.2891 24.3953 19.3333 31.5234 19.3333 38.4521C19.3333 45.3839 25 51 31.9999 51C38.9998 51 44.6666 45.3839 44.6666 38.4521C44.6666 31.5234 39.7108 24.3953 31.9999 13ZM36.2053 32C37.7395 37.5163 35.5624 42.8601 31.9999 44.3199C37.2534 45.072 41.4904 38.8321 36.2053 32Z" fill="white"/>
</g>
<defs>
<clipPath id="clip0_0_3130">
<rect width="65" height="65" fill="white"/>
</clipPath>
</defs>
</svg>
