<svg width="65" height="65" viewBox="0 0 65 65" fill="none" xmlns="http://www.w3.org/2000/svg">
<g clip-path="url(#clip0_0_3147)">
<circle cx="32.5" cy="32.5" r="30.5" fill="#3DC051" stroke="white" stroke-width="4"/>
<path d="M35.172 52.0001V45.6723C36.3833 45.6008 37.5216 45.0693 38.354 44.1863C39.1864 43.3034 39.65 42.1358 39.65 40.9223C39.65 39.7089 39.1864 38.5413 38.354 37.6583C37.5216 36.7754 36.3833 36.2438 35.172 36.1724C34.5424 36.1614 33.9169 36.2759 33.332 36.5093C32.7472 36.7427 32.2147 37.0902 31.7656 37.5316C31.3165 37.973 30.9598 38.4995 30.7163 39.0802C30.4729 39.661 30.3476 40.2844 30.3477 40.9141" stroke="white" stroke-width="3" stroke-miterlimit="10"/>
<path d="M31.9999 37.3784C31.3154 36.7719 30.4707 36.3755 29.5668 36.2366C28.6629 36.0977 27.7382 36.2222 26.9032 36.5953C26.0683 36.9683 25.3585 37.574 24.8589 38.3399C24.3592 39.1059 24.0909 39.9996 24.086 40.9141C24.0838 41.5381 24.2048 42.1565 24.4422 42.7337C24.6795 43.3109 25.0284 43.8356 25.4689 44.2776C25.9095 44.7197 26.4329 45.0705 27.0093 45.3098C27.5857 45.5491 28.2036 45.6723 28.8277 45.6723V52.0001" stroke="white" stroke-width="3" stroke-miterlimit="10"/>
<path d="M28.8278 14V20.3278C27.6165 20.3993 26.4782 20.9308 25.6458 21.8138C24.8135 22.6967 24.3499 23.8643 24.3499 25.0778C24.3499 26.2912 24.8135 27.4588 25.6458 28.3418C26.4782 29.2247 27.6165 29.7563 28.8278 29.8278C29.4574 29.8387 30.0829 29.7242 30.6678 29.4908C31.2527 29.2574 31.7852 28.9099 32.2343 28.4685C32.6834 28.0271 33.04 27.5007 33.2835 26.9199C33.5269 26.3392 33.6523 25.7158 33.6522 25.086" stroke="white" stroke-width="3" stroke-miterlimit="10"/>
<path d="M32 28.6217C32.6844 29.2282 33.5291 29.6246 34.433 29.7635C35.3369 29.9024 36.2617 29.7779 37.0966 29.4048C37.9316 29.0318 38.6414 28.4261 39.141 27.6602C39.6406 26.8942 39.909 26.0005 39.9139 25.086C39.9161 24.462 39.795 23.8436 39.5577 23.2664C39.3204 22.6892 38.9714 22.1645 38.5309 21.7225C38.0904 21.2804 37.5669 20.9296 36.9906 20.6903C36.4142 20.451 35.7962 20.3278 35.1722 20.3278V14" stroke="white" stroke-width="3" stroke-miterlimit="10"/>
<path d="M46.2417 31.4141H50.9999" stroke="white" stroke-width="3" stroke-miterlimit="10"/>
<path d="M49.4136 21.9141L44.6719 25.0862" stroke="white" stroke-width="3" stroke-miterlimit="10"/>
<path d="M49.4136 40.9139L44.6719 37.7583" stroke="white" stroke-width="3" stroke-miterlimit="10"/>
<path d="M17.7582 31.4141H13" stroke="white" stroke-width="3" stroke-miterlimit="10"/>
<path d="M14.5859 40.9139L19.3277 37.7417" stroke="white" stroke-width="3" stroke-miterlimit="10"/>
<path d="M14.5859 21.9141L19.3277 25.0862" stroke="white" stroke-width="3" stroke-miterlimit="10"/>
</g>
<defs>
<clipPath id="clip0_0_3147">
<rect width="65" height="65" fill="white"/>
</clipPath>
</defs>
</svg>
