<svg width="40" height="40" fill="none" xmlns="http://www.w3.org/2000/svg"><path fill-rule="evenodd" clip-rule="evenodd" d="M33.85 31.111c-4.545-11.349-9.85-14.34-9.85-20V4.444h1.112a1.111 1.111 0 0 0 1.11-1.11V1.11A1.111 1.111 0 0 0 25.113 0H14a1.111 1.111 0 0 0-1.111 1.111v2.222A1.111 1.111 0 0 0 14 4.444h1.112v6.667c0 5.66-5.305 8.651-9.85 20C3.817 34.722.102 40 19.557 40c19.456 0 15.74-5.278 14.293-8.889Zm-3.594 3.891c-1.56.467-4.664.998-10.7.998-6.035 0-9.14-.531-10.7-.998-.553-.164-.769-.806-.573-1.395.489-1.49 1.41-4.063 3.135-6.936 4.214-7.02 8.585 1.105 12.223 1.105 3.637 0 2.64-3.47 4.053-1.105a34.117 34.117 0 0 1 3.136 6.936c.195.589-.02 1.229-.574 1.395Z" fill="#3DC051"/></svg>