<svg width="40" height="40" fill="none" xmlns="http://www.w3.org/2000/svg"><path d="M39.964 21.685c-.912-2.716-2.743-4.999-5.148-6.413-1.215-.72-2.517-1.154-3.837-1.38.417-1.233.695-2.534.695-3.905 0-2.847-1.007-5.606-2.847-7.792a.546.546 0 0 0-.695-.121.589.589 0 0 0-.252.677c.313.954.46 1.822.46 2.672 0 4.704-3.733 8.528-8.332 8.528-4.6 0-8.333-3.827-8.333-8.528 0-.841.156-1.718.46-2.672a.588.588 0 0 0-.252-.677.546.546 0 0 0-.695.121A12.124 12.124 0 0 0 8.34 9.984c0 1.371.269 2.673.694 3.905-1.312.227-2.623.664-3.838 1.38C2.79 16.69.959 18.964.03 21.68a.577.577 0 0 0 .244.677c.234.14.52.096.694-.104.651-.755 1.32-1.328 2.031-1.744 3.976-2.352 9.083-.955 11.382 3.124 2.3 4.07.929 9.243-3.047 11.652-.712.425-1.528.72-2.492.929a.586.586 0 0 0-.443.564.569.569 0 0 0 .452.555c2.76.538 5.599.052 8.006-1.37 1.25-.73 2.284-1.701 3.143-2.778.86 1.077 1.9 2.048 3.15 2.777a11.375 11.375 0 0 0 7.994 1.371c.269-.052.442-.278.451-.555a.577.577 0 0 0-.443-.564c-.964-.2-1.78-.504-2.482-.929-3.985-2.352-5.348-7.583-3.056-11.652 2.3-4.079 7.403-5.476 11.389-3.124.703.425 1.371.99 2.023 1.744.173.2.468.243.694.104a.549.549 0 0 0 .244-.673Zm-20.027 2.541a3.333 3.333 0 1 1 3.334-3.332c-.001 1.84-1.432 3.332-3.334 3.332Zm6.798 3.993a6.41 6.41 0 0 0 1.89 4.23 14.406 14.406 0 0 0 5.77-10.652c-1.567-.428-3.172-.19-4.552.609-.351 2.293-1.476 4.25-3.108 5.813ZM17.59 11.206c1.82-.455 3.15-.418 4.827.002 1.523-.68 2.713-1.983 3.297-3.594a14.376 14.376 0 0 0-5.708-1.176c-2.026 0-3.955.416-5.705 1.17.58 1.55 1.768 2.917 3.289 3.598Zm-6.216 21.242a6.401 6.401 0 0 0 1.885-4.236 9.935 9.935 0 0 1-3.105-5.806c-1.342-.777-2.946-1.048-4.552-.61a14.395 14.395 0 0 0 5.772 10.652Z" fill="#3DC051"/></svg>