<svg width="354" height="19" viewBox="0 0 354 19" fill="none" xmlns="http://www.w3.org/2000/svg">
<path d="M1.01136 15V3.36364H8.85227V5.39205H3.47159V8.16477H8.44886V10.1932H3.47159V12.9716H8.875V15H1.01136ZM12.7855 6.27273L14.3878 9.32386L16.0298 6.27273H18.5128L15.9844 10.6364L18.581 15H16.1094L14.3878 11.983L12.6946 15H10.1946L12.7855 10.6364L10.2855 6.27273H12.7855ZM23.581 15.1705C22.687 15.1705 21.9181 14.9811 21.2741 14.6023C20.634 14.2197 20.1416 13.6894 19.7969 13.0114C19.456 12.3333 19.2855 11.553 19.2855 10.6705C19.2855 9.77652 19.4579 8.99242 19.8026 8.31818C20.151 7.64015 20.6454 7.11174 21.2855 6.73295C21.9257 6.35038 22.687 6.15909 23.5696 6.15909C24.331 6.15909 24.9976 6.29735 25.5696 6.57386C26.1416 6.85038 26.5942 7.23864 26.9276 7.73864C27.2609 8.23864 27.4446 8.82576 27.4787 9.5H25.1946C25.1302 9.06439 24.9598 8.71401 24.6832 8.44886C24.4105 8.17992 24.0526 8.04545 23.6094 8.04545C23.2344 8.04545 22.9067 8.14773 22.6264 8.35227C22.3499 8.55303 22.134 8.84659 21.9787 9.23295C21.8234 9.61932 21.7457 10.0871 21.7457 10.6364C21.7457 11.1932 21.8215 11.6667 21.973 12.0568C22.1283 12.447 22.3461 12.7443 22.6264 12.9489C22.9067 13.1534 23.2344 13.2557 23.6094 13.2557C23.8859 13.2557 24.134 13.1989 24.3537 13.0852C24.5772 12.9716 24.7609 12.8068 24.9048 12.5909C25.0526 12.3712 25.1491 12.108 25.1946 11.8011H27.4787C27.4408 12.4678 27.259 13.0549 26.9332 13.5625C26.6113 14.0663 26.1662 14.4602 25.598 14.7443C25.0298 15.0284 24.3575 15.1705 23.581 15.1705ZM33.0057 15.1705C32.108 15.1705 31.3352 14.9886 30.6875 14.625C30.0436 14.2576 29.5473 13.7386 29.1989 13.0682C28.8504 12.3939 28.6761 11.5966 28.6761 10.6761C28.6761 9.77841 28.8504 8.99053 29.1989 8.3125C29.5473 7.63447 30.0379 7.10606 30.6705 6.72727C31.3068 6.34848 32.053 6.15909 32.9091 6.15909C33.4848 6.15909 34.0208 6.25189 34.517 6.4375C35.017 6.61932 35.4527 6.89394 35.8239 7.26136C36.1989 7.62879 36.4905 8.09091 36.6989 8.64773C36.9072 9.20076 37.0114 9.84848 37.0114 10.5909V11.2557H29.642V9.75568H34.733C34.733 9.4072 34.6572 9.09848 34.5057 8.82955C34.3542 8.56061 34.1439 8.35038 33.875 8.19886C33.6098 8.04356 33.3011 7.96591 32.9489 7.96591C32.5814 7.96591 32.2557 8.05114 31.9716 8.22159C31.6913 8.38826 31.4716 8.61364 31.3125 8.89773C31.1534 9.17803 31.072 9.49053 31.0682 9.83523V11.2614C31.0682 11.6932 31.1477 12.0663 31.3068 12.3807C31.4697 12.6951 31.6989 12.9375 31.9943 13.108C32.2898 13.2784 32.6402 13.3636 33.0455 13.3636C33.3144 13.3636 33.5606 13.3258 33.7841 13.25C34.0076 13.1742 34.1989 13.0606 34.358 12.9091C34.517 12.7576 34.6383 12.572 34.7216 12.3523L36.9602 12.5C36.8466 13.0379 36.6136 13.5076 36.2614 13.9091C35.9129 14.3068 35.4621 14.6174 34.9091 14.8409C34.3598 15.0606 33.7254 15.1705 33.0057 15.1705ZM41.0114 3.36364V15H38.5909V3.36364H41.0114ZM45.3707 3.36364V15H42.9503V3.36364H45.3707ZM51.2869 15.1705C50.3892 15.1705 49.6165 14.9886 48.9688 14.625C48.3248 14.2576 47.8286 13.7386 47.4801 13.0682C47.1316 12.3939 46.9574 11.5966 46.9574 10.6761C46.9574 9.77841 47.1316 8.99053 47.4801 8.3125C47.8286 7.63447 48.3191 7.10606 48.9517 6.72727C49.5881 6.34848 50.3343 6.15909 51.1903 6.15909C51.7661 6.15909 52.3021 6.25189 52.7983 6.4375C53.2983 6.61932 53.7339 6.89394 54.1051 7.26136C54.4801 7.62879 54.7718 8.09091 54.9801 8.64773C55.1884 9.20076 55.2926 9.84848 55.2926 10.5909V11.2557H47.9233V9.75568H53.0142C53.0142 9.4072 52.9384 9.09848 52.7869 8.82955C52.6354 8.56061 52.4252 8.35038 52.1562 8.19886C51.8911 8.04356 51.5824 7.96591 51.2301 7.96591C50.8627 7.96591 50.5369 8.05114 50.2528 8.22159C49.9725 8.38826 49.7528 8.61364 49.5938 8.89773C49.4347 9.17803 49.3532 9.49053 49.3494 9.83523V11.2614C49.3494 11.6932 49.429 12.0663 49.5881 12.3807C49.7509 12.6951 49.9801 12.9375 50.2756 13.108C50.571 13.2784 50.9214 13.3636 51.3267 13.3636C51.5956 13.3636 51.8419 13.3258 52.0653 13.25C52.2888 13.1742 52.4801 13.0606 52.6392 12.9091C52.7983 12.7576 52.9195 12.572 53.0028 12.3523L55.2415 12.5C55.1278 13.0379 54.8949 13.5076 54.5426 13.9091C54.1941 14.3068 53.7434 14.6174 53.1903 14.8409C52.6411 15.0606 52.0066 15.1705 51.2869 15.1705ZM59.2926 9.95455V15H56.8722V6.27273H59.179V7.8125H59.2812C59.4744 7.30492 59.7983 6.90341 60.2528 6.60795C60.7074 6.30871 61.2585 6.15909 61.9062 6.15909C62.5123 6.15909 63.0407 6.29167 63.4915 6.55682C63.9422 6.82197 64.2926 7.20076 64.5426 7.69318C64.7926 8.18182 64.9176 8.76515 64.9176 9.44318V15H62.4972V9.875C62.5009 9.34091 62.3646 8.92424 62.0881 8.625C61.8116 8.32197 61.4309 8.17045 60.946 8.17045C60.6203 8.17045 60.3324 8.24053 60.0824 8.38068C59.8362 8.52083 59.643 8.72538 59.5028 8.99432C59.3665 9.25947 59.2964 9.57955 59.2926 9.95455ZM71.4673 6.27273V8.09091H66.2116V6.27273H71.4673ZM67.4048 4.18182H69.8253V12.3182C69.8253 12.5417 69.8594 12.7159 69.9276 12.8409C69.9957 12.9621 70.0904 13.0473 70.2116 13.0966C70.3366 13.1458 70.4806 13.1705 70.6435 13.1705C70.7571 13.1705 70.8707 13.161 70.9844 13.142C71.098 13.1193 71.1851 13.1023 71.2457 13.0909L71.6264 14.892C71.5052 14.9299 71.3348 14.9735 71.1151 15.0227C70.8954 15.0758 70.6283 15.108 70.3139 15.1193C69.7306 15.142 69.2192 15.0644 68.7798 14.8864C68.3442 14.7083 68.0052 14.4318 67.7628 14.0568C67.5204 13.6818 67.401 13.2083 67.4048 12.6364V4.18182Z" fill="#192779"/>
<path d="M94.0955 0.5H77.9045C77.405 0.5 77 0.90495 77 1.40448V17.5955C77 18.095 77.405 18.5 77.9045 18.5H94.0955C94.5951 18.5 95 18.095 95 17.5955V1.40448C95 0.90495 94.5951 0.5 94.0955 0.5Z" fill="#17AA67"/>
<path d="M93.9656 7.50759H88.0173L86.1838 1.85254L84.3341 7.50759H78.3857L83.1933 11.0033L81.3518 16.6583L86.1675 13.1626L90.9752 16.6583L89.1417 11.0033L93.9656 7.50759Z" fill="white"/>
<path d="M89.5647 12.3394L89.1492 11.0601L86.1831 13.2194L89.5647 12.3394Z" fill="#005128"/>
<path d="M114.096 0.5H97.9045C97.405 0.5 97 0.90495 97 1.40448V17.5955C97 18.095 97.405 18.5 97.9045 18.5H114.096C114.595 18.5 115 18.095 115 17.5955V1.40448C115 0.90495 114.595 0.5 114.096 0.5Z" fill="#17AA67"/>
<path d="M113.957 7.50808H108.017L106.184 1.85303L104.342 7.50808H98.3936L103.201 11.0119L101.36 16.667L106.175 13.1631L110.983 16.667L109.15 11.0119L113.957 7.50808Z" fill="white"/>
<path d="M109.565 12.3316L109.149 11.0522L106.183 13.2116L109.565 12.3316Z" fill="#005128"/>
<path d="M134.096 0.5H117.904C117.405 0.5 117 0.90495 117 1.40448V17.5955C117 18.095 117.405 18.5 117.904 18.5H134.096C134.595 18.5 135 18.095 135 17.5955V1.40448C135 0.90495 134.595 0.5 134.096 0.5Z" fill="#17AA67"/>
<path d="M133.957 7.50808H128.008L126.175 1.85303L124.333 7.50808H118.393L123.201 11.0119L121.359 16.667L126.167 13.1631L130.974 16.667L129.149 11.0119L133.957 7.50808Z" fill="white"/>
<path d="M129.556 12.3316L129.149 11.0522L126.174 13.2116L129.556 12.3316Z" fill="#005128"/>
<path d="M154.096 0.5H137.904C137.405 0.5 137 0.90495 137 1.40448V17.5955C137 18.095 137.405 18.5 137.904 18.5H154.096C154.595 18.5 155 18.095 155 17.5955V1.40448C155 0.90495 154.595 0.5 154.096 0.5Z" fill="#17AA67"/>
<path d="M153.956 7.50808H148.008L146.183 1.85303L144.341 7.50808H138.393L143.2 11.0119L141.35 16.6507L146.158 13.1468L150.974 16.6507L149.14 10.9956L153.956 7.50808Z" fill="white"/>
<path d="M149.564 12.3316L149.149 11.0522L146.183 13.2116L149.564 12.3316Z" fill="#005128"/>
<path d="M174.096 0.5H157.904C157.405 0.5 157 0.90495 157 1.40448V17.5955C157 18.095 157.405 18.5 157.904 18.5H174.096C174.595 18.5 175 18.095 175 17.5955V1.40448C175 0.90495 174.595 0.5 174.096 0.5Z" fill="#17AA67"/>
<path d="M173.965 7.50808H168.016L166.183 1.85303L164.341 7.50808H158.393L163.201 11.0119L161.359 16.667L166.175 13.1631L170.982 16.667L169.149 11.0119L173.965 7.50808Z" fill="white"/>
<path d="M169.565 12.3316L169.149 11.0522L166.183 13.2116L169.565 12.3316Z" fill="#005128"/>
<path d="M183.914 4.25215C184.485 4.25215 185.034 4.34787 185.561 4.53931C186.092 4.73075 186.565 5.03596 186.981 5.45496C187.4 5.87395 187.73 6.43021 187.972 7.12371C188.218 7.81361 188.343 8.66063 188.346 9.66477C188.346 10.6075 188.24 11.4491 188.026 12.1896C187.817 12.9264 187.515 13.5531 187.122 14.0696C186.728 14.5862 186.253 14.9799 185.697 15.2508C185.14 15.5181 184.519 15.6517 183.833 15.6517C183.092 15.6517 182.439 15.509 181.872 15.2237C181.304 14.9347 180.848 14.5428 180.501 14.048C180.158 13.5495 179.95 12.9896 179.878 12.3684H182.191C182.282 12.7729 182.471 13.0872 182.76 13.3111C183.049 13.5314 183.407 13.6416 183.833 13.6416C184.555 13.6416 185.104 13.3274 185.48 12.6989C185.856 12.0668 186.045 11.2017 186.049 10.1036H185.973C185.807 10.4287 185.583 10.7086 185.301 10.9434C185.019 11.1746 184.696 11.3534 184.331 11.4798C183.97 11.6062 183.585 11.6694 183.177 11.6694C182.524 11.6694 181.94 11.5159 181.427 11.2089C180.914 10.9019 180.51 10.4793 180.214 9.94109C179.917 9.4029 179.769 8.78886 179.769 8.09896C179.766 7.35488 179.937 6.69208 180.284 6.11054C180.631 5.52901 181.115 5.07389 181.736 4.7452C182.361 4.41289 183.087 4.24854 183.914 4.25215ZM183.93 6.09429C183.566 6.09429 183.241 6.18098 182.955 6.35435C182.673 6.52773 182.449 6.76071 182.283 7.05328C182.121 7.34585 182.041 7.67274 182.045 8.03394C182.045 8.39876 182.124 8.72745 182.283 9.02003C182.446 9.30899 182.666 9.54016 182.944 9.71354C183.226 9.8833 183.548 9.96818 183.909 9.96818C184.18 9.96818 184.431 9.91762 184.662 9.81648C184.893 9.71534 185.093 9.57628 185.263 9.39929C185.437 9.21869 185.572 9.011 185.67 8.77622C185.767 8.54143 185.816 8.2922 185.816 8.02853C185.812 7.67816 185.729 7.35669 185.567 7.06412C185.404 6.77154 185.18 6.53676 184.895 6.35977C184.609 6.18278 184.288 6.09429 183.93 6.09429ZM190.895 15.6409C190.538 15.6409 190.231 15.5144 189.974 15.2616C189.721 15.0052 189.595 14.6981 189.595 14.3405C189.595 13.9866 189.721 13.6832 189.974 13.4303C190.231 13.1775 190.538 13.051 190.895 13.051C191.242 13.051 191.545 13.1775 191.806 13.4303C192.066 13.6832 192.196 13.9866 192.196 14.3405C192.196 14.5789 192.134 14.7975 192.011 14.9961C191.892 15.1912 191.735 15.3483 191.54 15.4675C191.345 15.5831 191.13 15.6409 190.895 15.6409ZM198.032 15.6517C197.266 15.6517 196.584 15.5108 195.984 15.2291C195.388 14.9474 194.915 14.5591 194.565 14.0642C194.214 13.5694 194.032 13.0023 194.017 12.363H196.293C196.318 12.7928 196.499 13.1413 196.835 13.4086C197.171 13.6759 197.57 13.8096 198.032 13.8096C198.401 13.8096 198.726 13.7283 199.007 13.5658C199.293 13.3996 199.515 13.1702 199.674 12.8777C199.836 12.5815 199.918 12.242 199.918 11.8591C199.918 11.469 199.835 11.1258 199.668 10.8297C199.506 10.5335 199.28 10.3023 198.991 10.1361C198.702 9.96999 198.372 9.88511 198 9.8815C197.675 9.8815 197.359 9.94832 197.052 10.082C196.748 10.2156 196.512 10.398 196.342 10.6292L194.256 10.2553L194.781 4.40386H201.565V6.32185H196.716L196.428 9.1013H196.493C196.689 8.82678 196.983 8.59923 197.377 8.41863C197.77 8.23802 198.211 8.14772 198.699 8.14772C199.367 8.14772 199.963 8.30485 200.487 8.61909C201.01 8.93334 201.424 9.36498 201.727 9.914C202.031 10.4594 202.181 11.0879 202.177 11.7995C202.181 12.5472 202.007 13.2118 201.657 13.7933C201.31 14.3712 200.824 14.8264 200.199 15.1587C199.578 15.4874 198.856 15.6517 198.032 15.6517ZM207.828 4.25215C208.399 4.25215 208.948 4.34787 209.475 4.53931C210.006 4.73075 210.479 5.03596 210.895 5.45496C211.314 5.87395 211.644 6.43021 211.886 7.12371C212.132 7.81361 212.256 8.66063 212.26 9.66477C212.26 10.6075 212.153 11.4491 211.94 12.1896C211.731 12.9264 211.429 13.5531 211.035 14.0696C210.642 14.5862 210.167 14.9799 209.611 15.2508C209.054 15.5181 208.433 15.6517 207.747 15.6517C207.006 15.6517 206.353 15.509 205.785 15.2237C205.218 14.9347 204.761 14.5428 204.415 14.048C204.072 13.5495 203.864 12.9896 203.792 12.3684H206.105C206.195 12.7729 206.385 13.0872 206.674 13.3111C206.963 13.5314 207.321 13.6416 207.747 13.6416C208.469 13.6416 209.018 13.3274 209.394 12.6989C209.769 12.0668 209.959 11.2017 209.963 10.1036H209.887C209.721 10.4287 209.497 10.7086 209.215 10.9434C208.933 11.1746 208.61 11.3534 208.245 11.4798C207.884 11.6062 207.499 11.6694 207.091 11.6694C206.437 11.6694 205.854 11.5159 205.341 11.2089C204.828 10.9019 204.424 10.4793 204.128 9.94109C203.831 9.4029 203.683 8.78886 203.683 8.09896C203.68 7.35488 203.851 6.69208 204.198 6.11054C204.545 5.52901 205.029 5.07389 205.65 4.7452C206.275 4.41289 207.001 4.24854 207.828 4.25215ZM207.844 6.09429C207.479 6.09429 207.154 6.18098 206.869 6.35435C206.587 6.52773 206.363 6.76071 206.197 7.05328C206.035 7.34585 205.955 7.67274 205.959 8.03394C205.959 8.39876 206.038 8.72745 206.197 9.02003C206.36 9.30899 206.58 9.54016 206.858 9.71354C207.14 9.8833 207.461 9.96818 207.823 9.96818C208.094 9.96818 208.345 9.91762 208.576 9.81648C208.807 9.71534 209.007 9.57628 209.177 9.39929C209.35 9.21869 209.486 9.011 209.583 8.77622C209.681 8.54143 209.73 8.2922 209.73 8.02853C209.726 7.67816 209.643 7.35669 209.481 7.06412C209.318 6.77154 209.094 6.53676 208.809 6.35977C208.523 6.18278 208.202 6.09429 207.844 6.09429ZM218.025 15.6517C217.19 15.6517 216.448 15.5163 215.798 15.2454C215.151 14.9708 214.644 14.597 214.275 14.1238C213.907 13.6506 213.723 13.1143 213.723 12.5147C213.723 12.0523 213.828 11.6279 214.037 11.2414C214.25 10.8513 214.539 10.528 214.904 10.2716C215.269 10.0115 215.677 9.84538 216.128 9.77313V9.69728C215.536 9.57809 215.056 9.29093 214.687 8.83581C214.319 8.37709 214.135 7.84431 214.135 7.23749C214.135 6.66318 214.303 6.15208 214.638 5.70419C214.974 5.25269 215.435 4.89871 216.02 4.64225C216.609 4.38219 217.277 4.25215 218.025 4.25215C218.772 4.25215 219.439 4.38219 220.024 4.64225C220.613 4.90232 221.075 5.2581 221.411 5.70961C221.747 6.1575 221.917 6.66679 221.92 7.23749C221.917 7.84793 221.729 8.3807 221.357 8.83581C220.985 9.29093 220.508 9.57809 219.926 9.69728V9.77313C220.371 9.84538 220.774 10.0115 221.135 10.2716C221.5 10.528 221.788 10.8513 222.002 11.2414C222.218 11.6279 222.328 12.0523 222.332 12.5147C222.328 13.1143 222.142 13.6506 221.774 14.1238C221.406 14.597 220.896 14.9708 220.246 15.2454C219.6 15.5163 218.859 15.6517 218.025 15.6517ZM218.025 13.9288C218.397 13.9288 218.722 13.8619 219 13.7283C219.278 13.591 219.495 13.4032 219.65 13.1648C219.809 12.9228 219.889 12.6447 219.889 12.3304C219.889 12.009 219.807 11.7254 219.645 11.4798C219.482 11.2306 219.262 11.0355 218.984 10.8947C218.706 10.7502 218.386 10.6779 218.025 10.6779C217.667 10.6779 217.348 10.7502 217.066 10.8947C216.784 11.0355 216.562 11.2306 216.399 11.4798C216.24 11.7254 216.161 12.009 216.161 12.3304C216.161 12.6447 216.239 12.9228 216.394 13.1648C216.549 13.4032 216.768 13.591 217.05 13.7283C217.331 13.8619 217.656 13.9288 218.025 13.9288ZM218.025 8.97127C218.335 8.97127 218.612 8.90805 218.854 8.78163C219.096 8.65521 219.285 8.48003 219.423 8.25608C219.56 8.03214 219.629 7.77388 219.629 7.4813C219.629 7.19234 219.56 6.9395 219.423 6.72278C219.285 6.50245 219.098 6.33087 218.859 6.20807C218.621 6.08165 218.343 6.01843 218.025 6.01843C217.711 6.01843 217.432 6.08165 217.19 6.20807C216.948 6.33087 216.759 6.50245 216.621 6.72278C216.488 6.9395 216.421 7.19234 216.421 7.4813C216.421 7.77388 216.49 8.03214 216.627 8.25608C216.764 8.48003 216.954 8.65521 217.196 8.78163C217.438 8.90805 217.714 8.97127 218.025 8.97127ZM227.778 15.5V8.95455H228.75V9.94318H228.818C228.937 9.61932 229.153 9.35653 229.465 9.15483C229.778 8.95312 230.13 8.85227 230.522 8.85227C230.596 8.85227 230.688 8.85369 230.799 8.85653C230.91 8.85937 230.994 8.86364 231.051 8.86932V9.89205C231.017 9.88352 230.938 9.87074 230.816 9.85369C230.697 9.83381 230.571 9.82386 230.437 9.82386C230.119 9.82386 229.835 9.89062 229.585 10.0241C229.338 10.1548 229.142 10.3366 228.997 10.5696C228.855 10.7997 228.784 11.0625 228.784 11.358V15.5H227.778ZM234.788 15.6364C234.157 15.6364 233.613 15.4972 233.156 15.2188C232.701 14.9375 232.35 14.5455 232.103 14.0426C231.859 13.5369 231.737 12.9489 231.737 12.2784C231.737 11.608 231.859 11.017 232.103 10.5057C232.35 9.99148 232.694 9.59091 233.135 9.30398C233.578 9.0142 234.095 8.86932 234.686 8.86932C235.027 8.86932 235.363 8.92614 235.696 9.03977C236.028 9.15341 236.331 9.33807 236.603 9.59375C236.876 9.84659 237.093 10.1818 237.255 10.5994C237.417 11.017 237.498 11.5312 237.498 12.142V12.5682H232.453V11.6989H236.475C236.475 11.3295 236.402 11 236.254 10.7102C236.109 10.4205 235.902 10.1918 235.632 10.0241C235.365 9.85653 235.049 9.77273 234.686 9.77273C234.285 9.77273 233.938 9.87216 233.646 10.071C233.356 10.267 233.133 10.5227 232.977 10.8381C232.821 11.1534 232.742 11.4915 232.742 11.8523V12.4318C232.742 12.9261 232.828 13.3452 232.998 13.6889C233.171 14.0298 233.411 14.2898 233.718 14.4688C234.025 14.6449 234.382 14.733 234.788 14.733C235.052 14.733 235.291 14.696 235.504 14.6222C235.72 14.5455 235.906 14.4318 236.062 14.2812C236.218 14.1278 236.339 13.9375 236.424 13.7102L237.396 13.983C237.294 14.3125 237.122 14.6023 236.88 14.8523C236.639 15.0994 236.34 15.2926 235.985 15.4318C235.63 15.5682 235.231 15.6364 234.788 15.6364ZM244.181 8.95455L241.761 15.5H240.738L238.317 8.95455H239.408L241.215 14.1705H241.283L243.09 8.95455H244.181ZM245.508 15.5V8.95455H246.514V15.5H245.508ZM246.02 7.86364C245.824 7.86364 245.655 7.79688 245.513 7.66335C245.374 7.52983 245.304 7.36932 245.304 7.18182C245.304 6.99432 245.374 6.83381 245.513 6.70028C245.655 6.56676 245.824 6.5 246.02 6.5C246.216 6.5 246.383 6.56676 246.523 6.70028C246.665 6.83381 246.736 6.99432 246.736 7.18182C246.736 7.36932 246.665 7.52983 246.523 7.66335C246.383 7.79688 246.216 7.86364 246.02 7.86364ZM251.1 15.6364C250.47 15.6364 249.926 15.4972 249.468 15.2188C249.014 14.9375 248.663 14.5455 248.416 14.0426C248.171 13.5369 248.049 12.9489 248.049 12.2784C248.049 11.608 248.171 11.017 248.416 10.5057C248.663 9.99148 249.007 9.59091 249.447 9.30398C249.89 9.0142 250.407 8.86932 250.998 8.86932C251.339 8.86932 251.676 8.92614 252.008 9.03977C252.34 9.15341 252.643 9.33807 252.916 9.59375C253.188 9.84659 253.406 10.1818 253.568 10.5994C253.73 11.017 253.811 11.5312 253.811 12.142V12.5682H248.765V11.6989H252.788C252.788 11.3295 252.714 11 252.566 10.7102C252.421 10.4205 252.214 10.1918 251.944 10.0241C251.677 9.85653 251.362 9.77273 250.998 9.77273C250.598 9.77273 250.251 9.87216 249.958 10.071C249.669 10.267 249.446 10.5227 249.289 10.8381C249.133 11.1534 249.055 11.4915 249.055 11.8523V12.4318C249.055 12.9261 249.14 13.3452 249.311 13.6889C249.484 14.0298 249.724 14.2898 250.031 14.4688C250.338 14.6449 250.694 14.733 251.1 14.733C251.365 14.733 251.603 14.696 251.816 14.6222C252.032 14.5455 252.218 14.4318 252.375 14.2812C252.531 14.1278 252.652 13.9375 252.737 13.7102L253.708 13.983C253.606 14.3125 253.434 14.6023 253.193 14.8523C252.951 15.0994 252.653 15.2926 252.298 15.4318C251.943 15.5682 251.544 15.6364 251.1 15.6364ZM256.823 15.5L254.829 8.95455H255.886L257.301 13.9659H257.369L258.767 8.95455H259.84L261.221 13.9489H261.289L262.704 8.95455H263.761L261.767 15.5H260.778L259.346 10.4716H259.244L257.812 15.5H256.823ZM269.727 10.4205L268.823 10.6761C268.767 10.5256 268.683 10.3793 268.572 10.2372C268.464 10.0923 268.316 9.97301 268.129 9.87926C267.941 9.78551 267.701 9.73864 267.409 9.73864C267.008 9.73864 266.674 9.83097 266.407 10.0156C266.143 10.1974 266.011 10.429 266.011 10.7102C266.011 10.9602 266.102 11.1577 266.284 11.3026C266.465 11.4474 266.75 11.5682 267.136 11.6648L268.108 11.9034C268.693 12.0455 269.129 12.2628 269.416 12.5554C269.703 12.8452 269.846 13.2187 269.846 13.6761C269.846 14.0511 269.738 14.3864 269.522 14.6818C269.309 14.9773 269.011 15.2102 268.627 15.3807C268.244 15.5511 267.798 15.6364 267.289 15.6364C266.622 15.6364 266.069 15.4915 265.632 15.2017C265.194 14.9119 264.917 14.4886 264.801 13.9318L265.755 13.6932C265.846 14.0455 266.018 14.3097 266.271 14.4858C266.527 14.6619 266.86 14.75 267.272 14.75C267.741 14.75 268.113 14.6506 268.389 14.4517C268.667 14.25 268.806 14.0085 268.806 13.7273C268.806 13.5 268.727 13.3097 268.568 13.1562C268.409 13 268.164 12.8835 267.835 12.8068L266.744 12.5511C266.144 12.4091 265.704 12.1889 265.423 11.8906C265.144 11.5895 265.005 11.2131 265.005 10.7614C265.005 10.392 265.109 10.0653 265.316 9.78125C265.527 9.49716 265.812 9.27415 266.173 9.11222C266.536 8.95028 266.948 8.86932 267.409 8.86932C268.056 8.86932 268.565 9.01136 268.934 9.29545C269.306 9.57955 269.571 9.95455 269.727 10.4205Z" fill="#192779"/>
<path d="M295.75 5.59619H303.735V7.07953H300.59V15.454H298.895V7.07953H295.767L295.75 5.59619ZM303.379 8.31706H304.853V9.69868C304.908 9.49274 305.003 9.29971 305.133 9.13077C305.265 8.9381 305.428 8.76904 305.616 8.63068C305.804 8.47059 306.019 8.34697 306.252 8.2662C306.472 8.17221 306.708 8.12322 306.947 8.1221H307.329C307.399 8.13038 307.47 8.13038 307.54 8.1221V9.63935L307.193 9.58001C307.074 9.58001 306.973 9.58001 306.854 9.58001C306.597 9.58195 306.343 9.63677 306.108 9.74106C305.871 9.84762 305.66 10.0037 305.489 10.1988C305.302 10.4247 305.158 10.6833 305.065 10.9616C304.956 11.3011 304.902 11.656 304.904 12.0127V15.4032H303.328L303.379 8.31706ZM314.813 15.454H313.245V14.4793C313.047 14.8355 312.754 15.1292 312.397 15.3269C312.043 15.5382 311.64 15.6523 311.228 15.6575C310.857 15.6923 310.484 15.6483 310.132 15.5285C309.78 15.4087 309.457 15.2158 309.185 14.9624C308.719 14.3619 308.492 13.6098 308.549 12.8518V8.31706H310.075V12.6993C310.025 13.1703 310.155 13.6427 310.439 14.0216C310.57 14.1575 310.729 14.2635 310.904 14.3323C311.08 14.401 311.268 14.4309 311.456 14.4199C311.748 14.4339 312.038 14.3787 312.304 14.2589C312.517 14.1717 312.703 14.0317 312.847 13.852C312.991 13.67 313.095 13.459 313.152 13.2333C313.218 12.9817 313.249 12.7221 313.245 12.4619V8.31706H314.821L314.813 15.454ZM317.483 13.1655C317.488 13.3579 317.538 13.5465 317.629 13.7159C317.72 13.8853 317.85 14.0307 318.009 14.1402C318.34 14.3334 318.719 14.4303 319.102 14.4199C319.269 14.4167 319.436 14.4025 319.602 14.3776C319.781 14.3532 319.957 14.3106 320.128 14.2504C320.285 14.1896 320.425 14.0905 320.534 13.9622C320.643 13.8227 320.695 13.6468 320.679 13.4706C320.672 13.2818 320.593 13.1028 320.458 12.9705C320.299 12.8409 320.122 12.7352 319.933 12.6569C319.692 12.5727 319.446 12.5075 319.195 12.4619L318.348 12.2755C318.059 12.2076 317.771 12.1314 317.5 12.0381C317.238 11.9522 316.991 11.8233 316.771 11.6567C316.553 11.4998 316.376 11.2936 316.254 11.0549C316.114 10.7738 316.047 10.4618 316.059 10.1479C316.044 9.80001 316.146 9.45706 316.347 9.17315C316.537 8.91007 316.783 8.69284 317.068 8.53744C317.374 8.37665 317.702 8.26238 318.042 8.19839C318.378 8.13529 318.718 8.10407 319.06 8.10515C319.413 8.105 319.766 8.14481 320.111 8.22382C320.434 8.29233 320.742 8.42177 321.018 8.60525C321.291 8.77872 321.521 9.01385 321.687 9.29182C321.878 9.59687 321.994 9.94236 322.026 10.3005H320.382C320.363 10.1422 320.308 9.99054 320.219 9.85794C320.131 9.72534 320.012 9.61557 319.873 9.53763C319.58 9.40572 319.262 9.33919 318.941 9.34268L318.551 9.39354C318.404 9.4134 318.259 9.44746 318.119 9.49525C317.99 9.54931 317.872 9.62692 317.771 9.72411C317.676 9.82815 317.625 9.96465 317.627 10.1055C317.624 10.1923 317.64 10.2787 317.676 10.358C317.711 10.4374 317.764 10.5076 317.831 10.5633C317.986 10.6958 318.164 10.7992 318.356 10.8684C318.596 10.9536 318.843 11.0188 319.094 11.0634L319.941 11.2498C320.229 11.3176 320.501 11.3939 320.789 11.4872C321.055 11.5711 321.304 11.7001 321.526 11.8686C321.742 12.0266 321.921 12.2289 322.052 12.4619C322.184 12.7247 322.251 13.0155 322.247 13.3096C322.254 13.6934 322.148 14.0708 321.942 14.3945C321.745 14.6834 321.491 14.9286 321.196 15.115C320.873 15.3018 320.525 15.439 320.161 15.5218C319.797 15.6077 319.425 15.6532 319.051 15.6575C318.627 15.6625 318.205 15.6083 317.797 15.4964C317.439 15.4028 317.101 15.2479 316.796 15.0387C316.52 14.8344 316.296 14.567 316.144 14.2589C315.969 13.9178 315.879 13.54 315.881 13.157H317.483V13.1655ZM322.679 8.31706H323.874V6.15562H325.451V8.3001H326.875V9.46982H325.451V13.2841C325.451 13.4621 325.451 13.5893 325.451 13.7249C325.468 13.8277 325.499 13.9275 325.544 14.0216C325.601 14.1037 325.681 14.1682 325.773 14.208C325.905 14.2575 326.047 14.2806 326.188 14.2758C326.298 14.2845 326.409 14.2845 326.519 14.2758C326.63 14.2678 326.741 14.2508 326.849 14.225V15.4456L326.332 15.5049C326.163 15.518 325.993 15.518 325.824 15.5049C325.486 15.5144 325.149 15.4744 324.823 15.3862C324.601 15.3185 324.398 15.1994 324.23 15.0387C324.085 14.8818 323.985 14.6884 323.942 14.4793C323.891 14.2193 323.859 13.9557 323.849 13.691V9.45287H322.654V8.31706H322.679ZM327.977 8.31706H329.468V9.29182C329.673 8.89243 330.008 8.57525 330.418 8.39334C330.822 8.20784 331.262 8.11516 331.706 8.1221C332.214 8.10254 332.72 8.20423 333.181 8.41877C333.591 8.61355 333.949 8.90428 334.224 9.26639C334.504 9.628 334.714 10.0392 334.842 10.4785C334.978 10.9586 335.049 11.4545 335.054 11.9534C335.053 12.4257 334.99 12.8958 334.868 13.3519C334.746 13.7791 334.554 14.1831 334.3 14.5471C334.049 14.8986 333.721 15.1884 333.342 15.3947C332.919 15.6085 332.451 15.7162 331.977 15.7083C331.747 15.7072 331.517 15.6845 331.291 15.6405C331.064 15.6014 330.842 15.536 330.63 15.4456C330.421 15.3554 330.227 15.2355 330.053 15.0896C329.875 14.9505 329.723 14.7812 329.604 14.5895V18.1495H328.027V8.31706H327.977ZM333.503 11.9364C333.505 11.6206 333.459 11.3062 333.367 11.004C333.293 10.7138 333.163 10.4405 332.986 10.1988C332.821 9.96931 332.61 9.77605 332.367 9.63087C332.107 9.49034 331.815 9.42021 331.52 9.42744C331.233 9.40986 330.947 9.46244 330.685 9.58061C330.424 9.69878 330.195 9.87897 330.019 10.1055C329.664 10.6512 329.489 11.2945 329.519 11.9449C329.513 12.2832 329.559 12.6205 329.655 12.9451C329.734 13.2325 329.867 13.5027 330.045 13.7418C330.218 13.9591 330.435 14.138 330.68 14.2674C330.943 14.3998 331.234 14.4667 331.528 14.4623C331.845 14.4712 332.158 14.3951 332.435 14.2419C332.674 14.0917 332.884 13.8992 333.054 13.674C333.214 13.428 333.329 13.1553 333.393 12.8688C333.463 12.5628 333.5 12.2503 333.503 11.9364ZM336.275 5.63857H337.851V7.12191H336.275V5.63857ZM336.275 8.35944H337.851V15.4964H336.275V8.35944ZM339.258 5.63857H340.835V15.454H339.258V5.63857ZM345.675 15.6575C345.152 15.6668 344.633 15.5687 344.149 15.3693C343.727 15.1844 343.344 14.9196 343.022 14.5895C342.708 14.2448 342.471 13.8374 342.327 13.3943C342.157 12.9065 342.071 12.3935 342.073 11.8771C342.069 11.3659 342.155 10.8581 342.327 10.3768C342.475 9.93538 342.712 9.52875 343.022 9.18163C343.336 8.84417 343.721 8.58071 344.149 8.4103C344.634 8.21488 345.152 8.11695 345.675 8.1221C346.201 8.10783 346.724 8.20609 347.209 8.4103C347.636 8.58267 348.021 8.84586 348.336 9.18163C348.65 9.52626 348.887 9.93365 349.031 10.3768C349.2 10.8591 349.285 11.3663 349.286 11.8771C349.293 12.394 349.206 12.9079 349.031 13.3943C348.878 13.8335 348.642 14.2392 348.336 14.5895C348.021 14.9269 347.636 15.1928 347.209 15.3693C346.721 15.5628 346.2 15.6607 345.675 15.6575ZM345.675 14.403C345.979 14.4121 346.28 14.3438 346.549 14.2044C346.819 14.065 347.049 13.8591 347.218 13.6062C347.386 13.3603 347.512 13.0882 347.591 12.801C347.738 12.1995 347.738 11.5716 347.591 10.9701C347.513 10.6849 347.387 10.4153 347.218 10.1733C347.051 9.94166 346.837 9.74807 346.59 9.60544C346.308 9.45818 345.993 9.38525 345.675 9.39354C345.359 9.3878 345.046 9.4637 344.768 9.61392C344.519 9.75433 344.305 9.94833 344.141 10.1818C343.971 10.4237 343.845 10.6934 343.768 10.9786C343.621 11.58 343.621 12.208 343.768 12.8095C343.844 13.0977 343.97 13.3702 344.141 13.6147C344.307 13.8489 344.521 14.0454 344.768 14.1911C345.045 14.345 345.359 14.4184 345.675 14.403ZM349.76 8.31706H350.956V6.15562H352.532V8.3001H353.956V9.46982H352.532V13.2841C352.532 13.4621 352.532 13.5893 352.532 13.7249C352.545 13.8287 352.576 13.9293 352.625 14.0216C352.68 14.1031 352.756 14.1677 352.846 14.208C352.981 14.2574 353.125 14.2804 353.27 14.2758C353.38 14.2841 353.49 14.2841 353.6 14.2758C353.711 14.2665 353.822 14.2496 353.931 14.225V15.4456L353.414 15.5049C353.244 15.5176 353.074 15.5176 352.905 15.5049C352.568 15.5144 352.231 15.4744 351.905 15.3862C351.683 15.3185 351.479 15.1994 351.312 15.0387C351.167 14.8818 351.067 14.6884 351.023 14.4793C350.964 14.2207 350.933 13.9563 350.93 13.691V9.45287H349.735V8.31706H349.76Z" fill="#192779"/>
<path d="M293.902 7.38496H286.68L284.459 0.510742L282.222 7.38496H275L280.84 11.6231L278.602 18.4888L284.443 14.2507L290.291 18.4888L288.036 11.6146L293.902 7.38496Z" fill="#00B67A"/>
<path d="M288.562 13.1654L288.037 11.6143L284.435 14.2334L288.562 13.1654Z" fill="#005128"/>
</svg>
