<svg width="80" height="80" viewBox="0 0 80 80" fill="none" xmlns="http://www.w3.org/2000/svg">
<g clip-path="url(#clip0_0_3396)">
<path d="M66.9464 43.3773C66.8352 42.9467 66.5572 42.5782 66.1742 42.3526L50.8996 33.3578V14.8319C50.8996 13.9061 50.1489 13.1555 49.2231 13.1555H24.4227C23.4969 13.1555 22.7463 13.9061 22.7463 14.8319V38.0085H14.6764C13.7506 38.0085 13 38.7591 13 39.6849V64.4854C13 65.4112 13.7506 66.1618 14.6764 66.1618H39.4769C40.4027 66.1618 41.1533 65.4112 41.1533 64.4854V60.2908L51.8883 66.6124C52.1555 66.7696 52.4484 66.8444 52.7375 66.8444C53.3117 66.8444 53.871 66.549 54.1835 66.0184L66.7682 44.6479C66.9938 44.2648 67.0579 43.8077 66.9464 43.3773ZM37.8004 62.809H16.3529V41.3613H37.8004V62.809ZM38.0364 37.9559H26.0991V16.5084H47.5467V31.3835L44.8036 29.7681C44.4203 29.5425 43.9633 29.4783 43.533 29.5898C43.1025 29.701 42.734 29.9789 42.5084 30.362L38.0364 37.9559ZM52.145 62.8726L41.1532 56.3998V39.6849H41.1533C41.1533 39.5646 41.14 39.4473 41.1159 39.3341L44.5467 33.508L63.0282 44.3912L52.145 62.8726Z" fill="#FF9B25"/>
</g>
<defs>
<clipPath id="clip0_0_3396">
<rect width="54" height="54" fill="white" transform="translate(13 13)"/>
</clipPath>
</defs>
</svg>
