<svg width="40" height="40" fill="none" xmlns="http://www.w3.org/2000/svg"><path fill-rule="evenodd" clip-rule="evenodd" d="M36 20c0 8.837-7.163 16-16 16-3.44 0-6.628-1.086-9.237-2.934l22.303-22.303A15.927 15.927 0 0 1 36 20ZM7.809 30.363 30.363 7.809A15.937 15.937 0 0 0 20 4C11.163 4 4 11.163 4 20c0 3.953 1.433 7.57 3.809 10.363ZM40 20c0 11.046-8.954 20-20 20S0 31.046 0 20 8.954 0 20 0s20 8.954 20 20Z" fill="#3DC051"/><path d="M8.878 25v-8.326H5.904v-1.695h7.964v1.695h-2.967V25H8.878Zm6.31 0V14.979h2.023v3.944h3.965v-3.944h2.023V25h-2.023v-4.382H17.21V25h-2.023Zm16.522-3.685 1.962.622c-.3 1.094-.802 1.908-1.504 2.44-.697.53-1.584.794-2.66.794-1.33 0-2.424-.454-3.28-1.36-.857-.912-1.286-2.156-1.286-3.733 0-1.668.431-2.962 1.292-3.883.862-.925 1.994-1.387 3.398-1.387 1.226 0 2.221.362 2.987 1.087.456.428.798 1.043 1.026 1.845l-2.003.479c-.119-.52-.367-.93-.745-1.23-.374-.302-.83-.452-1.368-.452-.742 0-1.346.267-1.811.8-.46.533-.69 1.397-.69 2.59 0 1.268.227 2.17.683 2.708.456.537 1.048.806 1.777.806.538 0 1-.17 1.388-.512.387-.342.665-.88.834-1.614Z" fill="#3DC051"/></svg>