<svg width="28" height="21" fill="none" xmlns="http://www.w3.org/2000/svg"><g clip-path="url(#a)" fill="#0C9246"><path d="M14.027 18.386c.384-2.451 2.155-5.001 2.155-7.942 0-2.94-1.308-8.099-2.155-10.444h.02c-.84 2.345-2.149 7.504-2.149 10.444 0 2.94 1.771 5.49 2.15 7.942h-.021ZM13.602 19.28c-1.813-.293-3.7-1.711-5.875-1.711-2.176 0-5.992 1.047-7.727 1.71v.022C1.735 19.952 5.551 21 7.727 21c2.175 0 4.062-1.419 5.875-1.699v-.021ZM14.398 19.28c1.813-.293 3.7-1.711 5.875-1.711 2.176 0 5.992 1.047 7.727 1.71v.022C26.265 19.952 22.449 21 20.273 21c-2.175 0-4.062-1.419-5.875-1.699v-.021ZM13.596 18.727c-1.404-2.006-1.885-5.113-3.883-7.192-1.998-2.08-6.428-4.764-8.61-5.81 1.003 2.273 3.583 6.883 5.582 8.962 1.998 2.079 4.983 2.58 6.91 4.04h.001ZM14.396 18.727c1.404-2.006 1.884-5.113 3.883-7.192 1.998-2.08 6.428-4.764 8.61-5.81-1.003 2.273-3.584 6.883-5.582 8.962-1.998 2.079-4.983 2.58-6.91 4.04h-.001Z"/></g><defs><clipPath id="a"><path fill="#fff" d="M0 0h28v21H0z"/></clipPath></defs></svg>