<svg width="197" height="38" viewBox="0 0 197 38" fill="none" xmlns="http://www.w3.org/2000/svg">
<rect width="197" height="38" fill="#FFCC00"/>
<path d="M63.5171 15.4107C62.6562 16.5824 61.2159 18.6192 60.3393 19.8089C59.8943 20.4139 59.0906 21.5123 61.755 21.5123C64.5741 21.5123 75.7834 21.5123 75.7834 21.5123C75.7834 21.5123 78.0443 18.4209 79.9398 15.8354C82.5179 12.3183 80.1628 5 70.9455 5C62.6955 5 34.6455 5 34.6455 5L28.3515 13.5947C28.3515 13.5947 60.9805 13.5947 62.6551 13.5947C64.3869 13.5947 64.3634 14.2571 63.5171 15.4107ZM53.2113 23.6325C50.5469 23.6325 51.3506 22.5318 51.7956 21.9269C52.6722 20.7372 54.1361 18.7217 54.997 17.5501C55.8444 16.3965 55.8668 15.734 54.1327 15.734C52.4592 15.734 38.4443 15.734 38.4443 15.734L25.8037 33C25.8037 33 48.3802 33 56.6302 33C66.8115 33 72.48 26.04 74.2275 23.6336C74.2275 23.6325 56.0293 23.6325 53.2113 23.6325ZM73.2647 33H91.3485L98.2041 23.6314L80.1225 23.6336C80.1169 23.6325 73.2647 33 73.2647 33ZM119.923 5L112.987 14.4689H104.916L111.849 5H93.7708L81.6761 21.5123H125.908L137.999 5H119.923ZM99.4192 33H117.496L124.355 23.6336H106.278C106.271 23.6325 99.4192 33 99.4192 33ZM0 27.3277V29.3172H25.1849L26.6399 27.3277H0ZM29.3469 23.6325H0V25.6198H27.8886L29.3469 23.6325ZM0 33H22.4868L23.9351 31.0217H0V33ZM170.461 29.3161H197V27.3265H171.918L170.461 29.3161ZM167.765 33H197V31.0217H169.212L167.765 33ZM174.621 23.6325L173.167 25.622H197V23.6325H174.621ZM150.942 21.5123L163.036 5H143.89C143.883 5 131.787 21.5123 131.787 21.5123H150.942ZM130.237 23.6325C130.237 23.6325 128.915 25.4474 128.273 26.3216C126.003 29.404 128.011 33 135.42 33C143.979 33 164.453 33 164.453 33L171.312 23.6336H130.237V23.6325Z" fill="#D40511"/>
</svg>
