<svg width="40" height="40" fill="none" xmlns="http://www.w3.org/2000/svg"><g clip-path="url(#a)" fill="#3DC051"><path d="M5.592 30V8.525h14.722v3.633H9.928v5.083h8.965v3.633H9.928V30H5.592Zm25.49-4.951 4.102.688c-.527 1.504-1.362 2.652-2.505 3.443-1.133.78-2.554 1.172-4.263 1.172-2.705 0-4.707-.884-6.006-2.652-1.025-1.416-1.538-3.203-1.538-5.361 0-2.578.674-4.595 2.022-6.05 1.348-1.465 3.052-2.197 5.112-2.197 2.315 0 4.14.766 5.479 2.3 1.338 1.523 1.977 3.862 1.919 7.016H25.09c.03 1.22.361 2.173.996 2.857.635.674 1.426 1.01 2.373 1.01.645 0 1.187-.175 1.626-.527.44-.352.772-.918.996-1.7Zm.235-4.16c-.03-1.192-.337-2.095-.923-2.71-.586-.625-1.299-.938-2.139-.938-.898 0-1.64.327-2.226.982-.586.654-.874 1.543-.864 2.666h6.152ZM28.25 8.47V10h-5.77c.062-.578.25-1.125.562-1.64.312-.52.93-1.208 1.851-2.063.742-.692 1.197-1.16 1.365-1.406.227-.34.34-.676.34-1.008 0-.367-.1-.649-.299-.844-.195-.2-.466-.299-.814-.299-.344 0-.617.104-.82.31-.203.208-.32.552-.352 1.032l-1.64-.164c.097-.906.404-1.557.92-1.951.515-.395 1.16-.592 1.933-.592.848 0 1.514.229 1.998.686.484.457.727 1.025.727 1.705 0 .386-.07.755-.211 1.107a4.434 4.434 0 0 1-.657 1.096c-.199.254-.558.619-1.078 1.095-.52.477-.85.793-.99.95a2.934 2.934 0 0 0-.334.457h3.27Zm5.978-4.956-1.594.175c-.039-.328-.14-.57-.304-.726-.165-.156-.377-.234-.64-.234-.347 0-.642.156-.884.468-.238.313-.389.963-.451 1.951.41-.484.92-.726 1.53-.726.687 0 1.274.262 1.763.785.492.523.738 1.2.738 2.027 0 .88-.258 1.584-.773 2.116-.516.53-1.178.796-1.987.796-.867 0-1.58-.335-2.138-1.007-.559-.676-.838-1.782-.838-3.317 0-1.574.29-2.709.873-3.404.582-.695 1.338-1.043 2.267-1.043.653 0 1.192.184 1.618.55.43.364.703.893.82 1.589Zm-3.733 3.591c0 .536.123.95.37 1.243.246.289.527.433.843.433a.96.96 0 0 0 .762-.357c.203-.238.305-.63.305-1.172 0-.559-.11-.967-.328-1.225a1.026 1.026 0 0 0-.82-.392c-.317 0-.585.125-.803.375-.22.246-.329.611-.329 1.095Z"/></g><defs><clipPath id="a"><path fill="#fff" d="M0 0h40v40H0z"/></clipPath></defs></svg>