<svg width="65" height="65" viewBox="0 0 65 65" fill="none" xmlns="http://www.w3.org/2000/svg">
<g clip-path="url(#clip0_0_3113)">
<circle cx="32.5" cy="32.5" r="30.5" fill="#3DC051" stroke="white" stroke-width="4"/>
<path d="M25.6666 30.4166V27.2499C25.6666 26.83 25.8334 26.4273 26.1303 26.1303C26.4273 25.8334 26.83 25.6666 27.2499 25.6666C27.6699 25.6666 28.0726 25.8334 28.3695 26.1303C28.6664 26.4273 28.8333 26.83 28.8333 27.2499V30.4166C28.8333 30.8365 28.6664 31.2392 28.3695 31.5362C28.0726 31.8331 27.6699 31.9999 27.2499 31.9999C26.83 31.9999 26.4273 31.8331 26.1303 31.5362C25.8334 31.2392 25.6666 30.8365 25.6666 30.4166ZM36.7499 31.9999C37.1699 31.9999 37.5726 31.8331 37.8695 31.5362C38.1664 31.2392 38.3333 30.8365 38.3333 30.4166V27.2499C38.3333 26.83 38.1664 26.4273 37.8695 26.1303C37.5726 25.8334 37.1699 25.6666 36.7499 25.6666C36.33 25.6666 35.9273 25.8334 35.6303 26.1303C35.3334 26.4273 35.1666 26.83 35.1666 27.2499V30.4166C35.1666 30.8365 35.3334 31.2392 35.6303 31.5362C35.9273 31.8331 36.33 31.9999 36.7499 31.9999ZM31.9999 35.1666C30.5368 35.1711 29.0943 35.5115 27.7835 36.1616C26.4727 36.8116 25.3286 37.7539 24.4395 38.9159C24.3081 39.0771 24.2097 39.2625 24.15 39.4617C24.0902 39.6608 24.0703 39.8698 24.0913 40.0767C24.1124 40.2835 24.1739 40.4842 24.2725 40.6673C24.3711 40.8504 24.5048 41.0123 24.6659 41.1437C24.8271 41.2751 25.0125 41.3735 25.2117 41.4332C25.4108 41.4929 25.6198 41.5129 25.8267 41.4918C26.0336 41.4708 26.2343 41.4093 26.4173 41.3107C26.6004 41.2121 26.7623 41.0784 26.8937 40.9172C27.482 40.1155 28.2508 39.4635 29.1379 39.0141C30.025 38.5647 31.0055 38.3306 31.9999 38.3306C32.9944 38.3306 33.9748 38.5647 34.862 39.0141C35.7491 39.4635 36.5179 40.1155 37.1062 40.9172C37.3716 41.2427 37.7554 41.4494 38.1732 41.4918C38.5909 41.5343 39.0085 41.4091 39.3339 41.1437C39.6594 40.8783 39.8661 40.4945 39.9085 40.0767C39.951 39.6589 39.8257 39.2414 39.5603 38.9159C38.6712 37.7539 37.5272 36.8116 36.2164 36.1616C34.9056 35.5115 33.463 35.1711 31.9999 35.1666ZM49.4166 31.9999C49.4166 35.4446 48.3951 38.8119 46.4814 41.6761C44.5676 44.5403 41.8475 46.7726 38.665 48.0908C35.4825 49.409 31.9806 49.7539 28.6021 49.0819C25.2236 48.4099 22.1202 46.7511 19.6845 44.3154C17.2487 41.8796 15.5899 38.7762 14.9179 35.3977C14.2459 32.0192 14.5908 28.5173 15.909 25.3348C17.2273 22.1524 19.4596 19.4323 22.3237 17.5185C25.1879 15.6047 28.5552 14.5833 31.9999 14.5833C36.6174 14.5887 41.0443 16.4254 44.3094 19.6905C47.5744 22.9556 49.4111 27.3824 49.4166 31.9999ZM46.2499 31.9999C46.2499 29.1815 45.4142 26.4264 43.8484 24.083C42.2826 21.7396 40.057 19.9132 37.4532 18.8346C34.8493 17.7561 31.9841 17.4739 29.2199 18.0237C26.4557 18.5736 23.9166 19.9307 21.9237 21.9236C19.9308 23.9165 18.5736 26.4557 18.0237 29.2199C17.4739 31.9841 17.7561 34.8493 18.8346 37.4532C19.9132 40.057 21.7396 42.2825 24.083 43.8484C26.4264 45.4142 29.1815 46.2499 31.9999 46.2499C35.778 46.2457 39.4001 44.743 42.0716 42.0716C44.7431 39.4001 46.2457 35.778 46.2499 31.9999Z" fill="white"/>
</g>
<defs>
<clipPath id="clip0_0_3113">
<rect width="65" height="65" fill="white"/>
</clipPath>
</defs>
</svg>
