<svg width="80" height="80" viewBox="0 0 80 80" fill="none" xmlns="http://www.w3.org/2000/svg">
<path d="M26.5 34.5156C26.5 35.2829 26.8048 36.0187 27.3473 36.5612C27.8898 37.1037 28.6256 37.4085 29.3929 37.4085C30.1601 37.4085 30.8959 37.1037 31.4384 36.5612C31.9809 36.0187 32.2857 35.2829 32.2857 34.5156C32.2857 33.7484 31.9809 33.0126 31.4384 32.4701C30.8959 31.9275 30.1601 31.6228 29.3929 31.6228C28.6256 31.6228 27.8898 31.9275 27.3473 32.4701C26.8048 33.0126 26.5 33.7484 26.5 34.5156ZM47.7143 34.5156C47.7143 35.2829 48.0191 36.0187 48.5616 36.5612C49.1041 37.1037 49.8399 37.4085 50.6071 37.4085C51.3744 37.4085 52.1102 37.1037 52.6527 36.5612C53.1952 36.0187 53.5 35.2829 53.5 34.5156C53.5 33.7484 53.1952 33.0126 52.6527 32.4701C52.1102 31.9275 51.3744 31.6228 50.6071 31.6228C49.8399 31.6228 49.1041 31.9275 48.5616 32.4701C48.0191 33.0126 47.7143 33.7484 47.7143 34.5156ZM40 13C25.0897 13 13 25.0897 13 40C13 54.9103 25.0897 67 40 67C54.9103 67 67 54.9103 67 40C67 25.0897 54.9103 13 40 13ZM55.8504 55.8504C53.7893 57.9116 51.3906 59.5268 48.7208 60.6598C45.9665 61.829 43.0315 62.4196 40 62.4196C36.9685 62.4196 34.0335 61.829 31.2732 60.6598C28.6074 59.534 26.1859 57.9005 24.1435 55.8504C22.0824 53.7893 20.4672 51.3906 19.3342 48.7208C18.171 45.9665 17.5804 43.0315 17.5804 40C17.5804 36.9685 18.171 34.0335 19.3402 31.2732C20.466 28.6074 22.0995 26.1859 24.1496 24.1435C26.2107 22.0824 28.6094 20.4672 31.2792 19.3342C34.0335 18.171 36.9685 17.5804 40 17.5804C43.0315 17.5804 45.9665 18.171 48.7268 19.3402C51.3926 20.466 53.8141 22.0995 55.8565 24.1496C57.9176 26.2107 59.5328 28.6094 60.6659 31.2792C61.829 34.0335 62.4196 36.9685 62.4196 40C62.4196 43.0315 61.829 45.9665 60.6598 48.7268C59.5353 51.3916 57.9017 53.8113 55.8504 55.8504ZM49.1607 41.2656H46.2618C46.0087 41.2656 45.7917 41.4585 45.7737 41.7116C45.5446 44.6949 43.0435 47.0513 40 47.0513C36.9565 47.0513 34.4493 44.6949 34.2263 41.7116C34.2083 41.4585 33.9913 41.2656 33.7382 41.2656H30.8393C30.7739 41.2655 30.7092 41.2788 30.649 41.3045C30.5889 41.3302 30.5346 41.3679 30.4895 41.4153C30.4444 41.4626 30.4094 41.5187 30.3867 41.58C30.3639 41.6413 30.3539 41.7066 30.3571 41.7719C30.6223 46.8525 34.8471 50.9085 40 50.9085C45.1529 50.9085 49.3777 46.8525 49.6429 41.7719C49.6461 41.7066 49.6361 41.6413 49.6133 41.58C49.5906 41.5187 49.5556 41.4626 49.5105 41.4153C49.4654 41.3679 49.4111 41.3302 49.351 41.3045C49.2908 41.2788 49.2261 41.2655 49.1607 41.2656Z" fill="#FF9B25"/>
</svg>
