<svg width="65" height="65" viewBox="0 0 65 65" fill="none" xmlns="http://www.w3.org/2000/svg">
<g clip-path="url(#clip0_0_3106)">
<circle cx="32.5" cy="32.5" r="30.5" fill="#3DC051" stroke="white" stroke-width="4"/>
<path d="M27.0483 14.8526C27.1214 14.6064 27.2732 14.3902 27.4809 14.2365C27.6885 14.0828 27.9409 13.9998 28.2002 14H37.7996C37.9897 14.0001 38.1769 14.0449 38.346 14.1307C38.5152 14.2165 38.6613 14.3408 38.7723 14.4934C38.8834 14.646 38.9563 14.8225 38.9849 15.0084C39.0136 15.1943 38.9972 15.3842 38.9372 15.5627L34.6654 28.2492H43.7992C44.0239 28.249 44.2442 28.3113 44.4349 28.4289C44.6256 28.5466 44.779 28.7148 44.8778 28.9146C44.9766 29.1143 45.0167 29.3374 44.9936 29.5586C44.9705 29.7798 44.8852 29.9901 44.7472 30.1657L27.9483 51.5394C27.7762 51.7594 27.5315 51.9126 27.2569 51.9723C26.9823 52.032 26.6952 51.9944 26.4458 51.8661C26.1963 51.7377 26.0003 51.5267 25.892 51.27C25.7838 51.0132 25.77 50.727 25.8532 50.4612L30.1753 36.5612H22.2006C22.0141 36.5613 21.8301 36.5183 21.6632 36.4358C21.4964 36.3532 21.3513 36.2332 21.2394 36.0855C21.1276 35.9377 21.0522 35.7662 21.0191 35.5845C20.9859 35.4028 20.9961 35.216 21.0487 35.0389L27.0483 14.8526ZM29.0978 16.3749L23.8037 34.1863H31.8C31.9878 34.1863 32.173 34.2298 32.3406 34.3135C32.5083 34.3972 32.6538 34.5187 32.7653 34.6681C32.8769 34.8176 32.9515 34.9909 32.9831 35.1741C33.0147 35.3573 33.0023 35.5452 32.9471 35.7228L30.0721 44.9682L41.3466 30.624H32.9999C32.8099 30.6239 32.6226 30.5791 32.4535 30.4933C32.2844 30.4075 32.1383 30.2832 32.0272 30.1306C31.9162 29.9781 31.8433 29.8015 31.8146 29.6156C31.786 29.4297 31.8024 29.2398 31.8624 29.0614L36.1341 16.3749H29.0978Z" fill="white"/>
</g>
<defs>
<clipPath id="clip0_0_3106">
<rect width="65" height="65" fill="white"/>
</clipPath>
</defs>
</svg>
