<svg width="80" height="80" viewBox="0 0 80 80" fill="none" xmlns="http://www.w3.org/2000/svg">
<path d="M40 21.0347C48.2305 33.268 53.5 41.7865 53.5 49.1665C53.5 56.5195 47.4453 62.5 40 62.5C32.5548 62.5 26.5 56.5195 26.5 49.1688C26.5 41.7865 31.7695 33.268 40 21.0347ZM40 13C29.0425 29.1933 22 39.3228 22 49.1688C22 59.0193 30.0528 67 40 67C49.9473 67 58 59.0193 58 49.1688C58 39.3228 50.9575 29.1933 40 13ZM45.976 40C48.1563 47.839 45.0625 55.4328 40 57.5073C47.4655 58.576 53.4865 49.7088 45.976 40Z" fill="#FF9B25"/>
</svg>
