<svg width="80" height="80" viewBox="0 0 80 80" fill="none" xmlns="http://www.w3.org/2000/svg">
<path d="M53.963 65.7777C61.0814 65.7777 66.8519 60.2477 66.8519 53.4258C66.8519 46.604 61.0814 41.074 53.963 41.074C46.8446 41.074 41.0741 46.604 41.0741 53.4258C41.0741 60.2477 46.8446 65.7777 53.963 65.7777Z" stroke="#FF9B25" stroke-width="4" stroke-miterlimit="10" stroke-linecap="round" stroke-linejoin="round"/>
<path d="M58.2592 53.9629H49.6666" stroke="#FF9B25" stroke-width="4" stroke-miterlimit="10" stroke-linecap="round" stroke-linejoin="round"/>
<path d="M53.8887 49.6667V58.2593" stroke="#FF9B25" stroke-width="4" stroke-miterlimit="10" stroke-linecap="round" stroke-linejoin="round"/>
<path d="M66.8519 31.2119C66.8519 36.4423 65.4825 41.062 63.3343 45.0711C60.9713 42.6019 57.6417 41.062 53.963 41.062C46.8473 41.062 41.0741 46.7703 41.0741 53.8061C41.0741 57.0717 42.3362 60.0454 44.3769 62.3021C43.3834 62.7535 42.4704 63.1252 41.6649 63.3907C40.7519 63.7093 39.2482 63.7093 38.3352 63.3907C30.5482 60.7622 13.1482 49.797 13.1482 31.2119C13.1482 23.0079 19.8343 16.3704 28.0778 16.3704C32.938 16.3704 37.288 18.7069 40 22.2911C42.7121 18.7069 47.0621 16.3704 51.9223 16.3704C60.1658 16.3704 66.8519 23.0079 66.8519 31.2119Z" stroke="#FF9B25" stroke-width="4" stroke-linecap="round" stroke-linejoin="round"/>
</svg>
