<svg width="24" height="24" viewBox="0 0 24 24" fill="none" xmlns="http://www.w3.org/2000/svg">
<rect x="0.5" y="0.5" width="23" height="23" stroke="#2E4B59" stroke-dasharray="12 12"/>
<path fill-rule="evenodd" clip-rule="evenodd" d="M12.3535 3.64625L12 3.29269L11.6464 3.64625L9.64643 5.64625L10.3535 6.35335L11.5 5.20691V11.9998H12.5V5.20691L13.6464 6.35335L14.3535 5.64625L12.3535 3.64625ZM5.47432 13.8417L4.78422 11.7714C5.95502 12.2176 7.05996 12.9255 8.01198 13.6897C9.20407 14.6466 10.1249 15.6664 10.6 16.2998L11.4 15.6998C10.8751 14.9999 9.89589 13.9196 8.63797 12.9099C7.74628 12.1941 6.69858 11.5009 5.55868 11.0073L7.15809 10.4741L6.84186 9.52546L3.84186 10.5255L3.36752 10.6836L3.52564 11.1579L4.52564 14.1579L5.47432 13.8417ZM16.6008 12.0605L14.8419 11.4741L15.1581 10.5255L18.1581 11.5255L18.6324 11.6836L18.4743 12.1579L17.4743 15.1579L16.5256 14.8417L17.1771 12.8874C15.4892 13.7592 14.3627 15.2422 13.6343 16.8526C12.7846 18.7311 12.5 20.7364 12.5 21.9998H11.5C11.5 20.6177 11.8059 18.4683 12.7232 16.4405C13.4977 14.7281 14.7248 13.0697 16.6008 12.0605Z" fill="#2E4B59"/>
</svg>
