<svg width="24" height="24" viewBox="0 0 24 24" fill="none" xmlns="http://www.w3.org/2000/svg">
<rect x="0.5" y="0.5" width="23" height="23" stroke="#2E4B59" stroke-dasharray="12 12"/>
<path fill-rule="evenodd" clip-rule="evenodd" d="M19.7489 12.105C18.9326 14.8119 16.2202 16.8 13 16.8C11.9432 16.8 10.9411 16.5859 10.0428 16.2025C9.44489 16.5821 8.74631 16.8001 8 16.8001C5.79086 16.8001 4 14.8899 4 12.5335C4 10.846 4.91838 9.38735 6.25109 8.69515C7.06732 5.98815 9.77971 4 13 4C14.0568 4 15.059 4.21412 15.9573 4.59751C16.5552 4.21798 17.2537 4 18 4C20.2091 4 22 5.91025 22 8.26666C22 9.95413 21.0816 11.4128 19.7489 12.105Z" fill="#2E4B59"/>
<path d="M18.3125 10.2245H15.5V9.16841L17.0891 7.05614H15.5V6H18.3125V7.05614L16.7281 9.16841H18.3125V10.2245ZM14.5625 12.3368H11.75V11.2807L13.3391 9.16841H11.75V8.11227H14.5625V9.16841L12.9781 11.2807H14.5625V12.3368ZM10.8125 14.4491H8V13.393L9.58906 11.2807H8V10.2245H10.8125V11.2807L9.22812 13.393H10.8125V14.4491Z" fill="white"/>
<circle cx="7.2" cy="19.2" r="1.2" fill="#2E4B59"/>
<circle cx="3.59999" cy="20.4" r="1.2" fill="#2E4B59"/>
</svg>
