<svg width="24" height="24" viewBox="0 0 24 24" fill="none" xmlns="http://www.w3.org/2000/svg">
<rect x="0.5" y="0.5" width="23" height="23" stroke="#2E4B59" stroke-dasharray="12 12"/>
<path d="M18.9103 9.23932C18.9103 9.03712 18.8911 8.86131 18.8527 8.71186C18.8144 8.56241 18.7491 8.44154 18.6571 8.34923C18.565 8.25693 18.4787 8.1822 18.3981 8.12506C18.3175 8.06792 18.1909 8.02616 18.0183 7.99979C17.8456 7.97342 17.7056 7.95364 17.5982 7.94045C17.4908 7.92727 17.3258 7.91628 17.1033 7.90749C16.7427 7.8899 16.4664 7.87232 16.2746 7.85474C16.0828 7.83716 15.8065 7.78002 15.4459 7.68332C15.0853 7.58662 14.7956 7.45695 14.577 7.29432C14.3583 7.13168 14.1051 6.88554 13.8173 6.55587C13.5296 6.22621 13.2956 5.83282 13.1152 5.37569C12.9349 4.91856 12.768 4.33615 12.6146 3.62848C12.4611 2.92081 12.3499 2.11863 12.2808 1.22195C12.2808 1.09888 12.3153 0.997785 12.3844 0.918666C12.4535 0.839547 12.5417 0.799988 12.6491 0.799988C12.7565 0.799988 12.8448 0.839547 12.9138 0.918666C12.9829 0.997785 13.0174 1.09888 13.0174 1.22195C13.0711 1.97798 13.1594 2.65488 13.2821 3.25267C13.4049 3.85045 13.5411 4.35154 13.6907 4.75592C13.8403 5.16031 14.0226 5.50975 14.2374 5.80425C14.4523 6.09874 14.6614 6.32731 14.8647 6.48994C15.068 6.65257 15.3059 6.78224 15.5783 6.87894C15.8507 6.97564 16.0904 7.03718 16.2976 7.06355C16.5048 7.08993 16.7503 7.10751 17.0342 7.1163C17.111 7.1163 17.2472 7.1185 17.4428 7.12289C17.6385 7.12729 17.7728 7.13168 17.8456 7.13608C17.9185 7.14047 18.0394 7.15146 18.2082 7.16904C18.377 7.18663 18.4959 7.2086 18.565 7.23498C18.634 7.26135 18.7319 7.30091 18.8585 7.35365C18.9851 7.4064 19.0772 7.46794 19.1347 7.53826C19.1923 7.60859 19.2613 7.6965 19.3419 7.80199C19.4224 7.90749 19.48 8.02616 19.5145 8.15803C19.549 8.28989 19.5797 8.44813 19.6066 8.63274C19.6335 8.81735 19.6469 9.01954 19.6469 9.23932V10.5052C19.6469 10.6283 19.6124 10.7294 19.5433 10.8085C19.4742 10.8876 19.386 10.9272 19.2786 10.9272C19.1712 10.9272 19.0829 10.8876 19.0139 10.8085C18.9448 10.7294 18.9103 10.6283 18.9103 10.5052V9.23932ZM18.9103 5.01965C18.8949 3.6131 18.2811 2.90982 17.0688 2.90982H15.9638C15.8564 2.90982 15.7682 2.87026 15.6991 2.79114C15.6301 2.71202 15.5955 2.61093 15.5955 2.48785C15.5955 2.36478 15.6301 2.26368 15.6991 2.18457C15.7682 2.10545 15.8564 2.06589 15.9638 2.06589H17.0688C17.8437 2.06589 18.4518 2.28346 18.893 2.71862C19.3342 3.15377 19.5548 3.79771 19.5548 4.65043C19.9615 4.65043 20.2876 4.69219 20.5331 4.7757C20.7786 4.85922 21.0127 5.03723 21.2352 5.30975C21.6649 5.83721 21.872 6.58444 21.8567 7.55145V10.5052C21.8567 10.6283 21.8222 10.7294 21.7531 10.8085C21.6841 10.8876 21.5958 10.9272 21.4884 10.9272C21.381 10.9272 21.2927 10.8876 21.2237 10.8085C21.1546 10.7294 21.1201 10.6283 21.1201 10.5052V7.55145C21.1201 6.9185 21.0012 6.40863 20.7633 6.02182C20.5254 5.63502 20.1533 5.44162 19.6469 5.44162H18.9103V5.01965ZM14.7438 15.9908L17.2874 21.0412C17.3488 21.1555 17.3642 21.2807 17.3335 21.417C17.3028 21.5533 17.2337 21.6566 17.1263 21.7269L15.9754 22.4917C15.8756 22.562 15.7643 22.5774 15.6416 22.5379C15.5188 22.4983 15.4306 22.4214 15.3769 22.3071L6.60663 4.91416C6.54525 4.79109 6.5299 4.66142 6.56059 4.52516C6.59129 4.3889 6.66034 4.28561 6.76777 4.21528L7.91871 3.46365C8.01846 3.39332 8.12972 3.37574 8.25249 3.41091C8.37526 3.44607 8.46733 3.52519 8.52872 3.64826L12.6146 11.7711H17.8054V15.9908H14.7438ZM1.60001 11.7711H8.25249L10.3817 15.9908H1.60001V11.7711ZM18.8988 11.7711C18.8067 11.7711 18.7242 11.8107 18.6513 11.8898C18.5784 11.9689 18.542 12.0656 18.542 12.1799V15.582C18.542 15.6963 18.5784 15.793 18.6513 15.8721C18.7242 15.9512 18.8067 15.9908 18.8988 15.9908H19.6584C19.7505 15.9908 19.833 15.9512 19.9058 15.8721C19.9787 15.793 20.0152 15.6963 20.0152 15.582V12.1799C20.0152 12.0656 19.9787 11.9689 19.9058 11.8898C19.833 11.8107 19.7505 11.7711 19.6584 11.7711H18.8988ZM21.1086 11.7711C21.0165 11.7711 20.934 11.8107 20.8611 11.8898C20.7882 11.9689 20.7518 12.0656 20.7518 12.1799V15.582C20.7518 15.6963 20.7882 15.793 20.8611 15.8721C20.934 15.9512 21.0165 15.9908 21.1086 15.9908H21.8682C21.9603 15.9908 22.0428 15.9512 22.1157 15.8721C22.1886 15.793 22.225 15.6963 22.225 15.582V12.1799C22.225 12.0656 22.1886 11.9689 22.1157 11.8898C22.0428 11.8107 21.9603 11.7711 21.8682 11.7711H21.1086Z" fill="#2E4B59"/>
</svg>
