<svg width="250" height="251" viewBox="0 0 250 251" fill="none" xmlns="http://www.w3.org/2000/svg">
<mask id="mask0" mask-type="alpha" maskUnits="userSpaceOnUse" x="0" y="0" width="250" height="251">
<rect y="0.906006" width="249.703" height="249.703" fill="#C4C4C4"/>
</mask>
<g mask="url(#mask0)">
<path d="M100.899 25.1103L110.808 32.6634L117.641 22.1547L126.178 31.1349L134.605 21.7584L141.559 31.9472L151.376 23.9333L156.577 35.0766L167.541 28.6255L170.858 40.4495L182.7 35.7165L184.055 47.9328L196.483 45.0364L195.839 57.3409L208.546 56.3534L205.921 68.4433L218.597 69.3873L214.055 80.9677L226.384 83.8194L220.039 94.6046L231.719 99.2941L223.725 109.017L234.469 115.43L225.023 123.85L234.566 131.829L223.901 138.742L232.009 148.088L220.386 153.322L226.858 163.808L214.566 167.234L219.242 178.599L206.582 180.133L209.35 192.099L196.633 191.703L197.422 203.975L184.963 201.659L183.754 213.934L171.859 209.757L168.683 221.732L157.645 215.793L152.577 227.176L142.667 219.623L135.836 230.132L127.301 221.153L118.872 230.528L111.918 220.341L102.101 228.353L96.9001 217.21L85.9359 223.662L82.6182 211.836L70.7771 216.57L69.4224 204.354L56.9941 207.25L57.6379 194.944L44.9292 195.933L47.5544 183.843L34.8799 182.899L39.4221 171.319L27.0912 168.467L33.4383 157.682L21.7565 152.992L29.752 143.27L19.0076 136.857L28.4539 128.436L18.9102 120.458L29.5756 113.545L21.4682 104.198L33.0908 98.9637L26.6186 88.4787L38.9112 85.053L34.2348 73.6872L46.8948 72.1534L44.1274 60.1872L56.8427 60.5835L56.0554 48.3119L68.5139 50.6278L69.7225 38.3522L81.6176 42.5323L84.7944 30.5543L95.8324 36.4932L100.899 25.1103Z" fill="#F26522"/>
<path d="M188.429 188.736C222.702 154.464 222.702 98.898 188.429 64.6259C154.157 30.3538 98.5912 30.3538 64.3191 64.6259C30.047 98.898 30.047 154.464 64.3191 188.736C98.5912 223.008 154.157 223.008 188.429 188.736Z" fill="white"/>
<path d="M185.12 185.427C217.564 152.982 217.564 100.38 185.12 67.9353C152.676 35.4909 100.073 35.4909 67.6288 67.9353C35.1844 100.38 35.1844 152.982 67.6288 185.427C100.073 217.871 152.676 217.871 185.12 185.427Z" fill="#F26522"/>
<path d="M126.324 210.307C126.321 210.307 126.32 210.307 126.317 210.307C117.118 210.306 108.029 208.787 99.3001 205.789C90.7149 202.841 82.7036 198.545 75.4903 193.02C68.2058 187.44 61.9363 180.76 56.8584 173.166C51.604 165.309 47.7413 156.639 45.378 147.397C42.5817 136.463 42.0103 125.307 43.6797 114.241C45.2925 103.552 48.9169 93.3961 54.453 84.0552C59.9892 74.7143 67.1578 66.6583 75.7601 60.1124C84.6666 53.3347 94.7264 48.4793 105.66 45.6829C112.476 43.9398 119.466 43.0564 126.436 43.0564C135.634 43.0564 144.724 44.5757 153.453 47.5735C162.038 50.5213 170.049 54.8172 177.262 60.3428C184.547 65.9223 190.816 72.6025 195.894 80.1977C201.149 88.0549 205.011 96.7257 207.375 105.967C210.171 116.901 210.742 128.057 209.073 139.123C207.46 149.812 203.836 159.968 198.298 169.309C192.762 178.65 185.594 186.706 176.991 193.251C168.085 200.029 158.025 204.883 147.09 207.681C140.277 209.424 133.288 210.307 126.324 210.307ZM126.436 44.1083C119.554 44.1083 112.653 44.9812 105.921 46.7019C84.5587 52.1656 66.6009 65.6208 55.3588 84.591C44.1168 103.56 40.9334 125.773 46.3971 147.135C55.7499 183.706 88.6137 209.25 126.316 209.254C126.318 209.254 126.32 209.254 126.322 209.254C133.199 209.254 140.099 208.381 146.829 206.661C168.193 201.197 186.149 187.742 197.391 168.771C208.635 149.803 211.817 127.59 206.353 106.227C197.002 69.6521 164.138 44.1083 126.436 44.1083Z" fill="#F26522"/>
<path d="M58.0933 97.2519L58.0801 97.2809L58.1472 99.4493L56.3396 99.0885L56.2791 96.0776L57.0716 94.2686L66.4784 98.3894L65.5463 100.517L58.0933 97.2519Z" fill="white"/>
<path d="M67.2315 86.4537C69.9383 88.0836 71.1601 90.3125 69.8159 92.5454C68.4466 94.8191 65.8004 94.59 63.3016 93.1049C60.7435 91.5646 59.3848 89.2896 60.7527 87.0159C62.1614 84.6737 64.8222 85.0029 67.2315 86.4537ZM64.5391 91.0472C66.5561 92.261 67.8107 92.3532 68.2834 91.5672C68.7639 90.768 68.0227 89.7319 66.0202 88.526C64.0717 87.3529 62.7894 87.1528 62.2931 87.9783C61.8441 88.7234 62.4827 89.8083 64.5391 91.0472Z" fill="white"/>
<path d="M72.8176 79.2676C75.2927 81.2306 76.2182 83.599 74.5989 85.641C72.9492 87.7212 70.3543 87.1537 68.0661 85.3606C65.7266 83.5043 64.6707 81.0739 66.3191 78.9951C68.0187 76.853 70.615 77.5205 72.8176 79.2676ZM69.5591 83.4779C71.4036 84.9406 72.6359 85.1921 73.2046 84.4746C73.7839 83.7439 73.1823 82.6222 71.3496 81.1687C69.567 79.7547 68.3215 79.3927 67.7238 80.147C67.184 80.829 67.6778 81.9863 69.5591 83.4779Z" fill="white"/>
<path d="M76.3025 72.6811C77.7454 74.2728 77.5032 76.0277 76.4026 77.0257C75.244 78.0763 73.5456 78.0381 72.2409 76.5978C71.01 75.2404 70.9073 73.4565 72.2172 72.2677C73.5167 71.0907 75.1242 71.3816 76.3025 72.6811ZM73.5312 75.3642C74.2408 76.1699 75.0426 76.4898 75.5573 76.0225C76.0602 75.5656 75.8391 74.8284 75.0544 73.9621C74.354 73.1892 73.6022 72.7837 73.0401 73.2932C72.5135 73.7698 72.8307 74.5914 73.5312 75.3642ZM79.3608 80.1222L76.6172 68.3009L77.5651 67.4412L80.3206 79.252L79.3608 80.1222ZM84.6442 70.8747C86.0766 72.4546 85.8343 74.2096 84.7337 75.2075C83.587 76.2476 81.8886 76.2094 80.5945 74.781C79.3635 73.4236 79.2608 71.6397 80.5602 70.4627C81.8597 69.2843 83.4672 69.5753 84.6442 70.8747ZM81.8755 73.5342C82.5851 74.3412 83.3856 74.6598 83.8898 74.203C84.3927 73.7461 84.1715 73.0089 83.3974 72.1544C82.697 71.3816 81.9452 70.9761 81.3949 71.4751C80.8683 71.953 81.1856 72.7745 81.8755 73.5342Z" fill="white"/>
<path d="M97.7518 66.2184C97.2265 66.8016 96.1693 67.7903 94.9423 68.4762C93.2452 69.4242 91.7799 69.6822 90.4699 69.3465C89.1744 69.0029 88.0264 68.051 87.2641 66.6857C85.5513 63.5892 86.8126 60.5677 89.8604 58.8641C91.0598 58.194 92.1156 57.9122 92.6857 57.8648L93.1926 59.8081C92.5514 59.8594 91.8378 60.0398 90.8175 60.6112C89.0665 61.5894 88.2752 63.3167 89.4088 65.3442C90.4884 67.2742 92.3263 67.714 94.0496 66.7502C94.5183 66.4883 94.8738 66.217 95.0002 66.0564L93.9061 64.0974L92.4724 64.8992L91.5548 63.2574L95.016 61.3234L97.7518 66.2184Z" fill="white"/>
<path d="M97.9374 55.2184L100.04 60.9599C100.676 62.6951 101.663 63.327 102.806 62.9084C103.992 62.4739 104.341 61.4036 103.689 59.6236L101.587 53.8821L103.842 53.0566L105.896 58.6638C107.026 61.7498 106.007 63.7892 103.394 64.745C100.872 65.6692 98.8879 64.7976 97.7254 61.6221L95.6821 56.0439L97.9374 55.2184Z" fill="white"/>
<path d="M110.574 59.5537L110.383 62.3843L107.954 62.8846L108.975 51.8018L112.07 51.1633L117.471 60.9216L114.918 61.4482L113.562 58.9375L110.574 59.5537ZM112.856 57.2445L111.751 55.1656C111.437 54.585 111.092 53.8491 110.809 53.2632L110.778 53.2698C110.75 53.9202 110.759 54.7417 110.713 55.3802L110.551 57.7211L112.856 57.2445Z" fill="white"/>
<path d="M117.886 50.3826C118.651 50.2101 119.78 50.0482 121.074 49.9705C122.652 49.8757 123.769 50.0469 124.562 50.6011C125.239 51.0672 125.631 51.8031 125.689 52.7813C125.769 54.1216 124.863 55.1103 123.968 55.4961L123.971 55.5435C124.731 55.7989 125.182 56.4677 125.509 57.4301C125.913 58.6242 126.31 59.9934 126.541 60.391L124.08 60.5385C123.904 60.233 123.584 59.397 123.207 58.1055C122.827 56.7823 122.349 56.4637 121.355 56.5072L120.645 56.5493L120.895 60.7281L118.514 60.8702L117.886 50.3826ZM120.541 54.8141L121.488 54.7575C122.686 54.6864 123.36 54.0439 123.305 53.1131C123.247 52.1507 122.554 51.686 121.451 51.7518C120.868 51.7873 120.539 51.8387 120.367 51.8953L120.541 54.8141Z" fill="white"/>
<path d="M130.344 57.9129L129.356 60.5711L126.885 60.3591L131.022 50.0268L134.17 50.2967L136.565 61.1898L133.968 60.9673L133.383 58.1736L130.344 57.9129ZM133.191 56.3489L132.723 54.0409C132.589 53.3958 132.467 52.5914 132.364 51.9489L132.332 51.9463C132.12 52.5625 131.894 53.3511 131.669 53.9501L130.846 56.1474L133.191 56.3489Z" fill="white"/>
<path d="M137.564 61.3864L140.101 51.0449L142.833 51.715L144.051 56.032C144.397 57.2721 144.68 58.7072 144.87 59.9908L144.9 59.9987C145.098 58.5992 145.394 57.1918 145.777 55.6265L146.514 52.6194L148.663 53.1461L146.126 63.4876L143.67 62.8859L142.439 58.3544C142.097 57.0997 141.734 55.5949 141.54 54.2625L141.478 54.248C141.216 55.6475 140.89 57.1128 140.475 58.8007L139.711 61.9156L137.564 61.3864Z" fill="white"/>
<path d="M152.886 56.8666L150.22 55.7897L150.977 53.9149L158.565 56.9798L157.808 58.8546L155.113 57.7658L151.883 65.7639L149.657 64.8647L152.886 56.8666Z" fill="white"/>
<path d="M163.144 66.476L159.723 64.5657L158.491 66.7722L162.312 68.9064L161.349 70.631L155.433 67.3252L160.625 58.029L166.348 61.2269L165.384 62.9503L161.757 60.9241L160.679 62.8555L164.099 64.7658L163.144 66.476Z" fill="white"/>
<path d="M170.217 71.4921L167.06 69.1723L165.563 71.209L169.09 73.8L167.921 75.3917L162.459 71.3789L168.763 62.7976L174.046 66.6788L172.877 68.2705L169.528 65.8112L168.219 67.5938L171.376 69.9135L170.217 71.4921Z" fill="white"/>
<path d="M186.536 152.785L189.139 145.655L191.023 146.342L190.192 148.617L195.896 150.699L196.726 148.424L198.488 149.066C198.367 149.399 198.267 149.739 198.19 150.082C198.114 150.426 198.088 150.716 198.113 150.949C198.144 151.223 198.234 151.46 198.382 151.66C198.531 151.858 198.747 152.022 199.03 152.147L198.168 154.509L189.232 151.248L188.42 153.473L186.536 152.785Z" fill="white"/>
<path d="M186.893 164.406C186.021 163.932 185.296 163.446 184.717 162.951C184.137 162.455 183.712 161.933 183.441 161.388C183.17 160.843 183.056 160.262 183.1 159.649C183.143 159.035 183.359 158.371 183.748 157.657C184.133 156.947 184.572 156.408 185.063 156.036C185.554 155.665 186.108 155.445 186.726 155.377C187.335 155.31 188.003 155.383 188.727 155.595C189.451 155.807 190.247 156.15 191.115 156.621C192.01 157.107 192.736 157.591 193.294 158.073C193.852 158.555 194.271 159.08 194.554 159.649C194.829 160.208 194.942 160.796 194.891 161.412C194.84 162.028 194.628 162.68 194.255 163.367C193.86 164.095 193.416 164.639 192.924 165.001C192.432 165.363 191.875 165.576 191.253 165.643C190.644 165.709 189.976 165.635 189.251 165.419C188.523 165.202 187.738 164.865 186.893 164.406ZM188.274 161.865C189.521 162.543 190.453 162.915 191.068 162.984C191.684 163.052 192.124 162.842 192.389 162.354C192.653 161.871 192.588 161.388 192.197 160.906C191.806 160.424 190.983 159.842 189.726 159.159C188.496 158.492 187.57 158.122 186.944 158.051C186.319 157.98 185.874 158.186 185.612 158.669C185.349 159.153 185.418 159.638 185.817 160.124C186.217 160.611 187.036 161.192 188.274 161.865Z" fill="white"/>
<path d="M180.654 172.892C179.861 172.294 179.215 171.708 178.716 171.132C178.216 170.555 177.872 169.978 177.684 169.398C177.495 168.818 177.469 168.229 177.602 167.627C177.736 167.025 178.047 166.401 178.537 165.752C179.023 165.107 179.536 164.637 180.077 164.343C180.618 164.05 181.198 163.913 181.818 163.937C182.431 163.96 183.08 164.132 183.765 164.447C184.451 164.765 185.187 165.22 185.975 165.814C186.789 166.426 187.435 167.012 187.916 167.57C188.397 168.129 188.735 168.71 188.93 169.315C189.119 169.909 189.144 170.506 189.003 171.108C188.863 171.71 188.557 172.323 188.086 172.947C187.588 173.608 187.068 174.082 186.528 174.368C185.989 174.653 185.407 174.782 184.781 174.756C184.168 174.732 183.519 174.56 182.833 174.24C182.149 173.92 181.421 173.471 180.654 172.892ZM182.394 170.581C183.528 171.436 184.394 171.941 184.993 172.099C185.592 172.257 186.058 172.115 186.393 171.671C186.724 171.232 186.731 170.745 186.416 170.211C186.1 169.677 185.372 168.98 184.23 168.119C183.112 167.278 182.25 166.775 181.641 166.613C181.033 166.451 180.563 166.59 180.231 167.029C179.899 167.469 179.897 167.959 180.221 168.499C180.545 169.04 181.269 169.733 182.394 170.581Z" fill="white"/>
<path d="M165.036 184.401C164.2 183.439 163.791 182.537 163.814 181.697C163.836 180.857 164.255 180.082 165.07 179.373C165.909 178.645 166.743 178.328 167.575 178.423C168.407 178.518 169.237 179.04 170.062 179.992C170.889 180.943 171.288 181.842 171.259 182.687C171.231 183.532 170.805 184.313 169.982 185.028C169.143 185.757 168.313 186.068 167.488 185.963C166.667 185.856 165.848 185.336 165.036 184.401ZM166.68 182.941C166.892 183.186 167.097 183.399 167.294 183.582C167.491 183.765 167.679 183.898 167.858 183.98C168.039 184.062 168.215 184.088 168.386 184.058C168.557 184.027 168.731 183.936 168.906 183.785C169.092 183.623 169.208 183.462 169.254 183.303C169.3 183.144 169.295 182.966 169.239 182.769C169.189 182.594 169.084 182.389 168.921 182.156C168.758 181.923 168.576 181.689 168.374 181.456C168.124 181.169 167.919 180.948 167.757 180.793C167.595 180.637 167.411 180.512 167.207 180.417C167.03 180.332 166.854 180.303 166.677 180.33C166.501 180.358 166.323 180.45 166.144 180.604C165.969 180.756 165.856 180.916 165.804 181.083C165.753 181.251 165.756 181.432 165.815 181.626C165.869 181.797 165.968 181.991 166.111 182.206C166.255 182.422 166.443 182.67 166.68 182.941ZM173.734 187.378L170.742 174.761L172.279 173.425L175.272 186.042L173.734 187.378ZM175.949 180.824C175.113 179.862 174.704 178.96 174.727 178.12C174.749 177.28 175.168 176.504 175.983 175.796C176.821 175.068 177.656 174.751 178.488 174.846C179.32 174.94 180.15 175.463 180.975 176.415C181.802 177.366 182.201 178.265 182.173 179.11C182.146 179.955 181.719 180.736 180.896 181.451C180.057 182.18 179.227 182.491 178.403 182.386C177.581 182.28 176.762 181.76 175.949 180.824ZM177.593 179.364C177.805 179.609 178.01 179.822 178.206 180.005C178.403 180.188 178.592 180.321 178.771 180.403C178.952 180.484 179.127 180.511 179.299 180.48C179.47 180.45 179.644 180.359 179.819 180.208C180.005 180.046 180.121 179.885 180.167 179.726C180.213 179.567 180.208 179.389 180.152 179.192C180.102 179.016 179.997 178.812 179.834 178.578C179.672 178.344 179.489 178.111 179.287 177.878C179.037 177.591 178.832 177.369 178.67 177.214C178.508 177.059 178.324 176.934 178.12 176.839C177.943 176.753 177.767 176.724 177.59 176.752C177.414 176.78 177.236 176.87 177.057 177.026C176.882 177.177 176.769 177.338 176.717 177.505C176.666 177.672 176.669 177.854 176.728 178.047C176.782 178.219 176.881 178.412 177.024 178.628C177.168 178.844 177.357 179.093 177.593 179.364Z" fill="white"/>
<path d="M149.612 188.538C150.182 187.998 151.314 187.096 152.593 186.51C154.36 185.701 155.842 185.56 157.12 186C158.384 186.446 159.452 187.485 160.104 188.906C161.564 192.131 160.065 195.042 156.893 196.496C155.643 197.069 154.569 197.267 153.996 197.268L153.646 195.29C154.29 195.29 155.015 195.167 156.078 194.68C157.901 193.844 158.827 192.185 157.859 190.074C156.937 188.064 155.14 187.479 153.344 188.302C152.856 188.526 152.481 188.768 152.341 188.918L153.276 190.958L154.769 190.273L155.552 191.982L151.948 193.634L149.612 188.538Z" fill="white"/>
<path d="M148.556 199.489L146.916 193.599C146.419 191.817 145.485 191.11 144.313 191.437C143.095 191.777 142.663 192.815 143.171 194.641L144.812 200.532L142.499 201.177L140.896 195.423C140.014 192.257 141.193 190.306 143.872 189.559C146.459 188.838 148.369 189.865 149.276 193.122L150.871 198.845L148.556 199.489Z" fill="white"/>
<path d="M136.303 194.166L136.716 191.36L139.177 191.052L137.284 202.021L134.149 202.413L129.536 192.258L132.123 191.934L133.278 194.545L136.303 194.166ZM133.846 196.287L134.785 198.446C135.051 199.049 135.338 199.81 135.572 200.417L135.604 200.413C135.682 199.767 135.739 198.948 135.834 198.315L136.181 195.995L133.846 196.287Z" fill="white"/>
<path d="M128.292 202.733C127.515 202.845 126.376 202.917 125.081 202.893C123.501 202.863 122.4 202.605 121.652 201.99C121.014 201.473 120.681 200.708 120.699 199.728C120.724 198.385 121.706 197.472 122.628 197.157L122.629 197.11C121.892 196.795 121.494 196.093 121.246 195.109C120.938 193.886 120.648 192.49 120.45 192.075L122.915 192.121C123.066 192.44 123.319 193.298 123.594 194.615C123.87 195.963 124.321 196.32 125.315 196.354L126.026 196.367L126.105 192.181L128.491 192.225L128.292 202.733ZM125.993 198.106L125.045 198.088C123.845 198.066 123.123 198.651 123.105 199.584C123.086 200.547 123.74 201.066 124.846 201.086C125.431 201.096 125.763 201.071 125.938 201.028L125.993 198.106Z" fill="white"/>
<path d="M116.463 194.246L117.658 191.674L120.106 192.079L115.167 202.055L112.051 201.537L110.521 190.489L113.092 190.915L113.456 193.746L116.463 194.246ZM113.503 195.581L113.787 197.918C113.87 198.573 113.928 199.384 113.981 200.033L114.012 200.038C114.272 199.44 114.56 198.671 114.831 198.092L115.824 195.967L113.503 195.581Z" fill="white"/>
<path d="M109.543 190.216L106.196 200.325L103.526 199.442L102.653 195.042C102.406 193.778 102.239 192.324 102.15 191.031L102.12 191.021C101.813 192.401 101.407 193.78 100.9 195.31L99.9268 198.25L97.8269 197.555L101.174 187.446L103.574 188.242L104.443 192.856C104.685 194.135 104.928 195.663 105.015 197.006L105.076 197.026C105.448 195.651 105.889 194.216 106.436 192.567L107.444 189.523L109.543 190.216Z" fill="white"/>
<path d="M93.91 193.506L96.4826 194.791L95.5781 196.6L88.2581 192.943L89.1625 191.134L91.7627 192.433L95.6189 184.717L97.7662 185.79L93.91 193.506Z" fill="white"/>
<path d="M84.4494 183.109L87.7065 185.287L89.1113 183.186L85.4723 180.754L86.5704 179.112L92.2052 182.879L86.2873 191.733L80.8354 188.09L81.9335 186.448L85.3881 188.758L86.6177 186.918L83.3606 184.741L84.4494 183.109Z" fill="white"/>
<path d="M77.7929 177.55L80.7577 180.112L82.41 178.199L79.0989 175.338L80.3904 173.844L85.5197 178.275L78.5578 186.334L73.5957 182.047L74.8872 180.553L78.0312 183.269L79.4767 181.595L76.5119 179.033L77.7929 177.55Z" fill="white"/>
<path d="M166.713 166.708C189.049 144.371 189.049 108.156 166.713 85.819C144.376 63.4822 108.16 63.4822 85.8236 85.819C63.4867 108.156 63.4868 144.371 85.8236 166.708C108.16 189.045 144.376 189.045 166.713 166.708Z" fill="white"/>
<path d="M126.212 187.314C126.211 187.314 126.209 187.314 126.208 187.314C119.494 187.314 112.858 186.204 106.486 184.016C100.219 181.864 94.3711 178.727 89.1062 174.694C83.7886 170.621 79.2123 165.744 75.5049 160.202C71.6698 154.466 68.8497 148.137 67.1237 141.391C65.0817 133.409 64.6657 125.266 65.8848 117.187C67.0618 109.384 69.7081 101.971 73.7499 95.1522C77.7917 88.3337 83.0237 82.4527 89.3037 77.6736C95.8048 72.726 103.149 69.1818 111.131 67.1412C116.106 65.8694 121.209 65.223 126.296 65.223C133.011 65.223 139.646 66.3328 146.018 68.5196C152.285 70.6709 158.133 73.8069 163.398 77.8408C168.716 81.9142 173.292 86.7907 176.999 92.3347C180.834 98.071 183.654 104.4 185.38 111.146C187.421 119.128 187.838 127.271 186.619 135.349C185.442 143.151 182.796 150.566 178.754 157.384C174.712 164.203 169.48 170.084 163.2 174.862C156.699 179.809 149.356 183.353 141.373 185.394C136.398 186.668 131.296 187.314 126.212 187.314ZM126.295 66.2762C121.296 66.2762 116.281 66.9108 111.39 68.1615C79.3492 76.3557 59.9498 109.089 68.144 141.13C74.9388 167.701 98.8158 186.259 126.208 186.262C126.209 186.262 126.211 186.262 126.212 186.262C131.208 186.262 136.222 185.627 141.113 184.376C173.152 176.182 192.553 143.449 184.359 111.409C177.563 84.8343 153.686 66.2762 126.295 66.2762Z" fill="white"/>
<path d="M113.233 73.4146L117.42 78.2964L123.814 77.6157L120.465 83.1044L123.089 88.9775L116.833 87.4872L112.059 91.7976L111.541 85.3873L105.967 82.1802L111.905 79.7064L113.233 73.4146Z" fill="#F26522"/>
<path d="M129.228 76.0543L131.808 79.0639L135.751 78.6439L133.687 82.0288L135.304 85.648L131.448 84.7303L128.504 87.3872L128.185 83.4349L124.749 81.4574L128.409 79.9328L129.228 76.0543Z" fill="#F26522"/>
<path d="M99.0631 83.3889L101.645 86.3986L105.587 85.9786L103.522 89.3634L105.14 92.9827L101.283 92.065L98.3404 94.7218L98.0204 90.7695L94.5842 88.7921L98.2442 87.2675L99.0631 83.3889Z" fill="#F26522"/>
<path d="M137.093 159.51L141.28 164.392L147.674 163.711L144.325 169.201L146.949 175.073L140.692 173.584L135.919 177.895L135.401 171.483L129.827 168.276L135.765 165.803L137.093 159.51Z" fill="#F26522"/>
<path d="M153.088 162.15L155.668 165.16L159.611 164.74L157.547 168.125L159.165 171.745L155.308 170.827L152.364 173.485L152.045 169.532L148.609 167.555L152.269 166.03L153.088 162.15Z" fill="#F26522"/>
<path d="M122.923 169.485L125.505 172.495L129.447 172.075L127.382 175.46L129 179.08L125.143 178.162L122.2 180.819L121.88 176.867L118.444 174.89L122.104 173.365L122.923 169.485Z" fill="#F26522"/>
<path d="M21.3521 118.448C12.2732 130.641 8.45253 143.352 11.474 155.17C14.4968 166.986 23.951 176.303 37.7682 182.64L231.678 133.048C240.758 120.855 244.579 108.142 241.556 96.3264C238.533 84.509 229.079 75.1931 215.261 68.8565L21.3521 118.448Z" fill="#F26522"/>
<path d="M37.705 183.336L37.493 183.239C23.0254 176.605 13.8082 166.954 10.8354 155.333C7.86397 143.712 11.3173 130.822 20.8228 118.055L20.9624 117.868L21.1875 117.81L215.322 68.1602L215.534 68.2577C230.002 74.8918 239.221 84.5421 242.193 96.1633C245.166 107.785 241.711 120.675 232.205 133.442L232.065 133.628L231.84 133.686L37.705 183.336ZM21.7418 119.028C12.5864 131.402 9.25688 143.838 12.1125 155.007C14.9681 166.174 23.8601 175.484 37.8327 181.945L231.29 132.469C240.446 120.094 243.776 107.657 240.92 96.4898C238.065 85.3228 229.173 76.0122 215.2 69.5518L21.7418 119.028Z" fill="#F26522"/>
<path d="M40.9397 177.71L40.7396 177.63C27.1435 172.177 18.5965 163.976 16.0239 153.913C13.4501 143.851 17.0113 132.554 26.3194 121.243L26.4563 121.077L26.6643 121.023L211.762 73.6839L211.963 73.7642C225.56 79.2174 234.107 87.4182 236.681 97.4806C239.255 107.543 235.693 118.84 226.384 130.151L226.247 130.317L226.039 130.369L40.9397 177.71ZM27.2001 122.245C18.2713 133.163 14.8469 143.997 17.2997 153.587C19.7524 163.177 27.9572 171.036 41.0319 176.328L225.503 129.149C234.433 118.232 237.858 107.398 235.405 97.8071C232.952 88.2173 224.748 80.3575 211.672 75.0676L27.2001 122.245Z" fill="white"/>
<path d="M43.9166 161.689C42.5579 162.037 41.3085 162.124 40.167 161.951C39.0269 161.778 37.9315 161.48 36.8849 161.057L35.0891 154.035L35.4946 153.931C36.7058 154.96 37.9342 155.674 39.1796 156.074C40.4251 156.474 41.5521 156.546 42.5618 156.288C42.8159 156.223 43.1398 156.09 43.5335 155.891C43.9271 155.692 44.226 155.461 44.4287 155.197C44.6815 154.893 44.8632 154.513 44.9751 154.053C45.087 153.595 45.058 153.036 44.8882 152.375C44.6986 151.635 44.3695 151.077 43.9021 150.704C43.4334 150.33 42.9305 150.1 42.392 150.013C41.7206 149.904 41.0109 149.817 40.2618 149.755C39.514 149.693 38.7978 149.567 38.1132 149.374C36.532 148.92 35.2695 148.087 34.3255 146.877C33.3815 145.667 32.6469 144.037 32.1229 141.987C31.4159 139.224 31.5462 136.805 32.5152 134.733C33.4842 132.661 35.0206 131.355 37.1271 130.816C38.1843 130.546 39.281 130.455 40.4172 130.545C41.5534 130.634 42.6119 130.878 43.594 131.276L45.3187 138.02L44.9251 138.12C44.0259 137.35 43.0174 136.763 41.9023 136.358C40.7871 135.952 39.7286 135.878 38.7267 136.134C38.337 136.234 38 136.369 37.713 136.541C37.4273 136.713 37.1469 136.974 36.873 137.327C36.6492 137.61 36.4886 137.985 36.3925 138.453C36.2964 138.922 36.3148 139.413 36.4465 139.929C36.6387 140.682 36.9533 141.241 37.3878 141.601C37.8236 141.962 38.5464 142.203 39.5601 142.324C40.2131 142.397 40.8437 142.468 41.4494 142.539C42.0563 142.61 42.7198 142.749 43.4426 142.959C44.8632 143.384 46.0336 144.145 46.9539 145.242C47.8728 146.338 48.5956 147.912 49.1196 149.96C49.87 152.896 49.7805 155.434 48.851 157.574C47.9215 159.714 46.2758 161.086 43.9166 161.689Z" fill="white"/>
<path d="M51.8488 159.09L50.29 128.02L55.1534 126.775L68.7033 154.78L64.1138 155.953L61.4636 150.206L55.8854 151.633L56.3185 157.948L51.8488 159.09ZM59.1162 145.101L54.8137 135.824L55.4931 146.027L59.1162 145.101Z" fill="white"/>
<path d="M73.8761 153.457L67.7633 129.553L62.5182 130.895L61.0779 125.261L76.0247 121.438L77.465 127.072L72.2199 128.413L78.3339 152.317L73.8761 153.457Z" fill="white"/>
<path d="M94.2589 148.245L84.6994 150.69L83.3802 145.533L85.9304 144.881L81.0144 125.659L78.4642 126.312L77.145 121.155L86.7045 118.711L88.0237 123.868L85.4735 124.519L90.3895 143.741L92.9397 143.088L94.2589 148.245Z" fill="white"/>
<path d="M102.835 146.622C101.476 146.969 100.227 147.056 99.0852 146.884C97.9438 146.71 96.8497 146.412 95.8031 145.99L94.0073 138.967L94.4128 138.863C95.624 139.893 96.8524 140.606 98.0978 141.006C99.3433 141.407 100.47 141.478 101.48 141.22C101.734 141.155 102.058 141.024 102.452 140.823C102.845 140.625 103.144 140.393 103.347 140.13C103.6 139.826 103.781 139.445 103.893 138.987C104.005 138.529 103.976 137.969 103.806 137.308C103.617 136.568 103.289 136.011 102.82 135.638C102.352 135.264 101.849 135.033 101.31 134.946C100.639 134.837 99.9292 134.75 99.18 134.688C98.4322 134.626 97.716 134.5 97.0314 134.308C95.4502 133.854 94.1877 133.02 93.2437 131.81C92.2997 130.6 91.5651 128.971 91.0411 126.921C90.3341 124.157 90.4645 121.739 91.4334 119.666C92.4024 117.594 93.9388 116.288 96.0453 115.75C97.1025 115.48 98.1992 115.389 99.3354 115.478C100.472 115.568 101.531 115.812 102.512 116.209L104.237 122.954L103.843 123.054C102.944 122.284 101.936 121.697 100.82 121.291C99.7053 120.886 98.6468 120.812 97.6449 121.067C97.2552 121.167 96.9182 121.303 96.6312 121.474C96.3455 121.647 96.0651 121.907 95.7912 122.26C95.5674 122.543 95.4068 122.918 95.3107 123.387C95.2146 123.856 95.233 124.347 95.3647 124.863C95.5569 125.617 95.8715 126.174 96.306 126.535C96.7418 126.896 97.4646 127.137 98.4783 127.258C99.1313 127.33 99.762 127.401 100.368 127.472C100.973 127.543 101.638 127.683 102.361 127.892C103.781 128.318 104.952 129.078 105.872 130.175C106.791 131.272 107.514 132.845 108.038 134.894C108.788 137.83 108.699 140.368 107.769 142.507C106.84 144.647 105.195 146.019 102.835 146.622Z" fill="white"/>
<path d="M118.445 116.592L110.995 118.497L112.421 124.071L119.275 122.319L120.715 127.952L113.861 129.705L117.108 142.4L112.674 143.534L105.119 113.997L117.005 110.958L118.445 116.592Z" fill="white"/>
<path d="M124.952 140.394L123.393 109.323L128.256 108.079L141.806 136.084L137.217 137.258L134.566 131.511L128.988 132.938L129.421 139.252L124.952 140.394ZM132.219 126.406L127.916 117.129L128.596 127.332L132.219 126.406Z" fill="white"/>
<path d="M151.37 134.251C148.708 134.932 146.251 134.134 144.001 131.856C141.751 129.579 140.005 126.014 138.764 121.159C137.567 116.478 137.397 112.545 138.254 109.359C139.111 106.174 140.872 104.24 143.534 103.56C144.241 103.379 144.894 103.283 145.491 103.27C146.089 103.258 146.676 103.306 147.254 103.411C147.71 103.506 148.221 103.664 148.785 103.886C149.35 104.109 149.811 104.308 150.17 104.483L151.971 111.525L151.519 111.641C151.222 111.379 150.855 111.067 150.417 110.707C149.977 110.348 149.498 110.01 148.976 109.691C148.455 109.374 147.907 109.13 147.335 108.959C146.762 108.788 146.205 108.772 145.665 108.91C145.021 109.075 144.475 109.395 144.025 109.869C143.574 110.343 143.214 111.059 142.943 112.016C142.69 112.884 142.587 113.995 142.633 115.349C142.679 116.704 142.925 118.255 143.372 120.001C143.842 121.839 144.384 123.345 144.998 124.521C145.611 125.695 146.255 126.605 146.928 127.25C147.578 127.873 148.23 128.277 148.881 128.462C149.534 128.648 150.143 128.668 150.708 128.524C151.296 128.374 151.815 128.069 152.264 127.608C152.713 127.148 153.069 126.673 153.334 126.182C153.626 125.671 153.87 125.164 154.063 124.664C154.257 124.164 154.423 123.72 154.561 123.332L154.967 123.228L156.743 130.171C156.481 130.506 156.178 130.89 155.832 131.323C155.485 131.758 155.114 132.145 154.719 132.484C154.233 132.904 153.767 133.249 153.32 133.519C152.869 133.79 152.22 134.034 151.37 134.251Z" fill="white"/>
<path d="M163.274 130.594L157.161 106.69L151.916 108.032L150.476 102.398L165.423 98.5751L166.863 104.209L161.618 105.55L167.731 129.453L163.274 130.594Z" fill="white"/>
<path d="M183.657 125.382L174.097 127.827L172.778 122.67L175.33 122.017L170.414 102.795L167.862 103.448L166.543 98.2896L176.102 95.8448L177.422 101.002L174.87 101.655L179.786 120.876L182.338 120.223L183.657 125.382Z" fill="white"/>
<path d="M199.001 105.733C200.222 110.507 200.415 114.459 199.582 117.589C198.749 120.718 196.996 122.625 194.326 123.308C191.648 123.993 189.192 123.145 186.958 120.764C184.723 118.384 183.004 114.84 181.801 110.132C180.587 105.384 180.389 101.436 181.209 98.2895C182.03 95.1416 183.779 93.226 186.457 92.5414C189.127 91.8581 191.58 92.6928 193.815 95.0455C196.052 97.3968 197.78 100.959 199.001 105.733ZM194.395 106.891C193.945 105.132 193.452 103.662 192.918 102.481C192.383 101.3 191.831 100.36 191.263 99.66C190.676 98.9504 190.096 98.483 189.526 98.2552C188.956 98.0275 188.412 97.9801 187.896 98.1117C187.349 98.2526 186.893 98.5409 186.531 98.9793C186.169 99.4178 185.887 100.105 185.687 101.044C185.517 101.905 185.482 102.999 185.58 104.326C185.679 105.653 185.953 107.197 186.402 108.955C186.865 110.766 187.358 112.244 187.878 113.385C188.399 114.528 188.948 115.453 189.529 116.164C190.12 116.887 190.703 117.361 191.277 117.587C191.851 117.814 192.396 117.861 192.914 117.73C193.438 117.595 193.898 117.277 194.295 116.774C194.691 116.271 194.966 115.577 195.122 114.692C195.283 113.735 195.32 112.658 195.235 111.462C195.148 110.266 194.869 108.742 194.395 106.891Z" fill="white"/>
<path d="M220.619 115.929L216.329 117.027L204.22 98.1854L209.486 118.776L205.41 119.819L197.856 90.2821L203.328 88.8826L213.318 104.356L208.99 87.4357L213.066 86.393L220.619 115.929Z" fill="white"/>
</g>
</svg>
