<svg width="100" height="375" viewBox="0 0 100 375" fill="none" xmlns="http://www.w3.org/2000/svg">
<mask id="mask0" mask-type="alpha" maskUnits="userSpaceOnUse" x="0" y="275" width="100" height="100">
<rect y="275" width="100" height="100" fill="#C4C4C4"/>
</mask>
<g mask="url(#mask0)">
<path d="M40.4075 284.693L44.3761 287.718L47.1125 283.51L50.5312 287.106L53.9061 283.351L56.691 287.431L60.6227 284.222L62.7054 288.685L67.0963 286.101L68.4244 290.836L73.167 288.941L73.7096 293.833L78.6868 292.673L78.429 297.601L83.518 297.206L82.4666 302.047L87.543 302.425L85.724 307.063L90.6616 308.205L88.1203 312.524L92.798 314.402L89.5966 318.296L93.8995 320.864L90.1165 324.237L93.938 327.432L89.6672 330.2L92.914 333.943L88.2595 336.039L90.8514 340.239L85.9285 341.61L87.8013 346.162L82.7313 346.776L83.8396 351.569L78.7469 351.41L79.0627 356.324L74.0734 355.397L73.5893 360.313L68.8257 358.64L67.5534 363.436L63.133 361.057L61.1036 365.616L57.135 362.591L54.3991 366.8L50.9809 363.204L47.6055 366.958L44.8206 362.879L40.8889 366.087L38.8062 361.625L34.4153 364.209L33.0867 359.473L28.3446 361.369L27.8021 356.476L22.8248 357.636L23.0827 352.708L17.9931 353.104L19.0445 348.262L13.9686 347.884L15.7876 343.246L10.8494 342.104L13.3913 337.785L8.71303 335.907L11.915 332.013L7.61214 329.445L11.3951 326.073L7.57312 322.878L11.8444 320.109L8.59756 316.366L13.2521 314.27L10.6602 310.071L15.5831 308.699L13.7103 304.147L18.7803 303.533L17.672 298.741L22.7642 298.9L22.4489 293.985L27.4382 294.913L27.9223 289.997L32.686 291.671L33.9582 286.874L38.3786 289.252L40.4075 284.693Z" fill="#379E19"/>
<path d="M75.4617 350.222C89.1868 336.497 89.1868 314.244 75.4617 300.519C61.7365 286.793 39.4836 286.793 25.7584 300.519C12.0332 314.244 12.0332 336.497 25.7584 350.222C39.4836 363.947 61.7365 363.947 75.4617 350.222Z" fill="white"/>
<path d="M74.1363 348.896C87.1295 335.903 87.1295 314.837 74.1363 301.844C61.1431 288.851 40.0769 288.851 27.0838 301.844C14.0906 314.837 14.0906 335.903 27.0838 348.896C40.0769 361.89 61.1431 361.89 74.1363 348.896Z" fill="#379E19"/>
<path d="M50.5897 358.86C50.5887 358.86 50.5881 358.86 50.5871 358.86C46.9032 358.86 43.2631 358.251 39.7674 357.051C36.3292 355.87 33.1209 354.15 30.2322 351.937C27.3149 349.703 24.8041 347.027 22.7705 343.986C20.6663 340.84 19.1193 337.368 18.1729 333.666C17.0531 329.288 16.8242 324.82 17.4928 320.388C18.1387 316.107 19.5902 312.04 21.8073 308.299C24.0243 304.559 26.8952 301.332 30.3402 298.711C33.9071 295.997 37.9358 294.052 42.3146 292.932C45.0441 292.234 47.8433 291.88 50.6345 291.88C54.3184 291.88 57.9585 292.489 61.4542 293.689C64.8924 294.87 68.1007 296.59 70.9895 298.803C73.9068 301.038 76.4175 303.713 78.4511 306.755C80.5554 309.901 82.1023 313.374 83.0487 317.074C84.1686 321.453 84.3974 325.921 83.7289 330.353C83.083 334.633 81.6315 338.701 79.4139 342.441C77.1968 346.182 74.3259 349.408 70.8809 352.03C67.314 354.744 63.2853 356.688 58.906 357.809C56.1775 358.507 53.3789 358.86 50.5897 358.86ZM50.6345 292.302C47.8786 292.302 45.1148 292.651 42.419 293.34C33.8638 295.528 26.6722 300.917 22.17 308.514C17.6678 316.111 16.3929 325.006 18.581 333.561C22.3266 348.207 35.4878 358.437 50.5866 358.439C50.5876 358.439 50.5881 358.439 50.5892 358.439C53.343 358.439 56.1063 358.089 58.8016 357.4C67.3573 355.212 74.5484 349.823 79.0506 342.226C83.5533 334.63 84.8276 325.734 82.6396 317.179C78.8945 302.531 65.7333 292.302 50.6345 292.302Z" fill="#379E19"/>
<path d="M23.2651 313.584L23.2598 313.596L23.2867 314.464L22.5628 314.319L22.5386 313.114L22.856 312.389L26.6232 314.039L26.2499 314.891L23.2651 313.584Z" fill="white"/>
<path d="M26.9248 309.26C28.0088 309.913 28.4981 310.805 27.9598 311.699C27.4114 312.61 26.3517 312.518 25.3509 311.924C24.3265 311.307 23.7824 310.396 24.3302 309.485C24.8943 308.547 25.9599 308.679 26.9248 309.26ZM25.8466 311.099C26.6543 311.586 27.1568 311.622 27.346 311.308C27.5385 310.988 27.2416 310.573 26.4397 310.09C25.6594 309.62 25.1458 309.54 24.9471 309.87C24.7673 310.169 25.023 310.603 25.8466 311.099Z" fill="white"/>
<path d="M29.1618 306.382C30.1531 307.168 30.5237 308.117 29.8752 308.934C29.2146 309.767 28.1753 309.54 27.259 308.822C26.3221 308.079 25.8992 307.105 26.5593 306.273C27.24 305.415 28.2797 305.682 29.1618 306.382ZM27.8569 308.068C28.5956 308.654 29.0891 308.754 29.3168 308.467C29.5488 308.175 29.3079 307.725 28.5739 307.143C27.8601 306.577 27.3613 306.432 27.1219 306.734C26.9057 307.007 27.1035 307.471 27.8569 308.068Z" fill="white"/>
<path d="M30.5575 303.744C31.1354 304.381 31.0384 305.084 30.5976 305.484C30.1336 305.905 29.4535 305.889 28.9309 305.313C28.438 304.769 28.3968 304.055 28.9215 303.578C29.4419 303.107 30.0856 303.224 30.5575 303.744ZM29.4477 304.818C29.7318 305.141 30.0529 305.269 30.2591 305.082C30.4605 304.899 30.3719 304.604 30.0577 304.257C29.7772 303.947 29.4761 303.785 29.251 303.989C29.0401 304.18 29.1672 304.509 29.4477 304.818ZM31.7823 306.724L30.6835 301.99L31.0631 301.646L32.1667 306.375L31.7823 306.724ZM33.8982 303.021C34.4718 303.653 34.3748 304.356 33.934 304.756C33.4748 305.172 32.7946 305.157 32.2763 304.585C31.7834 304.041 31.7422 303.327 32.2626 302.856C32.783 302.384 33.4268 302.5 33.8982 303.021ZM32.7894 304.086C33.0735 304.409 33.3941 304.536 33.596 304.353C33.7975 304.17 33.7089 303.875 33.3989 303.533C33.1184 303.224 32.8173 303.061 32.5969 303.261C32.386 303.452 32.5131 303.781 32.7894 304.086Z" fill="white"/>
<path d="M39.1474 301.156C38.9371 301.39 38.5137 301.785 38.0223 302.06C37.3427 302.44 36.7558 302.543 36.2312 302.409C35.7124 302.271 35.2526 301.89 34.9474 301.343C34.2614 300.103 34.7665 298.893 35.9871 298.211C36.4674 297.942 36.8903 297.83 37.1186 297.811L37.3216 298.589C37.0648 298.609 36.779 298.682 36.3704 298.91C35.6692 299.302 35.3523 299.994 35.8063 300.806C36.2386 301.579 36.9746 301.755 37.6648 301.369C37.8525 301.264 37.9949 301.155 38.0455 301.091L37.6073 300.307L37.0332 300.628L36.6657 299.97L38.0518 299.196L39.1474 301.156Z" fill="white"/>
<path d="M39.2218 296.751L40.0638 299.05C40.3185 299.745 40.7139 299.998 41.1715 299.831C41.6466 299.657 41.7863 299.228 41.5253 298.515L40.6833 296.216L41.5865 295.885L42.409 298.131C42.8614 299.367 42.4533 300.183 41.4072 300.566C40.397 300.936 39.6025 300.587 39.1369 299.316L38.3186 297.082L39.2218 296.751Z" fill="white"/>
<path d="M44.2823 298.487L44.2059 299.62L43.2331 299.821L43.6422 295.382L44.8818 295.126L47.0446 299.034L46.0222 299.245L45.4792 298.24L44.2823 298.487ZM45.1966 297.562L44.7537 296.729C44.6282 296.497 44.4901 296.202 44.3767 295.967L44.364 295.97C44.353 296.231 44.3567 296.56 44.3382 296.815L44.2734 297.753L45.1966 297.562Z" fill="white"/>
<path d="M47.2106 294.814C47.517 294.745 47.9693 294.68 48.4876 294.649C49.1193 294.611 49.5669 294.68 49.8843 294.902C50.1553 295.088 50.3124 295.383 50.3356 295.775C50.3678 296.311 50.005 296.707 49.6465 296.862L49.6476 296.881C49.9518 296.983 50.1326 297.251 50.2634 297.636C50.4253 298.115 50.5845 298.663 50.6768 298.822L49.6913 298.881C49.6207 298.759 49.4926 298.424 49.3418 297.907C49.1894 297.377 48.998 297.249 48.5999 297.267L48.3157 297.284L48.4159 298.957L47.4621 299.014L47.2106 294.814ZM48.2741 296.589L48.6532 296.566C49.133 296.538 49.4029 296.28 49.3808 295.908C49.3576 295.522 49.0803 295.336 48.6384 295.362C48.4049 295.377 48.273 295.397 48.2045 295.42L48.2741 296.589Z" fill="white"/>
<path d="M52.1999 297.83L51.804 298.895L50.8143 298.81L52.4715 294.672L53.7321 294.78L54.6912 299.142L53.6509 299.053L53.4168 297.934L52.1999 297.83ZM53.3399 297.204L53.1527 296.279C53.0989 296.021 53.0499 295.699 53.0087 295.442L52.9961 295.441C52.9112 295.687 52.8205 296.003 52.7303 296.243L52.4008 297.123L53.3399 297.204Z" fill="white"/>
<path d="M55.0914 299.221L56.1074 295.08L57.2015 295.348L57.6892 297.077C57.8278 297.573 57.9412 298.148 58.0171 298.662L58.0293 298.665C58.1083 298.105 58.227 297.541 58.3804 296.914L58.6757 295.71L59.5361 295.921L58.5201 300.063L57.5368 299.822L57.0438 298.007C56.9067 297.504 56.7612 296.902 56.6837 296.368L56.6589 296.362C56.554 296.923 56.4233 297.51 56.2572 298.186L55.9514 299.433L55.0914 299.221Z" fill="white"/>
<path d="M61.2275 297.411L60.1599 296.98L60.463 296.229L63.5016 297.456L63.1984 298.207L62.1191 297.771L60.8258 300.974L59.9342 300.614L61.2275 297.411Z" fill="white"/>
<path d="M65.3353 301.259L63.9655 300.494L63.472 301.377L65.0021 302.232L64.6166 302.923L62.2472 301.599L64.3267 297.876L66.6186 299.157L66.2327 299.847L64.7801 299.035L64.3483 299.809L65.7181 300.574L65.3353 301.259Z" fill="white"/>
<path d="M68.1682 303.268L66.9039 302.339L66.3044 303.154L67.7169 304.192L67.2487 304.829L65.0612 303.222L67.5856 299.786L69.7015 301.34L69.2333 301.977L67.892 300.993L67.3679 301.706L68.6322 302.635L68.1682 303.268Z" fill="white"/>
<path d="M74.7034 335.824L75.7458 332.968L76.5003 333.243L76.1676 334.155L78.4516 334.988L78.7843 334.077L79.4898 334.334C79.4413 334.468 79.4012 334.604 79.3706 334.741C79.3401 334.879 79.3295 334.995 79.3395 335.088C79.3522 335.198 79.388 335.293 79.4476 335.373C79.5072 335.453 79.5937 335.518 79.707 335.568L79.3617 336.514L75.7832 335.208L75.4579 336.099L74.7034 335.824Z" fill="white"/>
<path d="M74.8463 340.478C74.4973 340.288 74.2068 340.093 73.9748 339.895C73.7428 339.696 73.5725 339.487 73.4639 339.269C73.3553 339.051 73.3099 338.818 73.3273 338.573C73.3447 338.327 73.4312 338.061 73.5868 337.775C73.7412 337.491 73.9168 337.275 74.1135 337.126C74.3101 336.977 74.5321 336.889 74.7794 336.862C75.0235 336.835 75.2908 336.864 75.5808 336.949C75.8708 337.034 76.1898 337.171 76.5372 337.36C76.8958 337.554 77.1863 337.749 77.4098 337.941C77.6334 338.134 77.801 338.345 77.9144 338.573C78.0246 338.797 78.0699 339.032 78.0494 339.279C78.0288 339.525 77.9439 339.786 77.7947 340.062C77.6365 340.353 77.4589 340.571 77.2617 340.716C77.0645 340.861 76.8415 340.946 76.5926 340.973C76.3485 341 76.0812 340.97 75.7907 340.884C75.4991 340.797 75.1848 340.662 74.8463 340.478ZM75.3994 339.46C75.8987 339.731 76.272 339.881 76.5183 339.908C76.765 339.936 76.9411 339.851 77.0476 339.656C77.1531 339.463 77.1272 339.269 76.9706 339.076C76.814 338.883 76.4845 338.65 75.981 338.376C75.4885 338.109 75.1174 337.961 74.8669 337.933C74.6165 337.904 74.4383 337.987 74.3333 338.18C74.2279 338.374 74.2558 338.568 74.4156 338.763C74.5759 338.958 74.9038 339.191 75.3994 339.46Z" fill="white"/>
<path d="M72.3477 343.876C72.0303 343.637 71.7714 343.402 71.5716 343.171C71.3712 342.94 71.2336 342.709 71.1582 342.477C71.0828 342.245 71.0723 342.008 71.1255 341.768C71.1793 341.527 71.3038 341.277 71.4999 341.017C71.6944 340.758 71.9001 340.57 72.1168 340.453C72.3335 340.335 72.5655 340.28 72.8138 340.29C73.0595 340.299 73.3194 340.368 73.5936 340.494C73.8683 340.621 74.163 340.804 74.4788 341.041C74.8047 341.287 75.0636 341.521 75.256 341.745C75.4485 341.968 75.584 342.201 75.662 342.443C75.7379 342.681 75.7479 342.921 75.6915 343.162C75.6351 343.402 75.5128 343.648 75.324 343.898C75.1247 344.163 74.9165 344.353 74.7003 344.467C74.4841 344.581 74.2511 344.633 74.0006 344.623C73.7549 344.613 73.495 344.544 73.2203 344.416C72.9467 344.288 72.6551 344.108 72.3477 343.876ZM73.0447 342.951C73.4987 343.293 73.8456 343.495 74.0855 343.559C74.3254 343.622 74.5121 343.565 74.646 343.387C74.7789 343.211 74.7815 343.016 74.6555 342.802C74.5289 342.588 74.2374 342.31 73.7797 341.965C73.3321 341.628 72.9867 341.426 72.7431 341.362C72.4996 341.297 72.3113 341.352 72.1785 341.528C72.0456 341.704 72.0445 341.9 72.1742 342.117C72.3039 342.333 72.5939 342.611 73.0447 342.951Z" fill="white"/>
<path d="M66.093 348.486C65.7582 348.1 65.5947 347.739 65.6037 347.403C65.6126 347.066 65.7803 346.756 66.1067 346.472C66.4425 346.18 66.7768 346.053 67.11 346.091C67.4432 346.129 67.7754 346.339 68.106 346.72C68.4371 347.1 68.5969 347.461 68.5853 347.799C68.5742 348.138 68.4034 348.45 68.0738 348.736C67.738 349.029 67.4053 349.153 67.0752 349.111C66.7462 349.068 66.4183 348.86 66.093 348.486ZM66.7515 347.901C66.8364 347.999 66.9186 348.084 66.9972 348.158C67.0763 348.231 67.1517 348.284 67.2234 348.317C67.2956 348.349 67.3663 348.36 67.4348 348.348C67.5034 348.336 67.573 348.299 67.6431 348.239C67.7174 348.174 67.7638 348.11 67.7823 348.046C67.8007 347.982 67.7986 347.911 67.7765 347.832C67.7564 347.762 67.7143 347.68 67.6489 347.587C67.5835 347.493 67.5107 347.399 67.4301 347.306C67.3299 347.191 67.2476 347.103 67.1828 347.04C67.1179 346.978 67.0441 346.928 66.9624 346.89C66.8918 346.856 66.8211 346.844 66.7504 346.855C66.6798 346.866 66.6086 346.903 66.5369 346.965C66.4668 347.026 66.4214 347.09 66.4009 347.157C66.3803 347.224 66.3814 347.297 66.4051 347.374C66.4267 347.443 66.4663 347.52 66.5237 347.607C66.5812 347.693 66.6566 347.792 66.7515 347.901ZM69.5765 349.678L68.3781 344.625L68.9939 344.09L70.1923 349.142L69.5765 349.678ZM70.4633 347.053C70.1285 346.668 69.9651 346.306 69.974 345.97C69.983 345.634 70.1507 345.323 70.477 345.039C70.8129 344.748 71.1472 344.621 71.4804 344.659C71.8136 344.697 72.1458 344.906 72.4764 345.287C72.8075 345.668 72.9672 346.028 72.9562 346.367C72.9451 346.705 72.7743 347.018 72.4447 347.304C72.1089 347.596 71.7762 347.72 71.4461 347.678C71.1171 347.636 70.7892 347.428 70.4633 347.053ZM71.1219 346.468C71.2068 346.566 71.289 346.652 71.3676 346.725C71.4461 346.798 71.522 346.852 71.5937 346.884C71.666 346.917 71.7361 346.927 71.8052 346.915C71.8737 346.903 71.9433 346.867 72.0134 346.806C72.0878 346.741 72.1342 346.677 72.1526 346.613C72.1711 346.549 72.169 346.478 72.1468 346.399C72.1268 346.329 72.0846 346.247 72.0192 346.153C71.9544 346.06 71.8811 345.966 71.8004 345.873C71.7003 345.758 71.618 345.669 71.5531 345.607C71.4883 345.545 71.4145 345.495 71.3328 345.457C71.2621 345.423 71.1915 345.411 71.1208 345.422C71.0502 345.433 70.979 345.47 70.9073 345.532C70.8371 345.592 70.7918 345.657 70.7712 345.724C70.7507 345.791 70.7517 345.864 70.7755 345.941C70.7971 346.01 70.8366 346.087 70.8941 346.174C70.9516 346.26 71.0275 346.36 71.1219 346.468Z" fill="white"/>
<path d="M59.9163 350.142C60.1446 349.926 60.598 349.565 61.11 349.33C61.8175 349.006 62.4112 348.949 62.9232 349.126C63.4293 349.304 63.8569 349.72 64.1179 350.29C64.7026 351.581 64.1026 352.747 62.8319 353.329C62.3316 353.559 61.9013 353.638 61.672 353.638L61.5317 352.846C61.7896 352.846 62.0801 352.797 62.5056 352.602C63.2358 352.267 63.6065 351.603 63.2189 350.757C62.8499 349.952 62.1302 349.718 61.411 350.048C61.2154 350.137 61.0651 350.234 61.0092 350.294L61.3836 351.111L61.9815 350.837L62.2952 351.521L60.8516 352.183L59.9163 350.142Z" fill="white"/>
<path d="M59.4934 354.528L58.8364 352.169C58.6377 351.455 58.2633 351.172 57.7941 351.303C57.3064 351.439 57.1334 351.855 57.3369 352.586L57.9939 354.945L57.0675 355.204L56.4258 352.9C56.0726 351.632 56.5445 350.85 57.6174 350.551C58.6535 350.262 59.4185 350.673 59.7818 351.978L60.4203 354.27L59.4934 354.528Z" fill="white"/>
<path d="M54.5863 352.396L54.7518 351.273L55.7373 351.149L54.9791 355.542L53.7237 355.699L51.8762 351.632L52.9123 351.503L53.3747 352.548L54.5863 352.396ZM53.6024 353.246L53.9784 354.11C54.0849 354.352 54.1998 354.657 54.2937 354.9L54.3063 354.898C54.3374 354.639 54.3606 354.311 54.3986 354.058L54.5372 353.129L53.6024 353.246Z" fill="white"/>
<path d="M51.378 355.827C51.0669 355.871 50.6109 355.9 50.0921 355.891C49.4594 355.879 49.0186 355.776 48.7191 355.529C48.4634 355.322 48.33 355.016 48.3374 354.623C48.3474 354.086 48.7407 353.72 49.1098 353.594L49.1103 353.575C48.8151 353.449 48.6558 353.168 48.5562 352.773C48.4328 352.284 48.3168 351.725 48.2377 351.559L49.2247 351.577C49.2854 351.705 49.3866 352.048 49.4968 352.576C49.607 353.116 49.7878 353.258 50.1859 353.272L50.4706 353.277L50.5023 351.601L51.4576 351.619L51.378 355.827ZM50.4574 353.974L50.0778 353.967C49.597 353.958 49.308 354.192 49.3007 354.565C49.2933 354.951 49.5553 355.159 49.9982 355.167C50.2323 355.171 50.3652 355.161 50.4353 355.144L50.4574 353.974Z" fill="white"/>
<path d="M46.6407 352.428L47.1194 351.398L48.0996 351.56L46.1219 355.555L44.8739 355.348L44.2612 350.923L45.2909 351.094L45.4365 352.228L46.6407 352.428ZM45.4554 352.963L45.5693 353.899C45.6025 354.161 45.6258 354.485 45.6468 354.745L45.6595 354.747C45.7634 354.508 45.8788 354.2 45.9874 353.968L46.385 353.117L45.4554 352.963Z" fill="white"/>
<path d="M43.8695 350.814L42.5292 354.863L41.4599 354.509L41.1104 352.747C41.0113 352.241 40.9443 351.659 40.909 351.141L40.8968 351.137C40.774 351.689 40.6111 352.242 40.4081 352.854L40.0185 354.032L39.1775 353.753L40.5178 349.705L41.4789 350.024L41.8269 351.872C41.9239 352.384 42.0215 352.996 42.0563 353.533L42.0805 353.541C42.2297 352.991 42.4064 352.416 42.6252 351.756L43.029 350.537L43.8695 350.814Z" fill="white"/>
<path d="M37.6089 352.132L38.6392 352.646L38.277 353.371L35.3455 351.906L35.7077 351.182L36.749 351.702L38.2933 348.612L39.1532 349.042L37.6089 352.132Z" fill="white"/>
<path d="M33.8201 347.968L35.1245 348.84L35.6871 347.999L34.2298 347.025L34.6695 346.368L36.9261 347.876L34.5561 351.422L32.3728 349.963L32.8125 349.306L34.196 350.23L34.6885 349.494L33.3841 348.622L33.8201 347.968Z" fill="white"/>
<path d="M31.1543 345.742L32.3417 346.768L33.0034 346.001L31.6773 344.856L32.1946 344.257L34.2487 346.032L31.4606 349.259L29.4734 347.543L29.9907 346.944L31.2497 348.032L31.8287 347.362L30.6413 346.336L31.1543 345.742Z" fill="white"/>
<path d="M66.7645 341.4C75.7099 332.454 75.7099 317.951 66.7645 309.006C57.8192 300.06 43.3158 300.06 34.3704 309.006C25.4251 317.951 25.4251 332.454 34.3704 341.4C43.3158 350.345 57.8191 350.345 66.7645 341.4Z" fill="white"/>
<path d="M50.5449 349.652C50.5444 349.652 50.5438 349.652 50.5433 349.652C47.8543 349.652 45.197 349.208 42.6451 348.331C40.1354 347.47 37.7934 346.213 35.6849 344.599C33.5554 342.967 31.7227 341.014 30.2379 338.795C28.7021 336.497 27.5727 333.963 26.8815 331.261C26.0637 328.065 25.8971 324.803 26.3853 321.568C26.8567 318.443 27.9165 315.474 29.5351 312.744C31.1538 310.013 33.249 307.658 35.764 305.744C38.3676 303.763 41.3086 302.343 44.5053 301.526C46.4977 301.017 48.5413 300.758 50.5786 300.758C53.2676 300.758 55.9249 301.202 58.4768 302.078C60.9865 302.94 63.3285 304.195 65.437 305.811C67.5666 307.442 69.3993 309.395 70.884 311.615C72.4199 313.913 73.5493 316.447 74.2405 319.149C75.0577 322.345 75.2248 325.606 74.7366 328.842C74.2653 331.966 73.2055 334.936 71.5868 337.666C69.9682 340.397 67.8729 342.752 65.3579 344.665C62.7544 346.647 59.8134 348.066 56.6167 348.883C54.6242 349.394 52.5811 349.652 50.5449 349.652ZM50.5781 301.18C48.5761 301.18 46.5679 301.434 44.6091 301.935C31.7775 305.216 24.0085 318.325 27.2901 331.157C30.0112 341.798 39.5734 349.23 50.5433 349.231C50.5438 349.231 50.5444 349.231 50.5449 349.231C52.5458 349.231 54.5536 348.977 56.5123 348.476C69.3434 345.194 77.1129 332.085 73.8313 319.254C71.1097 308.612 61.5475 301.18 50.5781 301.18Z" fill="white"/>
<path d="M45.3473 304.038L47.0239 305.993L49.5848 305.721L48.2434 307.919L49.2942 310.271L46.7888 309.674L44.877 311.4L44.6697 308.833L42.4374 307.549L44.8153 306.558L45.3473 304.038Z" fill="#379E19"/>
<path d="M51.7528 305.095L52.7862 306.301L54.3653 306.132L53.5386 307.488L54.1861 308.937L52.6417 308.57L51.4628 309.634L51.3352 308.051L49.9591 307.259L51.4249 306.648L51.7528 305.095Z" fill="#379E19"/>
<path d="M39.6725 308.033L40.7064 309.238L42.285 309.07L41.4583 310.425L42.1063 311.875L40.5614 311.507L39.383 312.571L39.2549 310.988L37.8788 310.197L39.3445 309.586L39.6725 308.033Z" fill="#379E19"/>
<path d="M54.9026 338.518L56.5793 340.473L59.1401 340.2L57.7988 342.399L58.8496 344.75L56.3441 344.154L54.4323 345.88L54.2251 343.312L51.9927 342.028L54.3706 341.038L54.9026 338.518Z" fill="#379E19"/>
<path d="M61.3081 339.575L62.3415 340.78L63.9206 340.612L63.0939 341.967L63.7419 343.417L62.197 343.049L61.0181 344.114L60.8905 342.531L59.5144 341.739L60.9802 341.129L61.3081 339.575Z" fill="#379E19"/>
<path d="M49.2278 342.512L50.2617 343.717L51.8403 343.549L51.0136 344.905L51.6616 346.355L50.1167 345.987L48.9383 347.051L48.8102 345.468L47.4341 344.677L48.8998 344.066L49.2278 342.512Z" fill="#379E19"/>
<path d="M8.55113 322.073C4.91522 326.956 3.38515 332.047 4.59518 336.779C5.80575 341.511 9.59192 345.243 15.1254 347.78L92.7817 327.92C96.4181 323.037 97.9482 317.946 96.7376 313.214C95.527 308.481 91.7409 304.751 86.2069 302.213L8.55113 322.073Z" fill="#379E19"/>
<path d="M15.1001 348.059L15.0152 348.02C9.2213 345.364 5.53004 341.499 4.33951 336.845C3.14951 332.191 4.53248 327.028 8.33922 321.916L8.3951 321.841L8.48526 321.818L86.2317 301.934L86.3166 301.973C92.1105 304.63 95.8023 308.495 96.9928 313.149C98.1834 317.803 96.7999 322.965 92.9926 328.078L92.9367 328.153L92.8465 328.176L15.1001 348.059ZM8.70723 322.305C5.04075 327.261 3.70734 332.241 4.85094 336.714C5.99454 341.186 9.55558 344.915 15.1513 347.502L92.6262 327.688C96.2932 322.732 97.6266 317.752 96.483 313.279C95.3394 308.807 91.7783 305.079 86.1827 302.491L8.70723 322.305Z" fill="#379E19"/>
<path d="M16.3956 345.806L16.3154 345.774C10.8705 343.59 7.44763 340.306 6.41739 336.276C5.38662 332.246 6.81283 327.722 10.5405 323.192L10.5953 323.126L10.6786 323.104L84.806 304.146L84.8862 304.178C90.3316 306.362 93.7545 309.646 94.7852 313.676C95.816 317.706 94.3898 322.23 90.6616 326.76L90.6068 326.826L90.5235 326.847L16.3956 345.806ZM10.8932 323.594C7.3174 327.966 5.94603 332.305 6.9283 336.145C7.91056 339.986 11.1964 343.133 16.4325 345.252L90.3089 326.358C93.8852 321.986 95.2566 317.648 94.2743 313.807C93.2921 309.966 90.0063 306.819 84.7696 304.7L10.8932 323.594Z" fill="white"/>
<path d="M17.5876 339.391C17.0435 339.53 16.5432 339.565 16.086 339.496C15.6294 339.426 15.1908 339.307 14.7716 339.138L14.0524 336.325L14.2148 336.284C14.6999 336.696 15.1918 336.982 15.6906 337.142C16.1894 337.302 16.6407 337.331 17.0451 337.227C17.1469 337.202 17.2766 337.148 17.4342 337.069C17.5919 336.989 17.7116 336.896 17.7927 336.791C17.894 336.669 17.9667 336.517 18.0116 336.333C18.0564 336.149 18.0448 335.925 17.9768 335.66C17.9008 335.364 17.769 335.141 17.5818 334.991C17.3941 334.842 17.1927 334.749 16.9771 334.715C16.7082 334.671 16.424 334.636 16.124 334.611C15.8245 334.586 15.5377 334.536 15.2635 334.459C14.6303 334.277 14.1247 333.943 13.7466 333.459C13.3686 332.974 13.0744 332.321 12.8646 331.5C12.5814 330.394 12.6336 329.425 13.0217 328.595C13.4097 327.765 14.025 327.242 14.8686 327.027C15.292 326.919 15.7312 326.882 16.1862 326.918C16.6412 326.954 17.0651 327.052 17.4585 327.211L18.1492 329.912L17.9915 329.952C17.6314 329.643 17.2275 329.408 16.781 329.246C16.3344 329.084 15.9105 329.054 15.5092 329.156C15.3532 329.196 15.2182 329.251 15.1033 329.319C14.9888 329.388 14.8765 329.493 14.7669 329.634C14.6772 329.747 14.6129 329.898 14.5744 330.085C14.5359 330.273 14.5433 330.47 14.596 330.676C14.673 330.978 14.799 331.202 14.973 331.346C15.1475 331.49 15.437 331.587 15.843 331.635C16.1045 331.664 16.357 331.693 16.5996 331.721C16.8426 331.75 17.1084 331.806 17.3978 331.89C17.9667 332.06 18.4355 332.365 18.804 332.804C19.172 333.243 19.4615 333.873 19.6713 334.693C19.9719 335.869 19.936 336.886 19.5638 337.743C19.1915 338.6 18.5325 339.149 17.5876 339.391Z" fill="white"/>
<path d="M20.7643 338.35L20.1401 325.907L22.0877 325.409L27.5142 336.624L25.6762 337.094L24.6148 334.792L22.3809 335.364L22.5543 337.892L20.7643 338.35ZM23.6747 332.747L21.9517 329.032L22.2238 333.119L23.6747 332.747Z" fill="white"/>
<path d="M29.5857 336.094L27.1377 326.521L25.0371 327.059L24.4603 324.803L30.4462 323.271L31.023 325.528L28.9224 326.065L31.371 335.638L29.5857 336.094Z" fill="white"/>
<path d="M37.7485 334.006L33.9202 334.986L33.3919 332.92L34.4132 332.659L32.4444 324.962L31.4231 325.223L30.8948 323.158L34.7232 322.179L35.2515 324.244L34.2302 324.505L36.199 332.203L37.2202 331.941L37.7485 334.006Z" fill="white"/>
<path d="M41.183 333.357C40.6389 333.496 40.1386 333.53 39.6814 333.461C39.2243 333.392 38.7862 333.273 38.367 333.103L37.6478 330.291L37.8102 330.249C38.2953 330.662 38.7872 330.948 39.286 331.108C39.7848 331.268 40.2361 331.297 40.6405 331.193C40.7423 331.167 40.872 331.115 41.0296 331.035C41.1873 330.955 41.3069 330.862 41.3881 330.757C41.4894 330.635 41.5621 330.482 41.607 330.299C41.6518 330.116 41.6402 329.891 41.5722 329.627C41.4962 329.33 41.3649 329.107 41.1772 328.958C40.9895 328.808 40.7881 328.716 40.5725 328.681C40.3036 328.637 40.0194 328.602 39.7194 328.578C39.4199 328.553 39.1331 328.502 38.8589 328.425C38.2257 328.243 37.7201 327.91 37.342 327.425C36.964 326.94 36.6698 326.288 36.46 325.467C36.1768 324.36 36.229 323.392 36.6171 322.562C37.0051 321.732 37.6204 321.209 38.464 320.993C38.8874 320.885 39.3266 320.849 39.7816 320.884C40.2366 320.92 40.6611 321.018 41.0539 321.177L41.7446 323.878L41.5869 323.918C41.2268 323.61 40.8229 323.375 40.3764 323.212C39.9298 323.05 39.5059 323.02 39.1046 323.123C38.9486 323.163 38.8136 323.217 38.6987 323.286C38.5842 323.355 38.4719 323.459 38.3623 323.6C38.2726 323.714 38.2083 323.864 38.1698 324.052C38.1313 324.239 38.1387 324.436 38.1914 324.643C38.2684 324.945 38.3944 325.168 38.5684 325.312C38.7429 325.457 39.0324 325.553 39.4384 325.602C39.6999 325.631 39.9524 325.659 40.195 325.688C40.4375 325.716 40.7038 325.772 40.9932 325.856C41.5621 326.026 42.0309 326.331 42.3994 326.77C42.7674 327.209 43.0569 327.839 43.2667 328.66C43.5673 329.836 43.5314 330.852 43.1592 331.709C42.7869 332.566 42.1284 333.115 41.183 333.357Z" fill="white"/>
<path d="M47.4346 321.33L44.4509 322.093L45.022 324.326L47.7668 323.624L48.3436 325.88L45.5988 326.582L46.899 331.666L45.1232 332.12L42.0978 320.291L46.8578 319.074L47.4346 321.33Z" fill="white"/>
<path d="M50.0403 330.863L49.416 318.42L51.3637 317.921L56.7901 329.136L54.9521 329.607L53.8908 327.305L51.6568 327.877L51.8303 330.406L50.0403 330.863ZM52.9507 325.261L51.2276 321.546L51.4997 325.632L52.9507 325.261Z" fill="white"/>
<path d="M60.6201 328.402C59.554 328.675 58.5701 328.355 57.6691 327.443C56.768 326.531 56.0689 325.103 55.5717 323.159C55.0924 321.284 55.0244 319.709 55.3676 318.433C55.7109 317.158 56.4158 316.383 57.4819 316.111C57.765 316.039 58.0265 316 58.2659 315.995C58.5053 315.99 58.7404 316.009 58.9719 316.051C59.1543 316.089 59.3589 316.153 59.5851 316.242C59.8113 316.331 59.9958 316.41 60.1397 316.48L60.861 319.301L60.6796 319.347C60.561 319.242 60.4139 319.117 60.2383 318.973C60.0622 318.829 59.8703 318.694 59.6615 318.566C59.4527 318.439 59.2334 318.342 59.0041 318.273C58.7747 318.205 58.5517 318.198 58.3355 318.254C58.0777 318.319 57.8589 318.448 57.6786 318.637C57.4982 318.827 57.3538 319.114 57.2452 319.497C57.1439 319.845 57.1028 320.29 57.1213 320.832C57.1397 321.375 57.2383 321.996 57.417 322.695C57.6053 323.431 57.8225 324.034 58.0682 324.505C58.3139 324.975 58.5717 325.34 58.8411 325.598C59.1016 325.848 59.3626 326.009 59.6236 326.084C59.8851 326.158 60.1287 326.166 60.3549 326.109C60.5905 326.048 60.7983 325.926 60.9781 325.742C61.1579 325.558 61.3007 325.367 61.4067 325.171C61.5238 324.966 61.6213 324.763 61.6988 324.563C61.7763 324.362 61.8428 324.185 61.8981 324.029L62.0605 323.987L62.7718 326.768C62.6669 326.902 62.5456 327.056 62.4069 327.229C62.2682 327.403 62.1196 327.558 61.9614 327.694C61.7668 327.863 61.5802 328.001 61.4009 328.109C61.2206 328.218 60.9607 328.315 60.6201 328.402Z" fill="white"/>
<path d="M65.3875 326.937L62.9395 317.365L60.8389 317.902L60.2621 315.646L66.2479 314.115L66.8247 316.371L64.7242 316.908L67.1722 326.481L65.3875 326.937Z" fill="white"/>
<path d="M73.5503 324.85L69.7219 325.829L69.1936 323.764L70.2154 323.503L68.2467 315.805L67.2249 316.066L66.6966 314.001L70.5249 313.021L71.0532 315.087L70.0314 315.348L72.0002 323.046L73.022 322.785L73.5503 324.85Z" fill="white"/>
<path d="M79.6954 316.982C80.1842 318.894 80.2617 320.476 79.9279 321.73C79.5942 322.983 78.8924 323.746 77.8231 324.02C76.7507 324.294 75.7669 323.955 74.8721 323.001C73.9774 322.048 73.2888 320.629 72.8069 318.743C72.3208 316.842 72.2417 315.261 72.5702 314.001C72.8986 312.74 73.5994 311.973 74.6718 311.699C75.741 311.425 76.7233 311.759 77.6186 312.702C78.5144 313.643 79.2061 315.07 79.6954 316.982ZM77.8506 317.445C77.6702 316.741 77.473 316.152 77.259 315.68C77.0449 315.207 76.824 314.83 76.5962 314.55C76.3611 314.265 76.1291 314.078 75.9008 313.987C75.6725 313.896 75.4547 313.877 75.2481 313.93C75.0287 313.986 74.8463 314.101 74.7013 314.277C74.5563 314.453 74.4435 314.728 74.3633 315.104C74.2953 315.449 74.2811 315.887 74.3206 316.418C74.3602 316.95 74.4698 317.568 74.6496 318.272C74.8352 318.998 75.0324 319.589 75.2407 320.046C75.4495 320.504 75.6693 320.875 75.9018 321.159C76.1386 321.449 76.3722 321.639 76.602 321.729C76.8319 321.82 77.0502 321.839 77.2574 321.786C77.4673 321.732 77.6518 321.605 77.8105 321.403C77.9692 321.202 78.0794 320.924 78.1416 320.57C78.2064 320.186 78.2212 319.755 78.1869 319.276C78.1521 318.797 78.0404 318.187 77.8506 317.445Z" fill="white"/>
<path d="M88.3528 321.065L86.6345 321.504L81.7854 313.959L83.8944 322.205L82.262 322.623L79.2367 310.794L81.4279 310.233L85.4287 316.43L83.6956 309.654L85.328 309.236L88.3528 321.065Z" fill="white"/>
</g>
<path fill-rule="evenodd" clip-rule="evenodd" d="M41 32H40V155C37.7908 155 36 156.791 36 159C36 161.209 37.7908 163 40 163C42.2092 163 44 161.209 44 159C44 157.136 42.7252 155.57 41 155.126V32Z" fill="#379E19"/>
<path fill-rule="evenodd" clip-rule="evenodd" d="M50 39H49V272C46.7909 272 45 273.791 45 276C45 278.209 46.7909 280 49 280C51.2091 280 53 278.209 53 276C53 274.136 51.7252 272.57 50 272.126V39Z" fill="#379E19"/>
<path fill-rule="evenodd" clip-rule="evenodd" d="M60 32H59V155C56.7909 155 55 156.791 55 159C55 161.209 56.7909 163 59 163C61.2091 163 63 161.209 63 159C63 157.136 61.7252 155.57 60 155.126V32Z" fill="#379E19"/>
<path d="M49.7536 0C45.2899 7.2 45.5266 16.3333 46.2029 20C44.1739 17.6667 38.4928 12.8 32 12C33.2174 18 39.9469 23.1667 43.1594 25C41.6377 25.1667 37.6812 26.1 34.029 28.5C41.1304 31.5 45.6957 29.5 46.2029 29.5L43.1594 35L49.2464 29.5V35H50.2609V29.5L55.8406 35L54.3188 29.5C56.3478 29.8333 61.4203 30.1 65.4783 28.5C62.2319 26.1 58.3768 25.1667 56.8551 25C59.5604 23 65.3768 17.6 67 12C60.5072 13.2 55.1643 17.8333 53.3043 20C53.9807 16.3333 54.2174 7.2 49.7536 0Z" fill="#379E19"/>
</svg>
