<svg width="265" height="30" viewBox="0 0 265 30" fill="none" xmlns="http://www.w3.org/2000/svg">
<path d="M105.759 3.49963H108.497L109.611 8.5533L112.536 3.49963H115.39L113.702 13.0143H111.583L112.82 5.99142L109.818 11.1853H108.613L107.421 5.99142L106.184 13.0143H104.071L105.759 3.49963Z" fill="#5A5A5A"/>
<path d="M119.282 9.80238C118.762 9.80238 118.369 9.8916 118.103 10.07C117.841 10.2442 117.71 10.5034 117.71 10.8475C117.71 11.1067 117.787 11.3106 117.942 11.4593C118.101 11.608 118.318 11.6824 118.592 11.6824C119.013 11.6824 119.368 11.5422 119.656 11.2618C119.943 10.9771 120.134 10.5777 120.229 10.0637L120.274 9.80238H119.282ZM122.522 8.94204L121.794 13.0143H119.72L119.894 11.9564C119.555 12.3813 119.194 12.6956 118.812 12.8996C118.434 13.0993 118.023 13.1991 117.581 13.1991C116.967 13.1991 116.479 13.0249 116.119 12.6765C115.758 12.3239 115.577 11.8502 115.577 11.2554C115.577 10.3462 115.895 9.65155 116.531 9.17146C117.171 8.68713 118.094 8.44496 119.301 8.44496H120.525L120.551 8.26652C120.56 8.20704 120.564 8.16456 120.564 8.13906C120.568 8.11357 120.57 8.09021 120.57 8.06896C120.57 7.78856 120.45 7.57825 120.21 7.43805C119.969 7.2936 119.61 7.22137 119.134 7.22137C118.704 7.22137 118.288 7.27023 117.884 7.36795C117.484 7.46567 117.098 7.61224 116.724 7.80768L117.033 6.06789C117.467 5.94893 117.912 5.85971 118.367 5.80023C118.822 5.7365 119.293 5.70464 119.778 5.70464C120.74 5.70464 121.455 5.88733 121.923 6.2527C122.391 6.61383 122.626 7.16614 122.626 7.90964C122.626 8.05409 122.617 8.21341 122.6 8.3876C122.583 8.55755 122.557 8.74236 122.522 8.94204Z" fill="#5A5A5A"/>
<path d="M129.77 6.09975L129.468 7.8714C129.06 7.65898 128.654 7.49753 128.25 7.38707C127.851 7.27661 127.471 7.22137 127.11 7.22137C126.702 7.22137 126.386 7.28085 126.163 7.39981C125.939 7.51453 125.828 7.68022 125.828 7.8969C125.828 8.02435 125.89 8.12632 126.015 8.20279C126.139 8.27927 126.382 8.35999 126.743 8.44496L127.123 8.52143C127.96 8.71687 128.546 8.96966 128.881 9.2798C129.221 9.5857 129.39 10.0127 129.39 10.5607C129.39 11.3892 129.094 12.0371 128.501 12.5045C127.913 12.9676 127.086 13.1991 126.021 13.1991C125.574 13.1991 125.119 13.1609 124.655 13.0844C124.191 13.0079 123.719 12.8932 123.238 12.7403L123.553 10.9495C123.927 11.1917 124.327 11.3743 124.752 11.4976C125.181 11.6208 125.619 11.6824 126.066 11.6824C126.504 11.6824 126.833 11.625 127.052 11.5103C127.275 11.3956 127.387 11.2278 127.387 11.0068C127.387 10.8539 127.324 10.7349 127.2 10.65C127.075 10.565 126.82 10.4779 126.433 10.3887L126.053 10.3122C125.314 10.1423 124.786 9.8916 124.468 9.56021C124.15 9.22882 123.992 8.76998 123.992 8.18367C123.992 7.38919 124.264 6.7774 124.81 6.34829C125.36 5.91919 126.141 5.70464 127.155 5.70464C127.602 5.70464 128.04 5.73863 128.469 5.8066C128.903 5.87033 129.337 5.96805 129.77 6.09975Z" fill="#5A5A5A"/>
<path d="M134.203 3.85014L133.849 5.8767H135.975L135.679 7.50815H133.552L133.024 10.5289C133.007 10.5969 132.994 10.6542 132.986 10.7009C132.981 10.7477 132.979 10.7923 132.979 10.8348C132.979 11.0302 133.037 11.1704 133.153 11.2554C133.273 11.3404 133.473 11.3828 133.752 11.3828H134.828L134.532 13.0143H132.786C132.159 13.0143 131.68 12.8698 131.349 12.5809C131.023 12.292 130.86 11.8757 130.86 11.3319C130.86 11.2129 130.864 11.0854 130.872 10.9495C130.885 10.8135 130.905 10.6755 130.93 10.5353L131.465 7.50815H130.441L130.724 5.8767H131.761L132.116 3.85014H134.203Z" fill="#5A5A5A"/>
<path d="M142.817 9.71316L142.746 10.0764H137.889C137.889 10.1019 137.886 10.1401 137.882 10.1911C137.878 10.2379 137.876 10.274 137.876 10.2995C137.876 10.7626 138.002 11.1088 138.256 11.3382C138.509 11.5677 138.889 11.6824 139.396 11.6824C139.834 11.6824 140.296 11.6101 140.781 11.4657C141.267 11.3212 141.776 11.1067 142.308 10.822L141.986 12.5937C141.483 12.7976 140.981 12.9484 140.478 13.0462C139.98 13.1481 139.471 13.1991 138.952 13.1991C137.938 13.1991 137.156 12.9421 136.606 12.428C136.057 11.9139 135.782 11.1874 135.782 10.2485C135.782 9.70466 135.868 9.17784 136.04 8.66801C136.216 8.15393 136.473 7.68447 136.813 7.25961C137.212 6.74978 137.689 6.36316 138.243 6.09975C138.797 5.83634 139.411 5.70464 140.085 5.70464C140.966 5.70464 141.664 5.96168 142.179 6.47575C142.695 6.98983 142.952 7.68234 142.952 8.5533C142.952 8.72324 142.942 8.90381 142.92 9.09499C142.899 9.28193 142.864 9.48798 142.817 9.71316ZM140.859 8.66801C140.871 8.61278 140.88 8.55755 140.884 8.50232C140.889 8.44284 140.891 8.38548 140.891 8.33025C140.891 7.99036 140.798 7.72058 140.614 7.5209C140.429 7.32122 140.178 7.22137 139.86 7.22137C139.456 7.22137 139.11 7.34458 138.823 7.591C138.539 7.83317 138.322 8.19217 138.172 8.66801H140.859Z" fill="#5A5A5A"/>
<path d="M149.247 7.82042C149.101 7.7312 148.94 7.66322 148.764 7.61649C148.592 7.56976 148.407 7.54639 148.21 7.54639C147.677 7.54639 147.235 7.73333 146.883 8.1072C146.535 8.48107 146.301 9.02064 146.18 9.7259L145.588 13.0143H143.507L144.769 5.8767H146.857L146.631 7.10029C146.906 6.64994 147.248 6.30581 147.656 6.06789C148.068 5.82572 148.525 5.70464 149.028 5.70464C149.105 5.70464 149.189 5.70889 149.279 5.71738C149.374 5.72588 149.483 5.73863 149.608 5.75562L149.247 7.82042Z" fill="#5A5A5A"/>
<path d="M155.934 12.5682C155.402 12.7764 154.889 12.9336 154.395 13.0398C153.905 13.146 153.441 13.1991 153.003 13.1991C151.839 13.1991 150.909 12.8486 150.214 12.1476C149.518 11.4466 149.17 10.5183 149.17 9.36265C149.17 8.60216 149.279 7.88627 149.498 7.215C149.717 6.53948 150.042 5.92344 150.471 5.36688C150.978 4.7126 151.588 4.20914 152.301 3.85651C153.014 3.50388 153.783 3.32757 154.607 3.32757C155.054 3.32757 155.503 3.38705 155.954 3.50601C156.409 3.62072 156.871 3.79703 157.339 4.03495L156.978 6.00416C156.604 5.69402 156.231 5.46672 155.857 5.32227C155.483 5.17782 155.082 5.10559 154.652 5.10559C153.759 5.10559 153.01 5.48371 152.404 6.23996C151.803 6.9962 151.502 7.94151 151.502 9.07587C151.502 9.80662 151.687 10.3802 152.056 10.7965C152.43 11.2129 152.943 11.4211 153.596 11.4211C153.987 11.4211 154.401 11.3446 154.839 11.1917C155.277 11.0345 155.769 10.7902 156.315 10.4588L155.934 12.5682Z" fill="#5A5A5A"/>
<path d="M161.095 9.80238C160.575 9.80238 160.182 9.8916 159.916 10.07C159.654 10.2442 159.523 10.5034 159.523 10.8475C159.523 11.1067 159.601 11.3106 159.755 11.4593C159.914 11.608 160.131 11.6824 160.406 11.6824C160.827 11.6824 161.181 11.5422 161.469 11.2618C161.757 10.9771 161.948 10.5777 162.042 10.0637L162.087 9.80238H161.095ZM164.336 8.94204L163.608 13.0143H161.533L161.707 11.9564C161.368 12.3813 161.007 12.6956 160.625 12.8996C160.247 13.0993 159.837 13.1991 159.394 13.1991C158.78 13.1991 158.293 13.0249 157.932 12.6765C157.571 12.3239 157.391 11.8502 157.391 11.2554C157.391 10.3462 157.709 9.65155 158.344 9.17146C158.984 8.68713 159.908 8.44496 161.114 8.44496H162.339L162.364 8.26652C162.373 8.20704 162.377 8.16456 162.377 8.13906C162.382 8.11357 162.384 8.09021 162.384 8.06896C162.384 7.78856 162.263 7.57825 162.023 7.43805C161.782 7.2936 161.424 7.22137 160.947 7.22137C160.517 7.22137 160.101 7.27023 159.697 7.36795C159.298 7.46567 158.911 7.61224 158.537 7.80768L158.847 6.06789C159.281 5.94893 159.725 5.85971 160.18 5.80023C160.636 5.7365 161.106 5.70464 161.591 5.70464C162.553 5.70464 163.268 5.88733 163.737 6.2527C164.205 6.61383 164.439 7.16614 164.439 7.90964C164.439 8.05409 164.43 8.21341 164.413 8.3876C164.396 8.55755 164.37 8.74236 164.336 8.94204Z" fill="#5A5A5A"/>
<path d="M171.043 7.82042C170.897 7.7312 170.736 7.66322 170.559 7.61649C170.388 7.56976 170.203 7.54639 170.005 7.54639C169.473 7.54639 169.03 7.73333 168.678 8.1072C168.33 8.48107 168.096 9.02064 167.976 9.7259L167.383 13.0143H165.302L166.565 5.8767H168.652L168.427 7.10029C168.702 6.64994 169.043 6.30581 169.451 6.06789C169.864 5.82572 170.321 5.70464 170.824 5.70464C170.901 5.70464 170.985 5.70889 171.075 5.71738C171.169 5.72588 171.279 5.73863 171.403 5.75562L171.043 7.82042Z" fill="#5A5A5A"/>
<path d="M174.18 11.5422C174.713 11.5422 175.147 11.2724 175.482 10.7328C175.817 10.1932 175.984 9.48798 175.984 8.61703C175.984 8.22191 175.89 7.91389 175.701 7.69296C175.516 7.47204 175.254 7.36158 174.915 7.36158C174.391 7.36158 173.959 7.62924 173.62 8.16456C173.281 8.69563 173.111 9.37752 173.111 10.2102C173.111 10.6436 173.201 10.975 173.382 11.2044C173.566 11.4296 173.832 11.5422 174.18 11.5422ZM176.364 6.92185L177.041 3.09814H179.135L177.376 13.0143H175.282L175.475 11.9819C175.157 12.3982 174.825 12.7063 174.477 12.906C174.129 13.1014 173.749 13.1991 173.336 13.1991C172.606 13.1991 172.029 12.9442 171.603 12.4344C171.178 11.9245 170.966 11.2299 170.966 10.3504C170.966 9.80238 171.039 9.26918 171.185 8.75086C171.335 8.23253 171.55 7.76094 171.829 7.33609C172.181 6.80077 172.578 6.39503 173.021 6.11887C173.463 5.84272 173.938 5.70464 174.445 5.70464C174.887 5.70464 175.263 5.80448 175.572 6.00416C175.885 6.1996 176.15 6.50549 176.364 6.92185Z" fill="#5A5A5A"/>
<path d="M179.76 10.548H181.847L181.416 13.0143H179.322L179.76 10.548Z" fill="#5A5A5A"/>
<path d="M111.718 17.783L111.357 19.7968C110.919 19.5589 110.488 19.3826 110.062 19.2679C109.637 19.1489 109.223 19.0894 108.819 19.0894C108.261 19.0894 107.825 19.185 107.511 19.3762C107.202 19.5674 107.047 19.8329 107.047 20.1728C107.047 20.3895 107.116 20.5594 107.253 20.6826C107.391 20.8016 107.674 20.9184 108.104 21.0331L109.019 21.2817C109.788 21.4941 110.35 21.8021 110.707 22.2058C111.063 22.6051 111.241 23.1234 111.241 23.7607C111.241 24.7931 110.885 25.6216 110.172 26.2461C109.459 26.8707 108.501 27.1829 107.299 27.1829C106.74 27.1829 106.182 27.1256 105.624 27.0109C105.069 26.8962 104.528 26.7262 104 26.501L104.354 24.4299C104.865 24.757 105.364 25.0013 105.849 25.1628C106.334 25.3242 106.813 25.4049 107.286 25.4049C107.797 25.4049 108.211 25.2902 108.529 25.0608C108.851 24.8314 109.012 24.5382 109.012 24.1813C109.012 23.9477 108.939 23.7671 108.793 23.6396C108.651 23.5079 108.338 23.3741 107.853 23.2382L106.944 22.9896C106.27 22.8069 105.77 22.518 105.443 22.1229C105.117 21.7278 104.953 21.2158 104.953 20.587C104.953 19.5971 105.297 18.8048 105.984 18.21C106.676 17.6109 107.606 17.3114 108.774 17.3114C109.242 17.3114 109.721 17.3518 110.211 17.4325C110.704 17.509 111.207 17.6258 111.718 17.783Z" fill="#5A5A5A"/>
<path d="M119.578 23.697L119.507 24.0602H114.65C114.65 24.0857 114.648 24.124 114.643 24.175C114.639 24.2217 114.637 24.2578 114.637 24.2833C114.637 24.7464 114.764 25.0926 115.017 25.3221C115.27 25.5515 115.65 25.6662 116.157 25.6662C116.595 25.6662 117.057 25.594 117.542 25.4495C118.028 25.3051 118.537 25.0905 119.069 24.8059L118.747 26.5775C118.245 26.7815 117.742 26.9323 117.24 27.03C116.741 27.132 116.232 27.1829 115.713 27.1829C114.699 27.1829 113.917 26.9259 113.368 26.4118C112.818 25.8978 112.543 25.1712 112.543 24.2323C112.543 23.6885 112.629 23.1617 112.801 22.6518C112.977 22.1378 113.234 21.6683 113.574 21.2435C113.973 20.7336 114.45 20.347 115.004 20.0836C115.558 19.8202 116.172 19.6885 116.847 19.6885C117.727 19.6885 118.425 19.9455 118.94 20.4596C119.456 20.9737 119.713 21.6662 119.713 22.5371C119.713 22.7071 119.703 22.8876 119.681 23.0788C119.66 23.2658 119.625 23.4718 119.578 23.697ZM117.62 22.6518C117.633 22.5966 117.641 22.5414 117.645 22.4862C117.65 22.4267 117.652 22.3693 117.652 22.3141C117.652 21.9742 117.56 21.7044 117.375 21.5047C117.19 21.3051 116.939 21.2052 116.621 21.2052C116.217 21.2052 115.872 21.3284 115.584 21.5748C115.3 21.817 115.083 22.176 114.933 22.6518H117.62Z" fill="#5A5A5A"/>
<path d="M126.8 20.0836L126.472 21.9445C126.193 21.7405 125.918 21.5855 125.647 21.4792C125.377 21.373 125.113 21.3199 124.855 21.3199C124.176 21.3199 123.622 21.5706 123.193 22.0719C122.763 22.569 122.548 23.2063 122.548 23.9838C122.548 24.4809 122.682 24.8675 122.948 25.1436C123.218 25.4155 123.596 25.5515 124.082 25.5515C124.404 25.5515 124.722 25.4984 125.035 25.3922C125.349 25.286 125.647 25.1288 125.931 24.9206L125.609 26.7878C125.265 26.9195 124.919 27.0172 124.571 27.081C124.223 27.149 123.873 27.1829 123.521 27.1829C122.503 27.1829 121.717 26.9323 121.163 26.4309C120.614 25.9254 120.339 25.2095 120.339 24.2833C120.339 23.7012 120.44 23.1362 120.641 22.5881C120.848 22.0401 121.14 21.5472 121.518 21.1096C121.939 20.6295 122.422 20.2727 122.967 20.039C123.513 19.8053 124.142 19.6885 124.855 19.6885C125.181 19.6885 125.506 19.7225 125.828 19.7904C126.154 19.8542 126.478 19.9519 126.8 20.0836Z" fill="#5A5A5A"/>
<path d="M127.477 24.2196L128.237 19.8605H130.318L129.661 23.5759C129.618 23.8181 129.584 24.0241 129.558 24.1941C129.537 24.364 129.526 24.4978 129.526 24.5956C129.526 24.8632 129.592 25.0714 129.726 25.2201C129.863 25.3688 130.056 25.4432 130.305 25.4432C130.735 25.4432 131.104 25.2605 131.414 24.8951C131.723 24.5297 131.935 24.022 132.051 23.372L132.676 19.8605H134.764L133.501 26.9981H131.407L131.6 25.953C131.244 26.3651 130.87 26.6731 130.479 26.877C130.089 27.081 129.678 27.1829 129.249 27.1829C128.656 27.1829 128.197 27.0109 127.87 26.6667C127.548 26.3226 127.387 25.8361 127.387 25.2074C127.387 25.0587 127.393 24.9015 127.406 24.7358C127.424 24.5701 127.447 24.398 127.477 24.2196Z" fill="#5A5A5A"/>
<path d="M140.968 21.8043C140.822 21.715 140.661 21.6471 140.485 21.6003C140.313 21.5536 140.128 21.5302 139.931 21.5302C139.398 21.5302 138.956 21.7172 138.604 22.091C138.256 22.4649 138.022 23.0045 137.901 23.7097L137.309 26.9981H135.228L136.491 19.8605H138.578L138.352 21.0841C138.627 20.6338 138.969 20.2896 139.377 20.0517C139.789 19.8096 140.246 19.6885 140.749 19.6885C140.826 19.6885 140.91 19.6927 141 19.7012C141.095 19.7097 141.204 19.7225 141.329 19.7395L140.968 21.8043Z" fill="#5A5A5A"/>
<path d="M147.926 23.697L147.855 24.0602H142.998C142.998 24.0857 142.996 24.124 142.991 24.175C142.987 24.2217 142.985 24.2578 142.985 24.2833C142.985 24.7464 143.112 25.0926 143.365 25.3221C143.618 25.5515 143.998 25.6662 144.505 25.6662C144.943 25.6662 145.405 25.594 145.89 25.4495C146.376 25.3051 146.885 25.0905 147.417 24.8059L147.095 26.5775C146.593 26.7815 146.09 26.9323 145.588 27.03C145.089 27.132 144.58 27.1829 144.061 27.1829C143.047 27.1829 142.265 26.9259 141.716 26.4118C141.166 25.8978 140.891 25.1712 140.891 24.2323C140.891 23.6885 140.977 23.1617 141.149 22.6518C141.325 22.1378 141.582 21.6683 141.922 21.2435C142.321 20.7336 142.798 20.347 143.352 20.0836C143.906 19.8202 144.52 19.6885 145.195 19.6885C146.075 19.6885 146.773 19.9455 147.288 20.4596C147.804 20.9737 148.061 21.6662 148.061 22.5371C148.061 22.7071 148.051 22.8876 148.029 23.0788C148.008 23.2658 147.973 23.4718 147.926 23.697ZM145.968 22.6518C145.981 22.5966 145.989 22.5414 145.993 22.4862C145.998 22.4267 146 22.3693 146 22.3141C146 21.9742 145.908 21.7044 145.723 21.5047C145.538 21.3051 145.287 21.2052 144.969 21.2052C144.565 21.2052 144.22 21.3284 143.932 21.5748C143.648 21.817 143.431 22.176 143.281 22.6518H145.968Z" fill="#5A5A5A"/>
<path d="M155.445 26.552C154.912 26.7602 154.399 26.9174 153.905 27.0236C153.415 27.1298 152.952 27.1829 152.514 27.1829C151.35 27.1829 150.42 26.8324 149.724 26.1314C149.028 25.4304 148.68 24.5021 148.68 23.3465C148.68 22.586 148.79 21.8701 149.009 21.1988C149.228 20.5233 149.552 19.9073 149.982 19.3507C150.488 18.6964 151.098 18.193 151.811 17.8404C152.524 17.4877 153.293 17.3114 154.118 17.3114C154.564 17.3114 155.013 17.3709 155.464 17.4898C155.919 17.6046 156.381 17.7809 156.849 18.0188L156.489 19.988C156.115 19.6779 155.741 19.4506 155.368 19.3061C154.994 19.1617 154.592 19.0894 154.163 19.0894C153.269 19.0894 152.52 19.4676 151.914 20.2238C151.313 20.98 151.012 21.9253 151.012 23.0597C151.012 23.7905 151.197 24.364 151.566 24.7804C151.94 25.1967 152.453 25.4049 153.106 25.4049C153.497 25.4049 153.912 25.3284 154.35 25.1755C154.788 25.0183 155.279 24.774 155.825 24.4426L155.445 26.552Z" fill="#5A5A5A"/>
<path d="M161.147 21.3199C160.61 21.3199 160.167 21.5876 159.82 22.1229C159.472 22.6582 159.298 23.3401 159.298 24.1686C159.298 24.6189 159.39 24.9631 159.575 25.201C159.764 25.4347 160.039 25.5515 160.399 25.5515C160.936 25.5515 161.379 25.2838 161.727 24.7485C162.074 24.2089 162.248 23.5228 162.248 22.6901C162.248 22.244 162.154 21.9041 161.965 21.6704C161.78 21.4368 161.507 21.3199 161.147 21.3199ZM161.314 19.6885C162.281 19.6885 163.041 19.9583 163.595 20.4978C164.149 21.0374 164.426 21.7724 164.426 22.7028C164.426 23.2424 164.338 23.7671 164.162 24.2769C163.99 24.7825 163.737 25.2456 163.402 25.6662C163.011 26.1675 162.545 26.5457 162.004 26.8006C161.467 27.0555 160.868 27.1829 160.206 27.1829C159.253 27.1829 158.501 26.9132 157.951 26.3736C157.401 25.834 157.127 25.099 157.127 24.1686C157.127 23.6333 157.215 23.1107 157.391 22.6009C157.567 22.0868 157.822 21.6173 158.157 21.1925C158.544 20.6996 159.003 20.3258 159.536 20.0708C160.073 19.8159 160.666 19.6885 161.314 19.6885Z" fill="#5A5A5A"/>
<path d="M168.234 25.526C168.766 25.526 169.2 25.2562 169.535 24.7167C169.87 24.1771 170.038 23.4718 170.038 22.6009C170.038 22.2058 169.943 21.8977 169.754 21.6768C169.569 21.4559 169.307 21.3454 168.968 21.3454C168.444 21.3454 168.013 21.6131 167.673 22.1484C167.334 22.6795 167.164 23.3614 167.164 24.1941C167.164 24.6274 167.254 24.9588 167.435 25.1882C167.62 25.4134 167.886 25.526 168.234 25.526ZM170.418 20.9057L171.094 17.082H173.188L171.429 26.9981H169.335L169.529 25.9657C169.211 26.3821 168.878 26.6901 168.53 26.8898C168.182 27.0852 167.802 27.1829 167.39 27.1829C166.66 27.1829 166.082 26.928 165.657 26.4182C165.231 25.9084 165.019 25.2137 165.019 24.3343C165.019 23.7862 165.092 23.253 165.238 22.7347C165.388 22.2164 165.603 21.7448 165.882 21.3199C166.234 20.7846 166.632 20.3789 167.074 20.1027C167.516 19.8266 167.991 19.6885 168.498 19.6885C168.94 19.6885 169.316 19.7883 169.625 19.988C169.939 20.1834 170.203 20.4893 170.418 20.9057Z" fill="#5A5A5A"/>
<path d="M180.294 23.697L180.223 24.0602H175.366C175.366 24.0857 175.364 24.124 175.359 24.175C175.355 24.2217 175.353 24.2578 175.353 24.2833C175.353 24.7464 175.48 25.0926 175.733 25.3221C175.986 25.5515 176.367 25.6662 176.873 25.6662C177.311 25.6662 177.773 25.594 178.258 25.4495C178.744 25.3051 179.253 25.0905 179.785 24.8059L179.463 26.5775C178.961 26.7815 178.458 26.9323 177.956 27.03C177.457 27.132 176.948 27.1829 176.429 27.1829C175.415 27.1829 174.633 26.9259 174.084 26.4118C173.534 25.8978 173.259 25.1712 173.259 24.2323C173.259 23.6885 173.345 23.1617 173.517 22.6518C173.693 22.1378 173.951 21.6683 174.29 21.2435C174.689 20.7336 175.166 20.347 175.72 20.0836C176.274 19.8202 176.888 19.6885 177.563 19.6885C178.443 19.6885 179.141 19.9455 179.656 20.4596C180.172 20.9737 180.43 21.6662 180.43 22.5371C180.43 22.7071 180.419 22.8876 180.397 23.0788C180.376 23.2658 180.342 23.4718 180.294 23.697ZM178.336 22.6518C178.349 22.5966 178.357 22.5414 178.362 22.4862C178.366 22.4267 178.368 22.3693 178.368 22.3141C178.368 21.9742 178.276 21.7044 178.091 21.5047C177.906 21.3051 177.655 21.2052 177.337 21.2052C176.933 21.2052 176.588 21.3284 176.3 21.5748C176.016 21.817 175.8 22.176 175.649 22.6518H178.336Z" fill="#5A5A5A"/>
<path d="M181.602 24.5318H183.69L183.258 26.9981H181.164L181.602 24.5318Z" fill="#5A5A5A"/>
<path d="M199.714 12.082H197.458L196.033 0.771908H198.069L198.73 6.99751C198.866 8.31759 198.945 9.33561 198.968 10.0516H199.019C199.403 9.05594 199.873 8.00994 200.427 6.91361L203.463 0.771908H205.669L199.714 12.082Z" fill="#5A5A5A"/>
<path d="M210.536 10.169L210.723 11.5954C209.875 12.0317 208.902 12.2498 207.805 12.2498C206.697 12.2498 205.854 11.9478 205.277 11.3437C204.712 10.7284 204.429 9.90615 204.429 8.87694C204.429 7.56805 204.87 6.38222 205.752 5.31945C206.634 4.25668 207.748 3.7253 209.094 3.7253C209.908 3.7253 210.553 3.93785 211.028 4.36296C211.514 4.77688 211.758 5.33064 211.758 6.02424C211.758 7.90367 209.954 8.80423 206.346 8.72592C206.323 9.15103 206.397 9.53698 206.567 9.88378C206.883 10.4319 207.449 10.706 208.263 10.706C209.077 10.706 209.835 10.527 210.536 10.169ZM209.891 6.04102V6.02424C209.891 5.76694 209.795 5.56557 209.603 5.42014C209.411 5.26352 209.156 5.18521 208.84 5.18521C208.274 5.18521 207.782 5.39776 207.364 5.82287C206.957 6.23679 206.685 6.71784 206.55 7.266C207.647 7.27719 208.478 7.19329 209.043 7.01429C209.609 6.82411 209.891 6.49969 209.891 6.04102Z" fill="#5A5A5A"/>
<path d="M214.328 12.082H212.36L213.327 7.04786C213.429 6.54444 213.57 5.49845 213.751 3.90988H215.464C215.397 4.68179 215.334 5.25233 215.278 5.6215H215.329C215.623 5.05096 215.99 4.59229 216.431 4.24549C216.884 3.89869 217.381 3.7253 217.924 3.7253C217.969 3.7253 218.037 3.73089 218.128 3.74208C218.23 3.74208 218.303 3.74208 218.348 3.74208L217.958 5.65507C217.89 5.64388 217.766 5.63828 217.585 5.63828C216.918 5.63828 216.352 5.93474 215.889 6.52766C215.436 7.10938 215.125 7.86451 214.955 8.79304L214.328 12.082Z" fill="#5A5A5A"/>
<path d="M220.226 12.082H218.241L219.819 3.90988H221.787L220.226 12.082ZM221.142 2.73524H221.125C220.831 2.73524 220.588 2.64015 220.395 2.44997C220.215 2.25979 220.124 2.00808 220.124 1.69484C220.124 1.35923 220.237 1.07955 220.463 0.855811C220.701 0.63207 220.984 0.520199 221.312 0.520199C221.628 0.520199 221.883 0.615289 222.075 0.805469C222.267 0.995649 222.363 1.24736 222.363 1.5606C222.352 1.91858 222.228 2.20385 221.99 2.41641C221.764 2.62896 221.481 2.73524 221.142 2.73524Z" fill="#5A5A5A"/>
<path d="M224.688 12.082H222.72L223.992 5.42014H222.907L223.195 3.90988H224.281L224.349 3.55749C224.563 2.42759 225.05 1.555 225.807 0.939714C226.565 0.313238 227.521 0 228.674 0C229.579 0 230.28 0.151026 230.778 0.453077L230.218 1.96333C229.675 1.71722 229.098 1.59416 228.488 1.59416C227.255 1.59416 226.531 2.2486 226.316 3.55749L226.248 3.90988H230.88L229.302 12.082H227.334L228.606 5.42014H225.96L224.688 12.082Z" fill="#5A5A5A"/>
<path d="M237.838 10.169L238.024 11.5954C237.176 12.0317 236.203 12.2498 235.106 12.2498C233.998 12.2498 233.155 11.9478 232.579 11.3437C232.013 10.7284 231.73 9.90615 231.73 8.87694C231.73 7.56805 232.172 6.38222 233.054 5.31945C233.936 4.25668 235.05 3.7253 236.396 3.7253C237.21 3.7253 237.855 3.93785 238.329 4.36296C238.816 4.77688 239.059 5.33064 239.059 6.02424C239.059 7.90367 237.255 8.80423 233.647 8.72592C233.625 9.15103 233.698 9.53698 233.868 9.88378C234.185 10.4319 234.75 10.706 235.564 10.706C236.379 10.706 237.136 10.527 237.838 10.169ZM237.193 6.04102V6.02424C237.193 5.76694 237.097 5.56557 236.905 5.42014C236.712 5.26352 236.458 5.18521 236.141 5.18521C235.576 5.18521 235.084 5.39776 234.665 5.82287C234.258 6.23679 233.987 6.71784 233.851 7.266C234.948 7.27719 235.779 7.19329 236.345 7.01429C236.91 6.82411 237.193 6.49969 237.193 6.04102Z" fill="#5A5A5A"/>
<path d="M246.973 0.167806H248.941L247.21 9.16221C246.996 10.2697 246.871 11.243 246.837 12.082H245.022L245.192 10.6389H245.158C244.423 11.7241 243.478 12.2666 242.325 12.2666C241.578 12.2666 240.973 11.9925 240.51 11.4444C240.046 10.8962 239.814 10.1635 239.814 9.24612C239.814 7.75824 240.3 6.46613 241.273 5.3698C242.257 4.27346 243.49 3.7253 244.971 3.7253C245.446 3.7253 245.87 3.8036 246.243 3.96022L246.973 0.167806ZM245.463 8.03791L245.955 5.55438C245.684 5.34183 245.305 5.23555 244.818 5.23555C243.993 5.23555 243.292 5.61591 242.715 6.37663C242.149 7.12617 241.867 7.97638 241.867 8.92728C241.867 9.45308 241.974 9.87819 242.189 10.2026C242.415 10.527 242.749 10.6892 243.19 10.6892C243.665 10.6892 244.123 10.4487 244.564 9.96768C245.005 9.48664 245.305 8.84338 245.463 8.03791Z" fill="#5A5A5A"/>
<path d="M253.309 2.81541H254.853L254.061 6.65258L254.087 6.66563C254.624 5.94344 255.323 5.58235 256.185 5.58235C256.827 5.58235 257.311 5.79988 257.637 6.23493C257.962 6.66998 258.125 7.20075 258.125 7.82722C258.125 8.34058 258.032 8.85395 257.848 9.36731C257.672 9.87197 257.417 10.3418 257.082 10.7769C256.757 11.2119 256.322 11.5643 255.776 11.8341C255.24 12.0951 254.646 12.2256 253.995 12.2256C253.309 12.2256 252.777 12.082 252.398 11.7949C252.029 11.4991 251.844 11.0684 251.844 10.5028C251.844 10.1548 251.888 9.79366 251.976 9.41952L253.309 2.81541ZM253.626 8.9105L253.507 9.49783C253.445 9.75016 253.419 10.0025 253.428 10.2548C253.445 10.7856 253.731 11.051 254.285 11.051C254.707 11.051 255.094 10.89 255.446 10.5681C255.798 10.2461 256.062 9.86327 256.238 9.41952C256.423 8.96706 256.515 8.52766 256.515 8.10131C256.515 7.72716 256.427 7.42262 256.251 7.18769C256.084 6.94406 255.833 6.82225 255.499 6.82225C255.094 6.82225 254.712 7.01367 254.351 7.39652C253.999 7.77937 253.757 8.28403 253.626 8.9105Z" fill="#5A5A5A"/>
<path d="M258.984 5.72592H260.594L261.095 8.77999C261.227 9.53698 261.31 10.0677 261.346 10.3723H261.372C261.715 9.51958 261.922 9.01492 261.992 8.8583L263.364 5.72592H265L262.652 10.4114C261.834 12.0211 261.051 13.1871 260.303 13.9093C259.679 14.5009 259.019 14.8664 258.324 15.0056L257.968 13.7004C258.469 13.5177 258.847 13.3306 259.103 13.1392C259.569 12.8173 259.947 12.3953 260.237 11.8732C260.281 11.7949 260.29 11.6992 260.264 11.5861L258.984 5.72592Z" fill="#5A5A5A"/>
<path d="M215.437 29.7949H211.29L209.548 15.9714H213.198L213.674 21.55C213.785 22.6439 213.902 24.2231 214.027 26.2878H214.068C214.594 24.9068 215.264 23.3549 216.08 21.6321L218.63 15.9714H222.59L215.437 29.7949Z" fill="#5A5A5A"/>
<path d="M224.095 15.9714H227.619L224.966 29.7949H221.441L224.095 15.9714Z" fill="#5A5A5A"/>
<path d="M227.184 28.995L228.345 26.1237C229.382 26.6979 230.529 26.9851 231.787 26.9851C232.312 26.9988 232.754 26.903 233.114 26.6979C233.473 26.4929 233.653 26.1989 233.653 25.816C233.653 25.5016 233.515 25.2281 233.238 24.9956C232.962 24.7632 232.492 24.4761 231.828 24.1342C230.957 23.6694 230.246 23.1498 229.693 22.5755C229.154 22.0012 228.884 21.2902 228.884 20.4425C228.884 19.0205 229.437 17.8856 230.543 17.0379C231.662 16.1902 233.058 15.7663 234.731 15.7663C236.127 15.7663 237.295 15.9851 238.235 16.4226L237.157 19.3555C236.286 18.9453 235.394 18.7539 234.482 18.7812C233.874 18.7812 233.411 18.8838 233.093 19.0889C232.775 19.294 232.616 19.5538 232.616 19.8682C232.616 19.9366 232.623 20.005 232.637 20.0733C232.665 20.1417 232.699 20.2101 232.741 20.2784C232.796 20.3468 232.844 20.4083 232.886 20.463C232.941 20.5177 233.01 20.5792 233.093 20.6476C233.19 20.716 233.273 20.7775 233.342 20.8322C233.411 20.8732 233.508 20.9279 233.632 20.9963C233.757 21.0646 233.853 21.1262 233.922 21.1809C234.005 21.2219 234.116 21.2834 234.254 21.3654C234.406 21.4475 234.524 21.509 234.607 21.55C236.486 22.5071 237.426 23.7172 237.426 25.1802C237.426 26.2467 237.136 27.156 236.556 27.908C235.975 28.66 235.249 29.2001 234.379 29.5283C233.508 29.8428 232.533 30 231.455 30C229.52 29.959 228.096 29.624 227.184 28.995Z" fill="#5A5A5A"/>
<path d="M246.352 26.5544H242.682L241.293 29.7949H237.499L244.133 15.9714H248.757L250.25 29.7949H246.518L246.352 26.5544ZM243.677 23.9086H246.228L246.082 21.3654C246.069 21.1603 246.041 20.7296 245.999 20.0733C245.958 19.4034 245.923 18.9043 245.896 18.5761H245.854C245.771 18.7812 245.599 19.2324 245.336 19.9298C245.087 20.6134 244.894 21.0988 244.755 21.386L243.677 23.9086Z" fill="#5A5A5A"/>
<path d="M37.3877 7.11523V9.27539C36.8271 9.02474 36.2803 8.83561 35.7471 8.70801C35.2139 8.5804 34.7103 8.5166 34.2363 8.5166C33.6074 8.5166 33.1426 8.60319 32.8418 8.77637C32.541 8.94954 32.3906 9.21842 32.3906 9.58301C32.3906 9.85645 32.4909 10.0706 32.6914 10.2256C32.8965 10.376 33.2656 10.5059 33.7988 10.6152L34.9199 10.8408C36.0547 11.0687 36.8613 11.415 37.3398 11.8799C37.8184 12.3447 38.0576 13.0055 38.0576 13.8623C38.0576 14.988 37.7227 15.8265 37.0527 16.3779C36.3874 16.9248 35.3688 17.1982 33.9971 17.1982C33.3499 17.1982 32.7005 17.1367 32.0488 17.0137C31.3971 16.8906 30.7454 16.7083 30.0938 16.4668V14.2451C30.7454 14.5915 31.3743 14.8535 31.9805 15.0312C32.5911 15.2044 33.179 15.291 33.7441 15.291C34.3184 15.291 34.7581 15.1953 35.0635 15.0039C35.3688 14.8125 35.5215 14.5391 35.5215 14.1836C35.5215 13.8646 35.4167 13.6185 35.207 13.4453C35.002 13.2721 34.5895 13.1172 33.9697 12.9805L32.9512 12.7549C31.9303 12.5361 31.1829 12.1875 30.709 11.709C30.2396 11.2305 30.0049 10.5856 30.0049 9.77441C30.0049 8.75814 30.333 7.97656 30.9893 7.42969C31.6455 6.88281 32.5889 6.60938 33.8193 6.60938C34.3799 6.60938 34.9564 6.65267 35.5488 6.73926C36.1413 6.82129 36.7542 6.94661 37.3877 7.11523ZM40.095 6.79395H47.1975V8.7832H42.7268V10.6836H46.9309V12.6729H42.7268V15.0107H47.3479V17H40.095V6.79395ZM57.4791 16.4395C56.996 16.6901 56.4924 16.8792 55.9683 17.0068C55.4442 17.1344 54.8974 17.1982 54.3277 17.1982C52.6278 17.1982 51.2811 16.7243 50.2877 15.7764C49.2942 14.8239 48.7974 13.5342 48.7974 11.9072C48.7974 10.2757 49.2942 8.986 50.2877 8.03809C51.2811 7.08561 52.6278 6.60938 54.3277 6.60938C54.8974 6.60938 55.4442 6.67318 55.9683 6.80078C56.4924 6.92839 56.996 7.11751 57.4791 7.36816V9.48047C56.9914 9.14779 56.5106 8.90397 56.0367 8.74902C55.5627 8.59408 55.0637 8.5166 54.5396 8.5166C53.6008 8.5166 52.8625 8.81738 52.3248 9.41895C51.787 10.0205 51.5181 10.8499 51.5181 11.9072C51.5181 12.96 51.787 13.7871 52.3248 14.3887C52.8625 14.9902 53.6008 15.291 54.5396 15.291C55.0637 15.291 55.5627 15.2135 56.0367 15.0586C56.5106 14.9036 56.9914 14.6598 57.4791 14.3271V16.4395ZM59.3866 6.79395H62.0184V12.9121C62.0184 13.7552 62.1551 14.359 62.4286 14.7236C62.7065 15.0837 63.1577 15.2637 63.7821 15.2637C64.411 15.2637 64.8621 15.0837 65.1356 14.7236C65.4136 14.359 65.5526 13.7552 65.5526 12.9121V6.79395H68.1844V12.9121C68.1844 14.3568 67.8221 15.4323 67.0975 16.1387C66.3729 16.8451 65.2677 17.1982 63.7821 17.1982C62.301 17.1982 61.1981 16.8451 60.4735 16.1387C59.7489 15.4323 59.3866 14.3568 59.3866 12.9121V6.79395ZM74.2208 11.3193C74.7723 11.3193 75.1665 11.2168 75.4034 11.0117C75.645 10.8066 75.7657 10.4694 75.7657 10C75.7657 9.53516 75.645 9.20247 75.4034 9.00195C75.1665 8.80143 74.7723 8.70117 74.2208 8.70117H73.1134V11.3193H74.2208ZM73.1134 13.1377V17H70.4816V6.79395H74.5011C75.8455 6.79395 76.8299 7.01953 77.4542 7.4707C78.0831 7.92188 78.3976 8.63509 78.3976 9.61035C78.3976 10.2848 78.2335 10.8385 77.9054 11.2715C77.5818 11.7044 77.0919 12.0234 76.4357 12.2285C76.7957 12.3105 77.117 12.4974 77.3995 12.7891C77.6866 13.0762 77.976 13.5137 78.2677 14.1016L79.6964 17H76.8937L75.6495 14.4639C75.3989 13.9535 75.1437 13.6048 74.8839 13.418C74.6287 13.2311 74.2869 13.1377 73.8585 13.1377H73.1134ZM80.9887 6.79395H88.0912V8.7832H83.6205V10.6836H87.8246V12.6729H83.6205V15.0107H88.2416V17H80.9887V6.79395Z" fill="#5A5A5A"/>
<path d="M33.7461 19.0645V19.7378C33.484 19.6125 33.2368 19.519 33.0044 19.4575C32.772 19.396 32.5475 19.3652 32.3311 19.3652C31.9551 19.3652 31.6646 19.4382 31.4595 19.584C31.2567 19.7298 31.1553 19.9372 31.1553 20.2061C31.1553 20.4316 31.2225 20.6025 31.3569 20.7188C31.4937 20.8327 31.7511 20.925 32.1294 20.9956L32.5464 21.0811C33.0614 21.179 33.4408 21.3522 33.6846 21.6006C33.9307 21.8467 34.0537 22.1771 34.0537 22.5918C34.0537 23.0863 33.8874 23.4611 33.5547 23.7163C33.2243 23.9715 32.7389 24.0991 32.0986 24.0991C31.8571 24.0991 31.5996 24.0718 31.3262 24.0171C31.055 23.9624 30.7736 23.8815 30.4819 23.7744V23.0635C30.7622 23.2207 31.0368 23.3392 31.3057 23.4189C31.5745 23.4987 31.8389 23.5386 32.0986 23.5386C32.4928 23.5386 32.797 23.4611 33.0112 23.3062C33.2254 23.1512 33.3325 22.9302 33.3325 22.6431C33.3325 22.3924 33.255 22.1965 33.1001 22.0552C32.9474 21.9139 32.6956 21.8079 32.3447 21.7373L31.9243 21.6553C31.4093 21.5527 31.0368 21.3921 30.8066 21.1733C30.5765 20.9546 30.4614 20.6504 30.4614 20.2607C30.4614 19.8096 30.6198 19.4541 30.9365 19.1943C31.2555 18.9346 31.6942 18.8047 32.2524 18.8047C32.4917 18.8047 32.7355 18.8263 32.9839 18.8696C33.2323 18.9129 33.4863 18.9779 33.7461 19.0645ZM38.0495 19.0645V19.7378C37.7874 19.6125 37.5402 19.519 37.3078 19.4575C37.0753 19.396 36.8509 19.3652 36.6344 19.3652C36.2584 19.3652 35.9679 19.4382 35.7628 19.584C35.56 19.7298 35.4586 19.9372 35.4586 20.2061C35.4586 20.4316 35.5259 20.6025 35.6603 20.7188C35.797 20.8327 36.0545 20.925 36.4328 20.9956L36.8497 21.0811C37.3647 21.179 37.7441 21.3522 37.9879 21.6006C38.234 21.8467 38.3571 22.1771 38.3571 22.5918C38.3571 23.0863 38.1907 23.4611 37.858 23.7163C37.5276 23.9715 37.0423 24.0991 36.402 24.0991C36.1605 24.0991 35.903 24.0718 35.6295 24.0171C35.3584 23.9624 35.077 23.8815 34.7853 23.7744V23.0635C35.0656 23.2207 35.3401 23.3392 35.609 23.4189C35.8779 23.4987 36.1422 23.5386 36.402 23.5386C36.7962 23.5386 37.1004 23.4611 37.3146 23.3062C37.5288 23.1512 37.6359 22.9302 37.6359 22.6431C37.6359 22.3924 37.5584 22.1965 37.4035 22.0552C37.2508 21.9139 36.999 21.8079 36.6481 21.7373L36.2277 21.6553C35.7127 21.5527 35.3401 21.3921 35.11 21.1733C34.8799 20.9546 34.7648 20.6504 34.7648 20.2607C34.7648 19.8096 34.9232 19.4541 35.2399 19.1943C35.5589 18.9346 35.9975 18.8047 36.5558 18.8047C36.7951 18.8047 37.0389 18.8263 37.2872 18.8696C37.5356 18.9129 37.7897 18.9779 38.0495 19.0645ZM39.2937 18.897H39.9842V23.4189H42.469V24H39.2937V18.897ZM45.1456 18.897H48.3721V19.478H45.836V20.9888H48.2662V21.5698H45.836V23.4189H48.4337V24H45.1456V18.897ZM49.4284 18.897H50.3581L52.6208 23.166V18.897H53.2907V24H52.361L50.0983 19.731V24H49.4284V18.897ZM58.346 19.29V20.0181C58.1136 19.8016 57.8652 19.6398 57.6009 19.5327C57.3389 19.4256 57.0597 19.3721 56.7635 19.3721C56.1802 19.3721 55.7336 19.5509 55.4237 19.9087C55.1138 20.2642 54.9588 20.7791 54.9588 21.4536C54.9588 22.1258 55.1138 22.6408 55.4237 22.9985C55.7336 23.354 56.1802 23.5317 56.7635 23.5317C57.0597 23.5317 57.3389 23.4782 57.6009 23.3711C57.8652 23.264 58.1136 23.1022 58.346 22.8857V23.6069C58.1045 23.771 57.8482 23.894 57.577 23.9761C57.3081 24.0581 57.0233 24.0991 56.7225 24.0991C55.95 24.0991 55.3416 23.8633 54.8973 23.3916C54.453 22.9176 54.2308 22.2716 54.2308 21.4536C54.2308 20.6333 54.453 19.9873 54.8973 19.5156C55.3416 19.0417 55.95 18.8047 56.7225 18.8047C57.0278 18.8047 57.3149 18.8457 57.5838 18.9277C57.855 19.0075 58.1091 19.1283 58.346 19.29ZM61.6924 21.6074C61.8405 21.6576 61.984 21.7646 62.123 21.9287C62.2643 22.0928 62.4056 22.3184 62.5469 22.6055L63.2475 24H62.5058L61.853 22.6909C61.6844 22.3491 61.5203 22.1224 61.3608 22.0107C61.2036 21.8991 60.9883 21.8433 60.7148 21.8433H59.9629V24H59.2724V18.897H60.831C61.4144 18.897 61.8496 19.0189 62.1367 19.2627C62.4238 19.5065 62.5674 19.8745 62.5674 20.3667C62.5674 20.688 62.4922 20.9546 62.3418 21.1665C62.1937 21.3784 61.9772 21.5254 61.6924 21.6074ZM59.9629 19.4644V21.2759H60.831C61.1637 21.2759 61.4144 21.1995 61.583 21.0469C61.7539 20.8919 61.8393 20.6652 61.8393 20.3667C61.8393 20.0682 61.7539 19.8438 61.583 19.6934C61.4144 19.5407 61.1637 19.4644 60.831 19.4644H59.9629ZM62.8478 18.897H63.5895L65.0045 20.9956L66.4093 18.897H67.151L65.3463 21.5698V24H64.6525V21.5698L62.8478 18.897ZM68.3782 19.4644V21.3818H69.2463C69.5676 21.3818 69.816 21.2987 69.9915 21.1323C70.1669 20.966 70.2547 20.729 70.2547 20.4214C70.2547 20.116 70.1669 19.8802 69.9915 19.7139C69.816 19.5475 69.5676 19.4644 69.2463 19.4644H68.3782ZM67.6878 18.897H69.2463C69.8183 18.897 70.2501 19.0269 70.5418 19.2866C70.8357 19.5441 70.9827 19.9224 70.9827 20.4214C70.9827 20.925 70.8357 21.3055 70.5418 21.563C70.2501 21.8205 69.8183 21.9492 69.2463 21.9492H68.3782V24H67.6878V18.897ZM71.0648 18.897H75.3817V19.478H73.5702V24H72.8764V19.478H71.0648V18.897ZM75.9117 18.897H76.6021V24H75.9117V18.897ZM79.9074 19.3652C79.4061 19.3652 79.0073 19.5521 78.7111 19.9258C78.4172 20.2995 78.2702 20.8088 78.2702 21.4536C78.2702 22.0962 78.4172 22.6043 78.7111 22.978C79.0073 23.3517 79.4061 23.5386 79.9074 23.5386C80.4087 23.5386 80.8052 23.3517 81.0969 22.978C81.3908 22.6043 81.5378 22.0962 81.5378 21.4536C81.5378 20.8088 81.3908 20.2995 81.0969 19.9258C80.8052 19.5521 80.4087 19.3652 79.9074 19.3652ZM79.9074 18.8047C80.6229 18.8047 81.1948 19.0451 81.6232 19.5259C82.0516 20.0044 82.2658 20.647 82.2658 21.4536C82.2658 22.258 82.0516 22.9006 81.6232 23.3813C81.1948 23.8599 80.6229 24.0991 79.9074 24.0991C79.1896 24.0991 78.6154 23.8599 78.1847 23.3813C77.7564 22.9028 77.5422 22.2603 77.5422 21.4536C77.5422 20.647 77.7564 20.0044 78.1847 19.5259C78.6154 19.0451 79.1896 18.8047 79.9074 18.8047ZM83.2059 18.897H84.1356L86.3983 23.166V18.897H87.0682V24H86.1385L83.8758 19.731V24H83.2059V18.897Z" fill="#5A5A5A"/>
<path d="M22.5 9V12C24.15 12 25.5 13.35 25.5 15V25.5C25.5 27.15 24.15 28.5 22.5 28.5H7.5C5.85 28.5 4.5 27.15 4.5 25.5V15C4.5 13.35 5.85 12 7.5 12V9C7.5 4.86 10.86 1.5 15 1.5C19.14 1.5 22.5 4.86 22.5 9ZM12 9V12H18V9C18 7.35 16.65 6 15 6C13.35 6 12 7.35 12 9ZM16.2 24.375V21.12C17.25 20.655 18 19.605 18 18.375C18 16.725 16.65 15.375 15 15.375C13.35 15.375 12 16.725 12 18.375C12 19.605 12.75 20.655 13.8 21.12V24.375H16.2V24.375Z" fill="#5A5A5A"/>
</svg>
