<svg width="24" height="24" viewBox="0 0 24 24" fill="none" xmlns="http://www.w3.org/2000/svg">
<rect x="0.5" y="0.5" width="23" height="23" stroke="#2E4B59" stroke-dasharray="12 12"/>
<circle cx="12" cy="12" r="2" fill="#2E4B59"/>
<path fill-rule="evenodd" clip-rule="evenodd" d="M18.8284 4L20.2426 5.41421L16.9899 8.66699C17.6279 9.62033 18 10.7667 18 12C18 13.2958 17.5893 14.4956 16.8908 15.4764L15.4463 14.0319C15.7981 13.4364 16 12.7418 16 12C16 9.79086 14.2092 8 12 8C11.2582 8 10.5636 8.20191 9.96815 8.55376L8.52357 7.10919C9.50438 6.41077 10.7042 6 12 6C13.3581 6 14.6109 6.45124 15.6165 7.21196L18.8284 4ZM7.10933 8.52337C6.41083 9.50421 6.00002 10.7041 6.00002 12C6.00002 13.2073 6.3566 14.3313 6.97018 15.2725L4 18.2427L5.41421 19.6569L8.32665 16.7444C9.34171 17.5315 10.6162 18 12 18C13.2959 18 14.4958 17.5892 15.4766 16.8907L14.0321 15.4461C13.4365 15.798 12.7419 16 12 16C9.79088 16 8.00002 14.2091 8.00002 12C8.00002 11.2582 8.20197 10.5635 8.55389 9.96793L7.10933 8.52337Z" fill="#2E4B59"/>
</svg>
