<svg width="24" height="24" viewBox="0 0 24 24" fill="none" xmlns="http://www.w3.org/2000/svg">
<rect x="0.5" y="0.5" width="23" height="23" stroke="#2E4B59" stroke-dasharray="12 12"/>
<path d="M8 6L6 4M12 6V3M16 6L18 4" stroke="#2E4B59"/>
<path d="M16 18L18 20M12 18L12 21M8 18L6 20" stroke="#2E4B59"/>
<path d="M21 12C21 15.3137 15.3137 17 12 17C8.68629 17 3 15.3137 3 12C3 8.68629 8.68629 7 12 7C15.3137 7 21 8.68629 21 12Z" fill="#2E4B59"/>
<circle cx="12" cy="12" r="2" fill="white"/>
<circle cx="12" cy="12" r="3.75" stroke="white" stroke-width="0.5"/>
</svg>
