<svg width="97" height="258" viewBox="0 0 97 258" fill="none" xmlns="http://www.w3.org/2000/svg">
<path fill-rule="evenodd" clip-rule="evenodd" d="M30 74H29V197C26.7909 197 25 198.791 25 201C25 203.209 26.7909 205 29 205C31.2091 205 33 203.209 33 201C33 199.136 31.7252 197.57 30 197.126V74Z" fill="#379E19"/>
<path fill-rule="evenodd" clip-rule="evenodd" d="M49 17H48V250C45.7909 250 44 251.791 44 254C44 256.209 45.7909 258 48 258C50.2091 258 52 256.209 52 254C52 252.136 50.7252 250.57 49 250.126V17Z" fill="#379E19"/>
<path fill-rule="evenodd" clip-rule="evenodd" d="M68 74H67V197C64.7909 197 63 198.791 63 201C63 203.209 64.7909 205 67 205C69.2091 205 71 203.209 71 201C71 199.136 69.7252 197.57 68 197.126V74Z" fill="#379E19"/>
<path fill-rule="evenodd" clip-rule="evenodd" d="M58 85H57V216C54.7909 216 53 217.791 53 220C53 222.209 54.7909 224 57 224C59.2091 224 61 222.209 61 220C61 218.136 59.7252 216.57 58 216.126V85Z" fill="#379E19"/>
<path fill-rule="evenodd" clip-rule="evenodd" d="M42 85H41V216C38.7909 216 37 217.791 37 220C37 222.209 38.7909 224 41 224C43.2091 224 45 222.209 45 220C45 218.136 43.7252 216.57 42 216.126V85Z" fill="#379E19"/>
<path d="M49.2029 0C36.8319 19.9543 37.4879 45.2667 39.3623 55.4286C33.7391 48.9619 17.9942 35.4743 0 33.2571C3.37391 49.8857 22.0242 64.2048 30.9275 69.2857C26.7101 69.7476 15.7449 72.3343 5.62319 78.9857C25.3043 87.3 37.9565 81.7571 39.3623 81.7571L30.9275 97L47.7971 81.7571L49.2029 84.5L50.6087 81.7571L66.0725 97L61.8551 81.7571C67.4783 82.681 81.5362 83.42 92.7826 78.9857C83.7855 72.3343 73.1014 69.7476 68.8841 69.2857C76.3816 63.7429 92.5014 48.7771 97 33.2571C79.0058 36.5829 64.1981 49.4238 59.0435 55.4286C60.9179 45.2667 61.5739 19.9543 49.2029 0Z" fill="#379E19"/>
<circle cx="48" cy="58" r="31" fill="white" stroke="#33990B" stroke-width="2"/>
<path fill-rule="evenodd" clip-rule="evenodd" d="M55 39H42V52H29V65H42V78H55V65H68V52H55V39Z" fill="#33990B"/>
</svg>
