<svg xmlns="http://www.w3.org/2000/svg" width="250" height="250" fill="none" viewBox="0 0 250 250"><mask id="a" width="250" height="250" x="0" y="0" mask-type="alpha" maskUnits="userSpaceOnUse"><path fill="#C4C4C4" d="M0 .3h249.7V250H0z"/></mask><g mask="url(#a)"><path fill="#fff" d="M251.12 117.6L14.74 178.69l7.64-27.89-20.95-20.01L237.8 69.71l-10.42 28.36 23.73 19.54z"/><path fill="#fff" d="M145.84 206.15c46.83-12.1 74.62-58.5 62.07-103.65-12.54-45.14-60.67-71.93-107.5-59.83-46.82 12.1-74.61 58.5-62.07 103.64 12.55 45.15 60.68 71.94 107.5 59.84z"/><path fill="#3A9B2C" d="M147.2 204.73c-36.72 9.48-74.25-5.34-94.22-34.23l-15.6 4.03a5.61 5.61 0 004.24 3.42c3.76.69 8.36 1.7 10.53 4.23 2.13 2.5 2.32 7.06 2.31 10.75a5.6 5.6 0 006.22 5.47l.08-.01c11.17-1.02 13.44.62 16.56 10.8l.02.1a5.73 5.73 0 007.56 3.54l.1-.04c10.35-3.97 13.03-3.13 19.03 5.86l.05.07a5.8 5.8 0 008.3 1.34c3.02-2.3 6.85-5 10.25-4.9 3.33.1 6.92 2.91 9.75 5.33a5.82 5.82 0 008.37-.89c2.26-3.02 5.2-6.66 8.48-7.5 2.93-.76 6 .22 11.02 2.41l.09.05a5.74 5.74 0 007.72-3.16c.87-2.37 1.9-5.04 3.1-6.82 3.05-4.55 7.55-4.23 14-3.34l.1.01a5.62 5.62 0 006.5-5.14c.15-3.02.4-6.55 1.52-8.8 2.14-4.28 7.47-5.01 11.97-5.58a5.5 5.5 0 004.76-6.82c-2.6-10.35-1.43-12.85 8.73-17.34l.07-.03a5.39 5.39 0 002.56-7.73c-1.92-3.2-4.14-7.2-3.58-10.43.56-3.19 4.02-6.32 6.93-8.74a5.37 5.37 0 001.9-5l-15.58 4.02c-2.3 34.65-27.13 65.58-63.84 75.07zM102.5 43.9c36.72-9.48 74.26 5.34 94.22 34.24l15.59-4.03a5.62 5.62 0 00-4.26-3.45c-3.76-.68-8.36-1.7-10.52-4.22-2.14-2.5-2.33-7.06-2.32-10.75a5.6 5.6 0 00-6.22-5.47h-.08c-11.02 1-13.4-.48-16.55-10.8l-.03-.1a5.73 5.73 0 00-7.52-3.55c-1.84.7-3.76 1.43-5.3 1.82-7.14 1.85-9.88-1.64-13.87-7.63l-.06-.08a5.8 5.8 0 00-8.27-1.35c-2.47 1.86-5.35 3.97-7.95 4.64-4.52 1.17-8.86-2.2-12.21-5.05a5.81 5.81 0 00-8.39.95c-2.23 3.04-4.93 6.58-8.32 7.45-3.29.85-7.72-.88-11.26-2.4a5.74 5.74 0 00-7.7 3.27c-1.2 3.45-2.84 7.61-5.67 9.3-3.07 1.82-7.41 1.22-11.32.68h-.08a5.63 5.63 0 00-6.5 5.15c-.14 3-.39 6.5-1.52 8.78-2.13 4.28-7.46 5.02-11.97 5.59a5.5 5.5 0 00-4.78 6.72c.92 3.64 1.95 7.91.41 10.98-1.47 2.92-5.7 4.99-9.2 6.52a5.39 5.39 0 00-2.52 7.79c5.52 9.25 5.1 11.95-3.32 19l-.06.05a5.36 5.36 0 00-1.9 5.05l15.6-4.03c2.32-34.65 27.14-65.58 63.86-75.06z"/><path fill="#3A9B2C" d="M50.98 91.38l-1.23-.55c-.38.8-.76 1.6-1.11 2.41l1.25.52c.35-.8.72-1.6 1.1-2.38zM59.16 78l-1.1-.78c-.53.7-1.06 1.43-1.57 2.15l1.12.74a78.7 78.7 0 011.55-2.12zM48.88 96.16l-1.27-.47a77.7 77.7 0 00-.94 2.48l1.28.43c.3-.81.6-1.63.93-2.44zM56.13 82.28l-1.14-.7c-.49.73-.97 1.5-1.43 2.25l1.17.66a78 78 0 011.4-2.21zM53.4 86.75l-1.19-.63c-.43.77-.86 1.55-1.27 2.34l1.21.58c.4-.76.83-1.54 1.25-2.3zM183.04 67.58a81.8 81.8 0 00-1.97-1.82l-.92.96c.65.59 1.3 1.19 1.94 1.8l.95-.94zM43.87 116.32l-1.35-.13c-.07.6-.13 1.22-.18 1.83l1.4-.36.13-1.34zM45.68 106.08l-1.32-.3a77.3 77.3 0 00-.6 2.57l1.33.26c.18-.84.38-1.7.59-2.53zM44.6 111.17l-1.34-.22c-.16.86-.3 1.74-.42 2.61l1.35.18c.12-.85.26-1.72.4-2.57zM47.11 101.07l-1.3-.4c-.27.84-.53 1.7-.77 2.54l1.31.35a76 76 0 01.76-2.5zM118.22 44.78c-.9.08-1.82.16-2.72.26l.15 1.3c.89-.1 1.79-.18 2.68-.25l-.11-1.3zM145.4 47.02c-.89-.21-1.78-.42-2.67-.61l-.3 1.28c.88.18 1.76.39 2.63.6l.33-1.27zM155.8 50.32c-.85-.33-1.7-.64-2.56-.95l-.47 1.23c.84.3 1.69.61 2.52.94l.5-1.22zM66.06 70.05l-.98-.9c-.63.62-1.25 1.28-1.86 1.93l1.01.87c.6-.64 1.21-1.28 1.83-1.9zM140.04 45.88l-2.7-.45-.2 1.3c.88.13 1.77.28 2.65.43l.25-1.28zM134.62 45.08c-.9-.1-1.82-.2-2.73-.27l-.11 1.3c.89.08 1.8.17 2.68.27l.16-1.3zM129.16 44.63c-.91-.05-1.83-.08-2.74-.1l-.03 1.31c.9.02 1.8.05 2.7.1l.06-1.31zM123.68 44.53c-.9.01-1.82.04-2.73.08l.06 1.31c.9-.04 1.8-.07 2.7-.08l-.03-1.3zM174.78 60.7a85 85 0 00-2.2-1.56l-.79 1.07c.73.5 1.46 1.01 2.17 1.53l.82-1.05zM160.8 52.46c-.82-.38-1.66-.75-2.49-1.1l-.55 1.19c.82.35 1.64.71 2.45 1.09l.59-1.18zM179.03 64c-.69-.57-1.4-1.13-2.1-1.68l-.85 1.01c.7.54 1.39 1.1 2.06 1.67l.89-1zM165.65 54.9c-.8-.42-1.6-.85-2.4-1.25l-.64 1.15c.8.4 1.59.82 2.37 1.25l.67-1.14zM170.31 57.66c-.75-.48-1.53-.96-2.3-1.41l-.72 1.11c.77.45 1.53.92 2.28 1.4l.74-1.1zM150.65 48.5c-.86-.27-1.74-.53-2.61-.78l-.39 1.26c.86.24 1.73.5 2.58.77l.42-1.24zM82.78 57.12l-.7-1.12-2.32 1.4.74 1.1c.75-.47 1.52-.93 2.28-1.38zM78.27 59.95l-.78-1.07a81.2 81.2 0 00-2.21 1.54l.8 1.05c.72-.52 1.46-1.03 2.19-1.52zM92.34 52.37l-.54-1.2c-.83.35-1.67.72-2.49 1.1l.58 1.17 2.45-1.07zM87.48 54.6l-.62-1.17c-.8.4-1.62.82-2.41 1.25l.66 1.14a81.8 81.8 0 012.37-1.22zM69.9 66.42l-.92-.96c-.67.59-1.34 1.2-1.99 1.8l.95.94c.64-.6 1.3-1.2 1.95-1.78zM73.97 63.05l-.85-1.02a83 83 0 00-2.1 1.68l.88 1a79.6 79.6 0 012.07-1.66zM107.4 46.33l-2.66.6.33 1.27 2.62-.59-.29-1.28zM112.78 45.39c-.9.13-1.8.27-2.7.43l.25 1.29c.88-.16 1.77-.3 2.65-.43l-.2-1.3zM191.92 77.55l-1.1.77.83 1.13 1.4-.36-1.13-1.54zM102.47 48.88l-.37-1.26c-.88.24-1.76.5-2.62.76l.41 1.25c.85-.26 1.72-.52 2.58-.75zM97.35 50.46l-.46-1.23c-.86.3-1.72.61-2.56.93l.5 1.22c.83-.32 1.67-.63 2.52-.92zM62.48 73.9l-1.05-.83c-.58.67-1.16 1.36-1.72 2.05l1.07.8c.55-.67 1.12-1.35 1.7-2.01zM189.21 76.25l1.07-.8a79.25 79.25 0 00-1.7-2.05l-1.05.83c.57.66 1.13 1.34 1.68 2.02zM186.8 71.4c-.6-.65-1.22-1.3-1.85-1.94l-.98.9 1.81 1.9 1.02-.86zM100.06 84.34l-.7-1.12c-.77.44-1.55.92-2.3 1.41l.76 1.09a48.5 48.5 0 012.24-1.38zM138.57 79.66c.85.24 1.7.51 2.53.8l.46-1.23c-.85-.3-1.73-.57-2.6-.82l-.39 1.25zM82.17 99.85l1.17.67c.45-.73.93-1.46 1.42-2.17l-1.12-.73c-.51.73-1 1.48-1.47 2.23zM113.6 79.04a50 50 0 011.27-.28l-.28-1.28a51.9 51.9 0 00-2.61.6l-.05.01.35 1.27.05-.01c.42-.11.84-.22 1.26-.31zM152.87 86.38c.71.5 1.43 1.02 2.12 1.55l.85-1.03a50.28 50.28 0 00-2.19-1.58l-.78 1.06zM149.03 82.5l-.66 1.14c.77.42 1.54.86 2.29 1.31l.72-1.1a50 50 0 00-2.35-1.35zM143.58 81.4c.82.32 1.63.68 2.43 1.05l.6-1.17c-.82-.39-1.66-.75-2.5-1.1l-.53 1.21zM136.31 77.72c-.88-.2-1.79-.38-2.68-.54l-.24 1.3c.87.14 1.75.32 2.6.52l.32-1.28zM79.64 104.52l1.23.55c.37-.78.76-1.56 1.17-2.31l-1.2-.6c-.42.77-.83 1.57-1.2 2.36zM94.84 86.16a49.4 49.4 0 00-2.13 1.66l.88 1a48.4 48.4 0 012.07-1.61l-.82-1.05zM109.3 78.85c-.86.27-1.72.57-2.57.89l.5 1.22c.82-.31 1.66-.6 2.5-.87l-.42-1.24zM122.72 76.48l.06 1.3c.88-.03 1.78-.05 2.66-.04l.02-1.3c-.91-.01-1.83 0-2.74.04zM117.49 78.3c.87-.14 1.76-.25 2.64-.33l-.14-1.3c-.9.08-1.81.2-2.71.33l.2 1.3zM101.75 81.93l.64 1.16c.78-.4 1.58-.78 2.38-1.13l-.56-1.2c-.82.37-1.65.76-2.46 1.17zM88.75 91.44l.98.9c.61-.62 1.24-1.23 1.88-1.81l-.93-.95c-.66.6-1.31 1.23-1.93 1.86zM130.92 76.79c-.9-.1-1.82-.2-2.73-.25l-.1 1.3c.9.06 1.78.14 2.66.25l.17-1.3zM85.22 95.47l1.09.79c.53-.68 1.09-1.35 1.66-2l-1.04-.85a48.5 48.5 0 00-1.7 2.06zM79.84 107.43l-1.27-.48c-.25.63-.49 1.26-.71 1.9l1.59-.41c.12-.34.25-.68.39-1zM115.64 85.14l-2.63-3.45-.5 4.26-4.21 1.35 4.04 1.77.03 4.28 3-3.16 4.23 1.3-2.19-3.73 2.58-3.48-4.35.86zM130.15 84.38l-2.02-2.64-.38 3.26-3.23 1.04 3.1 1.36.03 3.28 2.3-2.42 3.24.98-1.68-2.85 1.98-2.67-3.34.66zM141.26 91.3l2.08.63.21-.06-1.14-1.94 1.45-1.96-2.45.48-1.48-1.94-.28 2.4-2.37.76 2.27 1 .02 2.23.22-.05 1.47-1.55z"/><path fill="#3A9B2C" d="M139.79 92.84l-.22.06v.17l.22-.23zM143.64 92.02l-.08-.15-.22.06.3.1zM101.95 91.66l-2.02-2.63-.38 3.25-3.23 1.04 3.1 1.36.03 3.28 2.3-2.42 3.24.99-1.68-2.85 1.98-2.67-3.34.65zM93.52 103.63l2.08.63.21-.05-1.14-1.95 1.45-1.96-2.45.48-1.48-1.93-.28 2.39-2.37.76 2.27 1 .02 2.24.22-.06 1.47-1.55z"/><path fill="#3A9B2C" d="M95.9 104.36l-.09-.15-.21.05.3.1zM92.05 105.18l-.22.05v.18l.22-.23zM64.79 179.2a78.3 78.3 0 001.9 1.89l.96-.94c-.63-.6-1.27-1.22-1.88-1.84l-.98.9zM61.16 175.28c.58.67 1.18 1.34 1.78 2l1.01-.88a79.1 79.1 0 01-1.74-1.96l-1.05.84zM68.68 182.9c.66.6 1.35 1.19 2.03 1.76l.89-1a79.07 79.07 0 01-2-1.72l-.92.97zM72.81 186.35c.7.55 1.43 1.1 2.16 1.62l.81-1.05a78.66 78.66 0 01-2.12-1.6l-.85 1.03zM77.17 189.52c.75.5 1.5 1 2.27 1.48l.74-1.1c-.75-.46-1.5-.95-2.22-1.45l-.79 1.07zM58.92 170.35l-1.1.77c.53.7 1.08 1.41 1.63 2.1l1.08-.8a77.76 77.76 0 01-1.61-2.07zM82.45 191.3l-.7 1.11a86 86 0 002.35 1.34l.67-1.14a83.1 83.1 0 01-2.32-1.32zM164.64 192.78l.66 1.15c.8-.43 1.59-.88 2.37-1.33l-.7-1.12c-.77.44-1.55.88-2.33 1.3zM159.86 195.16l.58 1.19a84.8 84.8 0 002.45-1.17l-.62-1.17c-.8.4-1.6.78-2.41 1.15zM169.25 190.1l.74 1.1c.76-.48 1.52-.97 2.26-1.48l-.77-1.07c-.74.5-1.49.98-2.23 1.45zM173.66 187.13l.81 1.05c.72-.53 1.45-1.07 2.16-1.62l-.85-1.02c-.7.54-1.41 1.07-2.12 1.59zM154.93 197.23l.5 1.22c.84-.32 1.69-.66 2.52-1.01l-.54-1.2-2.48 1zM177.84 183.9l.89.98c.68-.56 1.37-1.15 2.04-1.74l-.92-.97c-.66.58-1.33 1.16-2 1.72zM181.8 180.39l.95.93c.64-.6 1.29-1.24 1.91-1.87l-.98-.9c-.61.62-1.25 1.24-1.88 1.84zM149.86 198.98l.41 1.25c.87-.27 1.74-.55 2.6-.85l-.46-1.23c-.84.29-1.7.57-2.55.83zM123.34 204.1h2.73l-.02-1.31h-2.69l-.02 1.3zM134.26 203.58c.9-.1 1.81-.22 2.71-.34l-.2-1.3c-.88.13-1.78.24-2.67.34l.16 1.3zM139.67 202.8c.9-.16 1.8-.33 2.68-.52l-.29-1.27c-.87.18-1.76.35-2.63.5l.24 1.3zM144.69 200.41l.33 1.27a94.82 94.82 0 002.64-.68l-.38-1.26c-.85.24-1.73.46-2.6.67zM128.8 204.01c.91-.04 1.83-.1 2.74-.17l-.11-1.3c-.9.07-1.8.13-2.69.17l.07 1.3zM202.1 152.89l-1.26-.47c-.32.8-.66 1.61-1 2.4l1.25.52c.35-.81.7-1.63 1.02-2.45zM197.57 159.54l1.22.59 1.19-2.38-1.24-.55c-.37.78-.76 1.57-1.17 2.34zM205.36 142.8l-1.33-.3c-.2.84-.43 1.69-.66 2.52l1.3.35c.25-.85.47-1.71.69-2.56zM207.2 132.39l-1.36-.13c-.09.86-.2 1.73-.32 2.58l1.35.18c.12-.87.23-1.76.32-2.63zM188.95 172.67l1.07.8c.56-.69 1.11-1.4 1.65-2.1l-1.1-.77c-.52.7-1.07 1.39-1.62 2.07zM192.12 168.48l1.12.73a81.4 81.4 0 001.5-2.2l-1.14-.7c-.48.73-.98 1.46-1.48 2.17zM195 164.1l1.17.66c.46-.75.91-1.53 1.35-2.3l-1.2-.62c-.42.75-.87 1.51-1.32 2.26zM206.45 137.63l-1.33-.22c-.16.85-.32 1.71-.5 2.56l1.33.26c.18-.86.35-1.73.5-2.6zM185.5 176.64l1.02.88c.6-.66 1.2-1.33 1.78-2l-1.04-.84c-.57.66-1.16 1.32-1.75 1.96zM203.9 147.9l-1.3-.39c-.26.83-.54 1.66-.83 2.47l1.28.43c.3-.83.58-1.67.85-2.5zM107.03 202.23c.89.2 1.79.37 2.68.53l.25-1.28c-.88-.16-1.77-.34-2.64-.52l-.3 1.27zM91.44 197.3c.83.35 1.68.7 2.52 1.03l.5-1.22c-.82-.32-1.66-.66-2.47-1l-.55 1.2zM96.52 199.27c.85.3 1.72.6 2.58.87l.43-1.24c-.85-.27-1.71-.56-2.55-.86l-.47 1.23zM117.86 203.83c.91.07 1.83.13 2.74.18l.07-1.31c-.9-.05-1.8-.1-2.7-.18l-.1 1.3zM112.42 203.2c.9.14 1.81.26 2.72.36l.15-1.3c-.89-.1-1.78-.22-2.67-.35l-.2 1.3zM86.5 195c.81.42 1.64.81 2.45 1.2l.6-1.19c-.81-.37-1.62-.76-2.41-1.16l-.63 1.16zM101.72 200.92c.87.25 1.76.48 2.64.7l.34-1.27c-.87-.21-1.74-.44-2.6-.69l-.38 1.26zM99.08 163.7a49.6 49.6 0 01-2.21-1.43l-.79 1.07c.74.5 1.5 1 2.27 1.46l.73-1.1zM103.73 166.2c-.8-.38-1.6-.78-2.36-1.2l-.66 1.15a50 50 0 002.42 1.22l.6-1.18zM160 156.26l.98.9a49 49 0 001.82-1.97l-1.04-.84c-.57.65-1.16 1.3-1.77 1.91zM108.64 168.18a49.7 49.7 0 01-2.49-.93l-.52 1.2c.83.35 1.7.67 2.55.97l.46-1.24zM166.09 150.98l-1.13-.73c-.5.7-1.01 1.41-1.54 2.1l1.08.78a47.9 47.9 0 001.59-2.15zM171.14 141.64l-1.26-.47c-.32.79-.67 1.59-1.04 2.36l1.24.54c.38-.8.73-1.61 1.06-2.43zM168.88 146.44l-1.2-.6c-.41.75-.85 1.5-1.3 2.24l1.17.67c.46-.75.91-1.53 1.33-2.3zM93.9 161.75l.84-1.02-.97-.77-1.6.4c.57.48 1.14.94 1.73 1.4zM137.81 170.53a52.8 52.8 0 002.62-.76l-.42-1.24c-.84.26-1.7.51-2.55.73l.35 1.27zM132.46 171.62c.9-.13 1.8-.3 2.7-.47l-.29-1.28c-.86.17-1.75.33-2.62.46l.21 1.3zM113.74 169.64c-.86-.2-1.72-.42-2.57-.66l-.39 1.26c.87.24 1.77.47 2.65.67l.31-1.27zM159.05 159.03l-.93-.95c-.64.59-1.3 1.16-1.98 1.71l.88 1c.7-.57 1.38-1.16 2.03-1.76zM118.99 170.55c-.88-.1-1.77-.24-2.64-.39l-.24 1.3c.9.15 1.8.28 2.71.39l.17-1.3zM154.07 161.4c-.7.51-1.42 1.02-2.16 1.5l.77 1.08a50 50 0 002.22-1.54l-.83-1.04zM121.55 172.1c.9.05 1.83.09 2.73.1l.02-1.31c-.88-.01-1.78-.04-2.66-.1l-.09 1.3zM127.02 172.15c.9-.04 1.83-.1 2.73-.2l-.14-1.3c-.88.1-1.77.15-2.65.2l.06 1.3zM143 168.88c.85-.32 1.7-.67 2.53-1.03l-.57-1.2c-.8.36-1.62.7-2.45 1l.5 1.23zM147.35 165.53l.63 1.16c.8-.41 1.6-.84 2.39-1.3l-.7-1.12c-.76.44-1.54.86-2.32 1.26zM137.2 162.69l4.2-1.36-4.03-1.77-.04-4.28-3 3.16-4.23-1.3 2.19 3.73-2.58 3.48 4.35-.85 2.63 3.44.5-4.25zM147.75 156.97l2.02 2.64.38-3.26 3.23-1.04-3.1-1.36-.02-3.28-2.3 2.42-3.25-.99 1.68 2.86-1.98 2.66 3.34-.65zM153.58 148.33l2.45-.48 1.48 1.94.28-2.4 2.37-.76-2.27-1-.02-2.23-.21.05-1.48 1.55-2.07-.63-.22.05 1.14 1.95-1.45 1.96z"/><path fill="#3A9B2C" d="M153.8 144.28l.09.14.22-.05-.3-.1zM157.87 143.22l-.21.23.21-.05v-.18zM119.55 164.25l2.02 2.64.38-3.26 3.23-1.04-3.1-1.35-.02-3.29-2.3 2.42-3.25-.98 1.68 2.85-1.98 2.67 3.34-.66zM105.84 160.66l2.45-.48 1.48 1.94.28-2.4 2.37-.75-2.27-1-.02-2.24-.22.06-1.47 1.55-2.08-.64-.21.06 1.14 1.95-1.45 1.95zM106.06 156.61l.09.15.21-.06-.3-.09z"/><path fill="#3A9B2C" d="M110.13 155.56l-.22.23.22-.06v-.17zM65.1 103.05l-2.16-.75 2-5.4 5.13 1.76a7 7 0 01.55 2.76 8.53 8.53 0 01-.52 3.24 7.2 7.2 0 01-2.1 3.1c-.93.78-2 1.22-3.24 1.35a8.62 8.62 0 01-3.7-.45 7.9 7.9 0 01-3.28-2.05 5.73 5.73 0 01-1.51-3.2c-.14-.95.02-2.01.45-3.2a6.31 6.31 0 012.35-3.27c.99-.63 2.12-.87 3.4-.71l-.44 2.65c-.7-.04-1.32.12-1.86.48-.55.35-.95.9-1.22 1.62a3.5 3.5 0 00.11 2.98c.48.9 1.43 1.59 2.85 2.08 1.53.52 2.8.59 3.8.2 1.01-.4 1.71-1.12 2.1-2.18.2-.53.29-1.1.27-1.7a5.56 5.56 0 00-.27-1.62l-1.64-.57-1.06 2.88zM61.23 90.58l1.5-2.24 6.22 3.87c1 .62 1.65.99 1.98 1.11.54.2 1.07.2 1.6.03.52-.19.99-.6 1.4-1.22.43-.63.62-1.2.57-1.68a1.8 1.8 0 00-.6-1.2c-.36-.31-.98-.75-1.9-1.32l-6.35-3.95 1.5-2.24 6.03 3.76c1.38.85 2.32 1.52 2.8 2 .5.47.83 1 1 1.56.18.57.2 1.2.07 1.89-.14.69-.5 1.47-1.08 2.35a7.42 7.42 0 01-2 2.17c-.61.39-1.23.62-1.85.68a3.9 3.9 0 01-1.7-.16c-.75-.27-1.77-.8-3.06-1.6l-6.13-3.81zM88.84 78.9l-2.14 2.02-3.03-1.33-3.9 3.7 1.36 2.9-2.09 1.97-5.77-13.02 2.09-1.97 13.48 5.73zm-7.42-.3l-4.9-2.22 2.24 4.74 2.66-2.52zM89.57 78.53l-7.23-11.2 4.94-2.96c1.24-.74 2.2-1.19 2.9-1.32.7-.14 1.37-.05 2.04.26.67.31 1.22.8 1.65 1.46.54.84.73 1.69.57 2.54-.15.86-.7 1.66-1.63 2.42.7-.02 1.32.04 1.87.18.55.15 1.38.49 2.5 1.02l2.83 1.34-2.8 1.68-3.27-1.42a19.76 19.76 0 00-2.3-.9c-.37-.1-.7-.11-1-.05-.3.06-.73.26-1.27.58l-.47.29 3.01 4.67-2.34 1.4zm-1.83-7.87l1.74-1.04c1.13-.68 1.8-1.14 2.02-1.4.22-.26.34-.55.35-.87.02-.32-.09-.65-.3-.98a1.63 1.63 0 00-.9-.73c-.36-.1-.75-.08-1.17.1-.2.08-.79.41-1.74.98l-1.83 1.1 1.83 2.84z"/><path fill="#3A9B2C" d="M112.46 68.14l-2.84.95-2.15-2.45-5.16 1.73-.05 3.19-2.76.93.53-14.15 2.76-.92 9.67 10.72zm-6.58-3.32l-3.45-4.02-.08 5.2 3.53-1.18zM113.29 68.1L111.75 55l2.67-.29 6.6 8.15-1.03-8.75 2.55-.28 1.53 13.1-2.75.3-6.48-7.95 1 8.55-2.55.28zM129.42 67.27l1.04-10.9-4.04-.36.2-2.23 10.83.96-.2 2.22-4.04-.36-1.04 10.92-2.75-.25zM137.35 68.13l3.86-12.66 9.73 2.76-.65 2.14-7.08-2-.86 2.8 6.6 1.87-.66 2.13-6.59-1.87-1.05 3.45 7.34 2.07-.65 2.14-9.99-2.83zM148.9 71.62l6.44-11.64 8.95 4.6-1.1 1.97-6.5-3.35-1.43 2.58 6.06 3.12-1.09 1.96-6.06-3.12-1.75 3.17 6.74 3.47-1.08 1.96-9.18-4.72zM168.32 67.18l3.85 3.15a9.64 9.64 0 011.82 1.82c.45.67.7 1.41.75 2.21.05.8-.1 1.62-.44 2.45a9.73 9.73 0 01-1.75 2.65 8.9 8.9 0 01-2.2 1.88c-.91.52-1.8.8-2.69.86-.66.04-1.4-.1-2.18-.4a8.37 8.37 0 01-2.05-1.32l-3.96-3.25 8.85-10.05zm.61 3.43l-5.87 6.65 1.58 1.29c.58.48 1.04.8 1.35.95.42.2.82.29 1.22.27.4 0 .87-.18 1.4-.51a8.82 8.82 0 001.84-1.67 7.87 7.87 0 001.37-1.97c.22-.53.3-1.02.26-1.46a2.5 2.5 0 00-.56-1.27c-.24-.3-.78-.8-1.64-1.51l-.95-.77zM83.49 175.15l1.44-1.73 4.65 3.58-3.4 4.1c-.8.08-1.77-.06-2.9-.4a9.24 9.24 0 01-3-1.52 7.26 7.26 0 01-2.36-2.94 5.33 5.33 0 01-.26-3.38 7.91 7.91 0 011.65-3.23 7.86 7.86 0 013.07-2.32 6.25 6.25 0 013.64-.34c.97.2 1.96.68 2.98 1.47 1.33 1.02 2.14 2.09 2.44 3.2a4.5 4.5 0 01-.4 3.33l-2.46-1.27a2.7 2.7 0 00.14-1.85 3.17 3.17 0 00-1.19-1.64 3.84 3.84 0 00-2.97-.87c-1.03.15-2.02.79-2.96 1.92-1.01 1.23-1.5 2.36-1.43 3.4a3.45 3.45 0 001.45 2.63c.45.35.97.61 1.57.8.6.17 1.16.27 1.69.27l1.08-1.3-2.47-1.9zM94.76 172.86l2.49 1.16-3.23 6.43c-.51 1.02-.81 1.7-.9 2.03-.14.54-.08 1.05.17 1.53s.73.88 1.42 1.2c.7.33 1.3.44 1.8.33.5-.11.9-.35 1.17-.72.27-.37.65-1.03 1.12-1.97l3.3-6.57 2.48 1.16-3.13 6.24a17.67 17.67 0 01-1.72 2.93 3.83 3.83 0 01-3.42 1.43 7.21 7.21 0 01-2.55-.74c-1.18-.55-2-1.1-2.48-1.64a4.05 4.05 0 01-.93-1.7 3.5 3.5 0 01-.04-1.64c.18-.75.6-1.8 1.27-3.12l3.18-6.34zM115.05 193.67l-2.92-.68-.43-3.18-5.31-1.25-1.83 2.66-2.85-.67 8.4-11.6 2.84.66 2.1 14.06zm-3.67-6.22l-.63-5.19-3 4.34 3.63.84zM118.37 193.95l.29-13.19 5.81.12c1.46.03 2.52.17 3.18.42.66.25 1.18.69 1.56 1.3.39.61.57 1.31.55 2.09-.02.99-.34 1.8-.95 2.43a4.42 4.42 0 01-2.74 1.17c.6.34 1.08.72 1.46 1.13.38.41.88 1.14 1.52 2.18l1.61 2.6-3.3-.06-1.93-2.91a18.57 18.57 0 00-1.41-1.97 2.12 2.12 0 00-.82-.57 4.7 4.7 0 00-1.39-.18h-.56l-.12 5.5-2.76-.06zm2.93-7.55l2.04.04c1.33.03 2.15-.01 2.49-.11.33-.1.6-.28.78-.54.2-.26.3-.6.3-.99.02-.44-.1-.8-.34-1.08a1.71 1.71 0 00-1.03-.54c-.22-.03-.9-.06-2.01-.08l-2.16-.05-.07 3.35zM146.09 191.48l-2.95.56-1.78-2.71-5.36 1.02-.5 3.15-2.88.55 2.58-13.94 2.86-.54 8.03 11.91zm-6.04-4.17l-2.84-4.45-.82 5.15 3.66-.7zM149.22 190.4l-5.44-12.1 2.46-1.04 8.77 5.94-3.63-8.08 2.36-.99 5.44 12.1-2.55 1.07-8.6-5.78 3.54 7.9-2.35.98zM165.68 182.31l-6.48-9-3.34 2.23-1.32-1.83 8.94-5.98 1.31 1.83-3.32 2.23 6.48 9-2.27 1.52zM173.85 176.42l-9.8-9.22 7.1-7 1.65 1.56-5.16 5.1 2.17 2.04 4.8-4.74 1.65 1.55-4.8 4.74 2.67 2.5 5.34-5.26 1.65 1.55-7.27 7.18zM183.6 166.16l-11.5-7.15 5.5-8.22 1.95 1.21-4 5.98 2.55 1.59 3.72-5.57 1.94 1.2-3.72 5.57 3.12 1.95 4.15-6.2 1.93 1.21-5.64 8.43zM178.36 149.52l1.78-4.55c.4-1.03.79-1.78 1.16-2.26a4.56 4.56 0 011.9-1.44 6.17 6.17 0 012.54-.43c.92.03 1.98.26 3.18.7 1.06.38 1.92.84 2.58 1.37.81.64 1.4 1.36 1.75 2.14.26.59.38 1.3.34 2.12a7.82 7.82 0 01-.6 2.3l-1.83 4.7-12.8-4.65zm3.14-1.7l8.48 3.07.73-1.86c.27-.7.42-1.21.46-1.55.05-.44 0-.84-.14-1.2a2.8 2.8 0 00-.98-1.1 9.07 9.07 0 00-2.25-1.1 8.43 8.43 0 00-2.38-.58c-.6-.02-1.1.06-1.51.26-.42.2-.77.5-1.05.93-.22.32-.53.99-.93 2l-.43 1.13zM227.32 97.84l10.36-28.6-25.02 6.47-14.96 3.87-38.68 9.99-1.55.4-118.9 30.72-14.98 3.87-25 6.46 23.79 19.77-10.36 28.6 25-6.46L52 169.05l3.66-.94 1.38-.36 113.87-29.42 1.55-.4 33.64-8.69 1.38-.36 3.66-.94 14.96-3.87 25.02-6.46-23.8-19.77zm4.34-25.15l2.6-.67.19.69-2.6.67-.19-.69zm-5.2 1.35l2.6-.67.2.68-2.6.67-.2-.68zm-5.2 1.34l2.6-.67.2.68-2.6.67-.2-.68zM5.78 131.78l-2.6.68-.19-.69 2.6-.67.2.69zm5.2-1.33l-2.6.67-.19-.69 2.6-.67.19.69zm5.2-1.35l-2.6.67-.2-.68 2.6-.67.2.68zm1.92 47l-2.6.67-.2-.69 2.6-.67.2.68zm5.2-1.35l-2.6.67-.2-.68 2.6-.67.2.68zm5.19-1.34l-2.6.67-.19-.69 2.6-.67.19.69zm182.4-95.34l1.53-.4 1.06-.28.2.69-1.5.38-1.1.29-.2-.68zm-5.2 1.34l2.6-.67.18.68-2.6.67-.19-.68zm-5.2 1.34l2.6-.67.19.68-2.6.68-.2-.69zm-5.05 1.89l-.15-.55 2.6-.67.19.69-2.56.66h-.04l-.04-.13zm-5.35.8l2.6-.67.2.68-2.6.67-.2-.68zm-5.2 1.34l2.6-.67.2.68-2.6.67-.2-.68zm-5.2 1.34l2.6-.67.2.69-2.6.67-.2-.69zm-5.19 1.34l2.6-.67.2.69-2.6.67-.2-.69zm-5.2 1.35l2.6-.67.2.68-2.6.67-.2-.68zm-5.2 1.34l2.6-.67.2.68-2.6.67-.2-.68zm-10.39 2.69l2.6-.68.2.69-2.6.67-.2-.68zm-5.2 1.34l2.6-.67.2.68-2.6.67-.2-.68zm-5.2 1.34l2.6-.67.2.68-2.6.68-.2-.69zm-5.19 1.34l2.6-.67.19.69-2.6.67-.19-.69zm-5.2 1.35l2.6-.67.2.68-2.6.67-.2-.68zm-5.2 1.34l2.6-.67.2.68-2.6.67-.2-.68zm-5.19 1.34l2.6-.67.19.69-2.6.67-.19-.69zm-5.2 1.34l2.6-.67.2.69-2.6.67-.2-.69zm-5.2 1.35l2.6-.67.2.68-2.6.67-.2-.68zm-5.2 1.34l2.6-.67.2.68-2.6.67-.2-.68zm-5.19 1.34l2.6-.67.19.69-2.6.67-.19-.69zm-5.2 1.35l2.6-.67.2.68-2.6.67-.2-.68zm-15.59 4.02l2.6-.67.2.69-2.6.67-.2-.69zm-5.2 1.35l.92-.24 1.5-.39.18-.04.2.68-.58.15-1.5.39-.52.13-.2-.68zm-5.2 1.34l2.6-.67.2.68-2.6.67-.2-.68zm-5.19 1.34l2.6-.67.19.69-2.6.67-.19-.69zm-5.2 1.34l2.6-.67.2.69-2.6.67-.2-.69zm-5.2 1.35l2.6-.67.2.68-2.6.67-.2-.68zm-5.2 1.34l2.6-.67.2.68-2.6.68-.2-.69zm-5.19 1.34l2.6-.67.2.69-2.6.67-.2-.69zm-5.2 1.35l2.6-.67.15.54.04.14-.04.01-2.55.66-.2-.68zm-10.39 2.68l2.6-.67.19.69-2.6.67-.19-.69zm-5.2 1.34l1.06-.27 1.54-.4.2.69-1.12.29-1.49.38-.19-.69zm9.9 45.67l-2.6.67-.18-.69 2.6-.67.19.69zm-12.3-44.31l-2.6.67-.2-.68 2.6-.67.2.68zm17.5 42.96l-1.67.44-.92.24-.2-.69 1.36-.35 1.24-.32.2.68zm5.2-1.34l-2.6.67-.19-.68 2.6-.67.2.68zm-2.53-12.97l-3.45.9-4.05-14.6c-.9 1.65-2.1 3.01-3.64 4.09l-.97-3.52a9.8 9.8 0 002.4-2.63 7.23 7.23 0 001.28-3.8l2.8-.72 5.63 20.28zm7.73 11.63l-2.6.67-.19-.69 2.6-.67.19.69zm-12.31-44.3l-2.6.66-.2-.68 2.6-.67.2.68zm17.5 42.95l-2.6.68-.18-.69 2.6-.67.19.69zm5.2-1.34l-2.6.67-.19-.68 2.6-.67.2.68zm-3.54-14.55a4.76 4.76 0 01-3.5 3.12 5.22 5.22 0 01-4.86-1.17c-1.5-1.24-2.78-3.8-3.86-7.67-1.05-3.8-1.22-6.7-.51-8.67a4.76 4.76 0 013.5-3.12c1.74-.45 3.3-.1 4.67 1.04 1.62 1.35 2.97 3.94 4.04 7.77 1.06 3.83 1.23 6.72.52 8.7zm8.74 13.2l-2.6.68-.19-.68 2.6-.68.19.69zm5.2-1.33l-2.6.67-.2-.69 2.6-.67.2.69zm5.2-1.35l-2.6.68-.2-.69 2.6-.67.2.68zm-5.17-14.13a4.76 4.76 0 01-3.5 3.12 5.22 5.22 0 01-4.86-1.17c-1.49-1.24-2.77-3.8-3.85-7.67-1.06-3.8-1.23-6.7-.52-8.67a4.76 4.76 0 013.5-3.12c1.75-.45 3.3-.1 4.67 1.04 1.63 1.35 2.98 3.94 4.04 7.77 1.06 3.82 1.24 6.72.53 8.7zm10.36 12.8l-2.6.66-.19-.68 2.6-.67.2.68zm-7.82-23.6c-.95-.68-1.68-1.93-2.19-3.75-.5-1.8-.52-3.24-.05-4.3a3.55 3.55 0 012.51-2.05 3.77 3.77 0 013.3.54c.95.69 1.68 1.94 2.18 3.76.5 1.81.53 3.24.06 4.3a3.55 3.55 0 01-2.51 2.05 3.76 3.76 0 01-3.3-.54zm9.93-12.6l2.48-.63-3.59 23.77-2.55.66 3.66-23.8zm3.09 34.85l-2.6.67-.19-.69 2.6-.67.19.69zm5.2-1.34l-.08.02-1.51.39-1.01.26-.2-.69.63-.16 1.5-.38.48-.13.19.69zm5.2-1.35l-2.6.67-.2-.68 2.6-.67.2.68zm-2.5-13.5a3.55 3.55 0 01-2.52 2.05 3.76 3.76 0 01-3.3-.55c-.95-.7-1.68-1.95-2.18-3.76-.5-1.81-.53-3.25-.06-4.3a3.57 3.57 0 012.54-2.06 3.73 3.73 0 013.28.55c.95.7 1.67 1.94 2.18 3.75.5 1.82.52 3.26.06 4.31zm7.7 12.16l-2.6.67-.2-.68 2.6-.67.2.68zm-12.32-44.3l-2.6.67-.19-.69 2.6-.67.19.69zm17.5 42.96l-2.6.67-.18-.69 2.6-.67.19.69zm-12.3-44.3l-2.6.66-.2-.68 2.6-.67.2.68zm17.5 42.96l-2.6.67-.18-.69 2.6-.67.19.69zm5.2-1.35l-2.6.67-.19-.68 2.6-.67.2.68zm5.2-1.34l-2.6.67-.19-.68 2.6-.68.19.69zm-2.99-12.85l-3.64.94-10.92-11.3 3.66 13.18-3.37.87-5.61-20.2 3.53-.91 11.11 11.58-3.75-13.49 3.38-.87 5.61 20.2zm8.19 11.5l-2.6.68-.2-.69 2.6-.67.2.69zm5.2-1.34l-2.6.67-.2-.68 2.6-.67.2.68zm5.2-1.34l-2.6.67-.2-.68 2.6-.67.2.68zm-5.32-17.17l-7.2 1.86-.2 4.97-3.86 1 1.4-22 3.84-1 12.81 18.34-3.95 1.02-2.84-4.19zm10.5 15.83l-2.6.67-.18-.69 2.6-.67.19.69zm5.2-1.34l-2.6.67-.18-.69 2.6-.67.18.69zm5.2-1.35l-2.6.67-.19-.68 2.6-.67.2.68zm-5.7-30.13l-5.33 1.37 4.66 16.79-3.63.94-4.66-16.79-5.34 1.38-.95-3.41 14.3-3.7.95 3.42zm10.9 28.79l-2.6.67-.19-.68 2.6-.68.19.69zm5.2-1.34l-2.6.67-.2-.69 2.6-.67.2.69zm5.2-1.35l-2.6.68-.2-.69 2.6-.67.2.68zm-3.55-12.99a8.45 8.45 0 01-3.29 1.5 9.33 9.33 0 01-4.1.35 6.04 6.04 0 01-4.22-3.17 28.86 28.86 0 01-1.78-5.03l-3-10.78 3.64-.94 3.04 10.94c.48 1.74.84 2.85 1.07 3.34.38.8.94 1.36 1.66 1.7.73.36 1.6.4 2.61.14 1.03-.27 1.74-.7 2.14-1.31.39-.6.54-1.27.46-1.99a26.7 26.7 0 00-.8-3.47l-3.1-11.17 3.63-.94 2.95 10.6a31.76 31.76 0 011.13 5.22c.08 1.05-.04 2-.38 2.82a5.55 5.55 0 01-1.66 2.2zm8.74 11.65l-2.15.56-.37.1-.08.01-.19-.68 2.6-.67.2.68zm-12.31-44.3l-2.6.67-.19-.69 2.6-.67.19.69zm17.5 42.96l-2.59.67-.19-.68 2.6-.68.19.69zm5.2-1.34l-2.6.67-.18-.69 2.6-.67.19.69zm-6.47-19.84c-.46-.32-.9-.51-1.33-.56a5.53 5.53 0 00-1.9.24l-.73.2 2.34 8.43-3.63.93-5.61-20.2 7.64-1.97c1.93-.5 3.37-.68 4.34-.54.98.14 1.85.6 2.64 1.4.78.79 1.33 1.78 1.66 2.98a5.95 5.95 0 01-.14 4.06 5.54 5.54 0 01-3.04 2.78c.93.32 1.73.71 2.41 1.2.69.48 1.68 1.4 2.98 2.74l3.3 3.38-4.35 1.12-3.85-3.72a30.47 30.47 0 00-2.74-2.47zm11.67 18.5l-2.6.67-.19-.69 2.6-.67.2.68zm5.2-1.35l-2.6.67-.19-.68 2.6-.67.19.68zm5.2-1.34l-2.6.67-.2-.69 2.6-.67.2.69zm5.2-1.34l-2.6.67-.2-.69 2.6-.67.2.69zm5.2-1.35l-2.6.67-.2-.68 2.6-.67.2.68zm-6.35-11.98l-2.85-4.18-7.19 1.86-.2 4.97-3.86 1 1.4-22.02 3.84-.99 12.81 18.34-3.95 1.02zm11.54 10.64l-2.6.67-.19-.68 2.6-.67.19.68zm5.2-1.34l-2.6.67-.2-.69 2.6-.67.2.69zm5.2-1.35l-.95.25-1.66.43-.19-.69 1.23-.32 1.37-.35.2.68zm-3.3-12.77l-12.66 3.28-5.57-20.04 3.63-.94 4.62 16.63 9.03-2.33.95 3.4zm8.49 11.43l-2.6.67-.19-.68 2.6-.67.19.68zm-12.31-44.3l-2.6.67-.2-.69 2.6-.67.2.69zm17.5 42.96l-2.6.67-.18-.69 2.6-.67.19.69zm5.2-1.34l-2.6.67-.18-.69 2.6-.67.19.69zm5.2-1.35l-2.6.67-.19-.68 2.6-.67.2.68z"/><path fill="#3A9B2C" d="M194.18 108.41l4.9-1.27-4.56-6.85-.34 8.12zM49.02 136.66a1.67 1.67 0 00-2.23.58c-.25.38-.35.98-.32 1.8.04 1.06.4 2.78 1.05 5.15a25.73 25.73 0 001.68 4.8c.46.83.89 1.36 1.3 1.57a1.68 1.68 0 002.22-.59c.24-.38.35-.98.32-1.8a25.53 25.53 0 00-1.05-5.13 25.79 25.79 0 00-1.68-4.8c-.46-.84-.89-1.36-1.3-1.58zM73.5 128.46c-.36.09-.6.33-.7.71-.15.52-.04 1.44.32 2.75.37 1.31.75 2.16 1.14 2.54a1 1 0 00.99.28c.37-.1.6-.34.72-.72.14-.52.02-1.43-.34-2.75-.37-1.31-.74-2.15-1.13-2.53a1 1 0 00-1-.28zM88.6 136.01c-.36.1-.6.34-.7.72-.14.52-.03 1.43.33 2.75.37 1.31.74 2.15 1.14 2.52.3.3.63.39.99.3.36-.1.6-.34.7-.72.15-.52.04-1.44-.33-2.75-.36-1.31-.74-2.16-1.12-2.54-.3-.28-.63-.37-1-.28zM125.29 126.21l4.9-1.27-4.56-6.85-.34 8.12zM179.73 107.04c.13-.47.11-1-.05-1.62a2.76 2.76 0 00-.95-1.52 2.27 2.27 0 00-1.58-.44c-.31.04-1.2.24-2.67.62l-2.84.73 1.43 5.13 2.68-.7c1.75-.44 2.81-.8 3.2-1.09.39-.27.65-.65.78-1.11zM63 133.05c-.42-.21-.83-.26-1.24-.16-.42.11-.75.36-1 .74-.24.38-.35.98-.31 1.8.04 1.06.39 2.78 1.05 5.15a25.72 25.72 0 001.67 4.8c.46.83.9 1.36 1.3 1.56.4.22.82.27 1.23.16.42-.1.75-.35 1-.74.24-.38.34-.98.31-1.8a25.54 25.54 0 00-1.05-5.13 25.8 25.8 0 00-1.67-4.8c-.46-.84-.9-1.36-1.3-1.58z"/></g></svg>