<svg width="313" height="94" viewBox="0 0 313 94" fill="none" xmlns="http://www.w3.org/2000/svg">
<path d="M63.2532 2.3719C64.5124 2.20764 65.7884 2.09663 67.0788 2.04119L67.1003 2.54073C67.7301 2.51367 68.3634 2.5 69 2.5H70.9916V2H74.975V2.5H78.9583V2H82.9416V2.5H86.925V2H90.9083V2.5H94.8916V2H98.875V2.5H102.858V2H106.842V2.5H110.825V2H114.808V2.5H118.792V2H122.775V2.5H126.758V2H130.742V2.5H134.725V2H138.708V2.5H142.692V2H146.675V2.5H150.658V2H154.642V2.5H158.625V2H162.608V2.5H166.592V2H170.575V2.5H174.558V2H178.542V2.5H182.525V2H186.508V2.5H190.492V2H194.475V2.5H198.458V2H202.442V2.5H206.425V2H210.408V2.5H214.392V2H218.375V2.5H222.358V2H226.342V2.5H230.325V2H234.308V2.5H238.292V2H242.275V2.5H246.258V2H250.242V2.5H254.225V2H258.208V2.5H262.192V2H266.175V2.5H270.158V2H274.142V2.5H278.125V2H282.108V2.5H286.092V2H290.075V2.5H294.058V2H298.042V2.5H302.025V2H306.008V2.5H307.5V4H308V8H307.5V12H308V16H307.5V20H308V24H307.5V28H308V32H307.5V36H308V40H307.5V44H308V48H307.5V52H308V56H307.5V60H308V64H307.5V68H308V72H307.5V76H308V80H307.5V84H308V88H307.5V89.5H306.008V90H302.025V89.5H298.042V90H294.058V89.5H290.075V90H286.092V89.5H282.108V90H278.125V89.5H274.142V90H270.158V89.5H266.175V90H262.192V89.5H258.208V90H254.225V89.5H250.242V90H246.258V89.5H242.275V90H238.292V89.5H234.308V90H230.325V89.5H226.342V90H222.358V89.5H218.375V90H214.392V89.5H210.408V90H206.425V89.5H202.442V90H198.458V89.5H194.475V90H190.492V89.5H186.508V90H182.525V89.5H178.542V90H174.558V89.5H170.575V90H166.592V89.5H162.608V90H158.625V89.5H154.642V90H150.658V89.5H146.675V90H142.692V89.5H138.708V90H134.725V89.5H130.742V90H126.758V89.5H122.775V90H118.792V89.5H114.808V90H110.825V89.5H106.842V90H102.858V89.5H98.875V90H94.8917V89.5H90.9083V90H86.925V89.5H82.9417V90H78.9583V89.5H74.975V90H70.9917V89.5H69C68.3634 89.5 67.7301 89.4863 67.1003 89.4593L67.0788 89.9588C65.7884 89.9034 64.5125 89.7924 63.2532 89.6281L63.3179 89.1323C62.0541 88.9675 60.8075 88.7484 59.5803 88.4775L59.4725 88.9657C58.2156 88.6883 56.9789 88.3571 55.7649 87.9746L55.9152 87.4977C54.7026 87.1158 53.513 86.6821 52.3489 86.1994L52.1573 86.6613C50.9708 86.1692 49.8104 85.6267 48.6789 85.0365L48.9101 84.5932C47.7854 84.0065 46.6896 83.3721 45.6252 82.6926L45.3561 83.1141C44.2755 82.4242 43.2271 81.6885 42.2135 80.9096L42.5182 80.5131C41.5139 79.7414 40.5442 78.9267 39.6119 78.072L39.274 78.4406C38.3304 77.5754 37.4246 76.6696 36.5595 75.726L36.928 75.3881C36.0733 74.4558 35.2586 73.4861 34.4869 72.4818L34.0904 72.7865C33.3115 71.7729 32.5758 70.7245 31.886 69.6439L32.3074 69.3748C31.6279 68.3105 30.9935 67.2146 30.4068 66.0899L29.9635 66.3211C29.3733 65.1896 28.8308 64.0292 28.3387 62.8427L28.8006 62.6511C28.3179 61.487 27.8842 60.2974 27.5023 59.0849L27.0254 59.2351C26.6429 58.0211 26.3117 56.7844 26.0343 55.5275L26.5225 55.4197C26.2516 54.1925 26.0325 52.9459 25.8677 51.6821L25.3719 51.7468C25.2076 50.4876 25.0966 49.2116 25.0412 47.9212L25.5407 47.8997C25.5137 47.2699 25.5 46.6366 25.5 46C25.5 45.3634 25.5137 44.7301 25.5407 44.1003L25.0412 44.0788C25.0966 42.7884 25.2076 41.5125 25.3719 40.2532L25.8677 40.3179C26.0325 39.0541 26.2516 37.8075 26.5225 36.5803L26.0343 36.4725C26.3117 35.2156 26.6429 33.9789 27.0254 32.7649L27.5023 32.9151C27.8842 31.7026 28.3179 30.513 28.8006 29.3489L28.3387 29.1573C28.8308 27.9708 29.3733 26.8104 29.9635 25.6789L30.4068 25.9101C30.9935 24.7854 31.6279 23.6895 32.3074 22.6252L31.886 22.3561C32.5758 21.2755 33.3115 20.2271 34.0904 19.2135L34.4869 19.5182C35.2586 18.5139 36.0733 17.5442 36.928 16.6119L36.5594 16.274C37.4246 15.3304 38.3304 14.4246 39.274 13.5595L39.6119 13.928C40.5442 13.0733 41.5139 12.2586 42.5182 11.4869L42.2135 11.0904C43.2271 10.3115 44.2755 9.5758 45.3561 8.88596L45.6252 9.3074C46.6895 8.62792 47.7854 7.9935 48.9101 7.40682L48.6789 6.9635C49.8104 6.37327 50.9708 5.8308 52.1573 5.33874L52.3489 5.80061C53.513 5.31786 54.7026 4.88422 55.9151 4.50226L55.7649 4.02537C56.9789 3.64295 58.2156 3.31174 59.4725 3.03428L59.5803 3.52252C60.8075 3.25163 62.0541 3.03255 63.3179 2.8677L63.2532 2.3719Z" stroke="url(#paint0_linear)" stroke-dasharray="4 4"/>
<circle cx="31" cy="44" r="23" fill="#43A617"/>
<path d="M39.7 41H37V37.4C37 33.0545 34.9975 30.5 31 30.5C27.001 30.5 25 33.0545 25 37.4V41H22C21.1705 41 20.5 41.969 20.5 42.7985V54.5C20.5 55.3235 21.142 56.2085 21.9265 56.4605L23.722 57.041C24.6744 57.3186 25.6584 57.4729 26.65 57.5H35.35C36.3413 57.4731 37.3249 57.3183 38.2765 57.0395L40.0705 56.459C40.8565 56.2085 41.5 55.3235 41.5 54.5V42.7985C41.5 41.969 40.528 41 39.7 41ZM34 41H28V36.7985C28 34.631 29.1955 33.5 31 33.5C32.8045 33.5 34 34.631 34 36.7985V41Z" fill="white"/>
<defs>
<linearGradient id="paint0_linear" x1="149.56" y1="46" x2="301.025" y2="46" gradientUnits="userSpaceOnUse">
<stop offset="0.890157" stop-color="#43A617"/>
<stop offset="0.96189" stop-color="#43A617" stop-opacity="0"/>
</linearGradient>
</defs>
</svg>
