<svg width="24" height="24" viewBox="0 0 24 24" fill="none" xmlns="http://www.w3.org/2000/svg">
<path fill-rule="evenodd" clip-rule="evenodd" d="M0 16C0 15.6137 0.0312869 15.2348 0.0914646 14.8655C0.754564 10.5096 4.85928 4.59944 7 2C9.14072 4.59944 13.2454 10.5096 13.9085 14.8655C13.9687 15.2348 14 15.6137 14 16C14 19.866 10.866 23 7 23C3.13401 23 0 19.866 0 16Z" fill="#133340"/>
<path d="M19 13.5488C17.3841 17.1039 15.1667 19.8822 14 21.0489C17.2 17.8489 15.6667 13.0488 14.5 11.0488C14.5 9.84883 17.5 7.88216 19 7.04883C16.2 7.04883 14.1667 8.71549 13.5 9.54883L12 6.04886C16 4.04886 21.3333 3.88219 23.5 4.04886C21.8333 7.21552 21.5 8.04883 19 13.5488Z" fill="#133340"/>
<path fill-rule="evenodd" clip-rule="evenodd" d="M8 12H6V14.5H3.5V16.5H6V19H8V16.5H10.5V14.5H8V12Z" fill="white"/>
</svg>
