<svg width="24" height="24" viewBox="0 0 24 24" fill="none" xmlns="http://www.w3.org/2000/svg">
<path d="M5.8125 12L14.475 3.33745C15.025 2.78745 15.85 2.37495 16.8125 2.37495C17.775 2.37495 18.6 2.78745 19.2875 3.33745C20.6625 4.71245 20.6625 6.91245 19.2875 8.14995L15.4375 12H17.3625L20.1125 9.24995C22.0375 7.32495 22.0375 4.29995 20.1125 2.51245C19.15 1.54995 17.9125 1.13745 16.675 1.13745C15.4375 1.13745 14.3375 1.41245 13.375 2.37495L4.7125 11.175C4.3 11.45 4.025 11.8625 3.75 12.4125C4.4375 12.1375 5.125 12 5.8125 12Z" fill="#133340"/>
<path d="M11.0375 8.69995L7.73749 12H14.2L11.0375 8.69995Z" fill="#133340"/>
<path d="M18.1875 13.375H5.8125C3.2 13.375 1 15.575 1 18.1875C1 20.8 3.2 23 5.8125 23H18.1875C20.8 23 23 20.8 23 18.1875C23 15.575 20.8 13.375 18.1875 13.375ZM18.1875 21.625H12V16.125H5.8125C4.3 16.125 3.0625 16.95 2.375 17.775C2.65 16.125 4.025 14.75 5.8125 14.75H18.1875C20.1125 14.75 21.625 16.2625 21.625 18.1875C21.625 20.1125 20.1125 21.625 18.1875 21.625Z" fill="#133340"/>
</svg>
