<svg xmlns="http://www.w3.org/2000/svg" width="120" height="302" fill="none" viewBox="0 0 120 302"><circle cx="54.84" cy="47.83" r="41.59" fill="#FDFDFD"/><path fill="#193F68" d="M101.66 50.28a3.53 3.53 0 000-4.92l-1.8-1.82a5.17 5.17 0 01-.88-5.55l1.14-2.3c.85-1.7.17-3.8-1.52-4.67l-2.28-1.18a5.18 5.18 0 01-2.55-5l.39-2.55a3.53 3.53 0 00-2.9-3.97l-2.53-.43a5.17 5.17 0 01-3.97-3.97l-.42-2.53a3.53 3.53 0 00-3.98-2.9l-2.53.39a5.18 5.18 0 01-5-2.55l-1.2-2.28a3.53 3.53 0 00-4.67-1.52l-2.3 1.15c-1.7.84-4.19.45-5.54-.88L57.3 1a3.53 3.53 0 00-4.92 0l-1.83 1.8a5.17 5.17 0 01-5.54.88l-2.3-1.15a3.53 3.53 0 00-4.68 1.52l-1.18 2.28a5.18 5.18 0 01-5 2.55l-2.55-.38a3.53 3.53 0 00-3.97 2.9l-.43 2.53a5.17 5.17 0 01-3.97 3.97l-2.53.42a3.53 3.53 0 00-2.9 3.98l.39 2.54a5.17 5.17 0 01-2.55 5l-2.28 1.18a3.53 3.53 0 00-1.52 4.68l1.15 2.3c.84 1.7.45 4.19-.88 5.54L8 45.37a3.53 3.53 0 000 4.92l1.8 1.83a5.17 5.17 0 01.88 5.54l-1.15 2.3a3.53 3.53 0 001.52 4.67l2.28 1.19a5.18 5.18 0 012.55 5l-.38 2.54a3.53 3.53 0 002.9 3.98l2.53.42a5.17 5.17 0 013.97 3.97l.42 2.53a3.53 3.53 0 003.98 2.9l2.54-.39a5.18 5.18 0 015 2.55l1.18 2.28a3.53 3.53 0 004.68 1.52l2.3-1.14c1.7-.85 4.19-.46 5.54.88l1.83 1.8a3.53 3.53 0 004.92 0l1.83-1.8a5.17 5.17 0 015.55-.88l2.29 1.14c1.7.85 3.8.17 4.68-1.52l1.18-2.28a5.18 5.18 0 015-2.55l2.54.39a3.53 3.53 0 003.98-2.9l.42-2.53a5.17 5.17 0 013.97-3.97l2.53-.42a3.53 3.53 0 002.9-3.98l-.39-2.54a5.18 5.18 0 012.55-5l2.28-1.18a3.53 3.53 0 001.53-4.68l-1.15-2.3c-.85-1.7-.46-4.19.88-5.54l1.8-1.84zM54.83 88.16a40.33 40.33 0 110-80.67 40.33 40.33 0 010 80.67z"/><path fill="#1E70BA" d="M30.1 35.57c.05.09.08.17.1.24v5.36c0 .42-.1.67-.34.74-.11.04-.26.05-.43.05-.18 0-.32-.01-.42-.05a.72.72 0 01-.23-.1.41.41 0 01-.13-.19 1.8 1.8 0 01-.05-.47v-3.04c-.15.19-.37.48-.66.89-.3.4-.48.67-.55.77l-.17.21c-.03.04-.1.1-.22.16a.76.76 0 01-.75.01.85.85 0 01-.25-.18l-.07-.1-.72-.97-.58-.8v3.07l-.01.31a.6.6 0 01-.1.23c-.08.17-.32.25-.7.25-.37 0-.6-.08-.69-.25a.67.67 0 01-.09-.23l-.01-.33v-5.04l.01-.31c.01-.07.04-.15.1-.24.08-.16.32-.24.7-.24.16 0 .3.02.42.06.12.04.2.08.23.12l.06.06 2.06 2.7a190.2 190.2 0 012.06-2.7c.1-.16.35-.24.73-.24s.62.08.7.25zM35.1 35.78l2.45 5.07c.1.2.15.36.15.46 0 .22-.17.42-.52.6-.2.1-.37.15-.49.15a.5.5 0 01-.45-.25l-.14-.28-.47-.98H33.1l-.47.98-.14.27a.66.66 0 01-.17.17.48.48 0 01-.29.08 1.2 1.2 0 01-.48-.15c-.35-.17-.53-.37-.53-.59 0-.1.05-.25.16-.46l2.45-5.08a.81.81 0 01.3-.33.82.82 0 01.43-.13c.33 0 .57.16.73.47zm-.74 2.18l-.6 1.25h1.21l-.6-1.25zM39.34 35.3l1.68.01c.88 0 1.65.32 2.32.95.66.63 1 1.41 1 2.34 0 .92-.33 1.71-.98 2.37a3.2 3.2 0 01-2.37 1h-1.66c-.37 0-.6-.08-.69-.23a1.22 1.22 0 01-.1-.58V36.1v-.32l.1-.23c.08-.17.31-.25.7-.25zm2.86 4.57c.35-.33.53-.73.53-1.22 0-.5-.17-.9-.52-1.23-.34-.33-.74-.5-1.2-.5h-.87v3.43h.88c.44 0 .83-.16 1.18-.48zM47 40.36h2.79c.14 0 .24 0 .31.02a.7.7 0 01.25.08c.16.09.24.32.24.71 0 .42-.11.67-.33.75-.1.03-.27.05-.48.05h-3.6c-.42 0-.67-.11-.74-.35a1.4 1.4 0 01-.05-.46v-5.05c0-.3.05-.52.17-.63.12-.11.34-.17.66-.17h3.58c.14 0 .24 0 .31.02a.7.7 0 01.24.08c.17.09.25.33.25.71 0 .43-.11.68-.34.75-.1.03-.26.05-.47.05H47v.92h1.8l.31.01c.07 0 .15.04.24.09.16.08.25.32.25.7 0 .43-.12.68-.35.75-.1.04-.26.05-.47.05H47v.92zM55 36.11l.01-.31c0-.08.04-.16.09-.25.08-.16.32-.24.7-.24.43 0 .68.11.76.33.03.1.04.27.04.48v5.05l-.01.31c0 .07-.04.15-.09.24-.08.16-.32.25-.7.25-.43 0-.68-.12-.75-.35-.04-.1-.05-.25-.05-.46V36.1zM62.22 35.59c.06-.1.15-.18.26-.21.12-.04.26-.06.43-.06.18 0 .31.02.42.05.1.03.19.07.23.1.06.05.1.11.12.2.04.1.05.25.05.46v5.04l-.01.32c-.01.07-.04.14-.1.23-.07.17-.31.25-.7.25-.23 0-.4-.02-.5-.05a.54.54 0 01-.22-.18l-2.69-3.56v3l-.01.3c0 .08-.04.15-.09.24-.08.17-.32.25-.7.25-.38 0-.61-.08-.7-.25a.69.69 0 01-.08-.24l-.02-.32v-5.07c0-.23.03-.4.09-.5.06-.1.14-.18.26-.21.11-.04.26-.06.44-.06s.33.02.43.05c.1.04.18.07.23.12l.2.23a257.6 257.6 0 002.57 3.44V36.1c0-.23.04-.4.1-.5zM68.33 35.3h5.05c.2 0 .34.03.43.07.1.05.15.12.18.21.03.1.05.23.05.39s-.02.28-.05.37a.32.32 0 01-.15.2c-.11.05-.27.08-.46.08h-1.74v4.57l-.01.31c-.01.07-.04.15-.09.23a.39.39 0 01-.24.19 1.5 1.5 0 01-.45.05 1.6 1.6 0 01-.45-.05.38.38 0 01-.24-.19.8.8 0 01-.08-.23l-.02-.31v-4.57h-1.74c-.2 0-.34-.02-.43-.07a.35.35 0 01-.18-.2c-.03-.1-.05-.23-.05-.4 0-.15.02-.28.05-.37.03-.1.08-.16.15-.2.12-.05.27-.08.47-.08zM78.97 35.56c.05-.1.13-.16.25-.2.11-.03.26-.05.43-.05.18 0 .32.02.42.05.1.03.18.07.24.11.05.04.1.1.12.18.03.1.05.26.05.47v5.05c0 .14 0 .24-.02.31 0 .07-.03.15-.08.24-.09.16-.32.25-.71.25-.42 0-.67-.12-.75-.34-.03-.1-.05-.26-.05-.47V39.3h-2.4v1.86l-.02.31c0 .07-.04.15-.09.24-.08.16-.32.25-.7.25-.43 0-.68-.12-.75-.34-.04-.1-.05-.26-.05-.47V36.1l.01-.31c0-.08.04-.16.09-.25.08-.16.32-.24.7-.24.43 0 .68.11.76.33.03.1.04.27.04.48v1.85h2.41v-1.86c0-.14 0-.24.02-.31a.88.88 0 01.08-.24zM83.04 40.36h2.8c.14 0 .24 0 .31.02a.7.7 0 01.24.08c.17.09.25.32.25.71 0 .42-.12.67-.34.75-.1.03-.26.05-.47.05h-3.6c-.42 0-.67-.11-.74-.35-.04-.1-.06-.24-.06-.46v-5.05c0-.3.06-.52.18-.63.11-.11.33-.17.65-.17h3.58c.14 0 .25 0 .32.02a.7.7 0 01.24.08c.16.09.25.33.25.71 0 .43-.12.68-.34.75-.1.03-.26.05-.47.05h-2.8v.92h1.8l.32.01a.7.7 0 01.24.09c.16.08.25.32.25.7 0 .43-.12.68-.35.75-.1.04-.26.05-.47.05h-1.78v.92h-.01zM44.08 47.19c.12-.2.3-.33.53-.4.23-.08.52-.12.86-.12.35 0 .62.04.83.1.2.06.36.13.47.22.1.08.19.2.23.38.08.2.11.52.11.94v5.5c0 1.59-.5 3.04-1.49 4.35a5.44 5.44 0 01-4.4 2.07 5.43 5.43 0 01-4.37-2.1 7 7 0 01-1.47-4.37V48.3c0-.3 0-.51.02-.65s.08-.3.18-.48a.8.8 0 01.49-.39c.23-.07.53-.1.92-.1.4 0 .7.03.93.1.23.08.39.2.47.39.15.28.22.66.22 1.14v5.45c0 .74.18 1.44.55 2.1.18.35.45.62.82.83.36.2.79.3 1.29.3.88 0 1.54-.32 1.98-.97a4 4 0 00.65-2.27v-5.56a2 2 0 01.18-1zM50.23 58.14c-.32-.39-.48-.74-.48-1.05 0-.3.26-.71.78-1.22.3-.3.63-.44.96-.44.34 0 .81.3 1.42.91.17.2.41.4.73.6.31.18.6.27.87.27 1.12 0 1.68-.46 1.68-1.38 0-.28-.15-.51-.46-.7-.3-.19-.69-.33-1.15-.4a10.1 10.1 0 01-2.98-1.07 3.02 3.02 0 01-1.16-1.22 4 4 0 01-.46-1.99c0-1.06.4-2 1.2-2.79.79-.8 1.87-1.19 3.24-1.19.72 0 1.38.1 1.99.28.6.19 1.01.38 1.24.58l.46.34c.37.35.56.65.56.89s-.14.57-.44 1c-.4.6-.83.9-1.27.9a1.88 1.88 0 01-1.15-.54c-.1-.1-.2-.17-.28-.23a1.8 1.8 0 00-.97-.24c-.4 0-.72.1-.98.28a.9.9 0 00-.4.78c0 .34.16.6.47.81.3.2.69.35 1.15.42a13.35 13.35 0 013.01.89c.46.22.85.6 1.16 1.13.3.54.46 1.2.46 2 0 .78-.16 1.47-.47 2.08a3.6 3.6 0 01-1.24 1.39c-.98.64-2.03.96-3.14.96-.57 0-1.1-.07-1.61-.21-.51-.14-.92-.31-1.24-.52a4.36 4.36 0 01-1.34-1.13l-.16-.2zM69.06 47.64l4.91 10.14c.2.4.31.71.31.92 0 .44-.35.83-1.06 1.18-.4.2-.73.31-.97.31a.97.97 0 01-.58-.16 1.06 1.06 0 01-.33-.34l-.28-.55-.94-1.96h-5.04l-.94 1.96-.28.53c-.07.1-.18.22-.33.34a.94.94 0 01-.58.17c-.24 0-.56-.1-.98-.3-.7-.35-1.05-.73-1.05-1.17 0-.2.1-.51.3-.93l4.91-10.15c.14-.28.34-.5.61-.68.28-.17.56-.25.87-.25.66 0 1.14.3 1.45.94zM67.6 52l-1.2 2.49h2.41l-1.21-2.5zM26.43 30.92h57.02v-.01a2.33 2.33 0 001.7-3.6 36.56 36.56 0 00-30.32-16.1 36.57 36.57 0 00-30.2 15.93 2.32 2.32 0 001.8 3.78z"/><path fill="#fff" d="M58.79 19.3L56.65 19l-.95-1.93c-.48-.97-1.25-.97-1.73 0l-.95 1.93-2.15.31c-1 .15-1.27.83-.63 1.54l1.65 1.6-.37 2.14c-.17 1 .39 1.47 1.25 1.08l2.06-1.08 2.06 1.08c.87.38 1.42-.08 1.25-1.08l-.36-2.13 1.64-1.6c.64-.72.38-1.4-.63-1.55zM45.05 20.8l-1.71-.26-.76-1.55c-.38-.76-1-.76-1.39 0l-.76 1.55-1.71.25c-.81.12-1.02.66-.5 1.23l1.31 1.29-.29 1.7c-.14.8.3 1.17 1 .87l1.65-.87 1.64.87c.7.3 1.14-.07 1-.87l-.29-1.7 1.32-1.29c.51-.57.3-1.11-.5-1.23z"/><path fill="#fff" d="M50.87 19.3l2.14-.31.96-1.93c.47-.97 1.24-.97 1.72 0l.96 1.93 2.13.31c1.01.15 1.28.83.64 1.54l-1.65 1.6.36 2.14c.17 1-.38 1.47-1.25 1.08l-2.06-1.08-2.05 1.08c-.87.38-1.42-.08-1.25-1.08l.36-2.13-1.64-1.6c-.64-.72-.38-1.4.63-1.55zM64.6 20.8l1.72-.26.76-1.55c.39-.76 1-.76 1.39 0l.76 1.55 1.71.25c.81.12 1.02.66.5 1.23l-1.3 1.29.28 1.7c.14.8-.3 1.17-1 .87L67.78 25l-1.65.87c-.7.3-1.14-.07-1-.87l.3-1.7-1.32-1.29c-.52-.57-.31-1.11.5-1.23z"/><path fill="#C94141" d="M58.72 64.73c-.64 0-1.17.43-1.17.95v17.69c0 .52.53.89 1.17.82l3.99-.57c.63-.1 1.15-.62 1.15-1.14v-16.8c0-.52-.53-.94-1.17-.94h-3.97zM70.49 64.73c-.65 0-1.17.43-1.17.95v14.84c0 .52.46.74 1.03.5l4.2-2.12c.53-.29.97-.95.97-1.47V65.68c0-.52-.53-.94-1.17-.94h-3.86zM82.15 71.72c.54 0 1.13-.7 1.13-.7.5-.74 2.5-2.7 3.1-5.05a.71.71 0 00.05-.2v-.05-.05c0-.52-.52-.94-1.17-.94H82.14c-.6 0-1.08.36-1.15.82h-.01v5.23c0 .52.53.94 1.17.94zM50.98 64.73c.64 0 1.17.43 1.17.95v17.69c0 .52-.52.89-1.16.82l-4-.57c-.63-.1-1.14-.62-1.14-1.14v-16.8c0-.52.52-.94 1.17-.94h3.96zM39.21 64.73c.65 0 1.17.43 1.17.95v14.84c0 .52-.46.74-1.03.5l-4.2-2.12c-.53-.29-.97-.95-.97-1.47V65.68c0-.52.53-.94 1.17-.94h3.86zM27.55 71.72c-.53 0-1.13-.7-1.13-.7-.5-.74-2.5-2.7-3.1-5.05a.71.71 0 01-.04-.2l-.02-.05h.02v-.05c0-.52.51-.94 1.16-.94h3.12c.6 0 1.08.36 1.15.82h.01v5.23c0 .52-.52.94-1.17.94z"/><mask id="a" width="120" height="97" x="0" y="103" mask-type="alpha" maskUnits="userSpaceOnUse"><path fill="#C4C4C4" d="M0 103h119.58v96.86H0z"/></mask><g mask="url(#a)"><path fill="#fff" d="M117.94 147.12L8.14 175.49l3.55-12.96-9.73-9.3 109.8-28.36-4.84 13.17 11.02 9.08z"/><path fill="#fff" d="M69.04 188.25c21.75-5.62 34.66-27.18 28.84-48.15-5.83-20.97-28.19-33.41-49.94-27.8-21.75 5.63-34.66 27.18-28.83 48.15 5.83 20.97 28.18 33.42 49.93 27.8z"/><path fill="#3A9B2C" d="M69.67 187.59c-17.05 4.4-34.49-2.48-43.76-15.9l-7.25 1.87a2.6 2.6 0 001.97 1.59c1.75.32 3.89.79 4.89 1.96 1 1.16 1.08 3.28 1.08 5a2.6 2.6 0 002.92 2.53c5.19-.47 6.25.29 7.7 5.02v.04a2.66 2.66 0 003.56 1.63c4.8-1.84 6.05-1.45 8.84 2.72l.02.03a2.7 2.7 0 003.86.63c1.4-1.07 3.18-2.32 4.76-2.28 1.55.05 3.21 1.36 4.53 2.48 1.17 1 2.97.8 3.88-.41 1.06-1.4 2.42-3.1 3.94-3.5 1.37-.34 2.8.11 5.12 1.13l.05.02a2.67 2.67 0 003.58-1.46c.4-1.1.88-2.34 1.44-3.17 1.42-2.12 3.51-1.97 6.5-1.55h.05c1.54.22 2.94-.89 3.02-2.39.07-1.4.2-3.04.71-4.08 1-2 3.47-2.33 5.56-2.6a2.55 2.55 0 002.22-3.12l-.01-.04c-1.2-4.81-.67-5.98 4.06-8.06l.03-.01a2.5 2.5 0 001.19-3.6c-.9-1.48-1.93-3.33-1.66-4.84.25-1.48 1.86-2.94 3.21-4.06a2.5 2.5 0 00.88-2.32l-7.23 1.87c-1.07 16.1-12.6 30.46-29.66 34.87zM48.91 112.88c17.06-4.4 34.5 2.48 43.77 15.9l7.24-1.87a2.6 2.6 0 00-1.98-1.6c-1.75-.32-3.88-.79-4.89-1.96-1-1.16-1.08-3.28-1.07-5a2.6 2.6 0 00-2.93-2.53c-5.12.46-6.22-.23-7.69-5.02l-.01-.05a2.66 2.66 0 00-3.5-1.65c-.85.33-1.74.67-2.46.85-3.31.86-4.59-.77-6.44-3.55l-.03-.04a2.7 2.7 0 00-3.84-.62c-1.15.87-2.49 1.84-3.7 2.16-2.1.54-4.1-1.02-5.67-2.35a2.7 2.7 0 00-3.9.44c-1.03 1.41-2.28 3.06-3.86 3.46-1.53.4-3.58-.4-5.23-1.12a2.67 2.67 0 00-3.58 1.53c-.55 1.6-1.31 3.53-2.63 4.31-1.43.85-3.44.57-5.26.32h-.04a2.61 2.61 0 00-3.01 2.4c-.07 1.39-.18 3.02-.7 4.07-1 1.99-3.48 2.33-5.57 2.6a2.55 2.55 0 00-2.22 3.12c.43 1.69.9 3.68.2 5.1-.7 1.36-2.66 2.32-4.28 3.03a2.5 2.5 0 00-1.18 3.62c2.57 4.3 2.38 5.55-1.54 8.82l-.03.03c-.72.6-1.02 1.5-.87 2.34l7.24-1.87c1.08-16.1 12.6-30.46 29.66-34.87z"/><path fill="#3A9B2C" d="M24.98 134.93l-.57-.25-.52 1.12.58.24.5-1.1zM28.78 128.71l-.51-.36-.73 1 .52.35.72-.99zM24 137.16l-.59-.22c-.15.38-.3.76-.43 1.15l.6.2c.13-.38.27-.76.42-1.13zM27.37 130.7l-.53-.32c-.23.34-.45.7-.66 1.05l.54.3.65-1.02zM26.1 132.78l-.55-.29-.6 1.08.57.28.58-1.07zM86.32 123.88l-.91-.85-.43.45.9.83.44-.43zM21.67 146.52l-.62-.06-.08.85.64-.17.06-.62zM22.52 141.76l-.62-.14-.27 1.2.61.12.28-1.18zM22.01 144.13l-.62-.1-.2 1.2.63.09c.06-.4.12-.8.2-1.2zM23.18 139.43l-.6-.18-.36 1.18.6.16.36-1.16zM56.21 113.29l-1.26.12.07.6 1.24-.11-.05-.61zM68.83 114.33l-1.23-.29-.14.6c.4.08.82.18 1.22.28l.15-.6zM73.67 115.86l-1.2-.44-.2.57 1.16.44.24-.57zM31.98 125.02l-.45-.42-.87.9.47.4.85-.88zM66.35 113.8a41.1 41.1 0 00-1.26-.2l-.1.6c.42.05.83.12 1.24.2l.12-.6zM63.83 113.43c-.42-.05-.85-.1-1.27-.13l-.05.6 1.25.13.07-.6zM61.3 113.22l-1.28-.05-.01.61a40 40 0 011.25.05l.03-.61zM58.75 113.17c-.42 0-.85.02-1.27.04l.03.6c.41-.01.83-.03 1.25-.03l-.01-.6zM82.49 120.68c-.34-.25-.69-.49-1.03-.72l-.36.5 1 .7.39-.48zM75.99 116.85l-1.15-.51-.26.55 1.14.51.27-.55zM84.46 122.22l-.97-.79-.4.48c.32.25.64.5.96.77l.4-.46zM78.24 118l-1.11-.6-.3.54 1.1.58.31-.53zM80.4 119.27l-1.06-.66-.33.52 1.05.65.35-.51zM71.28 115.02l-1.22-.37-.18.59 1.2.36.2-.58zM39.75 119.02l-.32-.52c-.37.21-.73.43-1.08.65l.34.51 1.06-.64zM37.65 120.33l-.36-.5-1.03.72.38.49c.33-.24.67-.48 1.01-.7zM44.2 116.81l-.26-.55-1.16.5.27.55 1.14-.5zM41.93 117.85l-.29-.54c-.37.18-.75.38-1.12.58l.31.53c.36-.2.73-.39 1.1-.57zM33.76 123.34l-.42-.45-.92.84.44.44.9-.83zM35.66 121.78l-.4-.48-.97.78.4.46.97-.76zM51.19 114.01l-1.24.28.15.59c.4-.1.82-.2 1.22-.28l-.13-.59zM53.69 113.57a41 41 0 00-1.26.2l.12.6 1.23-.2-.1-.6zM90.45 128.51l-.51.36.38.52.65-.17-.52-.71zM48.9 115.19l-.18-.58c-.4.1-.81.23-1.21.35l.19.58a40 40 0 011.2-.35zM46.52 115.93l-.22-.58-1.19.44.24.56c.38-.14.77-.29 1.17-.42zM30.32 126.82l-.49-.4-.8.96.5.37c.26-.31.52-.63.79-.93zM89.19 127.9l.5-.37-.8-.95-.48.39.78.94zM88.07 125.65l-.86-.9-.46.42.85.89.47-.4zM47.78 131.66l-.33-.52c-.36.2-.72.43-1.07.66l.36.5c.34-.22.69-.44 1.04-.64zM65.67 129.49c.39.11.78.24 1.17.37l.21-.57c-.4-.14-.8-.27-1.2-.38l-.18.58zM39.47 138.87l.54.3c.2-.33.43-.67.66-1l-.52-.34c-.24.34-.47.69-.68 1.04zM54.06 129.2l.6-.13-.14-.6a25.13 25.13 0 00-1.2.29h-.03l.16.59h.02l.6-.15zM72.3 132.61c.34.23.67.47 1 .72l.39-.48c-.33-.25-.68-.5-1.02-.73l-.36.5zM70.52 130.8l-.3.54 1.06.6.34-.5a23.4 23.4 0 00-1.1-.63zM68 130.3c.37.15.75.31 1.12.49l.28-.55c-.38-.18-.77-.35-1.16-.5l-.25.55zM64.62 128.59c-.42-.1-.83-.18-1.25-.25l-.11.6c.4.07.81.15 1.21.24l.15-.59zM38.29 141.04l.57.25c.17-.36.36-.72.55-1.07l-.56-.28c-.2.36-.39.73-.56 1.1zM45.35 132.51c-.33.25-.67.5-.99.77l.41.46.96-.75-.38-.48zM52.07 129.11l-1.2.42.23.56c.39-.14.78-.28 1.17-.4l-.2-.58zM58.3 128.01l.03.6c.41 0 .83-.02 1.24-.01v-.6c-.42-.01-.85 0-1.27.01zM55.87 128.85c.4-.06.82-.1 1.23-.15l-.07-.6-1.26.15.1.6zM48.56 130.54l.3.54c.36-.18.73-.36 1.1-.52l-.26-.56-1.14.54zM42.52 134.96l.46.42c.28-.29.57-.57.87-.84l-.43-.44-.9.86zM62.11 128.16c-.42-.06-.85-.1-1.27-.12l-.04.6c.41.03.83.07 1.23.12l.08-.6zM40.88 136.83l.5.37c.25-.31.51-.63.78-.93l-.48-.4c-.28.32-.54.64-.8.96zM38.38 142.39l-.58-.22-.34.88.74-.2.18-.46zM55.02 132.03l-1.23-1.6-.23 1.98-1.96.63 1.88.82.02 1.99 1.39-1.47 1.96.6-1.01-1.73 1.2-1.62-2.02.4zM61.76 131.68l-.94-1.22-.18 1.5-1.5.5 1.44.62.01 1.53 1.07-1.13 1.5.46-.77-1.32.91-1.24-1.54.3zM66.91 134.9l.97.29.1-.03-.53-.9.67-.91-1.13.22-.7-.9-.12 1.11-1.1.36 1.05.46.01 1.04.1-.03.68-.72z"/><path fill="#3A9B2C" d="M66.23 135.61l-.1.03v.08l.1-.1zM68.02 135.23l-.04-.07-.1.03.14.04zM48.66 135.06l-.94-1.22-.18 1.51-1.5.49 1.44.63.01 1.52 1.07-1.12 1.5.46-.77-1.33.91-1.24-1.54.3zM44.74 140.62l.96.3.1-.03-.53-.9.68-.91-1.14.22-.69-.9-.13 1.11-1.1.36 1.05.46.01 1.04.1-.03.69-.72z"/><path fill="#3A9B2C" d="M45.84 140.96l-.04-.07-.1.03.14.04zM44.05 141.34l-.1.03v.08l.1-.1zM31.4 175.73c.28.3.58.59.88.88l.44-.44c-.3-.28-.59-.57-.87-.86l-.46.42zM29.7 173.9l.83.93.47-.4-.8-.91-.5.38zM33.2 177.45l.94.81.42-.46-.94-.8-.42.45zM35.12 179.05l1 .75.38-.48-.99-.75-.4.48zM37.15 180.52c.34.24.7.47 1.05.7l.34-.52c-.34-.22-.7-.44-1.03-.67l-.36.5zM28.66 171.62l-.5.35.75.98.5-.37-.75-.96zM39.6 181.35l-.33.52 1.1.62.3-.53-1.07-.61zM77.77 182.04l.31.53c.37-.2.74-.4 1.1-.62l-.33-.52c-.35.2-.71.41-1.08.6zM75.55 183.14l.27.55c.39-.17.77-.35 1.14-.54l-.29-.54-1.12.53zM79.91 180.8l.35.5 1.05-.68-.36-.5-1.04.67zM81.96 179.41l.38.49 1-.75-.4-.47c-.31.24-.65.5-.98.73zM73.26 184.1l.23.57c.4-.15.8-.3 1.18-.47l-.25-.56-1.16.47zM83.9 177.9l.42.47.95-.81-.43-.45-.93.8zM85.74 176.28l.45.44.89-.88-.46-.42c-.29.3-.58.58-.88.86zM70.9 184.92l.2.58 1.2-.4-.2-.57-1.2.39zM58.59 187.3h1.27l-.01-.61H58.6l-.01.6zM63.66 187.05c.42-.04.85-.1 1.26-.16l-.1-.6-1.23.16.07.6zM66.18 186.7l1.24-.25-.13-.6c-.4.1-.82.17-1.23.24l.12.6zM68.5 185.58l.16.6a59.87 59.87 0 001.23-.33l-.18-.58c-.4.1-.8.22-1.2.31zM61.13 187.25c.42-.01.85-.04 1.27-.08l-.05-.6-1.25.08.03.6zM95.18 163.5l-.59-.21c-.15.37-.3.75-.47 1.12l.58.23c.17-.37.33-.75.48-1.13zM93.07 166.6l.57.27.55-1.1-.57-.26-.55 1.09zM96.69 158.82l-.62-.14-.3 1.17.6.16.32-1.19zM97.54 153.98l-.63-.06-.14 1.2.62.08c.06-.4.1-.81.15-1.22zM89.07 172.7l.5.37.76-.98-.51-.36c-.24.33-.5.65-.75.96zM90.54 170.75l.52.34.7-1.02-.53-.33-.69 1zM91.88 168.71l.54.31c.21-.35.43-.7.63-1.06l-.56-.3-.61 1.05zM97.2 156.42l-.62-.1-.23 1.18.61.13c.09-.4.17-.81.24-1.21zM87.47 174.54l.47.4c.28-.3.56-.6.83-.92l-.49-.39-.81.91zM96.01 161.19l-.6-.18c-.12.38-.25.77-.39 1.15l.6.2.4-1.17zM51.01 186.43c.41.09.83.17 1.25.24l.12-.6c-.41-.07-.83-.15-1.23-.24l-.14.6zM43.77 184.14l1.17.47.24-.56c-.39-.15-.77-.3-1.15-.47l-.26.56zM46.13 185.05c.4.14.8.28 1.2.4l.2-.57c-.4-.13-.8-.26-1.18-.4l-.22.57zM56.05 187.17l1.27.08.03-.6-1.25-.09-.05.6zM53.52 186.88c.41.06.84.12 1.26.16l.07-.6-1.24-.16-.1.6zM41.48 183.07c.38.2.76.38 1.14.55l.27-.55c-.37-.17-.75-.35-1.12-.54l-.29.54zM48.55 185.82l1.22.32.16-.59a39 39 0 01-1.2-.32l-.18.59zM47.32 168.53c-.35-.22-.7-.44-1.03-.67l-.36.5 1.05.68.34-.51zM49.48 169.69c-.37-.18-.74-.36-1.1-.56l-.3.54c.37.2.74.39 1.12.56l.28-.54zM75.62 165.07l.46.42c.28-.3.57-.6.84-.91l-.48-.4-.82.9zM51.76 170.61c-.39-.13-.77-.28-1.15-.43l-.25.56c.4.16.79.3 1.19.44l.21-.57zM78.45 162.62l-.53-.34c-.22.33-.47.66-.71.97l.5.37c.26-.33.5-.66.74-1zM80.8 158.28l-.6-.22c-.14.37-.3.74-.47 1.1l.57.25c.18-.37.34-.75.5-1.13zM79.74 160.51l-.55-.28-.6 1.04.54.31c.21-.35.42-.7.61-1.07zM44.91 167.62l.4-.47-.46-.36-.74.2.8.63zM65.31 171.7c.41-.1.82-.22 1.22-.35l-.2-.58c-.39.12-.78.24-1.18.34l.16.59zM62.83 172.2c.41-.05.83-.13 1.25-.21l-.13-.6c-.4.08-.81.16-1.22.22l.1.6zM54.13 171.29l-1.2-.3-.17.57c.4.12.82.23 1.23.32l.14-.6zM75.18 166.36l-.44-.44-.91.8.4.46c.33-.27.64-.54.95-.82zM56.57 171.7c-.41-.04-.82-.1-1.23-.17l-.1.6c.4.07.83.13 1.25.18l.08-.6zM72.87 167.46l-1 .7.35.5c.35-.23.7-.47 1.03-.72l-.38-.48zM57.76 172.43c.42.03.85.04 1.27.04v-.6c-.4 0-.82-.02-1.23-.05l-.04.6zM60.3 172.45c.42-.01.85-.04 1.27-.09l-.07-.6c-.4.04-.82.07-1.23.09l.03.6zM67.73 170.93c.39-.15.78-.3 1.17-.47l-.27-.56c-.37.17-.75.32-1.13.47l.23.56zM69.74 169.38l.3.54 1.1-.6-.32-.53c-.35.2-.71.4-1.08.59zM65.03 168.06l1.95-.63-1.88-.83-.01-1.98-1.4 1.46-1.96-.6 1.02 1.73-1.2 1.62 2.02-.4 1.22 1.6.24-1.97zM69.93 165.4l.94 1.23.18-1.52 1.5-.48-1.44-.63-.02-1.53-1.06 1.13-1.51-.46.78 1.33-.92 1.24 1.55-.3zM72.64 161.39l1.13-.22.7.9.12-1.12 1.1-.35-1.05-.46v-1.04l-.11.02-.68.72-.97-.3-.1.03.53.9-.67.92z"/><path fill="#3A9B2C" d="M72.74 159.5l.04.07.1-.02-.14-.04zM74.63 159.02l-.1.1.1-.02v-.08zM56.83 168.78l.94 1.23.18-1.51 1.5-.49-1.44-.63-.02-1.52-1.06 1.12-1.51-.46.78 1.33-.92 1.24 1.55-.3zM50.46 167.12l1.14-.23.69.9.13-1.1 1.1-.36-1.06-.47v-1.04l-.1.03-.69.72-.97-.3-.1.03.54.9-.68.92z"/><path fill="#3A9B2C" d="M50.56 165.24l.04.06.1-.02-.14-.04zM52.45 164.75l-.1.1.1-.02v-.08zM31.54 140.35l-1-.34.92-2.51 2.39.81a3.96 3.96 0 01.01 2.79c-.22.6-.55 1.09-.98 1.44-.43.36-.93.57-1.5.63a4.02 4.02 0 01-3.24-1.16c-.4-.42-.63-.91-.7-1.49-.07-.44 0-.93.2-1.48.27-.72.63-1.23 1.1-1.52.46-.3.98-.4 1.57-.34l-.2 1.24c-.32-.02-.61.05-.86.22-.26.17-.45.42-.57.75-.19.51-.17.97.05 1.39.23.41.67.73 1.33.96.7.25 1.3.28 1.76.1.47-.19.8-.53.98-1.02.09-.24.13-.5.12-.78 0-.28-.05-.54-.13-.76l-.76-.26-.49 1.33zM29.74 134.56l.7-1.04 2.89 1.8c.46.29.76.46.92.52.24.09.49.1.73 0 .25-.08.47-.27.66-.56.2-.3.29-.55.26-.78a.84.84 0 00-.28-.56 7.13 7.13 0 00-.88-.6l-2.95-1.84.7-1.04 2.8 1.74c.64.4 1.08.7 1.3.93.23.22.38.46.47.73.08.26.09.55.03.87-.07.32-.23.69-.5 1.1-.33.49-.64.82-.93 1a2 2 0 01-.86.32c-.29.03-.55 0-.79-.08a7.76 7.76 0 01-1.42-.74l-2.85-1.77zM42.57 129.13l-1 .95-1.4-.62-1.82 1.71.63 1.35-.97.92-2.68-6.05.97-.91 6.27 2.65zm-3.45-.13l-2.28-1.03 1.04 2.2 1.24-1.17zM42.9 128.96l-3.35-5.2 2.29-1.37a4.72 4.72 0 011.35-.62c.32-.06.64-.02.95.12.3.15.56.38.76.68.25.4.34.79.27 1.18-.08.4-.33.78-.76 1.13.32-.01.61.02.87.08.25.07.64.23 1.16.47l1.31.62-1.3.79-1.52-.66c-.54-.24-.9-.38-1.06-.43a1.03 1.03 0 00-.47-.02c-.14.04-.34.13-.59.28l-.22.13 1.4 2.17-1.09.65zm-.84-3.65l.8-.48c.52-.32.84-.54.94-.66.1-.12.16-.25.16-.4 0-.15-.04-.3-.14-.46a.75.75 0 00-.42-.33.8.8 0 00-.54.04c-.1.04-.36.2-.8.46l-.86.5.86 1.33z"/><path fill="#3A9B2C" d="M53.54 124.14l-1.32.44-1-1.14-2.4.8-.02 1.49-1.29.43.25-6.57 1.29-.43 4.49 4.98zm-3.06-1.54l-1.6-1.87-.04 2.42 1.64-.55zM53.92 124.12l-.71-6.09 1.24-.13 3.06 3.78-.48-4.06 1.19-.13.71 6.09-1.28.14-3.01-3.7.46 3.98-1.18.12zM61.42 123.74l.48-5.07-1.88-.17.1-1.03 5.03.44-.1 1.03-1.88-.16-.48 5.07-1.27-.11zM65.1 124.13l1.8-5.88 4.51 1.28-.3 1-3.29-.93-.4 1.3 3.06.87-.3.99-3.06-.87-.49 1.6 3.4.97-.3.99-4.63-1.32zM70.46 125.75l3-5.4 4.15 2.14-.5.91-3.03-1.56-.66 1.2 2.81 1.45-.5.91-2.82-1.45-.81 1.47 3.13 1.61-.5.92-4.27-2.2zM79.49 123.7l1.78 1.46c.4.33.69.6.85.84a2 2 0 01.35 1.03c.02.37-.05.75-.2 1.13-.16.39-.44.8-.82 1.24-.34.38-.68.67-1.03.87-.42.24-.83.37-1.24.4-.31.02-.65-.04-1.02-.19a3.9 3.9 0 01-.95-.61l-1.84-1.5 4.12-4.68zm.28 1.58l-2.73 3.1.73.6c.28.22.49.37.63.43.2.1.38.14.57.13.18 0 .4-.08.65-.24.25-.15.54-.41.85-.77.32-.36.53-.67.64-.92.1-.24.14-.47.12-.67-.02-.21-.11-.4-.26-.6a5.81 5.81 0 00-.76-.7l-.44-.36zM40.08 173.85l.67-.8 2.16 1.66-1.58 1.9a4.3 4.3 0 01-2.74-.9c-.52-.4-.89-.85-1.1-1.36a2.48 2.48 0 01-.12-1.57c.13-.54.39-1.04.77-1.5.41-.5.89-.85 1.42-1.07a2.9 2.9 0 011.7-.16c.44.09.9.31 1.38.68.62.47 1 .97 1.13 1.48a2.1 2.1 0 01-.18 1.55l-1.15-.58c.13-.3.15-.58.07-.87a1.47 1.47 0 00-.55-.76c-.44-.34-.9-.47-1.38-.4-.48.07-.94.36-1.38.9-.47.56-.7 1.09-.67 1.57.03.49.26.9.68 1.22.2.16.45.28.73.37.28.08.54.13.78.13l.5-.6-1.14-.9zM45.31 172.78l1.16.54-1.5 2.99a6.8 6.8 0 00-.42.94.96.96 0 00.08.71c.12.22.34.41.66.56.33.15.6.2.84.15a.89.89 0 00.54-.33c.13-.18.3-.48.52-.92l1.53-3.05 1.16.54-1.46 2.9c-.33.66-.6 1.11-.8 1.36a1.77 1.77 0 01-1.59.66 3.34 3.34 0 01-1.18-.34c-.55-.26-.93-.51-1.15-.76a1.89 1.89 0 01-.43-.79 1.63 1.63 0 01-.02-.76c.08-.35.28-.84.59-1.45l1.47-2.95zM54.74 182.45l-1.36-.32-.2-1.48-2.47-.57-.85 1.23-1.32-.3 3.9-5.4 1.32.3.98 6.54zm-1.7-2.9l-.3-2.4-1.39 2.01 1.69.4zM56.28 182.58l.14-6.13 2.7.06a4.8 4.8 0 011.47.2c.3.11.55.31.73.6.18.28.26.6.25.97a1.6 1.6 0 01-.44 1.13c-.29.3-.71.47-1.27.54.27.16.5.34.67.53.18.19.42.52.71 1l.75 1.22-1.53-.03-.9-1.36a8.73 8.73 0 00-.66-.91.98.98 0 00-.38-.26 2.18 2.18 0 00-.64-.09h-.26l-.06 2.55-1.28-.02zm1.36-3.51l.95.02c.62.01 1 0 1.15-.05a.7.7 0 00.37-.25.78.78 0 00.14-.46c0-.2-.05-.37-.16-.5a.8.8 0 00-.48-.25c-.1-.02-.41-.03-.93-.04l-1-.02-.04 1.55zM69.16 181.43l-1.37.26-.83-1.26-2.49.48-.23 1.46-1.34.25 1.2-6.47 1.33-.25 3.73 5.53zm-2.8-1.93l-1.32-2.07-.39 2.39 1.7-.32zM70.61 180.93l-2.53-5.62 1.15-.48 4.07 2.75-1.68-3.75 1.09-.46 2.53 5.62-1.19.5-4-2.69 1.65 3.67-1.09.46zM78.26 177.17L75.25 173l-1.55 1.04-.62-.85 4.15-2.78.62.85-1.55 1.03 3.01 4.19-1.05.7zM82.05 174.43l-4.55-4.28 3.3-3.25.76.73-2.4 2.36 1.02.95 2.23-2.2.76.72-2.23 2.2 1.24 1.17 2.48-2.45.77.72-3.38 3.33zM86.58 169.67l-5.34-3.32 2.56-3.82.9.56-1.86 2.78 1.19.74 1.73-2.59.9.56-1.73 2.59 1.45.9 1.92-2.88.9.56-2.62 3.92zM84.15 161.94l.82-2.12c.19-.47.37-.82.54-1.05.24-.3.53-.52.89-.66a2.9 2.9 0 011.18-.2c.42.01.92.12 1.47.32.5.18.9.4 1.2.64.38.3.65.63.81 1 .13.27.18.6.16.98-.02.28-.1.64-.27 1.07l-.85 2.18-5.95-2.16zm1.46-.8l3.94 1.44.33-.87c.13-.32.2-.56.22-.72.02-.2 0-.39-.07-.56a1.31 1.31 0 00-.45-.5 4.24 4.24 0 00-1.05-.52 3.9 3.9 0 00-1.1-.27c-.28 0-.51.03-.7.12-.2.1-.36.24-.5.44-.1.15-.24.46-.42.93l-.2.52zM106.9 137.94l4.8-13.29-11.62 3-6.95 1.8-17.97 4.64-.72.19-55.23 14.27-6.96 1.8-11.61 3 11.05 9.18-4.8 13.28 11.6-3 6.96-1.8 1.7-.44.64-.16 52.9-13.67.72-.18 15.62-4.04.64-.17 1.7-.43 6.95-1.8 11.63-3-11.06-9.19zm2-11.69l1.21-.3.1.31-1.21.31-.1-.32zm-2.4.63l1.2-.31.09.31-1.2.32-.1-.32zm-2.42.62l1.2-.31.1.32-1.21.31-.1-.32zM3.98 153.7l-1.2.32-.1-.32 1.21-.31.09.32zm2.41-.62l-1.2.31-.1-.32 1.21-.3.1.31zm2.42-.62l-1.21.3-.09-.3 1.2-.32.1.32zm.89 21.82l-1.21.32-.09-.32 1.2-.31.1.31zm2.41-.62l-1.2.31-.1-.31 1.21-.32.1.32zm2.42-.62l-1.21.3-.09-.3 1.2-.32.1.32zm84.72-44.3l.72-.18.49-.12.09.32-.7.17-.51.14-.09-.32zm-2.41.63l1.2-.3.1.3-1.22.32-.08-.32zm-2.42.63l1.2-.31.1.31-1.21.31-.09-.31zm-2.34.87l-.07-.25 1.2-.31.1.32-1.2.3h-.01l-.02-.06zm-2.49.37l1.21-.3.09.31-1.2.31-.1-.32zm-2.41.63l1.2-.31.1.31-1.21.32-.1-.32zm-2.42.62l1.21-.31.09.32-1.2.31-.1-.32zm-2.4.63l1.2-.32.09.32-1.21.31-.09-.31zm-2.42.62l1.2-.31.1.31-1.22.32-.08-.32zm-2.42.62l1.2-.3.1.3-1.2.32-.1-.32zm-4.83 1.25l1.21-.31.09.32-1.2.3-.1-.31zm-2.41.62l1.2-.3.1.31-1.21.31-.09-.32zm-2.41.63l1.2-.31.1.31-1.22.32-.08-.32zm-2.42.62l1.2-.31.1.32-1.21.31-.09-.32zm-2.41.63l1.2-.32.1.32-1.21.31-.1-.31zm-2.42.62l1.21-.31.09.32-1.2.3-.1-.31zm-2.41.62l1.2-.3.1.3-1.21.32-.1-.32zm-2.42.63l1.21-.31.09.31-1.2.31-.1-.31zm-2.4.62l1.2-.31.09.32-1.21.3-.09-.31zm-2.42.62l1.2-.3.1.31-1.22.31-.08-.32zm-2.42.63l1.2-.31.1.31-1.2.32-.1-.32zm-2.41.62l1.2-.31.1.32-1.21.3-.1-.3zm-7.24 1.87l1.2-.3.1.3-1.22.32-.08-.32zm-2.42.63l.43-.11.7-.18.08-.03.09.32-.27.07-.7.18-.24.06-.09-.31zm-2.41.62l1.2-.31.1.32-1.21.3-.1-.31zm-2.42.62l1.21-.3.09.31-1.2.31-.1-.32zm-2.41.63l1.2-.31.1.31-1.21.32-.1-.32zm-2.42.62l1.21-.31.09.32-1.2.3-.1-.3zm-2.41.63l1.2-.32.1.32-1.21.31-.09-.31zm-2.41.62l1.2-.31.1.31-1.22.32-.08-.32zm-2.42.62l1.2-.31.08.25.02.07h-.02l-1.19.31-.09-.32zm-4.83 1.25l1.21-.31.09.32-1.2.3-.1-.31zm-2.41.62l.49-.12.72-.19.08.32-.51.13-.7.18-.08-.32zm4.6 21.21l-1.2.32-.1-.32 1.21-.31.09.31zm-5.72-20.58l-1.2.31-.1-.31 1.21-.32.1.32zm8.13 19.96l-.77.2-.43.11-.1-.32.64-.16.58-.15.08.32zm2.42-.62l-1.2.3-.1-.31 1.21-.31.09.32zm-1.18-6.03l-1.6.42-1.88-6.78c-.42.76-.98 1.4-1.7 1.9l-.44-1.64c.37-.26.74-.67 1.11-1.22.38-.56.57-1.14.6-1.76l1.3-.34 2.61 9.42zm3.6 5.4l-1.21.31-.1-.31 1.21-.31.1.31zm-5.73-20.58l-1.2.31-.1-.31 1.22-.32.08.32zm8.14 19.96l-1.21.31-.09-.32 1.2-.3.1.3zm2.41-.63l-1.2.32-.1-.32 1.21-.31.1.31zm-1.65-6.75a2.2 2.2 0 01-1.62 1.45c-.81.2-1.57.02-2.26-.55-.7-.57-1.29-1.76-1.79-3.56-.49-1.77-.57-3.11-.24-4.03a2.2 2.2 0 011.63-1.45 2.3 2.3 0 012.16.49c.76.62 1.39 1.83 1.88 3.6.5 1.78.58 3.13.24 4.05zm4.07 6.13l-1.21.31-.09-.31 1.2-.32.1.32zm2.4-.62l-1.2.31-.09-.32 1.21-.31.09.32zm2.42-.63l-1.2.32-.1-.32 1.21-.31.1.31zm-2.4-6.56a2.2 2.2 0 01-1.62 1.45c-.81.2-1.56.03-2.26-.55-.69-.57-1.29-1.76-1.79-3.56-.49-1.76-.57-3.1-.24-4.02a2.2 2.2 0 011.63-1.45 2.3 2.3 0 012.17.48c.75.63 1.38 1.83 1.87 3.6.5 1.78.58 3.13.25 4.05zm4.82 5.94l-1.2.31-.1-.32 1.2-.3.1.31zm-3.64-10.96c-.44-.31-.78-.9-1.01-1.74-.23-.84-.24-1.5-.03-2 .22-.49.6-.8 1.17-.95.58-.15 1.1-.06 1.53.25.44.32.78.9 1.02 1.75.23.84.24 1.5.02 2-.21.48-.6.8-1.16.95-.59.15-1.1.06-1.54-.25zm4.62-5.85l1.15-.3-1.67 11.05-1.18.3 1.7-11.05zm1.43 16.19l-1.2.3-.1-.31 1.21-.31.1.32zm2.42-.63l-.04.01-.7.18-.47.13-.09-.32.29-.08.7-.18.22-.05.09.31zm2.41-.62l-1.2.31-.1-.32 1.21-.3.09.3zm-1.16-6.28c-.22.5-.6.81-1.17.96-.58.15-1.09.06-1.53-.26-.44-.32-.78-.9-1.02-1.75-.23-.84-.24-1.5-.02-2 .21-.48.6-.8 1.18-.95a1.73 1.73 0 011.52.26c.44.32.78.9 1.01 1.74.24.85.25 1.51.03 2zm3.57 5.66l-1.2.3-.1-.31 1.22-.31.08.31zm-5.71-20.59l-1.21.32-.09-.32 1.2-.31.1.31zm8.13 19.96l-1.2.31-.1-.31 1.21-.32.09.32zm-5.72-20.58l-1.2.31-.1-.31 1.21-.32.09.32zm8.13 19.96l-1.2.31-.1-.32 1.21-.31.1.32zm2.42-.63l-1.21.32-.09-.32 1.2-.31.1.31zm2.41-.62l-1.2.31-.1-.32 1.21-.3.1.31zm-1.39-5.97l-1.69.44-5.07-5.25 1.7 6.12-1.57.4-2.6-9.38 1.64-.42 5.16 5.38-1.74-6.27 1.57-.4 2.6 9.38zm3.8 5.35l-1.2.3-.09-.31 1.2-.31.1.32zm2.42-.63l-1.2.31-.1-.31 1.21-.31.09.31zm2.41-.62l-1.2.31-.1-.32 1.22-.3.08.3zm-2.47-7.97l-3.34.86-.1 2.3-1.78.47.64-10.22 1.79-.46 5.95 8.52-1.83.47-1.33-1.94zm4.89 7.35l-1.2.3-.1-.31 1.2-.31.1.32zm2.41-.63l-1.2.31-.1-.31 1.21-.32.1.32zm2.42-.62l-1.21.31-.09-.32 1.2-.31.1.32zm-2.65-14l-2.48.64 2.17 7.8-1.69.43-2.17-7.8-2.47.65-.45-1.6 6.64-1.7.45 1.58zm5.06 13.37l-1.2.32-.1-.32 1.21-.31.09.31zm2.41-.62l-1.2.31-.1-.32 1.22-.3.08.31zm2.42-.62l-1.2.3-.1-.3 1.21-.32.09.32zm-1.65-6.04c-.36.3-.86.53-1.53.7-.8.2-1.43.26-1.9.16a2.8 2.8 0 01-1.96-1.47c-.26-.51-.54-1.29-.83-2.34l-1.39-5 1.69-.44 1.41 5.08c.22.8.4 1.33.5 1.55.18.37.44.63.77.8.34.16.74.18 1.21.06.48-.13.81-.33 1-.61.18-.29.25-.6.2-.93-.03-.33-.15-.87-.36-1.61l-1.44-5.2 1.68-.43 1.37 4.93c.32 1.13.5 1.94.53 2.43a2.58 2.58 0 01-.95 2.33zm4.06 5.41l-1 .26-.17.04-.03.01-.1-.31 1.21-.31.1.31zM76.4 135l-1.2.31-.1-.31 1.22-.31.08.31zm8.14 19.96l-1.21.31-.09-.32 1.2-.3.1.3zm2.41-.62l-1.2.3-.1-.31 1.21-.31.1.32zm-3-9.22a1.38 1.38 0 00-.63-.26c-.2-.02-.49.01-.87.11l-.35.1 1.1 3.91-1.7.44-2.6-9.39 3.55-.92c.9-.23 1.56-.3 2.02-.25.45.07.85.28 1.22.65.36.37.62.83.77 1.39.2.7.18 1.33-.06 1.88-.25.56-.72.99-1.42 1.3.43.14.8.33 1.13.55.31.23.77.65 1.38 1.28l1.53 1.56L87 148l-1.79-1.73c-.63-.62-1.06-1-1.27-1.15zm5.42 8.6l-1.21.3-.09-.31 1.2-.32.1.32zm2.4-.63l-1.2.31-.09-.32 1.21-.31.09.32zm2.42-.63l-1.2.32-.1-.32 1.22-.31.08.32zm2.42-.62l-1.2.31-.1-.31 1.2-.32.1.32zm2.41-.62l-1.2.3-.1-.3 1.21-.32.1.32zm-2.94-5.57l-1.33-1.94-3.34.86-.1 2.31-1.78.46.64-10.22 1.79-.46 5.95 8.52-1.83.47zm5.36 4.94l-1.21.31-.09-.31 1.2-.32.1.32zm2.41-.62l-1.2.31-.1-.32 1.21-.3.09.31zm2.41-.62l-.43.1-.77.2-.1-.31.58-.15.64-.16.08.32zm-1.53-5.94l-5.88 1.52-2.58-9.3 1.68-.44 2.15 7.73 4.2-1.09.43 1.58zm3.95 5.31l-1.2.31-.1-.31 1.21-.32.09.32zm-5.72-20.58l-1.2.31-.1-.31 1.21-.32.09.32zm8.13 19.96l-1.2.31-.1-.32 1.21-.31.1.32zm2.42-.63l-1.21.32-.09-.32 1.2-.31.1.31zm2.41-.62l-1.2.31-.1-.31 1.21-.32.1.32z"/><path fill="#3A9B2C" d="M91.5 142.85l2.27-.6-2.11-3.18-.17 3.78zM24.07 155.97a.77.77 0 00-1.04.27c-.11.18-.16.45-.15.83.02.5.19 1.3.5 2.4.3 1.1.56 1.84.77 2.23.21.38.41.63.6.72.2.1.38.13.58.08.19-.06.34-.17.46-.35.11-.18.16-.45.14-.83-.02-.5-.18-1.29-.48-2.39s-.57-1.84-.78-2.23c-.22-.39-.42-.63-.6-.73zM35.44 152.16a.45.45 0 00-.33.33c-.07.24-.02.67.15 1.28.17.6.35 1 .53 1.18.14.13.3.17.46.13a.45.45 0 00.34-.34c.06-.24 0-.66-.16-1.28-.17-.6-.35-1-.53-1.17a.47.47 0 00-.46-.13zM42.46 155.67a.44.44 0 00-.33.33c-.07.24-.02.67.15 1.28.17.6.35 1 .53 1.17.14.13.3.18.46.14a.44.44 0 00.33-.34c.06-.24.01-.66-.16-1.27a2.9 2.9 0 00-.52-1.19.47.47 0 00-.46-.12zM59.5 151.11l2.27-.59-2.11-3.18-.17 3.77zM84.78 142.2c.07-.21.06-.46-.02-.74a1.28 1.28 0 00-.44-.7c-.2-.16-.45-.23-.74-.21-.14.01-.55.1-1.24.28l-1.31.34.66 2.39 1.25-.33c.8-.2 1.3-.38 1.48-.5.18-.13.3-.3.36-.52zM30.56 154.3a.77.77 0 00-1.04.26c-.11.18-.16.46-.14.84.02.5.18 1.29.48 2.39s.57 1.84.78 2.23c.22.39.42.63.6.73a.78.78 0 001.04-.28c.11-.17.16-.45.14-.83-.01-.5-.18-1.29-.48-2.39a12 12 0 00-.78-2.23c-.21-.38-.41-.63-.6-.73z"/></g><mask id="b" width="109" height="97" x="7" y="205" mask-type="alpha" maskUnits="userSpaceOnUse"><path fill="#C4C4C4" d="M7 205h108.82v96.86H7z"/></mask><g mask="url(#b)"><path fill="#F26522" d="M49.75 208.07l4.51 3.43 3.11-4.78 3.88 4.09 3.84-4.27 3.16 4.64 4.47-3.65 2.36 5.07 5-2.94 1.5 5.38 5.39-2.15.61 5.56 5.66-1.32-.3 5.6 5.79-.45-1.2 5.5 5.77.43-2.07 5.27 5.61 1.3-2.89 4.9 5.32 2.13-3.64 4.43 4.89 2.91-4.3 3.84 4.34 3.63-4.85 3.14 3.7 4.25-5.3 2.38 2.95 4.78-5.6 1.55 2.13 5.17-5.76.7 1.26 5.45-5.78-.19.36 5.59-5.67-1.06-.55 5.59-5.41-1.9-1.45 5.45-5.02-2.7-2.3 5.17-4.51-3.43-3.11 4.78-3.89-4.09-3.83 4.27-3.16-4.64-4.47 3.65-2.37-5.07-4.98 2.94-1.51-5.39-5.39 2.16-.62-5.56-5.65 1.32.3-5.6-5.79.45 1.2-5.5-5.77-.43 2.07-5.27-5.61-1.3 2.88-4.9-5.31-2.14 3.64-4.42-4.9-2.92 4.3-3.83-4.34-3.63 4.86-3.14-3.7-4.25 5.3-2.39-2.95-4.77 5.6-1.55-2.13-5.18 5.76-.7-1.26-5.44 5.78.18-.36-5.58 5.67 1.05.55-5.58 5.41 1.9 1.45-5.45 5.02 2.7 2.3-5.17z"/><path fill="#fff" d="M89.57 282.5a39.92 39.92 0 10-56.45-56.46 39.92 39.92 0 0056.45 56.47z"/><path fill="#F26522" d="M88.07 281a37.8 37.8 0 10-53.45-53.45A37.8 37.8 0 0088.07 281z"/><path fill="#F26522" d="M61.32 292.32a38.15 38.15 0 01-31.6-16.9 37.94 37.94 0 01-5.22-11.72 37.8 37.8 0 014.12-28.82 37.9 37.9 0 0123.3-17.45 37.75 37.75 0 0121.74.86 38.15 38.15 0 0119.31 14.84 37.94 37.94 0 015.22 11.72 37.8 37.8 0 01-4.13 28.82 37.9 37.9 0 01-23.3 17.45c-3.1.8-6.27 1.2-9.44 1.2zm.05-75.61c-3.13 0-6.27.4-9.33 1.18a37.31 37.31 0 00-23 17.24 37.31 37.31 0 00-4.08 28.45 37.53 37.53 0 0036.36 28.26c3.13 0 6.27-.4 9.33-1.18a37.3 37.3 0 0023-17.24 37.3 37.3 0 004.08-28.45 37.52 37.52 0 00-36.36-28.26z"/><path fill="#fff" d="M30.28 240.88v.02l.02.98-.82-.16-.03-1.37.37-.82 4.27 1.87-.42.97-3.39-1.49zM34.44 235.97c1.23.74 1.78 1.76 1.17 2.77-.62 1.04-1.82.93-2.96.26-1.16-.7-1.78-1.74-1.16-2.77.64-1.07 1.85-.92 2.95-.26zm-1.23 2.1c.92.55 1.5.59 1.7.23.22-.37-.11-.84-1.02-1.39-.89-.53-1.47-.62-1.7-.24-.2.34.09.83 1.02 1.4zM36.98 232.7c1.13.9 1.55 1.97.8 2.9-.74.95-1.92.7-2.96-.13-1.07-.84-1.55-1.94-.8-2.89.78-.98 1.96-.67 2.96.12zm-1.48 1.92c.84.66 1.4.78 1.66.45s-.01-.84-.85-1.5c-.81-.64-1.38-.81-1.65-.47-.24.31-.02.84.84 1.52zM38.56 229.7c.66.73.55 1.53.05 1.98-.53.48-1.3.46-1.9-.2-.55-.6-.6-1.42 0-1.96.59-.54 1.32-.4 1.85.19zm-1.26 1.23c.33.36.7.51.93.3.22-.21.12-.55-.23-.94-.32-.35-.66-.54-.92-.3-.24.21-.1.59.22.94zm2.66 2.16l-1.25-5.38.43-.39 1.25 5.38-.43.4zm2.4-4.2c.65.71.54 1.51.04 1.97-.52.47-1.3.45-1.88-.2-.56-.62-.61-1.43-.02-1.96.6-.54 1.32-.4 1.86.19zm-1.26 1.2c.32.37.69.52.92.31.22-.2.12-.54-.23-.93-.32-.35-.66-.54-.9-.31-.25.22-.1.59.21.94zM48.32 226.77c-.24.26-.72.71-1.28 1.02-.77.44-1.43.55-2.03.4a2.43 2.43 0 01-1.46-1.21c-.78-1.4-.2-2.78 1.18-3.56.55-.3 1.03-.43 1.29-.45l.23.88c-.3.02-.62.1-1.08.37-.8.44-1.16 1.23-.64 2.15.49.88 1.32 1.08 2.1.64.22-.12.38-.24.44-.32l-.5-.89-.65.37-.42-.75 1.58-.88 1.24 2.23zM48.4 221.76l.96 2.62c.3.78.74 1.07 1.26.88.54-.2.7-.68.4-1.5l-.95-2.6 1.02-.38.94 2.55c.51 1.4.05 2.33-1.14 2.77-1.15.42-2.05.02-2.58-1.42l-.93-2.54 1.03-.38zM54.16 223.74l-.1 1.28-1.1.23.47-5.04 1.4-.3 2.46 4.45-1.16.24-.62-1.14-1.35.28zm1.03-1.06l-.5-.94-.43-.87h-.01c-.01.3-.01.68-.03.97l-.07 1.06 1.04-.22zM57.48 219.56c.35-.08.86-.15 1.45-.19.72-.04 1.23.04 1.59.3.3.2.49.54.51.98.04.61-.37 1.06-.78 1.24v.02c.35.12.55.42.7.86.18.54.36 1.16.47 1.35l-1.12.06a6.43 6.43 0 01-.4-1.1c-.17-.6-.39-.75-.84-.73l-.32.02.11 1.9-1.08.06-.29-4.77zm1.21 2.02l.43-.03c.55-.03.85-.32.83-.75-.03-.43-.34-.64-.85-.61-.26.01-.41.03-.49.06l.08 1.33zM63.15 222.99l-.45 1.2-1.12-.09 1.88-4.7 1.43.12 1.09 4.96-1.18-.1-.27-1.27-1.38-.12zm1.3-.71l-.22-1.05-.16-.95h-.02l-.3.9-.37 1 1.07.1zM66.43 224.57l1.16-4.7 1.24.3.56 1.96c.15.57.28 1.22.37 1.8h.01c.1-.63.23-1.27.4-1.98l.34-1.37.97.24-1.15 4.7-1.12-.27-.56-2.06c-.15-.57-.32-1.26-.4-1.86h-.03c-.12.63-.27 1.3-.46 2.06l-.35 1.42-.98-.24zM73.4 222.51l-1.2-.49.34-.85 3.45 1.4-.35.85-1.22-.5-1.47 3.64-1.01-.4 1.47-3.65zM78.07 226.88l-1.55-.87-.56 1 1.73.98-.43.78-2.7-1.5 2.37-4.23 2.6 1.46-.44.78-1.65-.92-.49.88 1.56.87-.44.77zM81.29 229.17l-1.44-1.06-.68.93 1.6 1.18-.52.72-2.49-1.83 2.87-3.9 2.4 1.77-.53.72-1.52-1.12-.6.81 1.44 1.06-.53.72zM88.71 266.15l1.19-3.24.86.3-.38 1.04 2.6.95.37-1.03.8.29c-.05.15-.1.3-.13.46-.04.16-.05.29-.04.4.01.12.06.23.12.32.07.09.17.16.3.22l-.4 1.07-4.06-1.48-.37 1.01-.86-.31zM88.88 271.44c-.4-.22-.73-.44-1-.67a2.3 2.3 0 01-.57-.7 1.5 1.5 0 01-.16-.8c.02-.28.12-.58.3-.9.17-.33.37-.57.6-.74.22-.17.47-.27.75-.3.28-.03.58 0 .91.1.33.1.7.25 1.09.46.4.23.73.45.99.67.25.21.44.45.57.71.13.26.18.52.15.8-.02.29-.12.58-.28.9-.18.32-.39.57-.61.74-.22.16-.48.26-.76.29-.28.03-.58 0-.91-.1-.33-.1-.69-.25-1.07-.46zm.62-1.16c.57.3 1 .48 1.28.51.28.03.48-.06.6-.29.12-.22.09-.44-.1-.66a4 4 0 00-1.12-.79 4 4 0 00-1.26-.5c-.29-.04-.49.06-.6.28-.13.22-.1.44.09.66.18.22.55.48 1.11.8zM86.04 275.3a5.68 5.68 0 01-.88-.8 2.3 2.3 0 01-.47-.8 1.5 1.5 0 01-.04-.8c.06-.27.2-.56.42-.85.23-.3.46-.5.7-.64.25-.14.52-.2.8-.19.28.01.57.1.88.24.31.14.65.35 1 .62.38.28.67.54.9.8.21.25.36.51.45.79.09.27.1.54.04.82-.07.27-.2.55-.42.83-.23.3-.46.52-.71.65-.25.13-.51.19-.8.17a2.31 2.31 0 01-.88-.23 5.65 5.65 0 01-1-.61zm.79-1.05a4 4 0 001.18.69c.27.07.49 0 .64-.2.15-.2.15-.42 0-.66a4 4 0 00-.99-.95c-.5-.39-.9-.62-1.17-.69-.28-.07-.5-.01-.64.19-.16.2-.16.42 0 .67.14.25.47.56.98.95zM78.93 280.53c-.38-.43-.56-.84-.55-1.23 0-.38.2-.73.57-1.06.38-.33.76-.47 1.14-.43.38.05.75.28 1.13.72.38.43.56.84.54 1.22 0 .39-.2.74-.58 1.07-.38.33-.76.47-1.13.42-.38-.05-.75-.28-1.12-.7zm.75-.66l.28.29a1 1 0 00.26.18.4.4 0 00.24.04.5.5 0 00.23-.13.48.48 0 00.16-.22.44.44 0 000-.24.97.97 0 00-.15-.28 4 4 0 00-.53-.62.9.9 0 00-.25-.17c-.08-.04-.16-.05-.24-.04a.5.5 0 00-.24.13.48.48 0 00-.16.21.42.42 0 000 .25 3.24 3.24 0 00.4.6zm3.21 2.02l-1.36-5.74.7-.61 1.36 5.74-.7.6zm1-2.99c-.37-.43-.56-.84-.55-1.22.01-.39.2-.74.57-1.06.38-.33.76-.48 1.14-.43.38.04.76.28 1.13.71.38.43.56.84.55 1.23-.01.38-.2.74-.58 1.06-.38.33-.76.47-1.14.43-.37-.05-.74-.29-1.11-.72zm.76-.66l.27.3a1 1 0 00.26.17.4.4 0 00.24.04.5.5 0 00.24-.13.49.49 0 00.16-.21.44.44 0 00-.01-.25.97.97 0 00-.15-.28 3.7 3.7 0 00-.52-.62.93.93 0 00-.26-.17.4.4 0 00-.24-.04.5.5 0 00-.24.13.48.48 0 00-.15.21.42.42 0 000 .25c.03.08.07.17.14.27.06.1.15.2.26.33zM71.92 282.42c.26-.25.77-.66 1.35-.93.8-.37 1.48-.43 2.06-.23.58.2 1.06.68 1.36 1.32.66 1.47-.02 2.8-1.46 3.46-.57.26-1.06.35-1.32.35l-.16-.9c.3 0 .62-.06 1.1-.28.84-.38 1.26-1.14.82-2.1-.42-.91-1.24-1.18-2.06-.8-.22.1-.39.21-.45.28l.42.93.68-.32.36.78-1.64.75-1.06-2.31zM71.44 287.4l-.75-2.68c-.23-.81-.65-1.14-1.19-.99-.55.16-.75.63-.51 1.46l.74 2.68-1.05.3-.73-2.62c-.4-1.44.14-2.33 1.35-2.67 1.18-.33 2.05.14 2.46 1.62l.73 2.6-1.05.3zM65.86 284.98l.19-1.28 1.12-.14-.86 4.99-1.43.18-2.1-4.62 1.18-.15.52 1.19 1.38-.17zm-1.12.96l.43.98.36.9h.01l.1-.96.17-1.05-1.07.13zM62.22 288.87c-.36.05-.88.09-1.46.08-.72-.02-1.22-.13-1.56-.41a1.23 1.23 0 01-.44-1.03c.01-.62.46-1.03.88-1.17v-.02c-.34-.15-.52-.47-.63-.92-.14-.55-.27-1.19-.36-1.38l1.12.03c.07.14.18.53.3 1.13.13.61.34.77.8.8h.32l.03-1.9 1.09.01-.1 4.78zm-1.05-2.1l-.43-.01c-.55-.01-.88.26-.88.68-.01.44.29.67.79.68.26 0 .42 0 .5-.02l.02-1.33zM56.83 285.01l.55-1.17 1.11.19-2.24 4.53-1.42-.23-.7-5.03 1.17.2.17 1.28 1.36.23zm-1.34.6l.13 1.07c.04.3.06.67.09.96h.01l.37-.88.45-.96-1.05-.18zM53.69 283.18l-1.53 4.6-1.21-.4-.4-2c-.11-.58-.19-1.24-.23-1.83h-.01c-.14.62-.33 1.25-.56 1.95l-.44 1.33-.95-.31 1.52-4.6 1.1.36.39 2.1c.1.58.22 1.28.26 1.89h.02c.17-.62.37-1.27.62-2.02l.46-1.39.96.32zM46.57 284.68l1.18.58-.42.82-3.33-1.66.41-.82 1.19.59 1.75-3.51.98.49-1.76 3.5zM42.27 279.94l1.48 1 .64-.96-1.65-1.1.5-.75 2.56 1.71-2.7 4.03-2.47-1.66.5-.75 1.57 1.06.56-.84-1.48-1 .49-.74zM39.24 277.42l1.35 1.16.75-.87-1.5-1.3.58-.68 2.34 2.02-3.17 3.66-2.26-1.95.6-.68 1.42 1.24.66-.76-1.35-1.17.58-.67zM79.7 272.48a26.02 26.02 0 10-36.8-36.8 26.02 26.02 0 0036.8 36.8z"/><path fill="#fff" d="M61.27 281.86a27.58 27.58 0 01-16.88-5.74 27.68 27.68 0 01-10.57-26.16 27.66 27.66 0 013.58-10.03 27.67 27.67 0 0123.9-13.62 27.58 27.58 0 0116.89 5.75 27.65 27.65 0 0110 15.15 27.6 27.6 0 01-3.02 21.03 27.66 27.66 0 01-17 12.75c-2.27.57-4.59.87-6.9.87zm.04-55.07a27.32 27.32 0 00-26.46 34.05 27.26 27.26 0 0026.42 20.54 27.32 27.32 0 0026.45-34.05 27.26 27.26 0 00-26.41-20.54z"/><path fill="#F26522" d="M55.37 230.04l1.9 2.22 2.9-.3-1.51 2.49 1.19 2.67-2.85-.68-2.17 1.96-.23-2.91-2.54-1.46 2.7-1.13.6-2.86zM62.64 231.24l1.18 1.37 1.79-.19-.94 1.54.74 1.65-1.76-.42-1.34 1.2-.14-1.79-1.57-.9 1.67-.7.37-1.76zM48.92 234.58l1.17 1.37 1.8-.2-.94 1.55.73 1.64-1.75-.41-1.34 1.2-.15-1.8-1.56-.9 1.67-.69.37-1.76zM66.22 269.2l1.9 2.23 2.91-.31-1.52 2.5 1.2 2.67-2.85-.68-2.17 1.96-.24-2.91-2.54-1.46 2.7-1.13.61-2.86zM73.5 270.41l1.17 1.37 1.8-.2-.94 1.55.73 1.65-1.75-.42-1.34 1.2-.15-1.8-1.56-.9 1.66-.68.38-1.77zM59.77 273.75l1.18 1.37 1.8-.2-.95 1.54.74 1.65-1.76-.42-1.34 1.21-.14-1.8-1.56-.9 1.66-.69.37-1.76zM13.56 250.53c-4.13 5.54-5.86 11.33-4.49 16.7 1.38 5.38 5.68 9.62 11.96 12.5l88.22-22.56c4.13-5.55 5.87-11.33 4.5-16.7-1.38-5.38-5.68-9.62-11.97-12.5l-88.22 22.56z"/><path fill="#F26522" d="M21 280.05l-.1-.05c-6.57-3.01-10.77-7.4-12.12-12.7-1.35-5.28.22-11.14 4.54-16.95l.07-.09.1-.02 88.32-22.59.1.04c6.58 3.02 10.77 7.41 12.12 12.7 1.36 5.29-.22 11.15-4.54 16.96l-.06.08-.1.03L21 280.05zm-7.26-29.26c-4.16 5.63-5.68 11.29-4.38 16.37 1.3 5.08 5.35 9.32 11.7 12.26l88.01-22.51c4.17-5.63 5.68-11.29 4.39-16.37-1.3-5.08-5.35-9.32-11.7-12.26L13.73 250.8z"/><path fill="#fff" d="M22.48 277.49l-.1-.04c-6.18-2.48-10.07-6.2-11.24-10.79-1.17-4.58.45-9.71 4.68-14.86l.07-.08.1-.02 84.2-21.54.1.04c6.18 2.48 10.06 6.21 11.24 10.79 1.17 4.58-.45 9.72-4.69 14.86l-.06.08-.1.02-84.2 21.54zm-6.25-25.23c-4.07 4.96-5.62 9.9-4.5 14.25 1.1 4.37 4.84 7.94 10.79 10.35l83.92-21.46c4.06-4.97 5.62-9.9 4.5-14.26-1.11-4.36-4.84-7.94-10.8-10.35l-83.91 21.47z"/><path fill="#fff" d="M23.83 270.2c-.62.16-1.19.2-1.7.12a6.66 6.66 0 01-1.5-.4l-.82-3.2.19-.05c.55.47 1.1.8 1.68.98.56.18 1.07.21 1.53.1.12-.04.27-.1.45-.19a1.17 1.17 0 00.65-.83c.05-.21.04-.47-.04-.77a1.37 1.37 0 00-1.13-1.07c-.3-.05-.63-.1-.97-.12a5.3 5.3 0 01-.98-.17c-.72-.2-1.3-.59-1.72-1.14a6.01 6.01 0 01-1-2.22 4.8 4.8 0 01.17-3.3 3.08 3.08 0 012.1-1.79 4.85 4.85 0 012.94.2l.79 3.08-.18.05a4.4 4.4 0 00-1.38-.8 2.4 2.4 0 00-1.44-.1c-.18.04-.33.1-.46.18-.13.08-.26.2-.38.36-.1.13-.18.3-.22.5-.05.22-.04.45.02.68.09.34.23.6.43.76.2.17.53.27.99.33l.86.1c.27.03.58.1.9.19.65.2 1.18.54 1.6 1.04.42.5.75 1.21.99 2.14.34 1.34.3 2.5-.12 3.47a3.16 3.16 0 01-2.25 1.87zM27.44 269.02l-.71-14.14 2.21-.56 6.17 12.74-2.1.53-1.2-2.61-2.53.64.2 2.88-2.04.52zm3.3-6.37l-1.95-4.22.3 4.64 1.66-.42zM37.46 266.45l-2.78-10.87-2.39.61-.65-2.56 6.8-1.74.65 2.56-2.38.61 2.78 10.88-2.03.51zM46.73 264.08l-4.35 1.12-.6-2.35 1.16-.3-2.23-8.74-1.16.3-.6-2.35 4.35-1.11.6 2.34-1.16.3 2.23 8.75 1.16-.3.6 2.34zM50.63 263.35a4.3 4.3 0 01-1.7.11 6.71 6.71 0 01-1.5-.4l-.81-3.2.18-.04c.55.46 1.11.79 1.68.97.57.18 1.08.21 1.54.1.11-.03.26-.1.44-.18a1.17 1.17 0 00.66-.84c.05-.2.03-.46-.04-.76a1.37 1.37 0 00-1.14-1.08c-.3-.05-.63-.08-.97-.11a5.14 5.14 0 01-.98-.18c-.71-.2-1.29-.58-1.72-1.13a6.01 6.01 0 01-1-2.23 4.8 4.8 0 01.18-3.3 3.08 3.08 0 012.1-1.78 4.84 4.84 0 012.94.2l.78 3.08-.18.04a4.4 4.4 0 00-1.37-.8c-.5-.18-1-.22-1.45-.1a1.44 1.44 0 00-.84.54c-.1.13-.17.3-.22.52-.04.2-.03.43.03.67.08.34.23.6.42.76.2.16.53.27 1 .33l.85.1c.28.03.58.09.9.19.66.19 1.19.53 1.6 1.03.42.5.75 1.22 1 2.15.33 1.34.3 2.49-.13 3.46a3.16 3.16 0 01-2.25 1.88zM57.74 249.68l-3.4.87.66 2.54 3.11-.8.66 2.56-3.12.8 1.48 5.78-2.02.51-3.44-13.44 5.41-1.38.66 2.56zM60.7 260.51l-.71-14.13 2.21-.57 6.16 12.74-2.08.54-1.2-2.62-2.55.65.2 2.87-2.03.52zm3.3-6.36l-1.95-4.22.3 4.64 1.65-.42zM72.72 257.72c-1.22.3-2.33-.06-3.36-1.1-1.02-1.03-1.81-2.65-2.38-4.86-.54-2.13-.62-3.92-.23-5.37.39-1.45 1.19-2.33 2.4-2.63a3.98 3.98 0 011.7-.07c.2.04.43.11.69.21.26.1.47.2.63.27l.82 3.2-.2.06-.5-.42c-.2-.17-.43-.32-.66-.47a3.2 3.2 0 00-.75-.33 1.4 1.4 0 00-.76-.02c-.3.07-.54.22-.75.44-.2.21-.37.54-.49.97-.11.4-.16.9-.14 1.52.02.62.13 1.32.34 2.11.21.84.46 1.53.74 2.06.28.53.57.95.87 1.24.3.28.6.47.9.55a1.48 1.48 0 001.54-.39c.2-.2.36-.42.48-.64.13-.24.24-.47.33-.7l.23-.6.18-.05.8 3.16-.4.52a3.92 3.92 0 01-2.03 1.34zM78.13 256.05l-2.78-10.87-2.39.61-.65-2.56 6.8-1.74.65 2.56-2.38.61 2.78 10.88-2.03.51zM87.4 253.68l-4.35 1.11-.6-2.34 1.17-.3-2.24-8.74-1.16.3-.6-2.35 4.35-1.12.6 2.35-1.16.3 2.23 8.74 1.16-.3.6 2.35zM94.38 244.74c.56 2.18.65 3.97.27 5.4-.38 1.42-1.18 2.29-2.4 2.6-1.21.31-2.33-.08-3.34-1.16-1.02-1.08-1.8-2.7-2.35-4.84-.55-2.16-.64-3.95-.27-5.38.37-1.44 1.17-2.3 2.39-2.62 1.21-.3 2.33.07 3.35 1.14 1.01 1.07 1.8 2.7 2.35 4.86zm-2.1.53c-.2-.8-.42-1.47-.66-2a5.9 5.9 0 00-.76-1.29 2.08 2.08 0 00-.79-.64 1.17 1.17 0 00-1.36.33c-.16.2-.3.51-.38.94-.08.4-.1.89-.05 1.5.04.6.17 1.3.37 2.1.21.82.44 1.5.67 2.01.24.53.5.95.75 1.27.27.33.54.54.8.65.26.1.5.12.74.06s.45-.2.63-.43c.18-.23.3-.55.38-.95.07-.44.09-.93.05-1.47-.04-.54-.17-1.24-.38-2.08zM104.22 249.38l-1.95.5-5.51-8.57 2.4 9.37-1.86.47-3.44-13.44 2.5-.63 4.54 7.04-1.97-7.7 1.85-.47 3.44 13.43z"/></g></svg>